G04 #@! TF.GenerationSoftware,KiCad,Pcbnew,5.1.0-060a0da~80~ubuntu18.10.1*
G04 #@! TF.CreationDate,2019-03-25T12:08:20+01:00*
G04 #@! TF.ProjectId,project-embeddedSystemDesign2,70726f6a-6563-4742-9d65-6d6265646465,rev?*
G04 #@! TF.SameCoordinates,Original*
G04 #@! TF.FileFunction,Soldermask,Bot*
G04 #@! TF.FilePolarity,Negative*
%FSLAX46Y46*%
G04 Gerber Fmt 4.6, Leading zero omitted, Abs format (unit mm)*
G04 Created by KiCad (PCBNEW 5.1.0-060a0da~80~ubuntu18.10.1) date 2019-03-25 12:08:20*
%MOMM*%
%LPD*%
G04 APERTURE LIST*
%ADD10C,0.100000*%
G04 APERTURE END LIST*
D10*
G36*
X152702585Y-98808802D02*
G01*
X152852410Y-98838604D01*
X153134674Y-98955521D01*
X153388705Y-99125259D01*
X153604741Y-99341295D01*
X153774479Y-99595326D01*
X153891396Y-99877590D01*
X153951000Y-100177240D01*
X153951000Y-100482760D01*
X153891396Y-100782410D01*
X153774479Y-101064674D01*
X153604741Y-101318705D01*
X153388705Y-101534741D01*
X153134674Y-101704479D01*
X152852410Y-101821396D01*
X152702585Y-101851198D01*
X152552761Y-101881000D01*
X152247239Y-101881000D01*
X152097415Y-101851198D01*
X151947590Y-101821396D01*
X151665326Y-101704479D01*
X151411295Y-101534741D01*
X151195259Y-101318705D01*
X151025521Y-101064674D01*
X150908604Y-100782410D01*
X150849000Y-100482760D01*
X150849000Y-100177240D01*
X150908604Y-99877590D01*
X151025521Y-99595326D01*
X151195259Y-99341295D01*
X151411295Y-99125259D01*
X151665326Y-98955521D01*
X151947590Y-98838604D01*
X152097415Y-98808802D01*
X152247239Y-98779000D01*
X152552761Y-98779000D01*
X152702585Y-98808802D01*
X152702585Y-98808802D01*
G37*
G36*
X101902585Y-98808802D02*
G01*
X102052410Y-98838604D01*
X102334674Y-98955521D01*
X102588705Y-99125259D01*
X102804741Y-99341295D01*
X102974479Y-99595326D01*
X103091396Y-99877590D01*
X103151000Y-100177240D01*
X103151000Y-100482760D01*
X103091396Y-100782410D01*
X102974479Y-101064674D01*
X102804741Y-101318705D01*
X102588705Y-101534741D01*
X102334674Y-101704479D01*
X102052410Y-101821396D01*
X101902585Y-101851198D01*
X101752761Y-101881000D01*
X101447239Y-101881000D01*
X101297415Y-101851198D01*
X101147590Y-101821396D01*
X100865326Y-101704479D01*
X100611295Y-101534741D01*
X100395259Y-101318705D01*
X100225521Y-101064674D01*
X100108604Y-100782410D01*
X100049000Y-100482760D01*
X100049000Y-100177240D01*
X100108604Y-99877590D01*
X100225521Y-99595326D01*
X100395259Y-99341295D01*
X100611295Y-99125259D01*
X100865326Y-98955521D01*
X101147590Y-98838604D01*
X101297415Y-98808802D01*
X101447239Y-98779000D01*
X101752761Y-98779000D01*
X101902585Y-98808802D01*
X101902585Y-98808802D01*
G37*
G36*
X117143765Y-99455620D02*
G01*
X117301829Y-99521092D01*
X117333288Y-99534123D01*
X117503854Y-99648092D01*
X117648908Y-99793146D01*
X117762877Y-99963712D01*
X117762878Y-99963714D01*
X117841380Y-100153235D01*
X117881400Y-100354430D01*
X117881400Y-100559570D01*
X117841380Y-100760765D01*
X117797437Y-100866854D01*
X117762877Y-100950288D01*
X117648908Y-101120854D01*
X117503854Y-101265908D01*
X117333288Y-101379877D01*
X117333287Y-101379878D01*
X117333286Y-101379878D01*
X117143765Y-101458380D01*
X116942570Y-101498400D01*
X116737430Y-101498400D01*
X116536235Y-101458380D01*
X116346714Y-101379878D01*
X116346713Y-101379878D01*
X116346712Y-101379877D01*
X116176146Y-101265908D01*
X116031092Y-101120854D01*
X115917123Y-100950288D01*
X115882564Y-100866854D01*
X115838620Y-100760765D01*
X115798600Y-100559570D01*
X115798600Y-100354430D01*
X115838620Y-100153235D01*
X115917122Y-99963714D01*
X115917123Y-99963712D01*
X116031092Y-99793146D01*
X116176146Y-99648092D01*
X116346712Y-99534123D01*
X116378172Y-99521092D01*
X116536235Y-99455620D01*
X116737430Y-99415600D01*
X116942570Y-99415600D01*
X117143765Y-99455620D01*
X117143765Y-99455620D01*
G37*
G36*
X109701565Y-99328620D02*
G01*
X109859629Y-99394092D01*
X109891088Y-99407123D01*
X110061654Y-99521092D01*
X110206708Y-99666146D01*
X110206709Y-99666148D01*
X110320678Y-99836714D01*
X110399180Y-100026235D01*
X110439200Y-100227430D01*
X110439200Y-100432570D01*
X110429216Y-100482761D01*
X110399180Y-100633765D01*
X110320677Y-100823288D01*
X110206708Y-100993854D01*
X110061654Y-101138908D01*
X109891088Y-101252877D01*
X109891087Y-101252878D01*
X109891086Y-101252878D01*
X109701565Y-101331380D01*
X109500370Y-101371400D01*
X109295230Y-101371400D01*
X109094035Y-101331380D01*
X108904514Y-101252878D01*
X108904513Y-101252878D01*
X108904512Y-101252877D01*
X108733946Y-101138908D01*
X108588892Y-100993854D01*
X108474923Y-100823288D01*
X108396420Y-100633765D01*
X108366384Y-100482761D01*
X108356400Y-100432570D01*
X108356400Y-100227430D01*
X108396420Y-100026235D01*
X108474922Y-99836714D01*
X108588891Y-99666148D01*
X108588892Y-99666146D01*
X108733946Y-99521092D01*
X108904512Y-99407123D01*
X108935972Y-99394092D01*
X109094035Y-99328620D01*
X109295230Y-99288600D01*
X109500370Y-99288600D01*
X109701565Y-99328620D01*
X109701565Y-99328620D01*
G37*
G36*
X107543600Y-101371400D02*
G01*
X105460800Y-101371400D01*
X105460800Y-99288600D01*
X107543600Y-99288600D01*
X107543600Y-101371400D01*
X107543600Y-101371400D01*
G37*
G36*
X115341400Y-101244400D02*
G01*
X113258600Y-101244400D01*
X113258600Y-99161600D01*
X115341400Y-99161600D01*
X115341400Y-101244400D01*
X115341400Y-101244400D01*
G37*
G36*
X119683765Y-99201620D02*
G01*
X119873288Y-99280123D01*
X120043854Y-99394092D01*
X120188908Y-99539146D01*
X120273767Y-99666146D01*
X120302878Y-99709714D01*
X120337437Y-99793148D01*
X120381380Y-99899235D01*
X120421400Y-100100431D01*
X120421400Y-100305569D01*
X120381380Y-100506765D01*
X120302877Y-100696288D01*
X120188908Y-100866854D01*
X120043854Y-101011908D01*
X119873288Y-101125877D01*
X119873287Y-101125878D01*
X119873286Y-101125878D01*
X119683765Y-101204380D01*
X119482570Y-101244400D01*
X119277430Y-101244400D01*
X119076235Y-101204380D01*
X118886714Y-101125878D01*
X118886713Y-101125878D01*
X118886712Y-101125877D01*
X118716146Y-101011908D01*
X118571092Y-100866854D01*
X118457123Y-100696288D01*
X118378620Y-100506765D01*
X118338600Y-100305569D01*
X118338600Y-100100431D01*
X118378620Y-99899235D01*
X118422563Y-99793148D01*
X118457122Y-99709714D01*
X118486233Y-99666146D01*
X118571092Y-99539146D01*
X118716146Y-99394092D01*
X118886712Y-99280123D01*
X119076235Y-99201620D01*
X119277430Y-99161600D01*
X119482570Y-99161600D01*
X119683765Y-99201620D01*
X119683765Y-99201620D01*
G37*
G36*
X102980443Y-93085519D02*
G01*
X103046627Y-93092037D01*
X103216466Y-93143557D01*
X103372991Y-93227222D01*
X103408729Y-93256552D01*
X103510186Y-93339814D01*
X103593448Y-93441271D01*
X103622778Y-93477009D01*
X103706443Y-93633534D01*
X103757963Y-93803373D01*
X103775359Y-93980000D01*
X103757963Y-94156627D01*
X103706443Y-94326466D01*
X103622778Y-94482991D01*
X103593448Y-94518729D01*
X103510186Y-94620186D01*
X103408729Y-94703448D01*
X103372991Y-94732778D01*
X103216466Y-94816443D01*
X103046627Y-94867963D01*
X102980443Y-94874481D01*
X102914260Y-94881000D01*
X102825740Y-94881000D01*
X102759557Y-94874481D01*
X102693373Y-94867963D01*
X102523534Y-94816443D01*
X102367009Y-94732778D01*
X102331271Y-94703448D01*
X102229814Y-94620186D01*
X102146552Y-94518729D01*
X102117222Y-94482991D01*
X102033557Y-94326466D01*
X101982037Y-94156627D01*
X101964641Y-93980000D01*
X101982037Y-93803373D01*
X102033557Y-93633534D01*
X102117222Y-93477009D01*
X102146552Y-93441271D01*
X102229814Y-93339814D01*
X102331271Y-93256552D01*
X102367009Y-93227222D01*
X102523534Y-93143557D01*
X102693373Y-93092037D01*
X102759557Y-93085519D01*
X102825740Y-93079000D01*
X102914260Y-93079000D01*
X102980443Y-93085519D01*
X102980443Y-93085519D01*
G37*
G36*
X151240443Y-93085519D02*
G01*
X151306627Y-93092037D01*
X151476466Y-93143557D01*
X151632991Y-93227222D01*
X151668729Y-93256552D01*
X151770186Y-93339814D01*
X151853448Y-93441271D01*
X151882778Y-93477009D01*
X151966443Y-93633534D01*
X152017963Y-93803373D01*
X152035359Y-93980000D01*
X152017963Y-94156627D01*
X151966443Y-94326466D01*
X151882778Y-94482991D01*
X151853448Y-94518729D01*
X151770186Y-94620186D01*
X151668729Y-94703448D01*
X151632991Y-94732778D01*
X151476466Y-94816443D01*
X151306627Y-94867963D01*
X151240443Y-94874481D01*
X151174260Y-94881000D01*
X151085740Y-94881000D01*
X151019557Y-94874481D01*
X150953373Y-94867963D01*
X150783534Y-94816443D01*
X150627009Y-94732778D01*
X150591271Y-94703448D01*
X150489814Y-94620186D01*
X150406552Y-94518729D01*
X150377222Y-94482991D01*
X150293557Y-94326466D01*
X150242037Y-94156627D01*
X150224641Y-93980000D01*
X150242037Y-93803373D01*
X150293557Y-93633534D01*
X150377222Y-93477009D01*
X150406552Y-93441271D01*
X150489814Y-93339814D01*
X150591271Y-93256552D01*
X150627009Y-93227222D01*
X150783534Y-93143557D01*
X150953373Y-93092037D01*
X151019557Y-93085519D01*
X151085740Y-93079000D01*
X151174260Y-93079000D01*
X151240443Y-93085519D01*
X151240443Y-93085519D01*
G37*
G36*
X153780443Y-93085519D02*
G01*
X153846627Y-93092037D01*
X154016466Y-93143557D01*
X154172991Y-93227222D01*
X154208729Y-93256552D01*
X154310186Y-93339814D01*
X154393448Y-93441271D01*
X154422778Y-93477009D01*
X154506443Y-93633534D01*
X154557963Y-93803373D01*
X154575359Y-93980000D01*
X154557963Y-94156627D01*
X154506443Y-94326466D01*
X154422778Y-94482991D01*
X154393448Y-94518729D01*
X154310186Y-94620186D01*
X154208729Y-94703448D01*
X154172991Y-94732778D01*
X154016466Y-94816443D01*
X153846627Y-94867963D01*
X153780443Y-94874481D01*
X153714260Y-94881000D01*
X153625740Y-94881000D01*
X153559557Y-94874481D01*
X153493373Y-94867963D01*
X153323534Y-94816443D01*
X153167009Y-94732778D01*
X153131271Y-94703448D01*
X153029814Y-94620186D01*
X152946552Y-94518729D01*
X152917222Y-94482991D01*
X152833557Y-94326466D01*
X152782037Y-94156627D01*
X152764641Y-93980000D01*
X152782037Y-93803373D01*
X152833557Y-93633534D01*
X152917222Y-93477009D01*
X152946552Y-93441271D01*
X153029814Y-93339814D01*
X153131271Y-93256552D01*
X153167009Y-93227222D01*
X153323534Y-93143557D01*
X153493373Y-93092037D01*
X153559557Y-93085519D01*
X153625740Y-93079000D01*
X153714260Y-93079000D01*
X153780443Y-93085519D01*
X153780443Y-93085519D01*
G37*
G36*
X100440443Y-93085519D02*
G01*
X100506627Y-93092037D01*
X100676466Y-93143557D01*
X100832991Y-93227222D01*
X100868729Y-93256552D01*
X100970186Y-93339814D01*
X101053448Y-93441271D01*
X101082778Y-93477009D01*
X101166443Y-93633534D01*
X101217963Y-93803373D01*
X101235359Y-93980000D01*
X101217963Y-94156627D01*
X101166443Y-94326466D01*
X101082778Y-94482991D01*
X101053448Y-94518729D01*
X100970186Y-94620186D01*
X100868729Y-94703448D01*
X100832991Y-94732778D01*
X100676466Y-94816443D01*
X100506627Y-94867963D01*
X100440443Y-94874481D01*
X100374260Y-94881000D01*
X100285740Y-94881000D01*
X100219557Y-94874481D01*
X100153373Y-94867963D01*
X99983534Y-94816443D01*
X99827009Y-94732778D01*
X99791271Y-94703448D01*
X99689814Y-94620186D01*
X99606552Y-94518729D01*
X99577222Y-94482991D01*
X99493557Y-94326466D01*
X99442037Y-94156627D01*
X99424641Y-93980000D01*
X99442037Y-93803373D01*
X99493557Y-93633534D01*
X99577222Y-93477009D01*
X99606552Y-93441271D01*
X99689814Y-93339814D01*
X99791271Y-93256552D01*
X99827009Y-93227222D01*
X99983534Y-93143557D01*
X100153373Y-93092037D01*
X100219557Y-93085519D01*
X100285740Y-93079000D01*
X100374260Y-93079000D01*
X100440443Y-93085519D01*
X100440443Y-93085519D01*
G37*
G36*
X101231000Y-92341000D02*
G01*
X99429000Y-92341000D01*
X99429000Y-90539000D01*
X101231000Y-90539000D01*
X101231000Y-92341000D01*
X101231000Y-92341000D01*
G37*
G36*
X102980443Y-90545519D02*
G01*
X103046627Y-90552037D01*
X103216466Y-90603557D01*
X103372991Y-90687222D01*
X103408729Y-90716552D01*
X103510186Y-90799814D01*
X103593448Y-90901271D01*
X103622778Y-90937009D01*
X103706443Y-91093534D01*
X103757963Y-91263373D01*
X103775359Y-91440000D01*
X103757963Y-91616627D01*
X103706443Y-91786466D01*
X103622778Y-91942991D01*
X103593448Y-91978729D01*
X103510186Y-92080186D01*
X103408729Y-92163448D01*
X103372991Y-92192778D01*
X103216466Y-92276443D01*
X103046627Y-92327963D01*
X102980443Y-92334481D01*
X102914260Y-92341000D01*
X102825740Y-92341000D01*
X102759557Y-92334481D01*
X102693373Y-92327963D01*
X102523534Y-92276443D01*
X102367009Y-92192778D01*
X102331271Y-92163448D01*
X102229814Y-92080186D01*
X102146552Y-91978729D01*
X102117222Y-91942991D01*
X102033557Y-91786466D01*
X101982037Y-91616627D01*
X101964641Y-91440000D01*
X101982037Y-91263373D01*
X102033557Y-91093534D01*
X102117222Y-90937009D01*
X102146552Y-90901271D01*
X102229814Y-90799814D01*
X102331271Y-90716552D01*
X102367009Y-90687222D01*
X102523534Y-90603557D01*
X102693373Y-90552037D01*
X102759557Y-90545519D01*
X102825740Y-90539000D01*
X102914260Y-90539000D01*
X102980443Y-90545519D01*
X102980443Y-90545519D01*
G37*
G36*
X152031000Y-92341000D02*
G01*
X150229000Y-92341000D01*
X150229000Y-90539000D01*
X152031000Y-90539000D01*
X152031000Y-92341000D01*
X152031000Y-92341000D01*
G37*
G36*
X153780443Y-90545519D02*
G01*
X153846627Y-90552037D01*
X154016466Y-90603557D01*
X154172991Y-90687222D01*
X154208729Y-90716552D01*
X154310186Y-90799814D01*
X154393448Y-90901271D01*
X154422778Y-90937009D01*
X154506443Y-91093534D01*
X154557963Y-91263373D01*
X154575359Y-91440000D01*
X154557963Y-91616627D01*
X154506443Y-91786466D01*
X154422778Y-91942991D01*
X154393448Y-91978729D01*
X154310186Y-92080186D01*
X154208729Y-92163448D01*
X154172991Y-92192778D01*
X154016466Y-92276443D01*
X153846627Y-92327963D01*
X153780443Y-92334481D01*
X153714260Y-92341000D01*
X153625740Y-92341000D01*
X153559557Y-92334481D01*
X153493373Y-92327963D01*
X153323534Y-92276443D01*
X153167009Y-92192778D01*
X153131271Y-92163448D01*
X153029814Y-92080186D01*
X152946552Y-91978729D01*
X152917222Y-91942991D01*
X152833557Y-91786466D01*
X152782037Y-91616627D01*
X152764641Y-91440000D01*
X152782037Y-91263373D01*
X152833557Y-91093534D01*
X152917222Y-90937009D01*
X152946552Y-90901271D01*
X153029814Y-90799814D01*
X153131271Y-90716552D01*
X153167009Y-90687222D01*
X153323534Y-90603557D01*
X153493373Y-90552037D01*
X153559557Y-90545519D01*
X153625740Y-90539000D01*
X153714260Y-90539000D01*
X153780443Y-90545519D01*
X153780443Y-90545519D01*
G37*
G36*
X102980442Y-75305518D02*
G01*
X103046627Y-75312037D01*
X103216466Y-75363557D01*
X103372991Y-75447222D01*
X103408729Y-75476552D01*
X103510186Y-75559814D01*
X103593448Y-75661271D01*
X103622778Y-75697009D01*
X103706443Y-75853534D01*
X103757963Y-76023373D01*
X103775359Y-76200000D01*
X103757963Y-76376627D01*
X103706443Y-76546466D01*
X103622778Y-76702991D01*
X103593448Y-76738729D01*
X103510186Y-76840186D01*
X103408729Y-76923448D01*
X103372991Y-76952778D01*
X103216466Y-77036443D01*
X103046627Y-77087963D01*
X102980442Y-77094482D01*
X102914260Y-77101000D01*
X102825740Y-77101000D01*
X102759558Y-77094482D01*
X102693373Y-77087963D01*
X102523534Y-77036443D01*
X102367009Y-76952778D01*
X102331271Y-76923448D01*
X102229814Y-76840186D01*
X102146552Y-76738729D01*
X102117222Y-76702991D01*
X102033557Y-76546466D01*
X101982037Y-76376627D01*
X101964641Y-76200000D01*
X101982037Y-76023373D01*
X102033557Y-75853534D01*
X102117222Y-75697009D01*
X102146552Y-75661271D01*
X102229814Y-75559814D01*
X102331271Y-75476552D01*
X102367009Y-75447222D01*
X102523534Y-75363557D01*
X102693373Y-75312037D01*
X102759558Y-75305518D01*
X102825740Y-75299000D01*
X102914260Y-75299000D01*
X102980442Y-75305518D01*
X102980442Y-75305518D01*
G37*
G36*
X100440442Y-75305518D02*
G01*
X100506627Y-75312037D01*
X100676466Y-75363557D01*
X100832991Y-75447222D01*
X100868729Y-75476552D01*
X100970186Y-75559814D01*
X101053448Y-75661271D01*
X101082778Y-75697009D01*
X101166443Y-75853534D01*
X101217963Y-76023373D01*
X101235359Y-76200000D01*
X101217963Y-76376627D01*
X101166443Y-76546466D01*
X101082778Y-76702991D01*
X101053448Y-76738729D01*
X100970186Y-76840186D01*
X100868729Y-76923448D01*
X100832991Y-76952778D01*
X100676466Y-77036443D01*
X100506627Y-77087963D01*
X100440442Y-77094482D01*
X100374260Y-77101000D01*
X100285740Y-77101000D01*
X100219558Y-77094482D01*
X100153373Y-77087963D01*
X99983534Y-77036443D01*
X99827009Y-76952778D01*
X99791271Y-76923448D01*
X99689814Y-76840186D01*
X99606552Y-76738729D01*
X99577222Y-76702991D01*
X99493557Y-76546466D01*
X99442037Y-76376627D01*
X99424641Y-76200000D01*
X99442037Y-76023373D01*
X99493557Y-75853534D01*
X99577222Y-75697009D01*
X99606552Y-75661271D01*
X99689814Y-75559814D01*
X99791271Y-75476552D01*
X99827009Y-75447222D01*
X99983534Y-75363557D01*
X100153373Y-75312037D01*
X100219558Y-75305518D01*
X100285740Y-75299000D01*
X100374260Y-75299000D01*
X100440442Y-75305518D01*
X100440442Y-75305518D01*
G37*
G36*
X102980442Y-72765518D02*
G01*
X103046627Y-72772037D01*
X103216466Y-72823557D01*
X103372991Y-72907222D01*
X103408729Y-72936552D01*
X103510186Y-73019814D01*
X103593448Y-73121271D01*
X103622778Y-73157009D01*
X103706443Y-73313534D01*
X103757963Y-73483373D01*
X103775359Y-73660000D01*
X103757963Y-73836627D01*
X103706443Y-74006466D01*
X103622778Y-74162991D01*
X103593448Y-74198729D01*
X103510186Y-74300186D01*
X103408729Y-74383448D01*
X103372991Y-74412778D01*
X103216466Y-74496443D01*
X103046627Y-74547963D01*
X102980442Y-74554482D01*
X102914260Y-74561000D01*
X102825740Y-74561000D01*
X102759558Y-74554482D01*
X102693373Y-74547963D01*
X102523534Y-74496443D01*
X102367009Y-74412778D01*
X102331271Y-74383448D01*
X102229814Y-74300186D01*
X102146552Y-74198729D01*
X102117222Y-74162991D01*
X102033557Y-74006466D01*
X101982037Y-73836627D01*
X101964641Y-73660000D01*
X101982037Y-73483373D01*
X102033557Y-73313534D01*
X102117222Y-73157009D01*
X102146552Y-73121271D01*
X102229814Y-73019814D01*
X102331271Y-72936552D01*
X102367009Y-72907222D01*
X102523534Y-72823557D01*
X102693373Y-72772037D01*
X102759558Y-72765518D01*
X102825740Y-72759000D01*
X102914260Y-72759000D01*
X102980442Y-72765518D01*
X102980442Y-72765518D01*
G37*
G36*
X100440442Y-72765518D02*
G01*
X100506627Y-72772037D01*
X100676466Y-72823557D01*
X100832991Y-72907222D01*
X100868729Y-72936552D01*
X100970186Y-73019814D01*
X101053448Y-73121271D01*
X101082778Y-73157009D01*
X101166443Y-73313534D01*
X101217963Y-73483373D01*
X101235359Y-73660000D01*
X101217963Y-73836627D01*
X101166443Y-74006466D01*
X101082778Y-74162991D01*
X101053448Y-74198729D01*
X100970186Y-74300186D01*
X100868729Y-74383448D01*
X100832991Y-74412778D01*
X100676466Y-74496443D01*
X100506627Y-74547963D01*
X100440442Y-74554482D01*
X100374260Y-74561000D01*
X100285740Y-74561000D01*
X100219558Y-74554482D01*
X100153373Y-74547963D01*
X99983534Y-74496443D01*
X99827009Y-74412778D01*
X99791271Y-74383448D01*
X99689814Y-74300186D01*
X99606552Y-74198729D01*
X99577222Y-74162991D01*
X99493557Y-74006466D01*
X99442037Y-73836627D01*
X99424641Y-73660000D01*
X99442037Y-73483373D01*
X99493557Y-73313534D01*
X99577222Y-73157009D01*
X99606552Y-73121271D01*
X99689814Y-73019814D01*
X99791271Y-72936552D01*
X99827009Y-72907222D01*
X99983534Y-72823557D01*
X100153373Y-72772037D01*
X100219558Y-72765518D01*
X100285740Y-72759000D01*
X100374260Y-72759000D01*
X100440442Y-72765518D01*
X100440442Y-72765518D01*
G37*
G36*
X148107400Y-72161400D02*
G01*
X146024600Y-72161400D01*
X146024600Y-70078600D01*
X148107400Y-70078600D01*
X148107400Y-72161400D01*
X148107400Y-72161400D01*
G37*
G36*
X102980442Y-70225518D02*
G01*
X103046627Y-70232037D01*
X103216466Y-70283557D01*
X103372991Y-70367222D01*
X103408729Y-70396552D01*
X103510186Y-70479814D01*
X103593448Y-70581271D01*
X103622778Y-70617009D01*
X103706443Y-70773534D01*
X103757963Y-70943373D01*
X103775359Y-71120000D01*
X103757963Y-71296627D01*
X103706443Y-71466466D01*
X103622778Y-71622991D01*
X103593448Y-71658729D01*
X103510186Y-71760186D01*
X103408729Y-71843448D01*
X103372991Y-71872778D01*
X103216466Y-71956443D01*
X103046627Y-72007963D01*
X102980443Y-72014481D01*
X102914260Y-72021000D01*
X102825740Y-72021000D01*
X102759557Y-72014481D01*
X102693373Y-72007963D01*
X102523534Y-71956443D01*
X102367009Y-71872778D01*
X102331271Y-71843448D01*
X102229814Y-71760186D01*
X102146552Y-71658729D01*
X102117222Y-71622991D01*
X102033557Y-71466466D01*
X101982037Y-71296627D01*
X101964641Y-71120000D01*
X101982037Y-70943373D01*
X102033557Y-70773534D01*
X102117222Y-70617009D01*
X102146552Y-70581271D01*
X102229814Y-70479814D01*
X102331271Y-70396552D01*
X102367009Y-70367222D01*
X102523534Y-70283557D01*
X102693373Y-70232037D01*
X102759558Y-70225518D01*
X102825740Y-70219000D01*
X102914260Y-70219000D01*
X102980442Y-70225518D01*
X102980442Y-70225518D01*
G37*
G36*
X100440442Y-70225518D02*
G01*
X100506627Y-70232037D01*
X100676466Y-70283557D01*
X100832991Y-70367222D01*
X100868729Y-70396552D01*
X100970186Y-70479814D01*
X101053448Y-70581271D01*
X101082778Y-70617009D01*
X101166443Y-70773534D01*
X101217963Y-70943373D01*
X101235359Y-71120000D01*
X101217963Y-71296627D01*
X101166443Y-71466466D01*
X101082778Y-71622991D01*
X101053448Y-71658729D01*
X100970186Y-71760186D01*
X100868729Y-71843448D01*
X100832991Y-71872778D01*
X100676466Y-71956443D01*
X100506627Y-72007963D01*
X100440443Y-72014481D01*
X100374260Y-72021000D01*
X100285740Y-72021000D01*
X100219557Y-72014481D01*
X100153373Y-72007963D01*
X99983534Y-71956443D01*
X99827009Y-71872778D01*
X99791271Y-71843448D01*
X99689814Y-71760186D01*
X99606552Y-71658729D01*
X99577222Y-71622991D01*
X99493557Y-71466466D01*
X99442037Y-71296627D01*
X99424641Y-71120000D01*
X99442037Y-70943373D01*
X99493557Y-70773534D01*
X99577222Y-70617009D01*
X99606552Y-70581271D01*
X99689814Y-70479814D01*
X99791271Y-70396552D01*
X99827009Y-70367222D01*
X99983534Y-70283557D01*
X100153373Y-70232037D01*
X100219558Y-70225518D01*
X100285740Y-70219000D01*
X100374260Y-70219000D01*
X100440442Y-70225518D01*
X100440442Y-70225518D01*
G37*
G36*
X147623765Y-67578620D02*
G01*
X147813288Y-67657123D01*
X147983854Y-67771092D01*
X148128908Y-67916146D01*
X148236395Y-68077011D01*
X148242878Y-68086714D01*
X148321380Y-68276235D01*
X148361400Y-68477430D01*
X148361400Y-68682570D01*
X148346669Y-68756627D01*
X148321380Y-68883765D01*
X148242877Y-69073288D01*
X148128908Y-69243854D01*
X147983854Y-69388908D01*
X147813288Y-69502877D01*
X147813287Y-69502878D01*
X147813286Y-69502878D01*
X147623765Y-69581380D01*
X147422570Y-69621400D01*
X147217430Y-69621400D01*
X147016235Y-69581380D01*
X146826714Y-69502878D01*
X146826713Y-69502878D01*
X146826712Y-69502877D01*
X146656146Y-69388908D01*
X146511092Y-69243854D01*
X146397123Y-69073288D01*
X146318620Y-68883765D01*
X146293331Y-68756627D01*
X146278600Y-68682570D01*
X146278600Y-68477430D01*
X146318620Y-68276235D01*
X146397122Y-68086714D01*
X146403605Y-68077011D01*
X146511092Y-67916146D01*
X146656146Y-67771092D01*
X146826712Y-67657123D01*
X147016235Y-67578620D01*
X147217430Y-67538600D01*
X147422570Y-67538600D01*
X147623765Y-67578620D01*
X147623765Y-67578620D01*
G37*
G36*
X100440443Y-67685519D02*
G01*
X100506627Y-67692037D01*
X100676466Y-67743557D01*
X100832991Y-67827222D01*
X100868729Y-67856552D01*
X100970186Y-67939814D01*
X101053448Y-68041271D01*
X101082778Y-68077009D01*
X101166443Y-68233534D01*
X101217963Y-68403373D01*
X101235359Y-68580000D01*
X101217963Y-68756627D01*
X101166443Y-68926466D01*
X101082778Y-69082991D01*
X101053448Y-69118729D01*
X100970186Y-69220186D01*
X100868729Y-69303448D01*
X100832991Y-69332778D01*
X100676466Y-69416443D01*
X100506627Y-69467963D01*
X100440442Y-69474482D01*
X100374260Y-69481000D01*
X100285740Y-69481000D01*
X100219558Y-69474482D01*
X100153373Y-69467963D01*
X99983534Y-69416443D01*
X99827009Y-69332778D01*
X99791271Y-69303448D01*
X99689814Y-69220186D01*
X99606552Y-69118729D01*
X99577222Y-69082991D01*
X99493557Y-68926466D01*
X99442037Y-68756627D01*
X99424641Y-68580000D01*
X99442037Y-68403373D01*
X99493557Y-68233534D01*
X99577222Y-68077009D01*
X99606552Y-68041271D01*
X99689814Y-67939814D01*
X99791271Y-67856552D01*
X99827009Y-67827222D01*
X99983534Y-67743557D01*
X100153373Y-67692037D01*
X100219557Y-67685519D01*
X100285740Y-67679000D01*
X100374260Y-67679000D01*
X100440443Y-67685519D01*
X100440443Y-67685519D01*
G37*
G36*
X102980443Y-67685519D02*
G01*
X103046627Y-67692037D01*
X103216466Y-67743557D01*
X103372991Y-67827222D01*
X103408729Y-67856552D01*
X103510186Y-67939814D01*
X103593448Y-68041271D01*
X103622778Y-68077009D01*
X103706443Y-68233534D01*
X103757963Y-68403373D01*
X103775359Y-68580000D01*
X103757963Y-68756627D01*
X103706443Y-68926466D01*
X103622778Y-69082991D01*
X103593448Y-69118729D01*
X103510186Y-69220186D01*
X103408729Y-69303448D01*
X103372991Y-69332778D01*
X103216466Y-69416443D01*
X103046627Y-69467963D01*
X102980442Y-69474482D01*
X102914260Y-69481000D01*
X102825740Y-69481000D01*
X102759558Y-69474482D01*
X102693373Y-69467963D01*
X102523534Y-69416443D01*
X102367009Y-69332778D01*
X102331271Y-69303448D01*
X102229814Y-69220186D01*
X102146552Y-69118729D01*
X102117222Y-69082991D01*
X102033557Y-68926466D01*
X101982037Y-68756627D01*
X101964641Y-68580000D01*
X101982037Y-68403373D01*
X102033557Y-68233534D01*
X102117222Y-68077009D01*
X102146552Y-68041271D01*
X102229814Y-67939814D01*
X102331271Y-67856552D01*
X102367009Y-67827222D01*
X102523534Y-67743557D01*
X102693373Y-67692037D01*
X102759557Y-67685519D01*
X102825740Y-67679000D01*
X102914260Y-67679000D01*
X102980443Y-67685519D01*
X102980443Y-67685519D01*
G37*
G36*
X147369765Y-65038620D02*
G01*
X147559288Y-65117123D01*
X147729854Y-65231092D01*
X147874908Y-65376146D01*
X147982395Y-65537011D01*
X147988878Y-65546714D01*
X148067380Y-65736235D01*
X148107400Y-65937430D01*
X148107400Y-66142570D01*
X148092669Y-66216627D01*
X148067380Y-66343765D01*
X147988877Y-66533288D01*
X147874908Y-66703854D01*
X147729854Y-66848908D01*
X147559288Y-66962877D01*
X147559287Y-66962878D01*
X147559286Y-66962878D01*
X147369765Y-67041380D01*
X147168570Y-67081400D01*
X146963430Y-67081400D01*
X146762235Y-67041380D01*
X146572714Y-66962878D01*
X146572713Y-66962878D01*
X146572712Y-66962877D01*
X146402146Y-66848908D01*
X146257092Y-66703854D01*
X146143123Y-66533288D01*
X146064620Y-66343765D01*
X146039331Y-66216627D01*
X146024600Y-66142570D01*
X146024600Y-65937430D01*
X146064620Y-65736235D01*
X146143122Y-65546714D01*
X146149605Y-65537011D01*
X146257092Y-65376146D01*
X146402146Y-65231092D01*
X146572712Y-65117123D01*
X146762235Y-65038620D01*
X146963430Y-64998600D01*
X147168570Y-64998600D01*
X147369765Y-65038620D01*
X147369765Y-65038620D01*
G37*
G36*
X100440442Y-65145518D02*
G01*
X100506627Y-65152037D01*
X100676466Y-65203557D01*
X100832991Y-65287222D01*
X100868729Y-65316552D01*
X100970186Y-65399814D01*
X101053448Y-65501271D01*
X101082778Y-65537009D01*
X101166443Y-65693534D01*
X101217963Y-65863373D01*
X101235359Y-66040000D01*
X101217963Y-66216627D01*
X101166443Y-66386466D01*
X101082778Y-66542991D01*
X101053448Y-66578729D01*
X100970186Y-66680186D01*
X100868729Y-66763448D01*
X100832991Y-66792778D01*
X100676466Y-66876443D01*
X100506627Y-66927963D01*
X100440442Y-66934482D01*
X100374260Y-66941000D01*
X100285740Y-66941000D01*
X100219558Y-66934482D01*
X100153373Y-66927963D01*
X99983534Y-66876443D01*
X99827009Y-66792778D01*
X99791271Y-66763448D01*
X99689814Y-66680186D01*
X99606552Y-66578729D01*
X99577222Y-66542991D01*
X99493557Y-66386466D01*
X99442037Y-66216627D01*
X99424641Y-66040000D01*
X99442037Y-65863373D01*
X99493557Y-65693534D01*
X99577222Y-65537009D01*
X99606552Y-65501271D01*
X99689814Y-65399814D01*
X99791271Y-65316552D01*
X99827009Y-65287222D01*
X99983534Y-65203557D01*
X100153373Y-65152037D01*
X100219558Y-65145518D01*
X100285740Y-65139000D01*
X100374260Y-65139000D01*
X100440442Y-65145518D01*
X100440442Y-65145518D01*
G37*
G36*
X102980442Y-65145518D02*
G01*
X103046627Y-65152037D01*
X103216466Y-65203557D01*
X103372991Y-65287222D01*
X103408729Y-65316552D01*
X103510186Y-65399814D01*
X103593448Y-65501271D01*
X103622778Y-65537009D01*
X103706443Y-65693534D01*
X103757963Y-65863373D01*
X103775359Y-66040000D01*
X103757963Y-66216627D01*
X103706443Y-66386466D01*
X103622778Y-66542991D01*
X103593448Y-66578729D01*
X103510186Y-66680186D01*
X103408729Y-66763448D01*
X103372991Y-66792778D01*
X103216466Y-66876443D01*
X103046627Y-66927963D01*
X102980442Y-66934482D01*
X102914260Y-66941000D01*
X102825740Y-66941000D01*
X102759558Y-66934482D01*
X102693373Y-66927963D01*
X102523534Y-66876443D01*
X102367009Y-66792778D01*
X102331271Y-66763448D01*
X102229814Y-66680186D01*
X102146552Y-66578729D01*
X102117222Y-66542991D01*
X102033557Y-66386466D01*
X101982037Y-66216627D01*
X101964641Y-66040000D01*
X101982037Y-65863373D01*
X102033557Y-65693534D01*
X102117222Y-65537009D01*
X102146552Y-65501271D01*
X102229814Y-65399814D01*
X102331271Y-65316552D01*
X102367009Y-65287222D01*
X102523534Y-65203557D01*
X102693373Y-65152037D01*
X102759558Y-65145518D01*
X102825740Y-65139000D01*
X102914260Y-65139000D01*
X102980442Y-65145518D01*
X102980442Y-65145518D01*
G37*
G36*
X151240442Y-62605518D02*
G01*
X151306627Y-62612037D01*
X151476466Y-62663557D01*
X151632991Y-62747222D01*
X151668729Y-62776552D01*
X151770186Y-62859814D01*
X151853448Y-62961271D01*
X151882778Y-62997009D01*
X151966443Y-63153534D01*
X152017963Y-63323373D01*
X152035359Y-63500000D01*
X152017963Y-63676627D01*
X151966443Y-63846466D01*
X151882778Y-64002991D01*
X151853448Y-64038729D01*
X151770186Y-64140186D01*
X151668729Y-64223448D01*
X151632991Y-64252778D01*
X151476466Y-64336443D01*
X151306627Y-64387963D01*
X151240442Y-64394482D01*
X151174260Y-64401000D01*
X151085740Y-64401000D01*
X151019558Y-64394482D01*
X150953373Y-64387963D01*
X150783534Y-64336443D01*
X150627009Y-64252778D01*
X150591271Y-64223448D01*
X150489814Y-64140186D01*
X150406552Y-64038729D01*
X150377222Y-64002991D01*
X150293557Y-63846466D01*
X150242037Y-63676627D01*
X150224641Y-63500000D01*
X150242037Y-63323373D01*
X150293557Y-63153534D01*
X150377222Y-62997009D01*
X150406552Y-62961271D01*
X150489814Y-62859814D01*
X150591271Y-62776552D01*
X150627009Y-62747222D01*
X150783534Y-62663557D01*
X150953373Y-62612037D01*
X151019558Y-62605518D01*
X151085740Y-62599000D01*
X151174260Y-62599000D01*
X151240442Y-62605518D01*
X151240442Y-62605518D01*
G37*
G36*
X153780442Y-62605518D02*
G01*
X153846627Y-62612037D01*
X154016466Y-62663557D01*
X154172991Y-62747222D01*
X154208729Y-62776552D01*
X154310186Y-62859814D01*
X154393448Y-62961271D01*
X154422778Y-62997009D01*
X154506443Y-63153534D01*
X154557963Y-63323373D01*
X154575359Y-63500000D01*
X154557963Y-63676627D01*
X154506443Y-63846466D01*
X154422778Y-64002991D01*
X154393448Y-64038729D01*
X154310186Y-64140186D01*
X154208729Y-64223448D01*
X154172991Y-64252778D01*
X154016466Y-64336443D01*
X153846627Y-64387963D01*
X153780442Y-64394482D01*
X153714260Y-64401000D01*
X153625740Y-64401000D01*
X153559558Y-64394482D01*
X153493373Y-64387963D01*
X153323534Y-64336443D01*
X153167009Y-64252778D01*
X153131271Y-64223448D01*
X153029814Y-64140186D01*
X152946552Y-64038729D01*
X152917222Y-64002991D01*
X152833557Y-63846466D01*
X152782037Y-63676627D01*
X152764641Y-63500000D01*
X152782037Y-63323373D01*
X152833557Y-63153534D01*
X152917222Y-62997009D01*
X152946552Y-62961271D01*
X153029814Y-62859814D01*
X153131271Y-62776552D01*
X153167009Y-62747222D01*
X153323534Y-62663557D01*
X153493373Y-62612037D01*
X153559558Y-62605518D01*
X153625740Y-62599000D01*
X153714260Y-62599000D01*
X153780442Y-62605518D01*
X153780442Y-62605518D01*
G37*
G36*
X102980442Y-62605518D02*
G01*
X103046627Y-62612037D01*
X103216466Y-62663557D01*
X103372991Y-62747222D01*
X103408729Y-62776552D01*
X103510186Y-62859814D01*
X103593448Y-62961271D01*
X103622778Y-62997009D01*
X103706443Y-63153534D01*
X103757963Y-63323373D01*
X103775359Y-63500000D01*
X103757963Y-63676627D01*
X103706443Y-63846466D01*
X103622778Y-64002991D01*
X103593448Y-64038729D01*
X103510186Y-64140186D01*
X103408729Y-64223448D01*
X103372991Y-64252778D01*
X103216466Y-64336443D01*
X103046627Y-64387963D01*
X102980442Y-64394482D01*
X102914260Y-64401000D01*
X102825740Y-64401000D01*
X102759558Y-64394482D01*
X102693373Y-64387963D01*
X102523534Y-64336443D01*
X102367009Y-64252778D01*
X102331271Y-64223448D01*
X102229814Y-64140186D01*
X102146552Y-64038729D01*
X102117222Y-64002991D01*
X102033557Y-63846466D01*
X101982037Y-63676627D01*
X101964641Y-63500000D01*
X101982037Y-63323373D01*
X102033557Y-63153534D01*
X102117222Y-62997009D01*
X102146552Y-62961271D01*
X102229814Y-62859814D01*
X102331271Y-62776552D01*
X102367009Y-62747222D01*
X102523534Y-62663557D01*
X102693373Y-62612037D01*
X102759558Y-62605518D01*
X102825740Y-62599000D01*
X102914260Y-62599000D01*
X102980442Y-62605518D01*
X102980442Y-62605518D01*
G37*
G36*
X100440442Y-62605518D02*
G01*
X100506627Y-62612037D01*
X100676466Y-62663557D01*
X100832991Y-62747222D01*
X100868729Y-62776552D01*
X100970186Y-62859814D01*
X101053448Y-62961271D01*
X101082778Y-62997009D01*
X101166443Y-63153534D01*
X101217963Y-63323373D01*
X101235359Y-63500000D01*
X101217963Y-63676627D01*
X101166443Y-63846466D01*
X101082778Y-64002991D01*
X101053448Y-64038729D01*
X100970186Y-64140186D01*
X100868729Y-64223448D01*
X100832991Y-64252778D01*
X100676466Y-64336443D01*
X100506627Y-64387963D01*
X100440442Y-64394482D01*
X100374260Y-64401000D01*
X100285740Y-64401000D01*
X100219558Y-64394482D01*
X100153373Y-64387963D01*
X99983534Y-64336443D01*
X99827009Y-64252778D01*
X99791271Y-64223448D01*
X99689814Y-64140186D01*
X99606552Y-64038729D01*
X99577222Y-64002991D01*
X99493557Y-63846466D01*
X99442037Y-63676627D01*
X99424641Y-63500000D01*
X99442037Y-63323373D01*
X99493557Y-63153534D01*
X99577222Y-62997009D01*
X99606552Y-62961271D01*
X99689814Y-62859814D01*
X99791271Y-62776552D01*
X99827009Y-62747222D01*
X99983534Y-62663557D01*
X100153373Y-62612037D01*
X100219558Y-62605518D01*
X100285740Y-62599000D01*
X100374260Y-62599000D01*
X100440442Y-62605518D01*
X100440442Y-62605518D01*
G37*
G36*
X142543765Y-59958620D02*
G01*
X142733288Y-60037123D01*
X142903854Y-60151092D01*
X143048908Y-60296146D01*
X143156395Y-60457011D01*
X143162878Y-60466714D01*
X143241380Y-60656235D01*
X143281400Y-60857430D01*
X143281400Y-61062570D01*
X143241380Y-61263765D01*
X143197437Y-61369854D01*
X143162877Y-61453288D01*
X143048908Y-61623854D01*
X142903854Y-61768908D01*
X142733288Y-61882877D01*
X142733287Y-61882878D01*
X142733286Y-61882878D01*
X142543765Y-61961380D01*
X142342570Y-62001400D01*
X142137430Y-62001400D01*
X141936235Y-61961380D01*
X141746714Y-61882878D01*
X141746713Y-61882878D01*
X141746712Y-61882877D01*
X141576146Y-61768908D01*
X141431092Y-61623854D01*
X141317123Y-61453288D01*
X141282564Y-61369854D01*
X141238620Y-61263765D01*
X141198600Y-61062570D01*
X141198600Y-60857430D01*
X141238620Y-60656235D01*
X141317122Y-60466714D01*
X141323605Y-60457011D01*
X141431092Y-60296146D01*
X141576146Y-60151092D01*
X141746712Y-60037123D01*
X141936235Y-59958620D01*
X142137430Y-59918600D01*
X142342570Y-59918600D01*
X142543765Y-59958620D01*
X142543765Y-59958620D01*
G37*
G36*
X137463765Y-59958620D02*
G01*
X137653288Y-60037123D01*
X137823854Y-60151092D01*
X137968908Y-60296146D01*
X138076395Y-60457011D01*
X138082878Y-60466714D01*
X138161380Y-60656235D01*
X138201400Y-60857430D01*
X138201400Y-61062570D01*
X138161380Y-61263765D01*
X138117437Y-61369854D01*
X138082877Y-61453288D01*
X137968908Y-61623854D01*
X137823854Y-61768908D01*
X137653288Y-61882877D01*
X137653287Y-61882878D01*
X137653286Y-61882878D01*
X137463765Y-61961380D01*
X137262570Y-62001400D01*
X137057430Y-62001400D01*
X136856235Y-61961380D01*
X136666714Y-61882878D01*
X136666713Y-61882878D01*
X136666712Y-61882877D01*
X136496146Y-61768908D01*
X136351092Y-61623854D01*
X136237123Y-61453288D01*
X136202564Y-61369854D01*
X136158620Y-61263765D01*
X136118600Y-61062570D01*
X136118600Y-60857430D01*
X136158620Y-60656235D01*
X136237122Y-60466714D01*
X136243605Y-60457011D01*
X136351092Y-60296146D01*
X136496146Y-60151092D01*
X136666712Y-60037123D01*
X136856235Y-59958620D01*
X137057430Y-59918600D01*
X137262570Y-59918600D01*
X137463765Y-59958620D01*
X137463765Y-59958620D01*
G37*
G36*
X100440442Y-60065518D02*
G01*
X100506627Y-60072037D01*
X100676466Y-60123557D01*
X100832991Y-60207222D01*
X100868729Y-60236552D01*
X100970186Y-60319814D01*
X101037826Y-60402235D01*
X101082778Y-60457009D01*
X101166443Y-60613534D01*
X101217963Y-60783373D01*
X101235359Y-60960000D01*
X101217963Y-61136627D01*
X101166443Y-61306466D01*
X101082778Y-61462991D01*
X101053448Y-61498729D01*
X100970186Y-61600186D01*
X100868729Y-61683448D01*
X100832991Y-61712778D01*
X100676466Y-61796443D01*
X100506627Y-61847963D01*
X100440443Y-61854481D01*
X100374260Y-61861000D01*
X100285740Y-61861000D01*
X100219557Y-61854481D01*
X100153373Y-61847963D01*
X99983534Y-61796443D01*
X99827009Y-61712778D01*
X99791271Y-61683448D01*
X99689814Y-61600186D01*
X99606552Y-61498729D01*
X99577222Y-61462991D01*
X99493557Y-61306466D01*
X99442037Y-61136627D01*
X99424641Y-60960000D01*
X99442037Y-60783373D01*
X99493557Y-60613534D01*
X99577222Y-60457009D01*
X99622174Y-60402235D01*
X99689814Y-60319814D01*
X99791271Y-60236552D01*
X99827009Y-60207222D01*
X99983534Y-60123557D01*
X100153373Y-60072037D01*
X100219558Y-60065518D01*
X100285740Y-60059000D01*
X100374260Y-60059000D01*
X100440442Y-60065518D01*
X100440442Y-60065518D01*
G37*
G36*
X151240442Y-60065518D02*
G01*
X151306627Y-60072037D01*
X151476466Y-60123557D01*
X151632991Y-60207222D01*
X151668729Y-60236552D01*
X151770186Y-60319814D01*
X151837826Y-60402235D01*
X151882778Y-60457009D01*
X151966443Y-60613534D01*
X152017963Y-60783373D01*
X152035359Y-60960000D01*
X152017963Y-61136627D01*
X151966443Y-61306466D01*
X151882778Y-61462991D01*
X151853448Y-61498729D01*
X151770186Y-61600186D01*
X151668729Y-61683448D01*
X151632991Y-61712778D01*
X151476466Y-61796443D01*
X151306627Y-61847963D01*
X151240443Y-61854481D01*
X151174260Y-61861000D01*
X151085740Y-61861000D01*
X151019557Y-61854481D01*
X150953373Y-61847963D01*
X150783534Y-61796443D01*
X150627009Y-61712778D01*
X150591271Y-61683448D01*
X150489814Y-61600186D01*
X150406552Y-61498729D01*
X150377222Y-61462991D01*
X150293557Y-61306466D01*
X150242037Y-61136627D01*
X150224641Y-60960000D01*
X150242037Y-60783373D01*
X150293557Y-60613534D01*
X150377222Y-60457009D01*
X150422174Y-60402235D01*
X150489814Y-60319814D01*
X150591271Y-60236552D01*
X150627009Y-60207222D01*
X150783534Y-60123557D01*
X150953373Y-60072037D01*
X151019558Y-60065518D01*
X151085740Y-60059000D01*
X151174260Y-60059000D01*
X151240442Y-60065518D01*
X151240442Y-60065518D01*
G37*
G36*
X153780442Y-60065518D02*
G01*
X153846627Y-60072037D01*
X154016466Y-60123557D01*
X154172991Y-60207222D01*
X154208729Y-60236552D01*
X154310186Y-60319814D01*
X154377826Y-60402235D01*
X154422778Y-60457009D01*
X154506443Y-60613534D01*
X154557963Y-60783373D01*
X154575359Y-60960000D01*
X154557963Y-61136627D01*
X154506443Y-61306466D01*
X154422778Y-61462991D01*
X154393448Y-61498729D01*
X154310186Y-61600186D01*
X154208729Y-61683448D01*
X154172991Y-61712778D01*
X154016466Y-61796443D01*
X153846627Y-61847963D01*
X153780443Y-61854481D01*
X153714260Y-61861000D01*
X153625740Y-61861000D01*
X153559557Y-61854481D01*
X153493373Y-61847963D01*
X153323534Y-61796443D01*
X153167009Y-61712778D01*
X153131271Y-61683448D01*
X153029814Y-61600186D01*
X152946552Y-61498729D01*
X152917222Y-61462991D01*
X152833557Y-61306466D01*
X152782037Y-61136627D01*
X152764641Y-60960000D01*
X152782037Y-60783373D01*
X152833557Y-60613534D01*
X152917222Y-60457009D01*
X152962174Y-60402235D01*
X153029814Y-60319814D01*
X153131271Y-60236552D01*
X153167009Y-60207222D01*
X153323534Y-60123557D01*
X153493373Y-60072037D01*
X153559558Y-60065518D01*
X153625740Y-60059000D01*
X153714260Y-60059000D01*
X153780442Y-60065518D01*
X153780442Y-60065518D01*
G37*
G36*
X102980442Y-60065518D02*
G01*
X103046627Y-60072037D01*
X103216466Y-60123557D01*
X103372991Y-60207222D01*
X103408729Y-60236552D01*
X103510186Y-60319814D01*
X103577826Y-60402235D01*
X103622778Y-60457009D01*
X103706443Y-60613534D01*
X103757963Y-60783373D01*
X103775359Y-60960000D01*
X103757963Y-61136627D01*
X103706443Y-61306466D01*
X103622778Y-61462991D01*
X103593448Y-61498729D01*
X103510186Y-61600186D01*
X103408729Y-61683448D01*
X103372991Y-61712778D01*
X103216466Y-61796443D01*
X103046627Y-61847963D01*
X102980443Y-61854481D01*
X102914260Y-61861000D01*
X102825740Y-61861000D01*
X102759557Y-61854481D01*
X102693373Y-61847963D01*
X102523534Y-61796443D01*
X102367009Y-61712778D01*
X102331271Y-61683448D01*
X102229814Y-61600186D01*
X102146552Y-61498729D01*
X102117222Y-61462991D01*
X102033557Y-61306466D01*
X101982037Y-61136627D01*
X101964641Y-60960000D01*
X101982037Y-60783373D01*
X102033557Y-60613534D01*
X102117222Y-60457009D01*
X102162174Y-60402235D01*
X102229814Y-60319814D01*
X102331271Y-60236552D01*
X102367009Y-60207222D01*
X102523534Y-60123557D01*
X102693373Y-60072037D01*
X102759558Y-60065518D01*
X102825740Y-60059000D01*
X102914260Y-60059000D01*
X102980442Y-60065518D01*
X102980442Y-60065518D01*
G37*
G36*
X140003765Y-59704620D02*
G01*
X140193288Y-59783123D01*
X140363854Y-59897092D01*
X140508908Y-60042146D01*
X140622877Y-60212712D01*
X140622878Y-60212714D01*
X140657437Y-60296148D01*
X140701380Y-60402235D01*
X140741400Y-60603431D01*
X140741400Y-60808569D01*
X140701380Y-61009765D01*
X140622877Y-61199288D01*
X140508908Y-61369854D01*
X140363854Y-61514908D01*
X140193288Y-61628877D01*
X140193287Y-61628878D01*
X140193286Y-61628878D01*
X140003765Y-61707380D01*
X139802570Y-61747400D01*
X139597430Y-61747400D01*
X139396235Y-61707380D01*
X139206714Y-61628878D01*
X139206713Y-61628878D01*
X139206712Y-61628877D01*
X139036146Y-61514908D01*
X138891092Y-61369854D01*
X138777123Y-61199288D01*
X138698620Y-61009765D01*
X138658600Y-60808569D01*
X138658600Y-60603431D01*
X138698620Y-60402235D01*
X138742563Y-60296148D01*
X138777122Y-60212714D01*
X138777123Y-60212712D01*
X138891092Y-60042146D01*
X139036146Y-59897092D01*
X139206712Y-59783123D01*
X139396235Y-59704620D01*
X139597430Y-59664600D01*
X139802570Y-59664600D01*
X140003765Y-59704620D01*
X140003765Y-59704620D01*
G37*
G36*
X135661400Y-61747400D02*
G01*
X133578600Y-61747400D01*
X133578600Y-59664600D01*
X135661400Y-59664600D01*
X135661400Y-61747400D01*
X135661400Y-61747400D01*
G37*
G36*
X102980443Y-57525519D02*
G01*
X103046627Y-57532037D01*
X103216466Y-57583557D01*
X103372991Y-57667222D01*
X103408729Y-57696552D01*
X103510186Y-57779814D01*
X103593448Y-57881271D01*
X103622778Y-57917009D01*
X103706443Y-58073534D01*
X103757963Y-58243373D01*
X103775359Y-58420000D01*
X103757963Y-58596627D01*
X103706443Y-58766466D01*
X103622778Y-58922991D01*
X103593448Y-58958729D01*
X103510186Y-59060186D01*
X103408729Y-59143448D01*
X103372991Y-59172778D01*
X103216466Y-59256443D01*
X103046627Y-59307963D01*
X102980442Y-59314482D01*
X102914260Y-59321000D01*
X102825740Y-59321000D01*
X102759558Y-59314482D01*
X102693373Y-59307963D01*
X102523534Y-59256443D01*
X102367009Y-59172778D01*
X102331271Y-59143448D01*
X102229814Y-59060186D01*
X102146552Y-58958729D01*
X102117222Y-58922991D01*
X102033557Y-58766466D01*
X101982037Y-58596627D01*
X101964641Y-58420000D01*
X101982037Y-58243373D01*
X102033557Y-58073534D01*
X102117222Y-57917009D01*
X102146552Y-57881271D01*
X102229814Y-57779814D01*
X102331271Y-57696552D01*
X102367009Y-57667222D01*
X102523534Y-57583557D01*
X102693373Y-57532037D01*
X102759557Y-57525519D01*
X102825740Y-57519000D01*
X102914260Y-57519000D01*
X102980443Y-57525519D01*
X102980443Y-57525519D01*
G37*
G36*
X100440443Y-57525519D02*
G01*
X100506627Y-57532037D01*
X100676466Y-57583557D01*
X100832991Y-57667222D01*
X100868729Y-57696552D01*
X100970186Y-57779814D01*
X101053448Y-57881271D01*
X101082778Y-57917009D01*
X101166443Y-58073534D01*
X101217963Y-58243373D01*
X101235359Y-58420000D01*
X101217963Y-58596627D01*
X101166443Y-58766466D01*
X101082778Y-58922991D01*
X101053448Y-58958729D01*
X100970186Y-59060186D01*
X100868729Y-59143448D01*
X100832991Y-59172778D01*
X100676466Y-59256443D01*
X100506627Y-59307963D01*
X100440442Y-59314482D01*
X100374260Y-59321000D01*
X100285740Y-59321000D01*
X100219558Y-59314482D01*
X100153373Y-59307963D01*
X99983534Y-59256443D01*
X99827009Y-59172778D01*
X99791271Y-59143448D01*
X99689814Y-59060186D01*
X99606552Y-58958729D01*
X99577222Y-58922991D01*
X99493557Y-58766466D01*
X99442037Y-58596627D01*
X99424641Y-58420000D01*
X99442037Y-58243373D01*
X99493557Y-58073534D01*
X99577222Y-57917009D01*
X99606552Y-57881271D01*
X99689814Y-57779814D01*
X99791271Y-57696552D01*
X99827009Y-57667222D01*
X99983534Y-57583557D01*
X100153373Y-57532037D01*
X100219557Y-57525519D01*
X100285740Y-57519000D01*
X100374260Y-57519000D01*
X100440443Y-57525519D01*
X100440443Y-57525519D01*
G37*
G36*
X153780443Y-57525519D02*
G01*
X153846627Y-57532037D01*
X154016466Y-57583557D01*
X154172991Y-57667222D01*
X154208729Y-57696552D01*
X154310186Y-57779814D01*
X154393448Y-57881271D01*
X154422778Y-57917009D01*
X154506443Y-58073534D01*
X154557963Y-58243373D01*
X154575359Y-58420000D01*
X154557963Y-58596627D01*
X154506443Y-58766466D01*
X154422778Y-58922991D01*
X154393448Y-58958729D01*
X154310186Y-59060186D01*
X154208729Y-59143448D01*
X154172991Y-59172778D01*
X154016466Y-59256443D01*
X153846627Y-59307963D01*
X153780442Y-59314482D01*
X153714260Y-59321000D01*
X153625740Y-59321000D01*
X153559558Y-59314482D01*
X153493373Y-59307963D01*
X153323534Y-59256443D01*
X153167009Y-59172778D01*
X153131271Y-59143448D01*
X153029814Y-59060186D01*
X152946552Y-58958729D01*
X152917222Y-58922991D01*
X152833557Y-58766466D01*
X152782037Y-58596627D01*
X152764641Y-58420000D01*
X152782037Y-58243373D01*
X152833557Y-58073534D01*
X152917222Y-57917009D01*
X152946552Y-57881271D01*
X153029814Y-57779814D01*
X153131271Y-57696552D01*
X153167009Y-57667222D01*
X153323534Y-57583557D01*
X153493373Y-57532037D01*
X153559557Y-57525519D01*
X153625740Y-57519000D01*
X153714260Y-57519000D01*
X153780443Y-57525519D01*
X153780443Y-57525519D01*
G37*
G36*
X151240443Y-57525519D02*
G01*
X151306627Y-57532037D01*
X151476466Y-57583557D01*
X151632991Y-57667222D01*
X151668729Y-57696552D01*
X151770186Y-57779814D01*
X151853448Y-57881271D01*
X151882778Y-57917009D01*
X151966443Y-58073534D01*
X152017963Y-58243373D01*
X152035359Y-58420000D01*
X152017963Y-58596627D01*
X151966443Y-58766466D01*
X151882778Y-58922991D01*
X151853448Y-58958729D01*
X151770186Y-59060186D01*
X151668729Y-59143448D01*
X151632991Y-59172778D01*
X151476466Y-59256443D01*
X151306627Y-59307963D01*
X151240442Y-59314482D01*
X151174260Y-59321000D01*
X151085740Y-59321000D01*
X151019558Y-59314482D01*
X150953373Y-59307963D01*
X150783534Y-59256443D01*
X150627009Y-59172778D01*
X150591271Y-59143448D01*
X150489814Y-59060186D01*
X150406552Y-58958729D01*
X150377222Y-58922991D01*
X150293557Y-58766466D01*
X150242037Y-58596627D01*
X150224641Y-58420000D01*
X150242037Y-58243373D01*
X150293557Y-58073534D01*
X150377222Y-57917009D01*
X150406552Y-57881271D01*
X150489814Y-57779814D01*
X150591271Y-57696552D01*
X150627009Y-57667222D01*
X150783534Y-57583557D01*
X150953373Y-57532037D01*
X151019557Y-57525519D01*
X151085740Y-57519000D01*
X151174260Y-57519000D01*
X151240443Y-57525519D01*
X151240443Y-57525519D01*
G37*
G36*
X110600443Y-57525519D02*
G01*
X110666627Y-57532037D01*
X110836466Y-57583557D01*
X110992991Y-57667222D01*
X111028729Y-57696552D01*
X111130186Y-57779814D01*
X111213448Y-57881271D01*
X111242778Y-57917009D01*
X111326443Y-58073534D01*
X111377963Y-58243373D01*
X111395359Y-58420000D01*
X111377963Y-58596627D01*
X111326443Y-58766466D01*
X111242778Y-58922991D01*
X111213448Y-58958729D01*
X111130186Y-59060186D01*
X111028729Y-59143448D01*
X110992991Y-59172778D01*
X110836466Y-59256443D01*
X110666627Y-59307963D01*
X110600442Y-59314482D01*
X110534260Y-59321000D01*
X110445740Y-59321000D01*
X110379558Y-59314482D01*
X110313373Y-59307963D01*
X110143534Y-59256443D01*
X109987009Y-59172778D01*
X109951271Y-59143448D01*
X109849814Y-59060186D01*
X109766552Y-58958729D01*
X109737222Y-58922991D01*
X109653557Y-58766466D01*
X109602037Y-58596627D01*
X109584641Y-58420000D01*
X109602037Y-58243373D01*
X109653557Y-58073534D01*
X109737222Y-57917009D01*
X109766552Y-57881271D01*
X109849814Y-57779814D01*
X109951271Y-57696552D01*
X109987009Y-57667222D01*
X110143534Y-57583557D01*
X110313373Y-57532037D01*
X110379557Y-57525519D01*
X110445740Y-57519000D01*
X110534260Y-57519000D01*
X110600443Y-57525519D01*
X110600443Y-57525519D01*
G37*
G36*
X108851000Y-59321000D02*
G01*
X107049000Y-59321000D01*
X107049000Y-57519000D01*
X108851000Y-57519000D01*
X108851000Y-59321000D01*
X108851000Y-59321000D01*
G37*
G36*
X116611400Y-56921400D02*
G01*
X114528600Y-56921400D01*
X114528600Y-54838600D01*
X116611400Y-54838600D01*
X116611400Y-56921400D01*
X116611400Y-56921400D01*
G37*
G36*
X153780443Y-54985519D02*
G01*
X153846627Y-54992037D01*
X154016466Y-55043557D01*
X154172991Y-55127222D01*
X154208729Y-55156552D01*
X154310186Y-55239814D01*
X154393448Y-55341271D01*
X154422778Y-55377009D01*
X154506443Y-55533534D01*
X154557963Y-55703373D01*
X154575359Y-55880000D01*
X154557963Y-56056627D01*
X154506443Y-56226466D01*
X154422778Y-56382991D01*
X154393448Y-56418729D01*
X154310186Y-56520186D01*
X154208729Y-56603448D01*
X154172991Y-56632778D01*
X154016466Y-56716443D01*
X153846627Y-56767963D01*
X153780443Y-56774481D01*
X153714260Y-56781000D01*
X153625740Y-56781000D01*
X153559557Y-56774481D01*
X153493373Y-56767963D01*
X153323534Y-56716443D01*
X153167009Y-56632778D01*
X153131271Y-56603448D01*
X153029814Y-56520186D01*
X152946552Y-56418729D01*
X152917222Y-56382991D01*
X152833557Y-56226466D01*
X152782037Y-56056627D01*
X152764641Y-55880000D01*
X152782037Y-55703373D01*
X152833557Y-55533534D01*
X152917222Y-55377009D01*
X152946552Y-55341271D01*
X153029814Y-55239814D01*
X153131271Y-55156552D01*
X153167009Y-55127222D01*
X153323534Y-55043557D01*
X153493373Y-54992037D01*
X153559557Y-54985519D01*
X153625740Y-54979000D01*
X153714260Y-54979000D01*
X153780443Y-54985519D01*
X153780443Y-54985519D01*
G37*
G36*
X152031000Y-56781000D02*
G01*
X150229000Y-56781000D01*
X150229000Y-54979000D01*
X152031000Y-54979000D01*
X152031000Y-56781000D01*
X152031000Y-56781000D01*
G37*
G36*
X101231000Y-56781000D02*
G01*
X99429000Y-56781000D01*
X99429000Y-54979000D01*
X101231000Y-54979000D01*
X101231000Y-56781000D01*
X101231000Y-56781000D01*
G37*
G36*
X102980443Y-54985519D02*
G01*
X103046627Y-54992037D01*
X103216466Y-55043557D01*
X103372991Y-55127222D01*
X103408729Y-55156552D01*
X103510186Y-55239814D01*
X103593448Y-55341271D01*
X103622778Y-55377009D01*
X103706443Y-55533534D01*
X103757963Y-55703373D01*
X103775359Y-55880000D01*
X103757963Y-56056627D01*
X103706443Y-56226466D01*
X103622778Y-56382991D01*
X103593448Y-56418729D01*
X103510186Y-56520186D01*
X103408729Y-56603448D01*
X103372991Y-56632778D01*
X103216466Y-56716443D01*
X103046627Y-56767963D01*
X102980443Y-56774481D01*
X102914260Y-56781000D01*
X102825740Y-56781000D01*
X102759557Y-56774481D01*
X102693373Y-56767963D01*
X102523534Y-56716443D01*
X102367009Y-56632778D01*
X102331271Y-56603448D01*
X102229814Y-56520186D01*
X102146552Y-56418729D01*
X102117222Y-56382991D01*
X102033557Y-56226466D01*
X101982037Y-56056627D01*
X101964641Y-55880000D01*
X101982037Y-55703373D01*
X102033557Y-55533534D01*
X102117222Y-55377009D01*
X102146552Y-55341271D01*
X102229814Y-55239814D01*
X102331271Y-55156552D01*
X102367009Y-55127222D01*
X102523534Y-55043557D01*
X102693373Y-54992037D01*
X102759557Y-54985519D01*
X102825740Y-54979000D01*
X102914260Y-54979000D01*
X102980443Y-54985519D01*
X102980443Y-54985519D01*
G37*
G36*
X110600443Y-54985519D02*
G01*
X110666627Y-54992037D01*
X110836466Y-55043557D01*
X110992991Y-55127222D01*
X111028729Y-55156552D01*
X111130186Y-55239814D01*
X111213448Y-55341271D01*
X111242778Y-55377009D01*
X111326443Y-55533534D01*
X111377963Y-55703373D01*
X111395359Y-55880000D01*
X111377963Y-56056627D01*
X111326443Y-56226466D01*
X111242778Y-56382991D01*
X111213448Y-56418729D01*
X111130186Y-56520186D01*
X111028729Y-56603448D01*
X110992991Y-56632778D01*
X110836466Y-56716443D01*
X110666627Y-56767963D01*
X110600443Y-56774481D01*
X110534260Y-56781000D01*
X110445740Y-56781000D01*
X110379557Y-56774481D01*
X110313373Y-56767963D01*
X110143534Y-56716443D01*
X109987009Y-56632778D01*
X109951271Y-56603448D01*
X109849814Y-56520186D01*
X109766552Y-56418729D01*
X109737222Y-56382991D01*
X109653557Y-56226466D01*
X109602037Y-56056627D01*
X109584641Y-55880000D01*
X109602037Y-55703373D01*
X109653557Y-55533534D01*
X109737222Y-55377009D01*
X109766552Y-55341271D01*
X109849814Y-55239814D01*
X109951271Y-55156552D01*
X109987009Y-55127222D01*
X110143534Y-55043557D01*
X110313373Y-54992037D01*
X110379557Y-54985519D01*
X110445740Y-54979000D01*
X110534260Y-54979000D01*
X110600443Y-54985519D01*
X110600443Y-54985519D01*
G37*
G36*
X108060443Y-54985519D02*
G01*
X108126627Y-54992037D01*
X108296466Y-55043557D01*
X108452991Y-55127222D01*
X108488729Y-55156552D01*
X108590186Y-55239814D01*
X108673448Y-55341271D01*
X108702778Y-55377009D01*
X108786443Y-55533534D01*
X108837963Y-55703373D01*
X108855359Y-55880000D01*
X108837963Y-56056627D01*
X108786443Y-56226466D01*
X108702778Y-56382991D01*
X108673448Y-56418729D01*
X108590186Y-56520186D01*
X108488729Y-56603448D01*
X108452991Y-56632778D01*
X108296466Y-56716443D01*
X108126627Y-56767963D01*
X108060443Y-56774481D01*
X107994260Y-56781000D01*
X107905740Y-56781000D01*
X107839557Y-56774481D01*
X107773373Y-56767963D01*
X107603534Y-56716443D01*
X107447009Y-56632778D01*
X107411271Y-56603448D01*
X107309814Y-56520186D01*
X107226552Y-56418729D01*
X107197222Y-56382991D01*
X107113557Y-56226466D01*
X107062037Y-56056627D01*
X107044641Y-55880000D01*
X107062037Y-55703373D01*
X107113557Y-55533534D01*
X107197222Y-55377009D01*
X107226552Y-55341271D01*
X107309814Y-55239814D01*
X107411271Y-55156552D01*
X107447009Y-55127222D01*
X107603534Y-55043557D01*
X107773373Y-54992037D01*
X107839557Y-54985519D01*
X107905740Y-54979000D01*
X107994260Y-54979000D01*
X108060443Y-54985519D01*
X108060443Y-54985519D01*
G37*
G36*
X110600442Y-49905518D02*
G01*
X110666627Y-49912037D01*
X110836466Y-49963557D01*
X110992991Y-50047222D01*
X111028729Y-50076552D01*
X111130186Y-50159814D01*
X111213448Y-50261271D01*
X111242778Y-50297009D01*
X111326443Y-50453534D01*
X111377963Y-50623373D01*
X111395359Y-50800000D01*
X111377963Y-50976627D01*
X111326443Y-51146466D01*
X111242778Y-51302991D01*
X111213448Y-51338729D01*
X111130186Y-51440186D01*
X111028729Y-51523448D01*
X110992991Y-51552778D01*
X110836466Y-51636443D01*
X110666627Y-51687963D01*
X110600442Y-51694482D01*
X110534260Y-51701000D01*
X110445740Y-51701000D01*
X110379558Y-51694482D01*
X110313373Y-51687963D01*
X110143534Y-51636443D01*
X109987009Y-51552778D01*
X109951271Y-51523448D01*
X109849814Y-51440186D01*
X109766552Y-51338729D01*
X109737222Y-51302991D01*
X109653557Y-51146466D01*
X109602037Y-50976627D01*
X109584641Y-50800000D01*
X109602037Y-50623373D01*
X109653557Y-50453534D01*
X109737222Y-50297009D01*
X109766552Y-50261271D01*
X109849814Y-50159814D01*
X109951271Y-50076552D01*
X109987009Y-50047222D01*
X110143534Y-49963557D01*
X110313373Y-49912037D01*
X110379557Y-49905519D01*
X110445740Y-49899000D01*
X110534260Y-49899000D01*
X110600442Y-49905518D01*
X110600442Y-49905518D01*
G37*
G36*
X108851000Y-51701000D02*
G01*
X107049000Y-51701000D01*
X107049000Y-49899000D01*
X108851000Y-49899000D01*
X108851000Y-51701000D01*
X108851000Y-51701000D01*
G37*
G36*
X115736823Y-48691313D02*
G01*
X115897242Y-48739976D01*
X116029906Y-48810886D01*
X116045078Y-48818996D01*
X116174659Y-48925341D01*
X116281004Y-49054922D01*
X116281005Y-49054924D01*
X116360024Y-49202758D01*
X116408687Y-49363177D01*
X116425117Y-49530000D01*
X116408687Y-49696823D01*
X116360024Y-49857242D01*
X116330735Y-49912037D01*
X116281004Y-50005078D01*
X116174659Y-50134659D01*
X116045078Y-50241004D01*
X116045076Y-50241005D01*
X115897242Y-50320024D01*
X115736823Y-50368687D01*
X115611804Y-50381000D01*
X115528196Y-50381000D01*
X115403177Y-50368687D01*
X115242758Y-50320024D01*
X115094924Y-50241005D01*
X115094922Y-50241004D01*
X114965341Y-50134659D01*
X114858996Y-50005078D01*
X114809265Y-49912037D01*
X114779976Y-49857242D01*
X114731313Y-49696823D01*
X114714883Y-49530000D01*
X114731313Y-49363177D01*
X114779976Y-49202758D01*
X114858995Y-49054924D01*
X114858996Y-49054922D01*
X114965341Y-48925341D01*
X115094922Y-48818996D01*
X115110094Y-48810886D01*
X115242758Y-48739976D01*
X115403177Y-48691313D01*
X115528196Y-48679000D01*
X115611804Y-48679000D01*
X115736823Y-48691313D01*
X115736823Y-48691313D01*
G37*
G36*
X125896823Y-48691313D02*
G01*
X126057242Y-48739976D01*
X126189906Y-48810886D01*
X126205078Y-48818996D01*
X126334659Y-48925341D01*
X126441004Y-49054922D01*
X126441005Y-49054924D01*
X126520024Y-49202758D01*
X126568687Y-49363177D01*
X126585117Y-49530000D01*
X126568687Y-49696823D01*
X126520024Y-49857242D01*
X126490735Y-49912037D01*
X126441004Y-50005078D01*
X126334659Y-50134659D01*
X126205078Y-50241004D01*
X126205076Y-50241005D01*
X126057242Y-50320024D01*
X125896823Y-50368687D01*
X125771804Y-50381000D01*
X125688196Y-50381000D01*
X125563177Y-50368687D01*
X125402758Y-50320024D01*
X125254924Y-50241005D01*
X125254922Y-50241004D01*
X125125341Y-50134659D01*
X125018996Y-50005078D01*
X124969265Y-49912037D01*
X124939976Y-49857242D01*
X124891313Y-49696823D01*
X124874883Y-49530000D01*
X124891313Y-49363177D01*
X124939976Y-49202758D01*
X125018995Y-49054924D01*
X125018996Y-49054922D01*
X125125341Y-48925341D01*
X125254922Y-48818996D01*
X125270094Y-48810886D01*
X125402758Y-48739976D01*
X125563177Y-48691313D01*
X125688196Y-48679000D01*
X125771804Y-48679000D01*
X125896823Y-48691313D01*
X125896823Y-48691313D01*
G37*
G36*
X115736823Y-46151313D02*
G01*
X115897242Y-46199976D01*
X116029906Y-46270886D01*
X116045078Y-46278996D01*
X116174659Y-46385341D01*
X116281004Y-46514922D01*
X116281005Y-46514924D01*
X116360024Y-46662758D01*
X116408687Y-46823177D01*
X116425117Y-46990000D01*
X116408687Y-47156823D01*
X116360024Y-47317242D01*
X116289114Y-47449906D01*
X116281004Y-47465078D01*
X116174659Y-47594659D01*
X116045078Y-47701004D01*
X116045076Y-47701005D01*
X115897242Y-47780024D01*
X115736823Y-47828687D01*
X115611804Y-47841000D01*
X115528196Y-47841000D01*
X115403177Y-47828687D01*
X115242758Y-47780024D01*
X115094924Y-47701005D01*
X115094922Y-47701004D01*
X114965341Y-47594659D01*
X114858996Y-47465078D01*
X114850886Y-47449906D01*
X114779976Y-47317242D01*
X114731313Y-47156823D01*
X114714883Y-46990000D01*
X114731313Y-46823177D01*
X114779976Y-46662758D01*
X114858995Y-46514924D01*
X114858996Y-46514922D01*
X114965341Y-46385341D01*
X115094922Y-46278996D01*
X115110094Y-46270886D01*
X115242758Y-46199976D01*
X115403177Y-46151313D01*
X115528196Y-46139000D01*
X115611804Y-46139000D01*
X115736823Y-46151313D01*
X115736823Y-46151313D01*
G37*
G36*
X125896823Y-46151313D02*
G01*
X126057242Y-46199976D01*
X126189906Y-46270886D01*
X126205078Y-46278996D01*
X126334659Y-46385341D01*
X126441004Y-46514922D01*
X126441005Y-46514924D01*
X126520024Y-46662758D01*
X126568687Y-46823177D01*
X126585117Y-46990000D01*
X126568687Y-47156823D01*
X126520024Y-47317242D01*
X126449114Y-47449906D01*
X126441004Y-47465078D01*
X126334659Y-47594659D01*
X126205078Y-47701004D01*
X126205076Y-47701005D01*
X126057242Y-47780024D01*
X125896823Y-47828687D01*
X125771804Y-47841000D01*
X125688196Y-47841000D01*
X125563177Y-47828687D01*
X125402758Y-47780024D01*
X125254924Y-47701005D01*
X125254922Y-47701004D01*
X125125341Y-47594659D01*
X125018996Y-47465078D01*
X125010886Y-47449906D01*
X124939976Y-47317242D01*
X124891313Y-47156823D01*
X124874883Y-46990000D01*
X124891313Y-46823177D01*
X124939976Y-46662758D01*
X125018995Y-46514924D01*
X125018996Y-46514922D01*
X125125341Y-46385341D01*
X125254922Y-46278996D01*
X125270094Y-46270886D01*
X125402758Y-46199976D01*
X125563177Y-46151313D01*
X125688196Y-46139000D01*
X125771804Y-46139000D01*
X125896823Y-46151313D01*
X125896823Y-46151313D01*
G37*
G36*
X115736823Y-43611313D02*
G01*
X115897242Y-43659976D01*
X116029906Y-43730886D01*
X116045078Y-43738996D01*
X116174659Y-43845341D01*
X116281004Y-43974922D01*
X116281005Y-43974924D01*
X116360024Y-44122758D01*
X116408687Y-44283177D01*
X116425117Y-44450000D01*
X116408687Y-44616823D01*
X116360024Y-44777242D01*
X116289114Y-44909906D01*
X116281004Y-44925078D01*
X116174659Y-45054659D01*
X116045078Y-45161004D01*
X116045076Y-45161005D01*
X115897242Y-45240024D01*
X115736823Y-45288687D01*
X115611804Y-45301000D01*
X115528196Y-45301000D01*
X115403177Y-45288687D01*
X115242758Y-45240024D01*
X115094924Y-45161005D01*
X115094922Y-45161004D01*
X114965341Y-45054659D01*
X114858996Y-44925078D01*
X114850886Y-44909906D01*
X114779976Y-44777242D01*
X114731313Y-44616823D01*
X114714883Y-44450000D01*
X114731313Y-44283177D01*
X114779976Y-44122758D01*
X114858995Y-43974924D01*
X114858996Y-43974922D01*
X114965341Y-43845341D01*
X115094922Y-43738996D01*
X115110094Y-43730886D01*
X115242758Y-43659976D01*
X115403177Y-43611313D01*
X115528196Y-43599000D01*
X115611804Y-43599000D01*
X115736823Y-43611313D01*
X115736823Y-43611313D01*
G37*
G36*
X125896823Y-43611313D02*
G01*
X126057242Y-43659976D01*
X126189906Y-43730886D01*
X126205078Y-43738996D01*
X126334659Y-43845341D01*
X126441004Y-43974922D01*
X126441005Y-43974924D01*
X126520024Y-44122758D01*
X126568687Y-44283177D01*
X126585117Y-44450000D01*
X126568687Y-44616823D01*
X126520024Y-44777242D01*
X126449114Y-44909906D01*
X126441004Y-44925078D01*
X126334659Y-45054659D01*
X126205078Y-45161004D01*
X126205076Y-45161005D01*
X126057242Y-45240024D01*
X125896823Y-45288687D01*
X125771804Y-45301000D01*
X125688196Y-45301000D01*
X125563177Y-45288687D01*
X125402758Y-45240024D01*
X125254924Y-45161005D01*
X125254922Y-45161004D01*
X125125341Y-45054659D01*
X125018996Y-44925078D01*
X125010886Y-44909906D01*
X124939976Y-44777242D01*
X124891313Y-44616823D01*
X124874883Y-44450000D01*
X124891313Y-44283177D01*
X124939976Y-44122758D01*
X125018995Y-43974924D01*
X125018996Y-43974922D01*
X125125341Y-43845341D01*
X125254922Y-43738996D01*
X125270094Y-43730886D01*
X125402758Y-43659976D01*
X125563177Y-43611313D01*
X125688196Y-43599000D01*
X125771804Y-43599000D01*
X125896823Y-43611313D01*
X125896823Y-43611313D01*
G37*
G36*
X101902585Y-41658802D02*
G01*
X102052410Y-41688604D01*
X102334674Y-41805521D01*
X102588705Y-41975259D01*
X102804741Y-42191295D01*
X102974479Y-42445326D01*
X103091396Y-42727590D01*
X103151000Y-43027240D01*
X103151000Y-43332760D01*
X103091396Y-43632410D01*
X102974479Y-43914674D01*
X102804741Y-44168705D01*
X102588705Y-44384741D01*
X102334674Y-44554479D01*
X102052410Y-44671396D01*
X101902585Y-44701198D01*
X101752761Y-44731000D01*
X101447239Y-44731000D01*
X101297415Y-44701198D01*
X101147590Y-44671396D01*
X100865326Y-44554479D01*
X100611295Y-44384741D01*
X100395259Y-44168705D01*
X100225521Y-43914674D01*
X100108604Y-43632410D01*
X100049000Y-43332760D01*
X100049000Y-43027240D01*
X100108604Y-42727590D01*
X100225521Y-42445326D01*
X100395259Y-42191295D01*
X100611295Y-41975259D01*
X100865326Y-41805521D01*
X101147590Y-41688604D01*
X101297415Y-41658802D01*
X101447239Y-41629000D01*
X101752761Y-41629000D01*
X101902585Y-41658802D01*
X101902585Y-41658802D01*
G37*
G36*
X133653765Y-41162620D02*
G01*
X133741585Y-41198996D01*
X133843288Y-41241123D01*
X134013854Y-41355092D01*
X134158908Y-41500146D01*
X134272877Y-41670712D01*
X134272878Y-41670714D01*
X134351380Y-41860235D01*
X134391400Y-42061430D01*
X134391400Y-42266570D01*
X134351380Y-42467765D01*
X134307437Y-42573854D01*
X134272877Y-42657288D01*
X134158908Y-42827854D01*
X134013854Y-42972908D01*
X133843288Y-43086877D01*
X133843287Y-43086878D01*
X133843286Y-43086878D01*
X133653765Y-43165380D01*
X133452570Y-43205400D01*
X133247430Y-43205400D01*
X133046235Y-43165380D01*
X132856714Y-43086878D01*
X132856713Y-43086878D01*
X132856712Y-43086877D01*
X132686146Y-42972908D01*
X132541092Y-42827854D01*
X132427123Y-42657288D01*
X132392564Y-42573854D01*
X132348620Y-42467765D01*
X132308600Y-42266570D01*
X132308600Y-42061430D01*
X132348620Y-41860235D01*
X132427122Y-41670714D01*
X132427123Y-41670712D01*
X132541092Y-41500146D01*
X132686146Y-41355092D01*
X132856712Y-41241123D01*
X132958416Y-41198996D01*
X133046235Y-41162620D01*
X133247430Y-41122600D01*
X133452570Y-41122600D01*
X133653765Y-41162620D01*
X133653765Y-41162620D01*
G37*
G36*
X138733765Y-41162620D02*
G01*
X138821585Y-41198996D01*
X138923288Y-41241123D01*
X139093854Y-41355092D01*
X139238908Y-41500146D01*
X139352877Y-41670712D01*
X139352878Y-41670714D01*
X139431380Y-41860235D01*
X139471400Y-42061430D01*
X139471400Y-42266570D01*
X139431380Y-42467765D01*
X139387437Y-42573854D01*
X139352877Y-42657288D01*
X139238908Y-42827854D01*
X139093854Y-42972908D01*
X138923288Y-43086877D01*
X138923287Y-43086878D01*
X138923286Y-43086878D01*
X138733765Y-43165380D01*
X138532570Y-43205400D01*
X138327430Y-43205400D01*
X138126235Y-43165380D01*
X137936714Y-43086878D01*
X137936713Y-43086878D01*
X137936712Y-43086877D01*
X137766146Y-42972908D01*
X137621092Y-42827854D01*
X137507123Y-42657288D01*
X137472564Y-42573854D01*
X137428620Y-42467765D01*
X137388600Y-42266570D01*
X137388600Y-42061430D01*
X137428620Y-41860235D01*
X137507122Y-41670714D01*
X137507123Y-41670712D01*
X137621092Y-41500146D01*
X137766146Y-41355092D01*
X137936712Y-41241123D01*
X138038416Y-41198996D01*
X138126235Y-41162620D01*
X138327430Y-41122600D01*
X138532570Y-41122600D01*
X138733765Y-41162620D01*
X138733765Y-41162620D01*
G37*
G36*
X143813765Y-41162620D02*
G01*
X143901585Y-41198996D01*
X144003288Y-41241123D01*
X144173854Y-41355092D01*
X144318908Y-41500146D01*
X144432877Y-41670712D01*
X144432878Y-41670714D01*
X144511380Y-41860235D01*
X144551400Y-42061430D01*
X144551400Y-42266570D01*
X144511380Y-42467765D01*
X144467437Y-42573854D01*
X144432877Y-42657288D01*
X144318908Y-42827854D01*
X144173854Y-42972908D01*
X144003288Y-43086877D01*
X144003287Y-43086878D01*
X144003286Y-43086878D01*
X143813765Y-43165380D01*
X143612570Y-43205400D01*
X143407430Y-43205400D01*
X143206235Y-43165380D01*
X143016714Y-43086878D01*
X143016713Y-43086878D01*
X143016712Y-43086877D01*
X142846146Y-42972908D01*
X142701092Y-42827854D01*
X142587123Y-42657288D01*
X142552564Y-42573854D01*
X142508620Y-42467765D01*
X142468600Y-42266570D01*
X142468600Y-42061430D01*
X142508620Y-41860235D01*
X142587122Y-41670714D01*
X142587123Y-41670712D01*
X142701092Y-41500146D01*
X142846146Y-41355092D01*
X143016712Y-41241123D01*
X143118416Y-41198996D01*
X143206235Y-41162620D01*
X143407430Y-41122600D01*
X143612570Y-41122600D01*
X143813765Y-41162620D01*
X143813765Y-41162620D01*
G37*
G36*
X146353765Y-40908620D02*
G01*
X146543288Y-40987123D01*
X146713854Y-41101092D01*
X146858908Y-41246146D01*
X146972877Y-41416712D01*
X146972878Y-41416714D01*
X147007437Y-41500148D01*
X147051380Y-41606235D01*
X147091400Y-41807431D01*
X147091400Y-42012569D01*
X147051380Y-42213765D01*
X146972877Y-42403288D01*
X146858908Y-42573854D01*
X146713854Y-42718908D01*
X146543288Y-42832877D01*
X146543287Y-42832878D01*
X146543286Y-42832878D01*
X146353765Y-42911380D01*
X146152570Y-42951400D01*
X145947430Y-42951400D01*
X145746235Y-42911380D01*
X145556714Y-42832878D01*
X145556713Y-42832878D01*
X145556712Y-42832877D01*
X145386146Y-42718908D01*
X145241092Y-42573854D01*
X145127123Y-42403288D01*
X145048620Y-42213765D01*
X145008600Y-42012569D01*
X145008600Y-41807431D01*
X145048620Y-41606235D01*
X145092563Y-41500148D01*
X145127122Y-41416714D01*
X145127123Y-41416712D01*
X145241092Y-41246146D01*
X145386146Y-41101092D01*
X145556712Y-40987123D01*
X145746235Y-40908620D01*
X145947430Y-40868600D01*
X146152570Y-40868600D01*
X146353765Y-40908620D01*
X146353765Y-40908620D01*
G37*
G36*
X131851400Y-42951400D02*
G01*
X129768600Y-42951400D01*
X129768600Y-40868600D01*
X131851400Y-40868600D01*
X131851400Y-42951400D01*
X131851400Y-42951400D01*
G37*
G36*
X136193765Y-40908620D02*
G01*
X136383288Y-40987123D01*
X136553854Y-41101092D01*
X136698908Y-41246146D01*
X136812877Y-41416712D01*
X136812878Y-41416714D01*
X136847437Y-41500148D01*
X136891380Y-41606235D01*
X136931400Y-41807431D01*
X136931400Y-42012569D01*
X136891380Y-42213765D01*
X136812877Y-42403288D01*
X136698908Y-42573854D01*
X136553854Y-42718908D01*
X136383288Y-42832877D01*
X136383287Y-42832878D01*
X136383286Y-42832878D01*
X136193765Y-42911380D01*
X135992570Y-42951400D01*
X135787430Y-42951400D01*
X135586235Y-42911380D01*
X135396714Y-42832878D01*
X135396713Y-42832878D01*
X135396712Y-42832877D01*
X135226146Y-42718908D01*
X135081092Y-42573854D01*
X134967123Y-42403288D01*
X134888620Y-42213765D01*
X134848600Y-42012569D01*
X134848600Y-41807431D01*
X134888620Y-41606235D01*
X134932563Y-41500148D01*
X134967122Y-41416714D01*
X134967123Y-41416712D01*
X135081092Y-41246146D01*
X135226146Y-41101092D01*
X135396712Y-40987123D01*
X135586235Y-40908620D01*
X135787430Y-40868600D01*
X135992570Y-40868600D01*
X136193765Y-40908620D01*
X136193765Y-40908620D01*
G37*
G36*
X141273765Y-40908620D02*
G01*
X141463288Y-40987123D01*
X141633854Y-41101092D01*
X141778908Y-41246146D01*
X141892877Y-41416712D01*
X141892878Y-41416714D01*
X141927437Y-41500148D01*
X141971380Y-41606235D01*
X142011400Y-41807431D01*
X142011400Y-42012569D01*
X141971380Y-42213765D01*
X141892877Y-42403288D01*
X141778908Y-42573854D01*
X141633854Y-42718908D01*
X141463288Y-42832877D01*
X141463287Y-42832878D01*
X141463286Y-42832878D01*
X141273765Y-42911380D01*
X141072570Y-42951400D01*
X140867430Y-42951400D01*
X140666235Y-42911380D01*
X140476714Y-42832878D01*
X140476713Y-42832878D01*
X140476712Y-42832877D01*
X140306146Y-42718908D01*
X140161092Y-42573854D01*
X140047123Y-42403288D01*
X139968620Y-42213765D01*
X139928600Y-42012569D01*
X139928600Y-41807431D01*
X139968620Y-41606235D01*
X140012563Y-41500148D01*
X140047122Y-41416714D01*
X140047123Y-41416712D01*
X140161092Y-41246146D01*
X140306146Y-41101092D01*
X140476712Y-40987123D01*
X140666235Y-40908620D01*
X140867430Y-40868600D01*
X141072570Y-40868600D01*
X141273765Y-40908620D01*
X141273765Y-40908620D01*
G37*
G36*
X116421000Y-42761000D02*
G01*
X114719000Y-42761000D01*
X114719000Y-41059000D01*
X116421000Y-41059000D01*
X116421000Y-42761000D01*
X116421000Y-42761000D01*
G37*
G36*
X125896823Y-41071313D02*
G01*
X126057242Y-41119976D01*
X126137023Y-41162620D01*
X126205078Y-41198996D01*
X126334659Y-41305341D01*
X126441004Y-41434922D01*
X126441005Y-41434924D01*
X126520024Y-41582758D01*
X126568687Y-41743177D01*
X126585117Y-41910000D01*
X126568687Y-42076823D01*
X126520024Y-42237242D01*
X126449114Y-42369906D01*
X126441004Y-42385078D01*
X126334659Y-42514659D01*
X126205078Y-42621004D01*
X126205076Y-42621005D01*
X126057242Y-42700024D01*
X125896823Y-42748687D01*
X125771804Y-42761000D01*
X125688196Y-42761000D01*
X125563177Y-42748687D01*
X125402758Y-42700024D01*
X125254924Y-42621005D01*
X125254922Y-42621004D01*
X125125341Y-42514659D01*
X125018996Y-42385078D01*
X125010886Y-42369906D01*
X124939976Y-42237242D01*
X124891313Y-42076823D01*
X124874883Y-41910000D01*
X124891313Y-41743177D01*
X124939976Y-41582758D01*
X125018995Y-41434924D01*
X125018996Y-41434922D01*
X125125341Y-41305341D01*
X125254922Y-41198996D01*
X125322977Y-41162620D01*
X125402758Y-41119976D01*
X125563177Y-41071313D01*
X125688196Y-41059000D01*
X125771804Y-41059000D01*
X125896823Y-41071313D01*
X125896823Y-41071313D01*
G37*
M02*
