M48
; DRILL file {KiCad 5.1.0-060a0da~80~ubuntu18.10.1} date za 23 mrt 2019 20:01:43 CET
; FORMAT={-:-/ absolute / inch / decimal}
; #@! TF.CreationDate,2019-03-23T20:01:43+01:00
; #@! TF.GenerationSoftware,Kicad,Pcbnew,5.1.0-060a0da~80~ubuntu18.10.1
FMAT,2
INCH
T1C0.0315
T2C0.0394
T3C0.0400
T4C0.1181
%
G90
G05
T1
X4.55Y-1.65
X4.55Y-1.75
X4.55Y-1.85
X4.55Y-1.95
X4.95Y-1.65
X4.95Y-1.75
X4.95Y-1.85
X4.95Y-1.95
T2
X3.95Y-2.2
X3.95Y-2.3
X3.95Y-2.4
X3.95Y-2.5
X3.95Y-2.6
X3.95Y-2.7
X3.95Y-2.8
X3.95Y-2.9
X3.95Y-3.0
X4.05Y-2.2
X4.05Y-2.3
X4.05Y-2.4
X4.05Y-2.5
X4.05Y-2.6
X4.05Y-2.7
X4.05Y-2.8
X4.05Y-2.9
X4.05Y-3.0
X5.95Y-2.2
X5.95Y-2.3
X5.95Y-2.4
X5.95Y-2.5
X6.05Y-2.2
X6.05Y-2.3
X6.05Y-2.4
X6.05Y-2.5
X4.25Y-2.0
X4.35Y-2.0
X5.95Y-3.6
X5.95Y-3.7
X6.05Y-3.6
X6.05Y-3.7
X3.95Y-3.6
X3.95Y-3.7
X4.05Y-3.6
X4.05Y-3.7
X4.25Y-2.2
X4.25Y-2.3
X4.35Y-2.2
X4.35Y-2.3
T3
X4.05Y-3.41
X4.07Y-3.31
X4.15Y-2.8
X4.225Y-2.875
X4.32Y-2.71
X4.325Y-2.9
X4.34Y-3.31
X4.34Y-3.41
X4.34Y-3.6
X4.385Y-3.01
X4.385Y-3.195
X4.455Y-2.105
X4.495Y-2.55
X4.595Y-2.57
X4.64Y-1.655
X4.65Y-2.4
X4.725Y-2.04
X4.74Y-2.415
X4.8Y-3.23
X4.8Y-3.49
X4.9Y-2.23
X5.0Y-2.23
X5.055Y-1.75
X5.25Y-1.84
X5.255Y-3.49
X5.275Y-3.2
X5.3Y-3.075
X5.36Y-2.81
X5.405Y-2.015
X5.45Y-1.93
X5.46Y-2.58
X5.55Y-2.185
X5.56Y-2.58
X5.63Y-2.77
X5.63Y-3.03
X5.91Y-1.9
X5.15Y-1.65
X5.25Y-1.66
X5.35Y-1.65
X5.45Y-1.66
X5.55Y-1.65
X5.65Y-1.66
X5.75Y-1.65
X5.3Y-2.39
X5.4Y-2.4
X5.5Y-2.39
X5.6Y-2.4
X4.55Y-2.2
X4.5Y-3.945
X4.6Y-3.955
X4.7Y-3.945
X5.79Y-2.6
X5.79Y-2.8
X5.8Y-2.7
X4.193Y-3.95
X4.307Y-3.95
T4
X6.0Y-3.95
X4.0Y-1.7
X4.0Y-3.95
T0
M30
