G04 #@! TF.GenerationSoftware,KiCad,Pcbnew,5.1.0-060a0da~80~ubuntu18.10.1*
G04 #@! TF.CreationDate,2019-03-23T20:01:21+01:00*
G04 #@! TF.ProjectId,project-embeddedSystemDesign2,70726f6a-6563-4742-9d65-6d6265646465,rev?*
G04 #@! TF.SameCoordinates,Original*
G04 #@! TF.FileFunction,Paste,Top*
G04 #@! TF.FilePolarity,Positive*
%FSLAX46Y46*%
G04 Gerber Fmt 4.6, Leading zero omitted, Abs format (unit mm)*
G04 Created by KiCad (PCBNEW 5.1.0-060a0da~80~ubuntu18.10.1) date 2019-03-23 20:01:21*
%MOMM*%
%LPD*%
G04 APERTURE LIST*
%ADD10R,0.250000X1.300000*%
%ADD11R,1.300000X0.250000*%
%ADD12C,0.100000*%
%ADD13C,0.950000*%
%ADD14C,1.150000*%
%ADD15R,1.100000X1.050000*%
%ADD16R,1.600000X2.180000*%
%ADD17R,1.899920X1.099820*%
G04 APERTURE END LIST*
D10*
X124250000Y-65500000D03*
X124750000Y-65500000D03*
X125250000Y-65500000D03*
X125750000Y-65500000D03*
X126250000Y-65500000D03*
X126750000Y-65500000D03*
X127250000Y-65500000D03*
X127750000Y-65500000D03*
X128250000Y-65500000D03*
X128750000Y-65500000D03*
X129250000Y-65500000D03*
X129750000Y-65500000D03*
D11*
X131350000Y-67100000D03*
X131350000Y-67600000D03*
X131350000Y-68100000D03*
X131350000Y-68600000D03*
X131350000Y-69100000D03*
X131350000Y-69600000D03*
X131350000Y-70100000D03*
X131350000Y-70600000D03*
X131350000Y-71100000D03*
X131350000Y-71600000D03*
X131350000Y-72100000D03*
X131350000Y-72600000D03*
D10*
X129750000Y-74200000D03*
X129250000Y-74200000D03*
X128750000Y-74200000D03*
X128250000Y-74200000D03*
X127750000Y-74200000D03*
X127250000Y-74200000D03*
X126750000Y-74200000D03*
X126250000Y-74200000D03*
X125750000Y-74200000D03*
X125250000Y-74200000D03*
X124750000Y-74200000D03*
X124250000Y-74200000D03*
D11*
X122650000Y-72600000D03*
X122650000Y-72100000D03*
X122650000Y-71600000D03*
X122650000Y-71100000D03*
X122650000Y-70600000D03*
X122650000Y-70100000D03*
X122650000Y-69600000D03*
X122650000Y-69100000D03*
X122650000Y-68600000D03*
X122650000Y-68100000D03*
X122650000Y-67600000D03*
X122650000Y-67100000D03*
D12*
G36*
X137039779Y-79345144D02*
G01*
X137062834Y-79348563D01*
X137085443Y-79354227D01*
X137107387Y-79362079D01*
X137128457Y-79372044D01*
X137148448Y-79384026D01*
X137167168Y-79397910D01*
X137184438Y-79413562D01*
X137200090Y-79430832D01*
X137213974Y-79449552D01*
X137225956Y-79469543D01*
X137235921Y-79490613D01*
X137243773Y-79512557D01*
X137249437Y-79535166D01*
X137252856Y-79558221D01*
X137254000Y-79581500D01*
X137254000Y-80156500D01*
X137252856Y-80179779D01*
X137249437Y-80202834D01*
X137243773Y-80225443D01*
X137235921Y-80247387D01*
X137225956Y-80268457D01*
X137213974Y-80288448D01*
X137200090Y-80307168D01*
X137184438Y-80324438D01*
X137167168Y-80340090D01*
X137148448Y-80353974D01*
X137128457Y-80365956D01*
X137107387Y-80375921D01*
X137085443Y-80383773D01*
X137062834Y-80389437D01*
X137039779Y-80392856D01*
X137016500Y-80394000D01*
X136541500Y-80394000D01*
X136518221Y-80392856D01*
X136495166Y-80389437D01*
X136472557Y-80383773D01*
X136450613Y-80375921D01*
X136429543Y-80365956D01*
X136409552Y-80353974D01*
X136390832Y-80340090D01*
X136373562Y-80324438D01*
X136357910Y-80307168D01*
X136344026Y-80288448D01*
X136332044Y-80268457D01*
X136322079Y-80247387D01*
X136314227Y-80225443D01*
X136308563Y-80202834D01*
X136305144Y-80179779D01*
X136304000Y-80156500D01*
X136304000Y-79581500D01*
X136305144Y-79558221D01*
X136308563Y-79535166D01*
X136314227Y-79512557D01*
X136322079Y-79490613D01*
X136332044Y-79469543D01*
X136344026Y-79449552D01*
X136357910Y-79430832D01*
X136373562Y-79413562D01*
X136390832Y-79397910D01*
X136409552Y-79384026D01*
X136429543Y-79372044D01*
X136450613Y-79362079D01*
X136472557Y-79354227D01*
X136495166Y-79348563D01*
X136518221Y-79345144D01*
X136541500Y-79344000D01*
X137016500Y-79344000D01*
X137039779Y-79345144D01*
X137039779Y-79345144D01*
G37*
D13*
X136779000Y-79869000D03*
D12*
G36*
X137039779Y-77595144D02*
G01*
X137062834Y-77598563D01*
X137085443Y-77604227D01*
X137107387Y-77612079D01*
X137128457Y-77622044D01*
X137148448Y-77634026D01*
X137167168Y-77647910D01*
X137184438Y-77663562D01*
X137200090Y-77680832D01*
X137213974Y-77699552D01*
X137225956Y-77719543D01*
X137235921Y-77740613D01*
X137243773Y-77762557D01*
X137249437Y-77785166D01*
X137252856Y-77808221D01*
X137254000Y-77831500D01*
X137254000Y-78406500D01*
X137252856Y-78429779D01*
X137249437Y-78452834D01*
X137243773Y-78475443D01*
X137235921Y-78497387D01*
X137225956Y-78518457D01*
X137213974Y-78538448D01*
X137200090Y-78557168D01*
X137184438Y-78574438D01*
X137167168Y-78590090D01*
X137148448Y-78603974D01*
X137128457Y-78615956D01*
X137107387Y-78625921D01*
X137085443Y-78633773D01*
X137062834Y-78639437D01*
X137039779Y-78642856D01*
X137016500Y-78644000D01*
X136541500Y-78644000D01*
X136518221Y-78642856D01*
X136495166Y-78639437D01*
X136472557Y-78633773D01*
X136450613Y-78625921D01*
X136429543Y-78615956D01*
X136409552Y-78603974D01*
X136390832Y-78590090D01*
X136373562Y-78574438D01*
X136357910Y-78557168D01*
X136344026Y-78538448D01*
X136332044Y-78518457D01*
X136322079Y-78497387D01*
X136314227Y-78475443D01*
X136308563Y-78452834D01*
X136305144Y-78429779D01*
X136304000Y-78406500D01*
X136304000Y-77831500D01*
X136305144Y-77808221D01*
X136308563Y-77785166D01*
X136314227Y-77762557D01*
X136322079Y-77740613D01*
X136332044Y-77719543D01*
X136344026Y-77699552D01*
X136357910Y-77680832D01*
X136373562Y-77663562D01*
X136390832Y-77647910D01*
X136409552Y-77634026D01*
X136429543Y-77622044D01*
X136450613Y-77612079D01*
X136472557Y-77604227D01*
X136495166Y-77598563D01*
X136518221Y-77595144D01*
X136541500Y-77594000D01*
X137016500Y-77594000D01*
X137039779Y-77595144D01*
X137039779Y-77595144D01*
G37*
D13*
X136779000Y-78119000D03*
D12*
G36*
X125054505Y-79565204D02*
G01*
X125078773Y-79568804D01*
X125102572Y-79574765D01*
X125125671Y-79583030D01*
X125147850Y-79593520D01*
X125168893Y-79606132D01*
X125188599Y-79620747D01*
X125206777Y-79637223D01*
X125223253Y-79655401D01*
X125237868Y-79675107D01*
X125250480Y-79696150D01*
X125260970Y-79718329D01*
X125269235Y-79741428D01*
X125275196Y-79765227D01*
X125278796Y-79789495D01*
X125280000Y-79813999D01*
X125280000Y-80714001D01*
X125278796Y-80738505D01*
X125275196Y-80762773D01*
X125269235Y-80786572D01*
X125260970Y-80809671D01*
X125250480Y-80831850D01*
X125237868Y-80852893D01*
X125223253Y-80872599D01*
X125206777Y-80890777D01*
X125188599Y-80907253D01*
X125168893Y-80921868D01*
X125147850Y-80934480D01*
X125125671Y-80944970D01*
X125102572Y-80953235D01*
X125078773Y-80959196D01*
X125054505Y-80962796D01*
X125030001Y-80964000D01*
X124379999Y-80964000D01*
X124355495Y-80962796D01*
X124331227Y-80959196D01*
X124307428Y-80953235D01*
X124284329Y-80944970D01*
X124262150Y-80934480D01*
X124241107Y-80921868D01*
X124221401Y-80907253D01*
X124203223Y-80890777D01*
X124186747Y-80872599D01*
X124172132Y-80852893D01*
X124159520Y-80831850D01*
X124149030Y-80809671D01*
X124140765Y-80786572D01*
X124134804Y-80762773D01*
X124131204Y-80738505D01*
X124130000Y-80714001D01*
X124130000Y-79813999D01*
X124131204Y-79789495D01*
X124134804Y-79765227D01*
X124140765Y-79741428D01*
X124149030Y-79718329D01*
X124159520Y-79696150D01*
X124172132Y-79675107D01*
X124186747Y-79655401D01*
X124203223Y-79637223D01*
X124221401Y-79620747D01*
X124241107Y-79606132D01*
X124262150Y-79593520D01*
X124284329Y-79583030D01*
X124307428Y-79574765D01*
X124331227Y-79568804D01*
X124355495Y-79565204D01*
X124379999Y-79564000D01*
X125030001Y-79564000D01*
X125054505Y-79565204D01*
X125054505Y-79565204D01*
G37*
D14*
X124705000Y-80264000D03*
D12*
G36*
X127104505Y-79565204D02*
G01*
X127128773Y-79568804D01*
X127152572Y-79574765D01*
X127175671Y-79583030D01*
X127197850Y-79593520D01*
X127218893Y-79606132D01*
X127238599Y-79620747D01*
X127256777Y-79637223D01*
X127273253Y-79655401D01*
X127287868Y-79675107D01*
X127300480Y-79696150D01*
X127310970Y-79718329D01*
X127319235Y-79741428D01*
X127325196Y-79765227D01*
X127328796Y-79789495D01*
X127330000Y-79813999D01*
X127330000Y-80714001D01*
X127328796Y-80738505D01*
X127325196Y-80762773D01*
X127319235Y-80786572D01*
X127310970Y-80809671D01*
X127300480Y-80831850D01*
X127287868Y-80852893D01*
X127273253Y-80872599D01*
X127256777Y-80890777D01*
X127238599Y-80907253D01*
X127218893Y-80921868D01*
X127197850Y-80934480D01*
X127175671Y-80944970D01*
X127152572Y-80953235D01*
X127128773Y-80959196D01*
X127104505Y-80962796D01*
X127080001Y-80964000D01*
X126429999Y-80964000D01*
X126405495Y-80962796D01*
X126381227Y-80959196D01*
X126357428Y-80953235D01*
X126334329Y-80944970D01*
X126312150Y-80934480D01*
X126291107Y-80921868D01*
X126271401Y-80907253D01*
X126253223Y-80890777D01*
X126236747Y-80872599D01*
X126222132Y-80852893D01*
X126209520Y-80831850D01*
X126199030Y-80809671D01*
X126190765Y-80786572D01*
X126184804Y-80762773D01*
X126181204Y-80738505D01*
X126180000Y-80714001D01*
X126180000Y-79813999D01*
X126181204Y-79789495D01*
X126184804Y-79765227D01*
X126190765Y-79741428D01*
X126199030Y-79718329D01*
X126209520Y-79696150D01*
X126222132Y-79675107D01*
X126236747Y-79655401D01*
X126253223Y-79637223D01*
X126271401Y-79620747D01*
X126291107Y-79606132D01*
X126312150Y-79593520D01*
X126334329Y-79583030D01*
X126357428Y-79574765D01*
X126381227Y-79568804D01*
X126405495Y-79565204D01*
X126429999Y-79564000D01*
X127080001Y-79564000D01*
X127104505Y-79565204D01*
X127104505Y-79565204D01*
G37*
D14*
X126755000Y-80264000D03*
D12*
G36*
X115409505Y-68777204D02*
G01*
X115433773Y-68780804D01*
X115457572Y-68786765D01*
X115480671Y-68795030D01*
X115502850Y-68805520D01*
X115523893Y-68818132D01*
X115543599Y-68832747D01*
X115561777Y-68849223D01*
X115578253Y-68867401D01*
X115592868Y-68887107D01*
X115605480Y-68908150D01*
X115615970Y-68930329D01*
X115624235Y-68953428D01*
X115630196Y-68977227D01*
X115633796Y-69001495D01*
X115635000Y-69025999D01*
X115635000Y-69676001D01*
X115633796Y-69700505D01*
X115630196Y-69724773D01*
X115624235Y-69748572D01*
X115615970Y-69771671D01*
X115605480Y-69793850D01*
X115592868Y-69814893D01*
X115578253Y-69834599D01*
X115561777Y-69852777D01*
X115543599Y-69869253D01*
X115523893Y-69883868D01*
X115502850Y-69896480D01*
X115480671Y-69906970D01*
X115457572Y-69915235D01*
X115433773Y-69921196D01*
X115409505Y-69924796D01*
X115385001Y-69926000D01*
X114484999Y-69926000D01*
X114460495Y-69924796D01*
X114436227Y-69921196D01*
X114412428Y-69915235D01*
X114389329Y-69906970D01*
X114367150Y-69896480D01*
X114346107Y-69883868D01*
X114326401Y-69869253D01*
X114308223Y-69852777D01*
X114291747Y-69834599D01*
X114277132Y-69814893D01*
X114264520Y-69793850D01*
X114254030Y-69771671D01*
X114245765Y-69748572D01*
X114239804Y-69724773D01*
X114236204Y-69700505D01*
X114235000Y-69676001D01*
X114235000Y-69025999D01*
X114236204Y-69001495D01*
X114239804Y-68977227D01*
X114245765Y-68953428D01*
X114254030Y-68930329D01*
X114264520Y-68908150D01*
X114277132Y-68887107D01*
X114291747Y-68867401D01*
X114308223Y-68849223D01*
X114326401Y-68832747D01*
X114346107Y-68818132D01*
X114367150Y-68805520D01*
X114389329Y-68795030D01*
X114412428Y-68786765D01*
X114436227Y-68780804D01*
X114460495Y-68777204D01*
X114484999Y-68776000D01*
X115385001Y-68776000D01*
X115409505Y-68777204D01*
X115409505Y-68777204D01*
G37*
D14*
X114935000Y-69351000D03*
D12*
G36*
X115409505Y-66727204D02*
G01*
X115433773Y-66730804D01*
X115457572Y-66736765D01*
X115480671Y-66745030D01*
X115502850Y-66755520D01*
X115523893Y-66768132D01*
X115543599Y-66782747D01*
X115561777Y-66799223D01*
X115578253Y-66817401D01*
X115592868Y-66837107D01*
X115605480Y-66858150D01*
X115615970Y-66880329D01*
X115624235Y-66903428D01*
X115630196Y-66927227D01*
X115633796Y-66951495D01*
X115635000Y-66975999D01*
X115635000Y-67626001D01*
X115633796Y-67650505D01*
X115630196Y-67674773D01*
X115624235Y-67698572D01*
X115615970Y-67721671D01*
X115605480Y-67743850D01*
X115592868Y-67764893D01*
X115578253Y-67784599D01*
X115561777Y-67802777D01*
X115543599Y-67819253D01*
X115523893Y-67833868D01*
X115502850Y-67846480D01*
X115480671Y-67856970D01*
X115457572Y-67865235D01*
X115433773Y-67871196D01*
X115409505Y-67874796D01*
X115385001Y-67876000D01*
X114484999Y-67876000D01*
X114460495Y-67874796D01*
X114436227Y-67871196D01*
X114412428Y-67865235D01*
X114389329Y-67856970D01*
X114367150Y-67846480D01*
X114346107Y-67833868D01*
X114326401Y-67819253D01*
X114308223Y-67802777D01*
X114291747Y-67784599D01*
X114277132Y-67764893D01*
X114264520Y-67743850D01*
X114254030Y-67721671D01*
X114245765Y-67698572D01*
X114239804Y-67674773D01*
X114236204Y-67650505D01*
X114235000Y-67626001D01*
X114235000Y-66975999D01*
X114236204Y-66951495D01*
X114239804Y-66927227D01*
X114245765Y-66903428D01*
X114254030Y-66880329D01*
X114264520Y-66858150D01*
X114277132Y-66837107D01*
X114291747Y-66817401D01*
X114308223Y-66799223D01*
X114326401Y-66782747D01*
X114346107Y-66768132D01*
X114367150Y-66755520D01*
X114389329Y-66745030D01*
X114412428Y-66736765D01*
X114436227Y-66730804D01*
X114460495Y-66727204D01*
X114484999Y-66726000D01*
X115385001Y-66726000D01*
X115409505Y-66727204D01*
X115409505Y-66727204D01*
G37*
D14*
X114935000Y-67301000D03*
D15*
X118237000Y-76363000D03*
X118237000Y-74513000D03*
D12*
G36*
X112869505Y-68777204D02*
G01*
X112893773Y-68780804D01*
X112917572Y-68786765D01*
X112940671Y-68795030D01*
X112962850Y-68805520D01*
X112983893Y-68818132D01*
X113003599Y-68832747D01*
X113021777Y-68849223D01*
X113038253Y-68867401D01*
X113052868Y-68887107D01*
X113065480Y-68908150D01*
X113075970Y-68930329D01*
X113084235Y-68953428D01*
X113090196Y-68977227D01*
X113093796Y-69001495D01*
X113095000Y-69025999D01*
X113095000Y-69676001D01*
X113093796Y-69700505D01*
X113090196Y-69724773D01*
X113084235Y-69748572D01*
X113075970Y-69771671D01*
X113065480Y-69793850D01*
X113052868Y-69814893D01*
X113038253Y-69834599D01*
X113021777Y-69852777D01*
X113003599Y-69869253D01*
X112983893Y-69883868D01*
X112962850Y-69896480D01*
X112940671Y-69906970D01*
X112917572Y-69915235D01*
X112893773Y-69921196D01*
X112869505Y-69924796D01*
X112845001Y-69926000D01*
X111944999Y-69926000D01*
X111920495Y-69924796D01*
X111896227Y-69921196D01*
X111872428Y-69915235D01*
X111849329Y-69906970D01*
X111827150Y-69896480D01*
X111806107Y-69883868D01*
X111786401Y-69869253D01*
X111768223Y-69852777D01*
X111751747Y-69834599D01*
X111737132Y-69814893D01*
X111724520Y-69793850D01*
X111714030Y-69771671D01*
X111705765Y-69748572D01*
X111699804Y-69724773D01*
X111696204Y-69700505D01*
X111695000Y-69676001D01*
X111695000Y-69025999D01*
X111696204Y-69001495D01*
X111699804Y-68977227D01*
X111705765Y-68953428D01*
X111714030Y-68930329D01*
X111724520Y-68908150D01*
X111737132Y-68887107D01*
X111751747Y-68867401D01*
X111768223Y-68849223D01*
X111786401Y-68832747D01*
X111806107Y-68818132D01*
X111827150Y-68805520D01*
X111849329Y-68795030D01*
X111872428Y-68786765D01*
X111896227Y-68780804D01*
X111920495Y-68777204D01*
X111944999Y-68776000D01*
X112845001Y-68776000D01*
X112869505Y-68777204D01*
X112869505Y-68777204D01*
G37*
D14*
X112395000Y-69351000D03*
D12*
G36*
X112869505Y-66727204D02*
G01*
X112893773Y-66730804D01*
X112917572Y-66736765D01*
X112940671Y-66745030D01*
X112962850Y-66755520D01*
X112983893Y-66768132D01*
X113003599Y-66782747D01*
X113021777Y-66799223D01*
X113038253Y-66817401D01*
X113052868Y-66837107D01*
X113065480Y-66858150D01*
X113075970Y-66880329D01*
X113084235Y-66903428D01*
X113090196Y-66927227D01*
X113093796Y-66951495D01*
X113095000Y-66975999D01*
X113095000Y-67626001D01*
X113093796Y-67650505D01*
X113090196Y-67674773D01*
X113084235Y-67698572D01*
X113075970Y-67721671D01*
X113065480Y-67743850D01*
X113052868Y-67764893D01*
X113038253Y-67784599D01*
X113021777Y-67802777D01*
X113003599Y-67819253D01*
X112983893Y-67833868D01*
X112962850Y-67846480D01*
X112940671Y-67856970D01*
X112917572Y-67865235D01*
X112893773Y-67871196D01*
X112869505Y-67874796D01*
X112845001Y-67876000D01*
X111944999Y-67876000D01*
X111920495Y-67874796D01*
X111896227Y-67871196D01*
X111872428Y-67865235D01*
X111849329Y-67856970D01*
X111827150Y-67846480D01*
X111806107Y-67833868D01*
X111786401Y-67819253D01*
X111768223Y-67802777D01*
X111751747Y-67784599D01*
X111737132Y-67764893D01*
X111724520Y-67743850D01*
X111714030Y-67721671D01*
X111705765Y-67698572D01*
X111699804Y-67674773D01*
X111696204Y-67650505D01*
X111695000Y-67626001D01*
X111695000Y-66975999D01*
X111696204Y-66951495D01*
X111699804Y-66927227D01*
X111705765Y-66903428D01*
X111714030Y-66880329D01*
X111724520Y-66858150D01*
X111737132Y-66837107D01*
X111751747Y-66817401D01*
X111768223Y-66799223D01*
X111786401Y-66782747D01*
X111806107Y-66768132D01*
X111827150Y-66755520D01*
X111849329Y-66745030D01*
X111872428Y-66736765D01*
X111896227Y-66730804D01*
X111920495Y-66727204D01*
X111944999Y-66726000D01*
X112845001Y-66726000D01*
X112869505Y-66727204D01*
X112869505Y-66727204D01*
G37*
D14*
X112395000Y-67301000D03*
D16*
X153035000Y-50945000D03*
X153035000Y-41765000D03*
D12*
G36*
X148810505Y-50997204D02*
G01*
X148834773Y-51000804D01*
X148858572Y-51006765D01*
X148881671Y-51015030D01*
X148903850Y-51025520D01*
X148924893Y-51038132D01*
X148944599Y-51052747D01*
X148962777Y-51069223D01*
X148979253Y-51087401D01*
X148993868Y-51107107D01*
X149006480Y-51128150D01*
X149016970Y-51150329D01*
X149025235Y-51173428D01*
X149031196Y-51197227D01*
X149034796Y-51221495D01*
X149036000Y-51245999D01*
X149036000Y-51896001D01*
X149034796Y-51920505D01*
X149031196Y-51944773D01*
X149025235Y-51968572D01*
X149016970Y-51991671D01*
X149006480Y-52013850D01*
X148993868Y-52034893D01*
X148979253Y-52054599D01*
X148962777Y-52072777D01*
X148944599Y-52089253D01*
X148924893Y-52103868D01*
X148903850Y-52116480D01*
X148881671Y-52126970D01*
X148858572Y-52135235D01*
X148834773Y-52141196D01*
X148810505Y-52144796D01*
X148786001Y-52146000D01*
X147885999Y-52146000D01*
X147861495Y-52144796D01*
X147837227Y-52141196D01*
X147813428Y-52135235D01*
X147790329Y-52126970D01*
X147768150Y-52116480D01*
X147747107Y-52103868D01*
X147727401Y-52089253D01*
X147709223Y-52072777D01*
X147692747Y-52054599D01*
X147678132Y-52034893D01*
X147665520Y-52013850D01*
X147655030Y-51991671D01*
X147646765Y-51968572D01*
X147640804Y-51944773D01*
X147637204Y-51920505D01*
X147636000Y-51896001D01*
X147636000Y-51245999D01*
X147637204Y-51221495D01*
X147640804Y-51197227D01*
X147646765Y-51173428D01*
X147655030Y-51150329D01*
X147665520Y-51128150D01*
X147678132Y-51107107D01*
X147692747Y-51087401D01*
X147709223Y-51069223D01*
X147727401Y-51052747D01*
X147747107Y-51038132D01*
X147768150Y-51025520D01*
X147790329Y-51015030D01*
X147813428Y-51006765D01*
X147837227Y-51000804D01*
X147861495Y-50997204D01*
X147885999Y-50996000D01*
X148786001Y-50996000D01*
X148810505Y-50997204D01*
X148810505Y-50997204D01*
G37*
D14*
X148336000Y-51571000D03*
D12*
G36*
X148810505Y-48947204D02*
G01*
X148834773Y-48950804D01*
X148858572Y-48956765D01*
X148881671Y-48965030D01*
X148903850Y-48975520D01*
X148924893Y-48988132D01*
X148944599Y-49002747D01*
X148962777Y-49019223D01*
X148979253Y-49037401D01*
X148993868Y-49057107D01*
X149006480Y-49078150D01*
X149016970Y-49100329D01*
X149025235Y-49123428D01*
X149031196Y-49147227D01*
X149034796Y-49171495D01*
X149036000Y-49195999D01*
X149036000Y-49846001D01*
X149034796Y-49870505D01*
X149031196Y-49894773D01*
X149025235Y-49918572D01*
X149016970Y-49941671D01*
X149006480Y-49963850D01*
X148993868Y-49984893D01*
X148979253Y-50004599D01*
X148962777Y-50022777D01*
X148944599Y-50039253D01*
X148924893Y-50053868D01*
X148903850Y-50066480D01*
X148881671Y-50076970D01*
X148858572Y-50085235D01*
X148834773Y-50091196D01*
X148810505Y-50094796D01*
X148786001Y-50096000D01*
X147885999Y-50096000D01*
X147861495Y-50094796D01*
X147837227Y-50091196D01*
X147813428Y-50085235D01*
X147790329Y-50076970D01*
X147768150Y-50066480D01*
X147747107Y-50053868D01*
X147727401Y-50039253D01*
X147709223Y-50022777D01*
X147692747Y-50004599D01*
X147678132Y-49984893D01*
X147665520Y-49963850D01*
X147655030Y-49941671D01*
X147646765Y-49918572D01*
X147640804Y-49894773D01*
X147637204Y-49870505D01*
X147636000Y-49846001D01*
X147636000Y-49195999D01*
X147637204Y-49171495D01*
X147640804Y-49147227D01*
X147646765Y-49123428D01*
X147655030Y-49100329D01*
X147665520Y-49078150D01*
X147678132Y-49057107D01*
X147692747Y-49037401D01*
X147709223Y-49019223D01*
X147727401Y-49002747D01*
X147747107Y-48988132D01*
X147768150Y-48975520D01*
X147790329Y-48965030D01*
X147813428Y-48956765D01*
X147837227Y-48950804D01*
X147861495Y-48947204D01*
X147885999Y-48946000D01*
X148786001Y-48946000D01*
X148810505Y-48947204D01*
X148810505Y-48947204D01*
G37*
D14*
X148336000Y-49521000D03*
D12*
G36*
X146154505Y-44259204D02*
G01*
X146178773Y-44262804D01*
X146202572Y-44268765D01*
X146225671Y-44277030D01*
X146247850Y-44287520D01*
X146268893Y-44300132D01*
X146288599Y-44314747D01*
X146306777Y-44331223D01*
X146323253Y-44349401D01*
X146337868Y-44369107D01*
X146350480Y-44390150D01*
X146360970Y-44412329D01*
X146369235Y-44435428D01*
X146375196Y-44459227D01*
X146378796Y-44483495D01*
X146380000Y-44507999D01*
X146380000Y-45408001D01*
X146378796Y-45432505D01*
X146375196Y-45456773D01*
X146369235Y-45480572D01*
X146360970Y-45503671D01*
X146350480Y-45525850D01*
X146337868Y-45546893D01*
X146323253Y-45566599D01*
X146306777Y-45584777D01*
X146288599Y-45601253D01*
X146268893Y-45615868D01*
X146247850Y-45628480D01*
X146225671Y-45638970D01*
X146202572Y-45647235D01*
X146178773Y-45653196D01*
X146154505Y-45656796D01*
X146130001Y-45658000D01*
X145479999Y-45658000D01*
X145455495Y-45656796D01*
X145431227Y-45653196D01*
X145407428Y-45647235D01*
X145384329Y-45638970D01*
X145362150Y-45628480D01*
X145341107Y-45615868D01*
X145321401Y-45601253D01*
X145303223Y-45584777D01*
X145286747Y-45566599D01*
X145272132Y-45546893D01*
X145259520Y-45525850D01*
X145249030Y-45503671D01*
X145240765Y-45480572D01*
X145234804Y-45456773D01*
X145231204Y-45432505D01*
X145230000Y-45408001D01*
X145230000Y-44507999D01*
X145231204Y-44483495D01*
X145234804Y-44459227D01*
X145240765Y-44435428D01*
X145249030Y-44412329D01*
X145259520Y-44390150D01*
X145272132Y-44369107D01*
X145286747Y-44349401D01*
X145303223Y-44331223D01*
X145321401Y-44314747D01*
X145341107Y-44300132D01*
X145362150Y-44287520D01*
X145384329Y-44277030D01*
X145407428Y-44268765D01*
X145431227Y-44262804D01*
X145455495Y-44259204D01*
X145479999Y-44258000D01*
X146130001Y-44258000D01*
X146154505Y-44259204D01*
X146154505Y-44259204D01*
G37*
D14*
X145805000Y-44958000D03*
D12*
G36*
X144104505Y-44259204D02*
G01*
X144128773Y-44262804D01*
X144152572Y-44268765D01*
X144175671Y-44277030D01*
X144197850Y-44287520D01*
X144218893Y-44300132D01*
X144238599Y-44314747D01*
X144256777Y-44331223D01*
X144273253Y-44349401D01*
X144287868Y-44369107D01*
X144300480Y-44390150D01*
X144310970Y-44412329D01*
X144319235Y-44435428D01*
X144325196Y-44459227D01*
X144328796Y-44483495D01*
X144330000Y-44507999D01*
X144330000Y-45408001D01*
X144328796Y-45432505D01*
X144325196Y-45456773D01*
X144319235Y-45480572D01*
X144310970Y-45503671D01*
X144300480Y-45525850D01*
X144287868Y-45546893D01*
X144273253Y-45566599D01*
X144256777Y-45584777D01*
X144238599Y-45601253D01*
X144218893Y-45615868D01*
X144197850Y-45628480D01*
X144175671Y-45638970D01*
X144152572Y-45647235D01*
X144128773Y-45653196D01*
X144104505Y-45656796D01*
X144080001Y-45658000D01*
X143429999Y-45658000D01*
X143405495Y-45656796D01*
X143381227Y-45653196D01*
X143357428Y-45647235D01*
X143334329Y-45638970D01*
X143312150Y-45628480D01*
X143291107Y-45615868D01*
X143271401Y-45601253D01*
X143253223Y-45584777D01*
X143236747Y-45566599D01*
X143222132Y-45546893D01*
X143209520Y-45525850D01*
X143199030Y-45503671D01*
X143190765Y-45480572D01*
X143184804Y-45456773D01*
X143181204Y-45432505D01*
X143180000Y-45408001D01*
X143180000Y-44507999D01*
X143181204Y-44483495D01*
X143184804Y-44459227D01*
X143190765Y-44435428D01*
X143199030Y-44412329D01*
X143209520Y-44390150D01*
X143222132Y-44369107D01*
X143236747Y-44349401D01*
X143253223Y-44331223D01*
X143271401Y-44314747D01*
X143291107Y-44300132D01*
X143312150Y-44287520D01*
X143334329Y-44277030D01*
X143357428Y-44268765D01*
X143381227Y-44262804D01*
X143405495Y-44259204D01*
X143429999Y-44258000D01*
X144080001Y-44258000D01*
X144104505Y-44259204D01*
X144104505Y-44259204D01*
G37*
D14*
X143755000Y-44958000D03*
D12*
G36*
X138904505Y-46171204D02*
G01*
X138928773Y-46174804D01*
X138952572Y-46180765D01*
X138975671Y-46189030D01*
X138997850Y-46199520D01*
X139018893Y-46212132D01*
X139038599Y-46226747D01*
X139056777Y-46243223D01*
X139073253Y-46261401D01*
X139087868Y-46281107D01*
X139100480Y-46302150D01*
X139110970Y-46324329D01*
X139119235Y-46347428D01*
X139125196Y-46371227D01*
X139128796Y-46395495D01*
X139130000Y-46419999D01*
X139130000Y-47070001D01*
X139128796Y-47094505D01*
X139125196Y-47118773D01*
X139119235Y-47142572D01*
X139110970Y-47165671D01*
X139100480Y-47187850D01*
X139087868Y-47208893D01*
X139073253Y-47228599D01*
X139056777Y-47246777D01*
X139038599Y-47263253D01*
X139018893Y-47277868D01*
X138997850Y-47290480D01*
X138975671Y-47300970D01*
X138952572Y-47309235D01*
X138928773Y-47315196D01*
X138904505Y-47318796D01*
X138880001Y-47320000D01*
X137979999Y-47320000D01*
X137955495Y-47318796D01*
X137931227Y-47315196D01*
X137907428Y-47309235D01*
X137884329Y-47300970D01*
X137862150Y-47290480D01*
X137841107Y-47277868D01*
X137821401Y-47263253D01*
X137803223Y-47246777D01*
X137786747Y-47228599D01*
X137772132Y-47208893D01*
X137759520Y-47187850D01*
X137749030Y-47165671D01*
X137740765Y-47142572D01*
X137734804Y-47118773D01*
X137731204Y-47094505D01*
X137730000Y-47070001D01*
X137730000Y-46419999D01*
X137731204Y-46395495D01*
X137734804Y-46371227D01*
X137740765Y-46347428D01*
X137749030Y-46324329D01*
X137759520Y-46302150D01*
X137772132Y-46281107D01*
X137786747Y-46261401D01*
X137803223Y-46243223D01*
X137821401Y-46226747D01*
X137841107Y-46212132D01*
X137862150Y-46199520D01*
X137884329Y-46189030D01*
X137907428Y-46180765D01*
X137931227Y-46174804D01*
X137955495Y-46171204D01*
X137979999Y-46170000D01*
X138880001Y-46170000D01*
X138904505Y-46171204D01*
X138904505Y-46171204D01*
G37*
D14*
X138430000Y-46745000D03*
D12*
G36*
X138904505Y-44121204D02*
G01*
X138928773Y-44124804D01*
X138952572Y-44130765D01*
X138975671Y-44139030D01*
X138997850Y-44149520D01*
X139018893Y-44162132D01*
X139038599Y-44176747D01*
X139056777Y-44193223D01*
X139073253Y-44211401D01*
X139087868Y-44231107D01*
X139100480Y-44252150D01*
X139110970Y-44274329D01*
X139119235Y-44297428D01*
X139125196Y-44321227D01*
X139128796Y-44345495D01*
X139130000Y-44369999D01*
X139130000Y-45020001D01*
X139128796Y-45044505D01*
X139125196Y-45068773D01*
X139119235Y-45092572D01*
X139110970Y-45115671D01*
X139100480Y-45137850D01*
X139087868Y-45158893D01*
X139073253Y-45178599D01*
X139056777Y-45196777D01*
X139038599Y-45213253D01*
X139018893Y-45227868D01*
X138997850Y-45240480D01*
X138975671Y-45250970D01*
X138952572Y-45259235D01*
X138928773Y-45265196D01*
X138904505Y-45268796D01*
X138880001Y-45270000D01*
X137979999Y-45270000D01*
X137955495Y-45268796D01*
X137931227Y-45265196D01*
X137907428Y-45259235D01*
X137884329Y-45250970D01*
X137862150Y-45240480D01*
X137841107Y-45227868D01*
X137821401Y-45213253D01*
X137803223Y-45196777D01*
X137786747Y-45178599D01*
X137772132Y-45158893D01*
X137759520Y-45137850D01*
X137749030Y-45115671D01*
X137740765Y-45092572D01*
X137734804Y-45068773D01*
X137731204Y-45044505D01*
X137730000Y-45020001D01*
X137730000Y-44369999D01*
X137731204Y-44345495D01*
X137734804Y-44321227D01*
X137740765Y-44297428D01*
X137749030Y-44274329D01*
X137759520Y-44252150D01*
X137772132Y-44231107D01*
X137786747Y-44211401D01*
X137803223Y-44193223D01*
X137821401Y-44176747D01*
X137841107Y-44162132D01*
X137862150Y-44149520D01*
X137884329Y-44139030D01*
X137907428Y-44130765D01*
X137931227Y-44124804D01*
X137955495Y-44121204D01*
X137979999Y-44120000D01*
X138880001Y-44120000D01*
X138904505Y-44121204D01*
X138904505Y-44121204D01*
G37*
D14*
X138430000Y-44695000D03*
D12*
G36*
X136364505Y-46171204D02*
G01*
X136388773Y-46174804D01*
X136412572Y-46180765D01*
X136435671Y-46189030D01*
X136457850Y-46199520D01*
X136478893Y-46212132D01*
X136498599Y-46226747D01*
X136516777Y-46243223D01*
X136533253Y-46261401D01*
X136547868Y-46281107D01*
X136560480Y-46302150D01*
X136570970Y-46324329D01*
X136579235Y-46347428D01*
X136585196Y-46371227D01*
X136588796Y-46395495D01*
X136590000Y-46419999D01*
X136590000Y-47070001D01*
X136588796Y-47094505D01*
X136585196Y-47118773D01*
X136579235Y-47142572D01*
X136570970Y-47165671D01*
X136560480Y-47187850D01*
X136547868Y-47208893D01*
X136533253Y-47228599D01*
X136516777Y-47246777D01*
X136498599Y-47263253D01*
X136478893Y-47277868D01*
X136457850Y-47290480D01*
X136435671Y-47300970D01*
X136412572Y-47309235D01*
X136388773Y-47315196D01*
X136364505Y-47318796D01*
X136340001Y-47320000D01*
X135439999Y-47320000D01*
X135415495Y-47318796D01*
X135391227Y-47315196D01*
X135367428Y-47309235D01*
X135344329Y-47300970D01*
X135322150Y-47290480D01*
X135301107Y-47277868D01*
X135281401Y-47263253D01*
X135263223Y-47246777D01*
X135246747Y-47228599D01*
X135232132Y-47208893D01*
X135219520Y-47187850D01*
X135209030Y-47165671D01*
X135200765Y-47142572D01*
X135194804Y-47118773D01*
X135191204Y-47094505D01*
X135190000Y-47070001D01*
X135190000Y-46419999D01*
X135191204Y-46395495D01*
X135194804Y-46371227D01*
X135200765Y-46347428D01*
X135209030Y-46324329D01*
X135219520Y-46302150D01*
X135232132Y-46281107D01*
X135246747Y-46261401D01*
X135263223Y-46243223D01*
X135281401Y-46226747D01*
X135301107Y-46212132D01*
X135322150Y-46199520D01*
X135344329Y-46189030D01*
X135367428Y-46180765D01*
X135391227Y-46174804D01*
X135415495Y-46171204D01*
X135439999Y-46170000D01*
X136340001Y-46170000D01*
X136364505Y-46171204D01*
X136364505Y-46171204D01*
G37*
D14*
X135890000Y-46745000D03*
D12*
G36*
X136364505Y-44121204D02*
G01*
X136388773Y-44124804D01*
X136412572Y-44130765D01*
X136435671Y-44139030D01*
X136457850Y-44149520D01*
X136478893Y-44162132D01*
X136498599Y-44176747D01*
X136516777Y-44193223D01*
X136533253Y-44211401D01*
X136547868Y-44231107D01*
X136560480Y-44252150D01*
X136570970Y-44274329D01*
X136579235Y-44297428D01*
X136585196Y-44321227D01*
X136588796Y-44345495D01*
X136590000Y-44369999D01*
X136590000Y-45020001D01*
X136588796Y-45044505D01*
X136585196Y-45068773D01*
X136579235Y-45092572D01*
X136570970Y-45115671D01*
X136560480Y-45137850D01*
X136547868Y-45158893D01*
X136533253Y-45178599D01*
X136516777Y-45196777D01*
X136498599Y-45213253D01*
X136478893Y-45227868D01*
X136457850Y-45240480D01*
X136435671Y-45250970D01*
X136412572Y-45259235D01*
X136388773Y-45265196D01*
X136364505Y-45268796D01*
X136340001Y-45270000D01*
X135439999Y-45270000D01*
X135415495Y-45268796D01*
X135391227Y-45265196D01*
X135367428Y-45259235D01*
X135344329Y-45250970D01*
X135322150Y-45240480D01*
X135301107Y-45227868D01*
X135281401Y-45213253D01*
X135263223Y-45196777D01*
X135246747Y-45178599D01*
X135232132Y-45158893D01*
X135219520Y-45137850D01*
X135209030Y-45115671D01*
X135200765Y-45092572D01*
X135194804Y-45068773D01*
X135191204Y-45044505D01*
X135190000Y-45020001D01*
X135190000Y-44369999D01*
X135191204Y-44345495D01*
X135194804Y-44321227D01*
X135200765Y-44297428D01*
X135209030Y-44274329D01*
X135219520Y-44252150D01*
X135232132Y-44231107D01*
X135246747Y-44211401D01*
X135263223Y-44193223D01*
X135281401Y-44176747D01*
X135301107Y-44162132D01*
X135322150Y-44149520D01*
X135344329Y-44139030D01*
X135367428Y-44130765D01*
X135391227Y-44124804D01*
X135415495Y-44121204D01*
X135439999Y-44120000D01*
X136340001Y-44120000D01*
X136364505Y-44121204D01*
X136364505Y-44121204D01*
G37*
D14*
X135890000Y-44695000D03*
D12*
G36*
X141818505Y-47561204D02*
G01*
X141842773Y-47564804D01*
X141866572Y-47570765D01*
X141889671Y-47579030D01*
X141911850Y-47589520D01*
X141932893Y-47602132D01*
X141952599Y-47616747D01*
X141970777Y-47633223D01*
X141987253Y-47651401D01*
X142001868Y-47671107D01*
X142014480Y-47692150D01*
X142024970Y-47714329D01*
X142033235Y-47737428D01*
X142039196Y-47761227D01*
X142042796Y-47785495D01*
X142044000Y-47809999D01*
X142044000Y-48710001D01*
X142042796Y-48734505D01*
X142039196Y-48758773D01*
X142033235Y-48782572D01*
X142024970Y-48805671D01*
X142014480Y-48827850D01*
X142001868Y-48848893D01*
X141987253Y-48868599D01*
X141970777Y-48886777D01*
X141952599Y-48903253D01*
X141932893Y-48917868D01*
X141911850Y-48930480D01*
X141889671Y-48940970D01*
X141866572Y-48949235D01*
X141842773Y-48955196D01*
X141818505Y-48958796D01*
X141794001Y-48960000D01*
X141143999Y-48960000D01*
X141119495Y-48958796D01*
X141095227Y-48955196D01*
X141071428Y-48949235D01*
X141048329Y-48940970D01*
X141026150Y-48930480D01*
X141005107Y-48917868D01*
X140985401Y-48903253D01*
X140967223Y-48886777D01*
X140950747Y-48868599D01*
X140936132Y-48848893D01*
X140923520Y-48827850D01*
X140913030Y-48805671D01*
X140904765Y-48782572D01*
X140898804Y-48758773D01*
X140895204Y-48734505D01*
X140894000Y-48710001D01*
X140894000Y-47809999D01*
X140895204Y-47785495D01*
X140898804Y-47761227D01*
X140904765Y-47737428D01*
X140913030Y-47714329D01*
X140923520Y-47692150D01*
X140936132Y-47671107D01*
X140950747Y-47651401D01*
X140967223Y-47633223D01*
X140985401Y-47616747D01*
X141005107Y-47602132D01*
X141026150Y-47589520D01*
X141048329Y-47579030D01*
X141071428Y-47570765D01*
X141095227Y-47564804D01*
X141119495Y-47561204D01*
X141143999Y-47560000D01*
X141794001Y-47560000D01*
X141818505Y-47561204D01*
X141818505Y-47561204D01*
G37*
D14*
X141469000Y-48260000D03*
D12*
G36*
X143868505Y-47561204D02*
G01*
X143892773Y-47564804D01*
X143916572Y-47570765D01*
X143939671Y-47579030D01*
X143961850Y-47589520D01*
X143982893Y-47602132D01*
X144002599Y-47616747D01*
X144020777Y-47633223D01*
X144037253Y-47651401D01*
X144051868Y-47671107D01*
X144064480Y-47692150D01*
X144074970Y-47714329D01*
X144083235Y-47737428D01*
X144089196Y-47761227D01*
X144092796Y-47785495D01*
X144094000Y-47809999D01*
X144094000Y-48710001D01*
X144092796Y-48734505D01*
X144089196Y-48758773D01*
X144083235Y-48782572D01*
X144074970Y-48805671D01*
X144064480Y-48827850D01*
X144051868Y-48848893D01*
X144037253Y-48868599D01*
X144020777Y-48886777D01*
X144002599Y-48903253D01*
X143982893Y-48917868D01*
X143961850Y-48930480D01*
X143939671Y-48940970D01*
X143916572Y-48949235D01*
X143892773Y-48955196D01*
X143868505Y-48958796D01*
X143844001Y-48960000D01*
X143193999Y-48960000D01*
X143169495Y-48958796D01*
X143145227Y-48955196D01*
X143121428Y-48949235D01*
X143098329Y-48940970D01*
X143076150Y-48930480D01*
X143055107Y-48917868D01*
X143035401Y-48903253D01*
X143017223Y-48886777D01*
X143000747Y-48868599D01*
X142986132Y-48848893D01*
X142973520Y-48827850D01*
X142963030Y-48805671D01*
X142954765Y-48782572D01*
X142948804Y-48758773D01*
X142945204Y-48734505D01*
X142944000Y-48710001D01*
X142944000Y-47809999D01*
X142945204Y-47785495D01*
X142948804Y-47761227D01*
X142954765Y-47737428D01*
X142963030Y-47714329D01*
X142973520Y-47692150D01*
X142986132Y-47671107D01*
X143000747Y-47651401D01*
X143017223Y-47633223D01*
X143035401Y-47616747D01*
X143055107Y-47602132D01*
X143076150Y-47589520D01*
X143098329Y-47579030D01*
X143121428Y-47570765D01*
X143145227Y-47564804D01*
X143169495Y-47561204D01*
X143193999Y-47560000D01*
X143844001Y-47560000D01*
X143868505Y-47561204D01*
X143868505Y-47561204D01*
G37*
D14*
X143519000Y-48260000D03*
D12*
G36*
X139024505Y-79946204D02*
G01*
X139048773Y-79949804D01*
X139072572Y-79955765D01*
X139095671Y-79964030D01*
X139117850Y-79974520D01*
X139138893Y-79987132D01*
X139158599Y-80001747D01*
X139176777Y-80018223D01*
X139193253Y-80036401D01*
X139207868Y-80056107D01*
X139220480Y-80077150D01*
X139230970Y-80099329D01*
X139239235Y-80122428D01*
X139245196Y-80146227D01*
X139248796Y-80170495D01*
X139250000Y-80194999D01*
X139250000Y-81095001D01*
X139248796Y-81119505D01*
X139245196Y-81143773D01*
X139239235Y-81167572D01*
X139230970Y-81190671D01*
X139220480Y-81212850D01*
X139207868Y-81233893D01*
X139193253Y-81253599D01*
X139176777Y-81271777D01*
X139158599Y-81288253D01*
X139138893Y-81302868D01*
X139117850Y-81315480D01*
X139095671Y-81325970D01*
X139072572Y-81334235D01*
X139048773Y-81340196D01*
X139024505Y-81343796D01*
X139000001Y-81345000D01*
X138349999Y-81345000D01*
X138325495Y-81343796D01*
X138301227Y-81340196D01*
X138277428Y-81334235D01*
X138254329Y-81325970D01*
X138232150Y-81315480D01*
X138211107Y-81302868D01*
X138191401Y-81288253D01*
X138173223Y-81271777D01*
X138156747Y-81253599D01*
X138142132Y-81233893D01*
X138129520Y-81212850D01*
X138119030Y-81190671D01*
X138110765Y-81167572D01*
X138104804Y-81143773D01*
X138101204Y-81119505D01*
X138100000Y-81095001D01*
X138100000Y-80194999D01*
X138101204Y-80170495D01*
X138104804Y-80146227D01*
X138110765Y-80122428D01*
X138119030Y-80099329D01*
X138129520Y-80077150D01*
X138142132Y-80056107D01*
X138156747Y-80036401D01*
X138173223Y-80018223D01*
X138191401Y-80001747D01*
X138211107Y-79987132D01*
X138232150Y-79974520D01*
X138254329Y-79964030D01*
X138277428Y-79955765D01*
X138301227Y-79949804D01*
X138325495Y-79946204D01*
X138349999Y-79945000D01*
X139000001Y-79945000D01*
X139024505Y-79946204D01*
X139024505Y-79946204D01*
G37*
D14*
X138675000Y-80645000D03*
D12*
G36*
X141074505Y-79946204D02*
G01*
X141098773Y-79949804D01*
X141122572Y-79955765D01*
X141145671Y-79964030D01*
X141167850Y-79974520D01*
X141188893Y-79987132D01*
X141208599Y-80001747D01*
X141226777Y-80018223D01*
X141243253Y-80036401D01*
X141257868Y-80056107D01*
X141270480Y-80077150D01*
X141280970Y-80099329D01*
X141289235Y-80122428D01*
X141295196Y-80146227D01*
X141298796Y-80170495D01*
X141300000Y-80194999D01*
X141300000Y-81095001D01*
X141298796Y-81119505D01*
X141295196Y-81143773D01*
X141289235Y-81167572D01*
X141280970Y-81190671D01*
X141270480Y-81212850D01*
X141257868Y-81233893D01*
X141243253Y-81253599D01*
X141226777Y-81271777D01*
X141208599Y-81288253D01*
X141188893Y-81302868D01*
X141167850Y-81315480D01*
X141145671Y-81325970D01*
X141122572Y-81334235D01*
X141098773Y-81340196D01*
X141074505Y-81343796D01*
X141050001Y-81345000D01*
X140399999Y-81345000D01*
X140375495Y-81343796D01*
X140351227Y-81340196D01*
X140327428Y-81334235D01*
X140304329Y-81325970D01*
X140282150Y-81315480D01*
X140261107Y-81302868D01*
X140241401Y-81288253D01*
X140223223Y-81271777D01*
X140206747Y-81253599D01*
X140192132Y-81233893D01*
X140179520Y-81212850D01*
X140169030Y-81190671D01*
X140160765Y-81167572D01*
X140154804Y-81143773D01*
X140151204Y-81119505D01*
X140150000Y-81095001D01*
X140150000Y-80194999D01*
X140151204Y-80170495D01*
X140154804Y-80146227D01*
X140160765Y-80122428D01*
X140169030Y-80099329D01*
X140179520Y-80077150D01*
X140192132Y-80056107D01*
X140206747Y-80036401D01*
X140223223Y-80018223D01*
X140241401Y-80001747D01*
X140261107Y-79987132D01*
X140282150Y-79974520D01*
X140304329Y-79964030D01*
X140327428Y-79955765D01*
X140351227Y-79949804D01*
X140375495Y-79946204D01*
X140399999Y-79945000D01*
X141050001Y-79945000D01*
X141074505Y-79946204D01*
X141074505Y-79946204D01*
G37*
D14*
X140725000Y-80645000D03*
D12*
G36*
X135602505Y-85287204D02*
G01*
X135626773Y-85290804D01*
X135650572Y-85296765D01*
X135673671Y-85305030D01*
X135695850Y-85315520D01*
X135716893Y-85328132D01*
X135736599Y-85342747D01*
X135754777Y-85359223D01*
X135771253Y-85377401D01*
X135785868Y-85397107D01*
X135798480Y-85418150D01*
X135808970Y-85440329D01*
X135817235Y-85463428D01*
X135823196Y-85487227D01*
X135826796Y-85511495D01*
X135828000Y-85535999D01*
X135828000Y-86186001D01*
X135826796Y-86210505D01*
X135823196Y-86234773D01*
X135817235Y-86258572D01*
X135808970Y-86281671D01*
X135798480Y-86303850D01*
X135785868Y-86324893D01*
X135771253Y-86344599D01*
X135754777Y-86362777D01*
X135736599Y-86379253D01*
X135716893Y-86393868D01*
X135695850Y-86406480D01*
X135673671Y-86416970D01*
X135650572Y-86425235D01*
X135626773Y-86431196D01*
X135602505Y-86434796D01*
X135578001Y-86436000D01*
X134677999Y-86436000D01*
X134653495Y-86434796D01*
X134629227Y-86431196D01*
X134605428Y-86425235D01*
X134582329Y-86416970D01*
X134560150Y-86406480D01*
X134539107Y-86393868D01*
X134519401Y-86379253D01*
X134501223Y-86362777D01*
X134484747Y-86344599D01*
X134470132Y-86324893D01*
X134457520Y-86303850D01*
X134447030Y-86281671D01*
X134438765Y-86258572D01*
X134432804Y-86234773D01*
X134429204Y-86210505D01*
X134428000Y-86186001D01*
X134428000Y-85535999D01*
X134429204Y-85511495D01*
X134432804Y-85487227D01*
X134438765Y-85463428D01*
X134447030Y-85440329D01*
X134457520Y-85418150D01*
X134470132Y-85397107D01*
X134484747Y-85377401D01*
X134501223Y-85359223D01*
X134519401Y-85342747D01*
X134539107Y-85328132D01*
X134560150Y-85315520D01*
X134582329Y-85305030D01*
X134605428Y-85296765D01*
X134629227Y-85290804D01*
X134653495Y-85287204D01*
X134677999Y-85286000D01*
X135578001Y-85286000D01*
X135602505Y-85287204D01*
X135602505Y-85287204D01*
G37*
D14*
X135128000Y-85861000D03*
D12*
G36*
X135602505Y-83237204D02*
G01*
X135626773Y-83240804D01*
X135650572Y-83246765D01*
X135673671Y-83255030D01*
X135695850Y-83265520D01*
X135716893Y-83278132D01*
X135736599Y-83292747D01*
X135754777Y-83309223D01*
X135771253Y-83327401D01*
X135785868Y-83347107D01*
X135798480Y-83368150D01*
X135808970Y-83390329D01*
X135817235Y-83413428D01*
X135823196Y-83437227D01*
X135826796Y-83461495D01*
X135828000Y-83485999D01*
X135828000Y-84136001D01*
X135826796Y-84160505D01*
X135823196Y-84184773D01*
X135817235Y-84208572D01*
X135808970Y-84231671D01*
X135798480Y-84253850D01*
X135785868Y-84274893D01*
X135771253Y-84294599D01*
X135754777Y-84312777D01*
X135736599Y-84329253D01*
X135716893Y-84343868D01*
X135695850Y-84356480D01*
X135673671Y-84366970D01*
X135650572Y-84375235D01*
X135626773Y-84381196D01*
X135602505Y-84384796D01*
X135578001Y-84386000D01*
X134677999Y-84386000D01*
X134653495Y-84384796D01*
X134629227Y-84381196D01*
X134605428Y-84375235D01*
X134582329Y-84366970D01*
X134560150Y-84356480D01*
X134539107Y-84343868D01*
X134519401Y-84329253D01*
X134501223Y-84312777D01*
X134484747Y-84294599D01*
X134470132Y-84274893D01*
X134457520Y-84253850D01*
X134447030Y-84231671D01*
X134438765Y-84208572D01*
X134432804Y-84184773D01*
X134429204Y-84160505D01*
X134428000Y-84136001D01*
X134428000Y-83485999D01*
X134429204Y-83461495D01*
X134432804Y-83437227D01*
X134438765Y-83413428D01*
X134447030Y-83390329D01*
X134457520Y-83368150D01*
X134470132Y-83347107D01*
X134484747Y-83327401D01*
X134501223Y-83309223D01*
X134519401Y-83292747D01*
X134539107Y-83278132D01*
X134560150Y-83265520D01*
X134582329Y-83255030D01*
X134605428Y-83246765D01*
X134629227Y-83240804D01*
X134653495Y-83237204D01*
X134677999Y-83236000D01*
X135578001Y-83236000D01*
X135602505Y-83237204D01*
X135602505Y-83237204D01*
G37*
D14*
X135128000Y-83811000D03*
D12*
G36*
X124934505Y-83228204D02*
G01*
X124958773Y-83231804D01*
X124982572Y-83237765D01*
X125005671Y-83246030D01*
X125027850Y-83256520D01*
X125048893Y-83269132D01*
X125068599Y-83283747D01*
X125086777Y-83300223D01*
X125103253Y-83318401D01*
X125117868Y-83338107D01*
X125130480Y-83359150D01*
X125140970Y-83381329D01*
X125149235Y-83404428D01*
X125155196Y-83428227D01*
X125158796Y-83452495D01*
X125160000Y-83476999D01*
X125160000Y-84127001D01*
X125158796Y-84151505D01*
X125155196Y-84175773D01*
X125149235Y-84199572D01*
X125140970Y-84222671D01*
X125130480Y-84244850D01*
X125117868Y-84265893D01*
X125103253Y-84285599D01*
X125086777Y-84303777D01*
X125068599Y-84320253D01*
X125048893Y-84334868D01*
X125027850Y-84347480D01*
X125005671Y-84357970D01*
X124982572Y-84366235D01*
X124958773Y-84372196D01*
X124934505Y-84375796D01*
X124910001Y-84377000D01*
X124009999Y-84377000D01*
X123985495Y-84375796D01*
X123961227Y-84372196D01*
X123937428Y-84366235D01*
X123914329Y-84357970D01*
X123892150Y-84347480D01*
X123871107Y-84334868D01*
X123851401Y-84320253D01*
X123833223Y-84303777D01*
X123816747Y-84285599D01*
X123802132Y-84265893D01*
X123789520Y-84244850D01*
X123779030Y-84222671D01*
X123770765Y-84199572D01*
X123764804Y-84175773D01*
X123761204Y-84151505D01*
X123760000Y-84127001D01*
X123760000Y-83476999D01*
X123761204Y-83452495D01*
X123764804Y-83428227D01*
X123770765Y-83404428D01*
X123779030Y-83381329D01*
X123789520Y-83359150D01*
X123802132Y-83338107D01*
X123816747Y-83318401D01*
X123833223Y-83300223D01*
X123851401Y-83283747D01*
X123871107Y-83269132D01*
X123892150Y-83256520D01*
X123914329Y-83246030D01*
X123937428Y-83237765D01*
X123961227Y-83231804D01*
X123985495Y-83228204D01*
X124009999Y-83227000D01*
X124910001Y-83227000D01*
X124934505Y-83228204D01*
X124934505Y-83228204D01*
G37*
D14*
X124460000Y-83802000D03*
D12*
G36*
X124934505Y-85278204D02*
G01*
X124958773Y-85281804D01*
X124982572Y-85287765D01*
X125005671Y-85296030D01*
X125027850Y-85306520D01*
X125048893Y-85319132D01*
X125068599Y-85333747D01*
X125086777Y-85350223D01*
X125103253Y-85368401D01*
X125117868Y-85388107D01*
X125130480Y-85409150D01*
X125140970Y-85431329D01*
X125149235Y-85454428D01*
X125155196Y-85478227D01*
X125158796Y-85502495D01*
X125160000Y-85526999D01*
X125160000Y-86177001D01*
X125158796Y-86201505D01*
X125155196Y-86225773D01*
X125149235Y-86249572D01*
X125140970Y-86272671D01*
X125130480Y-86294850D01*
X125117868Y-86315893D01*
X125103253Y-86335599D01*
X125086777Y-86353777D01*
X125068599Y-86370253D01*
X125048893Y-86384868D01*
X125027850Y-86397480D01*
X125005671Y-86407970D01*
X124982572Y-86416235D01*
X124958773Y-86422196D01*
X124934505Y-86425796D01*
X124910001Y-86427000D01*
X124009999Y-86427000D01*
X123985495Y-86425796D01*
X123961227Y-86422196D01*
X123937428Y-86416235D01*
X123914329Y-86407970D01*
X123892150Y-86397480D01*
X123871107Y-86384868D01*
X123851401Y-86370253D01*
X123833223Y-86353777D01*
X123816747Y-86335599D01*
X123802132Y-86315893D01*
X123789520Y-86294850D01*
X123779030Y-86272671D01*
X123770765Y-86249572D01*
X123764804Y-86225773D01*
X123761204Y-86201505D01*
X123760000Y-86177001D01*
X123760000Y-85526999D01*
X123761204Y-85502495D01*
X123764804Y-85478227D01*
X123770765Y-85454428D01*
X123779030Y-85431329D01*
X123789520Y-85409150D01*
X123802132Y-85388107D01*
X123816747Y-85368401D01*
X123833223Y-85350223D01*
X123851401Y-85333747D01*
X123871107Y-85319132D01*
X123892150Y-85306520D01*
X123914329Y-85296030D01*
X123937428Y-85287765D01*
X123961227Y-85281804D01*
X123985495Y-85278204D01*
X124009999Y-85277000D01*
X124910001Y-85277000D01*
X124934505Y-85278204D01*
X124934505Y-85278204D01*
G37*
D14*
X124460000Y-85852000D03*
D12*
G36*
X114005505Y-75755204D02*
G01*
X114029773Y-75758804D01*
X114053572Y-75764765D01*
X114076671Y-75773030D01*
X114098850Y-75783520D01*
X114119893Y-75796132D01*
X114139599Y-75810747D01*
X114157777Y-75827223D01*
X114174253Y-75845401D01*
X114188868Y-75865107D01*
X114201480Y-75886150D01*
X114211970Y-75908329D01*
X114220235Y-75931428D01*
X114226196Y-75955227D01*
X114229796Y-75979495D01*
X114231000Y-76003999D01*
X114231000Y-76904001D01*
X114229796Y-76928505D01*
X114226196Y-76952773D01*
X114220235Y-76976572D01*
X114211970Y-76999671D01*
X114201480Y-77021850D01*
X114188868Y-77042893D01*
X114174253Y-77062599D01*
X114157777Y-77080777D01*
X114139599Y-77097253D01*
X114119893Y-77111868D01*
X114098850Y-77124480D01*
X114076671Y-77134970D01*
X114053572Y-77143235D01*
X114029773Y-77149196D01*
X114005505Y-77152796D01*
X113981001Y-77154000D01*
X113330999Y-77154000D01*
X113306495Y-77152796D01*
X113282227Y-77149196D01*
X113258428Y-77143235D01*
X113235329Y-77134970D01*
X113213150Y-77124480D01*
X113192107Y-77111868D01*
X113172401Y-77097253D01*
X113154223Y-77080777D01*
X113137747Y-77062599D01*
X113123132Y-77042893D01*
X113110520Y-77021850D01*
X113100030Y-76999671D01*
X113091765Y-76976572D01*
X113085804Y-76952773D01*
X113082204Y-76928505D01*
X113081000Y-76904001D01*
X113081000Y-76003999D01*
X113082204Y-75979495D01*
X113085804Y-75955227D01*
X113091765Y-75931428D01*
X113100030Y-75908329D01*
X113110520Y-75886150D01*
X113123132Y-75865107D01*
X113137747Y-75845401D01*
X113154223Y-75827223D01*
X113172401Y-75810747D01*
X113192107Y-75796132D01*
X113213150Y-75783520D01*
X113235329Y-75773030D01*
X113258428Y-75764765D01*
X113282227Y-75758804D01*
X113306495Y-75755204D01*
X113330999Y-75754000D01*
X113981001Y-75754000D01*
X114005505Y-75755204D01*
X114005505Y-75755204D01*
G37*
D14*
X113656000Y-76454000D03*
D12*
G36*
X116055505Y-75755204D02*
G01*
X116079773Y-75758804D01*
X116103572Y-75764765D01*
X116126671Y-75773030D01*
X116148850Y-75783520D01*
X116169893Y-75796132D01*
X116189599Y-75810747D01*
X116207777Y-75827223D01*
X116224253Y-75845401D01*
X116238868Y-75865107D01*
X116251480Y-75886150D01*
X116261970Y-75908329D01*
X116270235Y-75931428D01*
X116276196Y-75955227D01*
X116279796Y-75979495D01*
X116281000Y-76003999D01*
X116281000Y-76904001D01*
X116279796Y-76928505D01*
X116276196Y-76952773D01*
X116270235Y-76976572D01*
X116261970Y-76999671D01*
X116251480Y-77021850D01*
X116238868Y-77042893D01*
X116224253Y-77062599D01*
X116207777Y-77080777D01*
X116189599Y-77097253D01*
X116169893Y-77111868D01*
X116148850Y-77124480D01*
X116126671Y-77134970D01*
X116103572Y-77143235D01*
X116079773Y-77149196D01*
X116055505Y-77152796D01*
X116031001Y-77154000D01*
X115380999Y-77154000D01*
X115356495Y-77152796D01*
X115332227Y-77149196D01*
X115308428Y-77143235D01*
X115285329Y-77134970D01*
X115263150Y-77124480D01*
X115242107Y-77111868D01*
X115222401Y-77097253D01*
X115204223Y-77080777D01*
X115187747Y-77062599D01*
X115173132Y-77042893D01*
X115160520Y-77021850D01*
X115150030Y-76999671D01*
X115141765Y-76976572D01*
X115135804Y-76952773D01*
X115132204Y-76928505D01*
X115131000Y-76904001D01*
X115131000Y-76003999D01*
X115132204Y-75979495D01*
X115135804Y-75955227D01*
X115141765Y-75931428D01*
X115150030Y-75908329D01*
X115160520Y-75886150D01*
X115173132Y-75865107D01*
X115187747Y-75845401D01*
X115204223Y-75827223D01*
X115222401Y-75810747D01*
X115242107Y-75796132D01*
X115263150Y-75783520D01*
X115285329Y-75773030D01*
X115308428Y-75764765D01*
X115332227Y-75758804D01*
X115356495Y-75755204D01*
X115380999Y-75754000D01*
X116031001Y-75754000D01*
X116055505Y-75755204D01*
X116055505Y-75755204D01*
G37*
D14*
X115706000Y-76454000D03*
D12*
G36*
X116046505Y-73723204D02*
G01*
X116070773Y-73726804D01*
X116094572Y-73732765D01*
X116117671Y-73741030D01*
X116139850Y-73751520D01*
X116160893Y-73764132D01*
X116180599Y-73778747D01*
X116198777Y-73795223D01*
X116215253Y-73813401D01*
X116229868Y-73833107D01*
X116242480Y-73854150D01*
X116252970Y-73876329D01*
X116261235Y-73899428D01*
X116267196Y-73923227D01*
X116270796Y-73947495D01*
X116272000Y-73971999D01*
X116272000Y-74872001D01*
X116270796Y-74896505D01*
X116267196Y-74920773D01*
X116261235Y-74944572D01*
X116252970Y-74967671D01*
X116242480Y-74989850D01*
X116229868Y-75010893D01*
X116215253Y-75030599D01*
X116198777Y-75048777D01*
X116180599Y-75065253D01*
X116160893Y-75079868D01*
X116139850Y-75092480D01*
X116117671Y-75102970D01*
X116094572Y-75111235D01*
X116070773Y-75117196D01*
X116046505Y-75120796D01*
X116022001Y-75122000D01*
X115371999Y-75122000D01*
X115347495Y-75120796D01*
X115323227Y-75117196D01*
X115299428Y-75111235D01*
X115276329Y-75102970D01*
X115254150Y-75092480D01*
X115233107Y-75079868D01*
X115213401Y-75065253D01*
X115195223Y-75048777D01*
X115178747Y-75030599D01*
X115164132Y-75010893D01*
X115151520Y-74989850D01*
X115141030Y-74967671D01*
X115132765Y-74944572D01*
X115126804Y-74920773D01*
X115123204Y-74896505D01*
X115122000Y-74872001D01*
X115122000Y-73971999D01*
X115123204Y-73947495D01*
X115126804Y-73923227D01*
X115132765Y-73899428D01*
X115141030Y-73876329D01*
X115151520Y-73854150D01*
X115164132Y-73833107D01*
X115178747Y-73813401D01*
X115195223Y-73795223D01*
X115213401Y-73778747D01*
X115233107Y-73764132D01*
X115254150Y-73751520D01*
X115276329Y-73741030D01*
X115299428Y-73732765D01*
X115323227Y-73726804D01*
X115347495Y-73723204D01*
X115371999Y-73722000D01*
X116022001Y-73722000D01*
X116046505Y-73723204D01*
X116046505Y-73723204D01*
G37*
D14*
X115697000Y-74422000D03*
D12*
G36*
X113996505Y-73723204D02*
G01*
X114020773Y-73726804D01*
X114044572Y-73732765D01*
X114067671Y-73741030D01*
X114089850Y-73751520D01*
X114110893Y-73764132D01*
X114130599Y-73778747D01*
X114148777Y-73795223D01*
X114165253Y-73813401D01*
X114179868Y-73833107D01*
X114192480Y-73854150D01*
X114202970Y-73876329D01*
X114211235Y-73899428D01*
X114217196Y-73923227D01*
X114220796Y-73947495D01*
X114222000Y-73971999D01*
X114222000Y-74872001D01*
X114220796Y-74896505D01*
X114217196Y-74920773D01*
X114211235Y-74944572D01*
X114202970Y-74967671D01*
X114192480Y-74989850D01*
X114179868Y-75010893D01*
X114165253Y-75030599D01*
X114148777Y-75048777D01*
X114130599Y-75065253D01*
X114110893Y-75079868D01*
X114089850Y-75092480D01*
X114067671Y-75102970D01*
X114044572Y-75111235D01*
X114020773Y-75117196D01*
X113996505Y-75120796D01*
X113972001Y-75122000D01*
X113321999Y-75122000D01*
X113297495Y-75120796D01*
X113273227Y-75117196D01*
X113249428Y-75111235D01*
X113226329Y-75102970D01*
X113204150Y-75092480D01*
X113183107Y-75079868D01*
X113163401Y-75065253D01*
X113145223Y-75048777D01*
X113128747Y-75030599D01*
X113114132Y-75010893D01*
X113101520Y-74989850D01*
X113091030Y-74967671D01*
X113082765Y-74944572D01*
X113076804Y-74920773D01*
X113073204Y-74896505D01*
X113072000Y-74872001D01*
X113072000Y-73971999D01*
X113073204Y-73947495D01*
X113076804Y-73923227D01*
X113082765Y-73899428D01*
X113091030Y-73876329D01*
X113101520Y-73854150D01*
X113114132Y-73833107D01*
X113128747Y-73813401D01*
X113145223Y-73795223D01*
X113163401Y-73778747D01*
X113183107Y-73764132D01*
X113204150Y-73751520D01*
X113226329Y-73741030D01*
X113249428Y-73732765D01*
X113273227Y-73726804D01*
X113297495Y-73723204D01*
X113321999Y-73722000D01*
X113972001Y-73722000D01*
X113996505Y-73723204D01*
X113996505Y-73723204D01*
G37*
D14*
X113647000Y-74422000D03*
D12*
G36*
X148810505Y-44375204D02*
G01*
X148834773Y-44378804D01*
X148858572Y-44384765D01*
X148881671Y-44393030D01*
X148903850Y-44403520D01*
X148924893Y-44416132D01*
X148944599Y-44430747D01*
X148962777Y-44447223D01*
X148979253Y-44465401D01*
X148993868Y-44485107D01*
X149006480Y-44506150D01*
X149016970Y-44528329D01*
X149025235Y-44551428D01*
X149031196Y-44575227D01*
X149034796Y-44599495D01*
X149036000Y-44623999D01*
X149036000Y-45274001D01*
X149034796Y-45298505D01*
X149031196Y-45322773D01*
X149025235Y-45346572D01*
X149016970Y-45369671D01*
X149006480Y-45391850D01*
X148993868Y-45412893D01*
X148979253Y-45432599D01*
X148962777Y-45450777D01*
X148944599Y-45467253D01*
X148924893Y-45481868D01*
X148903850Y-45494480D01*
X148881671Y-45504970D01*
X148858572Y-45513235D01*
X148834773Y-45519196D01*
X148810505Y-45522796D01*
X148786001Y-45524000D01*
X147885999Y-45524000D01*
X147861495Y-45522796D01*
X147837227Y-45519196D01*
X147813428Y-45513235D01*
X147790329Y-45504970D01*
X147768150Y-45494480D01*
X147747107Y-45481868D01*
X147727401Y-45467253D01*
X147709223Y-45450777D01*
X147692747Y-45432599D01*
X147678132Y-45412893D01*
X147665520Y-45391850D01*
X147655030Y-45369671D01*
X147646765Y-45346572D01*
X147640804Y-45322773D01*
X147637204Y-45298505D01*
X147636000Y-45274001D01*
X147636000Y-44623999D01*
X147637204Y-44599495D01*
X147640804Y-44575227D01*
X147646765Y-44551428D01*
X147655030Y-44528329D01*
X147665520Y-44506150D01*
X147678132Y-44485107D01*
X147692747Y-44465401D01*
X147709223Y-44447223D01*
X147727401Y-44430747D01*
X147747107Y-44416132D01*
X147768150Y-44403520D01*
X147790329Y-44393030D01*
X147813428Y-44384765D01*
X147837227Y-44378804D01*
X147861495Y-44375204D01*
X147885999Y-44374000D01*
X148786001Y-44374000D01*
X148810505Y-44375204D01*
X148810505Y-44375204D01*
G37*
D14*
X148336000Y-44949000D03*
D12*
G36*
X148810505Y-46425204D02*
G01*
X148834773Y-46428804D01*
X148858572Y-46434765D01*
X148881671Y-46443030D01*
X148903850Y-46453520D01*
X148924893Y-46466132D01*
X148944599Y-46480747D01*
X148962777Y-46497223D01*
X148979253Y-46515401D01*
X148993868Y-46535107D01*
X149006480Y-46556150D01*
X149016970Y-46578329D01*
X149025235Y-46601428D01*
X149031196Y-46625227D01*
X149034796Y-46649495D01*
X149036000Y-46673999D01*
X149036000Y-47324001D01*
X149034796Y-47348505D01*
X149031196Y-47372773D01*
X149025235Y-47396572D01*
X149016970Y-47419671D01*
X149006480Y-47441850D01*
X148993868Y-47462893D01*
X148979253Y-47482599D01*
X148962777Y-47500777D01*
X148944599Y-47517253D01*
X148924893Y-47531868D01*
X148903850Y-47544480D01*
X148881671Y-47554970D01*
X148858572Y-47563235D01*
X148834773Y-47569196D01*
X148810505Y-47572796D01*
X148786001Y-47574000D01*
X147885999Y-47574000D01*
X147861495Y-47572796D01*
X147837227Y-47569196D01*
X147813428Y-47563235D01*
X147790329Y-47554970D01*
X147768150Y-47544480D01*
X147747107Y-47531868D01*
X147727401Y-47517253D01*
X147709223Y-47500777D01*
X147692747Y-47482599D01*
X147678132Y-47462893D01*
X147665520Y-47441850D01*
X147655030Y-47419671D01*
X147646765Y-47396572D01*
X147640804Y-47372773D01*
X147637204Y-47348505D01*
X147636000Y-47324001D01*
X147636000Y-46673999D01*
X147637204Y-46649495D01*
X147640804Y-46625227D01*
X147646765Y-46601428D01*
X147655030Y-46578329D01*
X147665520Y-46556150D01*
X147678132Y-46535107D01*
X147692747Y-46515401D01*
X147709223Y-46497223D01*
X147727401Y-46480747D01*
X147747107Y-46466132D01*
X147768150Y-46453520D01*
X147790329Y-46443030D01*
X147813428Y-46434765D01*
X147837227Y-46428804D01*
X147861495Y-46425204D01*
X147885999Y-46424000D01*
X148786001Y-46424000D01*
X148810505Y-46425204D01*
X148810505Y-46425204D01*
G37*
D14*
X148336000Y-46999000D03*
D12*
G36*
X141065505Y-68389204D02*
G01*
X141089773Y-68392804D01*
X141113572Y-68398765D01*
X141136671Y-68407030D01*
X141158850Y-68417520D01*
X141179893Y-68430132D01*
X141199599Y-68444747D01*
X141217777Y-68461223D01*
X141234253Y-68479401D01*
X141248868Y-68499107D01*
X141261480Y-68520150D01*
X141271970Y-68542329D01*
X141280235Y-68565428D01*
X141286196Y-68589227D01*
X141289796Y-68613495D01*
X141291000Y-68637999D01*
X141291000Y-69538001D01*
X141289796Y-69562505D01*
X141286196Y-69586773D01*
X141280235Y-69610572D01*
X141271970Y-69633671D01*
X141261480Y-69655850D01*
X141248868Y-69676893D01*
X141234253Y-69696599D01*
X141217777Y-69714777D01*
X141199599Y-69731253D01*
X141179893Y-69745868D01*
X141158850Y-69758480D01*
X141136671Y-69768970D01*
X141113572Y-69777235D01*
X141089773Y-69783196D01*
X141065505Y-69786796D01*
X141041001Y-69788000D01*
X140390999Y-69788000D01*
X140366495Y-69786796D01*
X140342227Y-69783196D01*
X140318428Y-69777235D01*
X140295329Y-69768970D01*
X140273150Y-69758480D01*
X140252107Y-69745868D01*
X140232401Y-69731253D01*
X140214223Y-69714777D01*
X140197747Y-69696599D01*
X140183132Y-69676893D01*
X140170520Y-69655850D01*
X140160030Y-69633671D01*
X140151765Y-69610572D01*
X140145804Y-69586773D01*
X140142204Y-69562505D01*
X140141000Y-69538001D01*
X140141000Y-68637999D01*
X140142204Y-68613495D01*
X140145804Y-68589227D01*
X140151765Y-68565428D01*
X140160030Y-68542329D01*
X140170520Y-68520150D01*
X140183132Y-68499107D01*
X140197747Y-68479401D01*
X140214223Y-68461223D01*
X140232401Y-68444747D01*
X140252107Y-68430132D01*
X140273150Y-68417520D01*
X140295329Y-68407030D01*
X140318428Y-68398765D01*
X140342227Y-68392804D01*
X140366495Y-68389204D01*
X140390999Y-68388000D01*
X141041001Y-68388000D01*
X141065505Y-68389204D01*
X141065505Y-68389204D01*
G37*
D14*
X140716000Y-69088000D03*
D12*
G36*
X139015505Y-68389204D02*
G01*
X139039773Y-68392804D01*
X139063572Y-68398765D01*
X139086671Y-68407030D01*
X139108850Y-68417520D01*
X139129893Y-68430132D01*
X139149599Y-68444747D01*
X139167777Y-68461223D01*
X139184253Y-68479401D01*
X139198868Y-68499107D01*
X139211480Y-68520150D01*
X139221970Y-68542329D01*
X139230235Y-68565428D01*
X139236196Y-68589227D01*
X139239796Y-68613495D01*
X139241000Y-68637999D01*
X139241000Y-69538001D01*
X139239796Y-69562505D01*
X139236196Y-69586773D01*
X139230235Y-69610572D01*
X139221970Y-69633671D01*
X139211480Y-69655850D01*
X139198868Y-69676893D01*
X139184253Y-69696599D01*
X139167777Y-69714777D01*
X139149599Y-69731253D01*
X139129893Y-69745868D01*
X139108850Y-69758480D01*
X139086671Y-69768970D01*
X139063572Y-69777235D01*
X139039773Y-69783196D01*
X139015505Y-69786796D01*
X138991001Y-69788000D01*
X138340999Y-69788000D01*
X138316495Y-69786796D01*
X138292227Y-69783196D01*
X138268428Y-69777235D01*
X138245329Y-69768970D01*
X138223150Y-69758480D01*
X138202107Y-69745868D01*
X138182401Y-69731253D01*
X138164223Y-69714777D01*
X138147747Y-69696599D01*
X138133132Y-69676893D01*
X138120520Y-69655850D01*
X138110030Y-69633671D01*
X138101765Y-69610572D01*
X138095804Y-69586773D01*
X138092204Y-69562505D01*
X138091000Y-69538001D01*
X138091000Y-68637999D01*
X138092204Y-68613495D01*
X138095804Y-68589227D01*
X138101765Y-68565428D01*
X138110030Y-68542329D01*
X138120520Y-68520150D01*
X138133132Y-68499107D01*
X138147747Y-68479401D01*
X138164223Y-68461223D01*
X138182401Y-68444747D01*
X138202107Y-68430132D01*
X138223150Y-68417520D01*
X138245329Y-68407030D01*
X138268428Y-68398765D01*
X138292227Y-68392804D01*
X138316495Y-68389204D01*
X138340999Y-68388000D01*
X138991001Y-68388000D01*
X139015505Y-68389204D01*
X139015505Y-68389204D01*
G37*
D14*
X138666000Y-69088000D03*
D12*
G36*
X141074505Y-77533204D02*
G01*
X141098773Y-77536804D01*
X141122572Y-77542765D01*
X141145671Y-77551030D01*
X141167850Y-77561520D01*
X141188893Y-77574132D01*
X141208599Y-77588747D01*
X141226777Y-77605223D01*
X141243253Y-77623401D01*
X141257868Y-77643107D01*
X141270480Y-77664150D01*
X141280970Y-77686329D01*
X141289235Y-77709428D01*
X141295196Y-77733227D01*
X141298796Y-77757495D01*
X141300000Y-77781999D01*
X141300000Y-78682001D01*
X141298796Y-78706505D01*
X141295196Y-78730773D01*
X141289235Y-78754572D01*
X141280970Y-78777671D01*
X141270480Y-78799850D01*
X141257868Y-78820893D01*
X141243253Y-78840599D01*
X141226777Y-78858777D01*
X141208599Y-78875253D01*
X141188893Y-78889868D01*
X141167850Y-78902480D01*
X141145671Y-78912970D01*
X141122572Y-78921235D01*
X141098773Y-78927196D01*
X141074505Y-78930796D01*
X141050001Y-78932000D01*
X140399999Y-78932000D01*
X140375495Y-78930796D01*
X140351227Y-78927196D01*
X140327428Y-78921235D01*
X140304329Y-78912970D01*
X140282150Y-78902480D01*
X140261107Y-78889868D01*
X140241401Y-78875253D01*
X140223223Y-78858777D01*
X140206747Y-78840599D01*
X140192132Y-78820893D01*
X140179520Y-78799850D01*
X140169030Y-78777671D01*
X140160765Y-78754572D01*
X140154804Y-78730773D01*
X140151204Y-78706505D01*
X140150000Y-78682001D01*
X140150000Y-77781999D01*
X140151204Y-77757495D01*
X140154804Y-77733227D01*
X140160765Y-77709428D01*
X140169030Y-77686329D01*
X140179520Y-77664150D01*
X140192132Y-77643107D01*
X140206747Y-77623401D01*
X140223223Y-77605223D01*
X140241401Y-77588747D01*
X140261107Y-77574132D01*
X140282150Y-77561520D01*
X140304329Y-77551030D01*
X140327428Y-77542765D01*
X140351227Y-77536804D01*
X140375495Y-77533204D01*
X140399999Y-77532000D01*
X141050001Y-77532000D01*
X141074505Y-77533204D01*
X141074505Y-77533204D01*
G37*
D14*
X140725000Y-78232000D03*
D12*
G36*
X139024505Y-77533204D02*
G01*
X139048773Y-77536804D01*
X139072572Y-77542765D01*
X139095671Y-77551030D01*
X139117850Y-77561520D01*
X139138893Y-77574132D01*
X139158599Y-77588747D01*
X139176777Y-77605223D01*
X139193253Y-77623401D01*
X139207868Y-77643107D01*
X139220480Y-77664150D01*
X139230970Y-77686329D01*
X139239235Y-77709428D01*
X139245196Y-77733227D01*
X139248796Y-77757495D01*
X139250000Y-77781999D01*
X139250000Y-78682001D01*
X139248796Y-78706505D01*
X139245196Y-78730773D01*
X139239235Y-78754572D01*
X139230970Y-78777671D01*
X139220480Y-78799850D01*
X139207868Y-78820893D01*
X139193253Y-78840599D01*
X139176777Y-78858777D01*
X139158599Y-78875253D01*
X139138893Y-78889868D01*
X139117850Y-78902480D01*
X139095671Y-78912970D01*
X139072572Y-78921235D01*
X139048773Y-78927196D01*
X139024505Y-78930796D01*
X139000001Y-78932000D01*
X138349999Y-78932000D01*
X138325495Y-78930796D01*
X138301227Y-78927196D01*
X138277428Y-78921235D01*
X138254329Y-78912970D01*
X138232150Y-78902480D01*
X138211107Y-78889868D01*
X138191401Y-78875253D01*
X138173223Y-78858777D01*
X138156747Y-78840599D01*
X138142132Y-78820893D01*
X138129520Y-78799850D01*
X138119030Y-78777671D01*
X138110765Y-78754572D01*
X138104804Y-78730773D01*
X138101204Y-78706505D01*
X138100000Y-78682001D01*
X138100000Y-77781999D01*
X138101204Y-77757495D01*
X138104804Y-77733227D01*
X138110765Y-77709428D01*
X138119030Y-77686329D01*
X138129520Y-77664150D01*
X138142132Y-77643107D01*
X138156747Y-77623401D01*
X138173223Y-77605223D01*
X138191401Y-77588747D01*
X138211107Y-77574132D01*
X138232150Y-77561520D01*
X138254329Y-77551030D01*
X138277428Y-77542765D01*
X138301227Y-77536804D01*
X138325495Y-77533204D01*
X138349999Y-77532000D01*
X139000001Y-77532000D01*
X139024505Y-77533204D01*
X139024505Y-77533204D01*
G37*
D14*
X138675000Y-78232000D03*
D12*
G36*
X141074505Y-74993204D02*
G01*
X141098773Y-74996804D01*
X141122572Y-75002765D01*
X141145671Y-75011030D01*
X141167850Y-75021520D01*
X141188893Y-75034132D01*
X141208599Y-75048747D01*
X141226777Y-75065223D01*
X141243253Y-75083401D01*
X141257868Y-75103107D01*
X141270480Y-75124150D01*
X141280970Y-75146329D01*
X141289235Y-75169428D01*
X141295196Y-75193227D01*
X141298796Y-75217495D01*
X141300000Y-75241999D01*
X141300000Y-76142001D01*
X141298796Y-76166505D01*
X141295196Y-76190773D01*
X141289235Y-76214572D01*
X141280970Y-76237671D01*
X141270480Y-76259850D01*
X141257868Y-76280893D01*
X141243253Y-76300599D01*
X141226777Y-76318777D01*
X141208599Y-76335253D01*
X141188893Y-76349868D01*
X141167850Y-76362480D01*
X141145671Y-76372970D01*
X141122572Y-76381235D01*
X141098773Y-76387196D01*
X141074505Y-76390796D01*
X141050001Y-76392000D01*
X140399999Y-76392000D01*
X140375495Y-76390796D01*
X140351227Y-76387196D01*
X140327428Y-76381235D01*
X140304329Y-76372970D01*
X140282150Y-76362480D01*
X140261107Y-76349868D01*
X140241401Y-76335253D01*
X140223223Y-76318777D01*
X140206747Y-76300599D01*
X140192132Y-76280893D01*
X140179520Y-76259850D01*
X140169030Y-76237671D01*
X140160765Y-76214572D01*
X140154804Y-76190773D01*
X140151204Y-76166505D01*
X140150000Y-76142001D01*
X140150000Y-75241999D01*
X140151204Y-75217495D01*
X140154804Y-75193227D01*
X140160765Y-75169428D01*
X140169030Y-75146329D01*
X140179520Y-75124150D01*
X140192132Y-75103107D01*
X140206747Y-75083401D01*
X140223223Y-75065223D01*
X140241401Y-75048747D01*
X140261107Y-75034132D01*
X140282150Y-75021520D01*
X140304329Y-75011030D01*
X140327428Y-75002765D01*
X140351227Y-74996804D01*
X140375495Y-74993204D01*
X140399999Y-74992000D01*
X141050001Y-74992000D01*
X141074505Y-74993204D01*
X141074505Y-74993204D01*
G37*
D14*
X140725000Y-75692000D03*
D12*
G36*
X139024505Y-74993204D02*
G01*
X139048773Y-74996804D01*
X139072572Y-75002765D01*
X139095671Y-75011030D01*
X139117850Y-75021520D01*
X139138893Y-75034132D01*
X139158599Y-75048747D01*
X139176777Y-75065223D01*
X139193253Y-75083401D01*
X139207868Y-75103107D01*
X139220480Y-75124150D01*
X139230970Y-75146329D01*
X139239235Y-75169428D01*
X139245196Y-75193227D01*
X139248796Y-75217495D01*
X139250000Y-75241999D01*
X139250000Y-76142001D01*
X139248796Y-76166505D01*
X139245196Y-76190773D01*
X139239235Y-76214572D01*
X139230970Y-76237671D01*
X139220480Y-76259850D01*
X139207868Y-76280893D01*
X139193253Y-76300599D01*
X139176777Y-76318777D01*
X139158599Y-76335253D01*
X139138893Y-76349868D01*
X139117850Y-76362480D01*
X139095671Y-76372970D01*
X139072572Y-76381235D01*
X139048773Y-76387196D01*
X139024505Y-76390796D01*
X139000001Y-76392000D01*
X138349999Y-76392000D01*
X138325495Y-76390796D01*
X138301227Y-76387196D01*
X138277428Y-76381235D01*
X138254329Y-76372970D01*
X138232150Y-76362480D01*
X138211107Y-76349868D01*
X138191401Y-76335253D01*
X138173223Y-76318777D01*
X138156747Y-76300599D01*
X138142132Y-76280893D01*
X138129520Y-76259850D01*
X138119030Y-76237671D01*
X138110765Y-76214572D01*
X138104804Y-76190773D01*
X138101204Y-76166505D01*
X138100000Y-76142001D01*
X138100000Y-75241999D01*
X138101204Y-75217495D01*
X138104804Y-75193227D01*
X138110765Y-75169428D01*
X138119030Y-75146329D01*
X138129520Y-75124150D01*
X138142132Y-75103107D01*
X138156747Y-75083401D01*
X138173223Y-75065223D01*
X138191401Y-75048747D01*
X138211107Y-75034132D01*
X138232150Y-75021520D01*
X138254329Y-75011030D01*
X138277428Y-75002765D01*
X138301227Y-74996804D01*
X138325495Y-74993204D01*
X138349999Y-74992000D01*
X139000001Y-74992000D01*
X139024505Y-74993204D01*
X139024505Y-74993204D01*
G37*
D14*
X138675000Y-75692000D03*
D12*
G36*
X141065505Y-70929204D02*
G01*
X141089773Y-70932804D01*
X141113572Y-70938765D01*
X141136671Y-70947030D01*
X141158850Y-70957520D01*
X141179893Y-70970132D01*
X141199599Y-70984747D01*
X141217777Y-71001223D01*
X141234253Y-71019401D01*
X141248868Y-71039107D01*
X141261480Y-71060150D01*
X141271970Y-71082329D01*
X141280235Y-71105428D01*
X141286196Y-71129227D01*
X141289796Y-71153495D01*
X141291000Y-71177999D01*
X141291000Y-72078001D01*
X141289796Y-72102505D01*
X141286196Y-72126773D01*
X141280235Y-72150572D01*
X141271970Y-72173671D01*
X141261480Y-72195850D01*
X141248868Y-72216893D01*
X141234253Y-72236599D01*
X141217777Y-72254777D01*
X141199599Y-72271253D01*
X141179893Y-72285868D01*
X141158850Y-72298480D01*
X141136671Y-72308970D01*
X141113572Y-72317235D01*
X141089773Y-72323196D01*
X141065505Y-72326796D01*
X141041001Y-72328000D01*
X140390999Y-72328000D01*
X140366495Y-72326796D01*
X140342227Y-72323196D01*
X140318428Y-72317235D01*
X140295329Y-72308970D01*
X140273150Y-72298480D01*
X140252107Y-72285868D01*
X140232401Y-72271253D01*
X140214223Y-72254777D01*
X140197747Y-72236599D01*
X140183132Y-72216893D01*
X140170520Y-72195850D01*
X140160030Y-72173671D01*
X140151765Y-72150572D01*
X140145804Y-72126773D01*
X140142204Y-72102505D01*
X140141000Y-72078001D01*
X140141000Y-71177999D01*
X140142204Y-71153495D01*
X140145804Y-71129227D01*
X140151765Y-71105428D01*
X140160030Y-71082329D01*
X140170520Y-71060150D01*
X140183132Y-71039107D01*
X140197747Y-71019401D01*
X140214223Y-71001223D01*
X140232401Y-70984747D01*
X140252107Y-70970132D01*
X140273150Y-70957520D01*
X140295329Y-70947030D01*
X140318428Y-70938765D01*
X140342227Y-70932804D01*
X140366495Y-70929204D01*
X140390999Y-70928000D01*
X141041001Y-70928000D01*
X141065505Y-70929204D01*
X141065505Y-70929204D01*
G37*
D14*
X140716000Y-71628000D03*
D12*
G36*
X139015505Y-70929204D02*
G01*
X139039773Y-70932804D01*
X139063572Y-70938765D01*
X139086671Y-70947030D01*
X139108850Y-70957520D01*
X139129893Y-70970132D01*
X139149599Y-70984747D01*
X139167777Y-71001223D01*
X139184253Y-71019401D01*
X139198868Y-71039107D01*
X139211480Y-71060150D01*
X139221970Y-71082329D01*
X139230235Y-71105428D01*
X139236196Y-71129227D01*
X139239796Y-71153495D01*
X139241000Y-71177999D01*
X139241000Y-72078001D01*
X139239796Y-72102505D01*
X139236196Y-72126773D01*
X139230235Y-72150572D01*
X139221970Y-72173671D01*
X139211480Y-72195850D01*
X139198868Y-72216893D01*
X139184253Y-72236599D01*
X139167777Y-72254777D01*
X139149599Y-72271253D01*
X139129893Y-72285868D01*
X139108850Y-72298480D01*
X139086671Y-72308970D01*
X139063572Y-72317235D01*
X139039773Y-72323196D01*
X139015505Y-72326796D01*
X138991001Y-72328000D01*
X138340999Y-72328000D01*
X138316495Y-72326796D01*
X138292227Y-72323196D01*
X138268428Y-72317235D01*
X138245329Y-72308970D01*
X138223150Y-72298480D01*
X138202107Y-72285868D01*
X138182401Y-72271253D01*
X138164223Y-72254777D01*
X138147747Y-72236599D01*
X138133132Y-72216893D01*
X138120520Y-72195850D01*
X138110030Y-72173671D01*
X138101765Y-72150572D01*
X138095804Y-72126773D01*
X138092204Y-72102505D01*
X138091000Y-72078001D01*
X138091000Y-71177999D01*
X138092204Y-71153495D01*
X138095804Y-71129227D01*
X138101765Y-71105428D01*
X138110030Y-71082329D01*
X138120520Y-71060150D01*
X138133132Y-71039107D01*
X138147747Y-71019401D01*
X138164223Y-71001223D01*
X138182401Y-70984747D01*
X138202107Y-70970132D01*
X138223150Y-70957520D01*
X138245329Y-70947030D01*
X138268428Y-70938765D01*
X138292227Y-70932804D01*
X138316495Y-70929204D01*
X138340999Y-70928000D01*
X138991001Y-70928000D01*
X139015505Y-70929204D01*
X139015505Y-70929204D01*
G37*
D14*
X138666000Y-71628000D03*
D12*
G36*
X125816505Y-58610204D02*
G01*
X125840773Y-58613804D01*
X125864572Y-58619765D01*
X125887671Y-58628030D01*
X125909850Y-58638520D01*
X125930893Y-58651132D01*
X125950599Y-58665747D01*
X125968777Y-58682223D01*
X125985253Y-58700401D01*
X125999868Y-58720107D01*
X126012480Y-58741150D01*
X126022970Y-58763329D01*
X126031235Y-58786428D01*
X126037196Y-58810227D01*
X126040796Y-58834495D01*
X126042000Y-58858999D01*
X126042000Y-59759001D01*
X126040796Y-59783505D01*
X126037196Y-59807773D01*
X126031235Y-59831572D01*
X126022970Y-59854671D01*
X126012480Y-59876850D01*
X125999868Y-59897893D01*
X125985253Y-59917599D01*
X125968777Y-59935777D01*
X125950599Y-59952253D01*
X125930893Y-59966868D01*
X125909850Y-59979480D01*
X125887671Y-59989970D01*
X125864572Y-59998235D01*
X125840773Y-60004196D01*
X125816505Y-60007796D01*
X125792001Y-60009000D01*
X125141999Y-60009000D01*
X125117495Y-60007796D01*
X125093227Y-60004196D01*
X125069428Y-59998235D01*
X125046329Y-59989970D01*
X125024150Y-59979480D01*
X125003107Y-59966868D01*
X124983401Y-59952253D01*
X124965223Y-59935777D01*
X124948747Y-59917599D01*
X124934132Y-59897893D01*
X124921520Y-59876850D01*
X124911030Y-59854671D01*
X124902765Y-59831572D01*
X124896804Y-59807773D01*
X124893204Y-59783505D01*
X124892000Y-59759001D01*
X124892000Y-58858999D01*
X124893204Y-58834495D01*
X124896804Y-58810227D01*
X124902765Y-58786428D01*
X124911030Y-58763329D01*
X124921520Y-58741150D01*
X124934132Y-58720107D01*
X124948747Y-58700401D01*
X124965223Y-58682223D01*
X124983401Y-58665747D01*
X125003107Y-58651132D01*
X125024150Y-58638520D01*
X125046329Y-58628030D01*
X125069428Y-58619765D01*
X125093227Y-58613804D01*
X125117495Y-58610204D01*
X125141999Y-58609000D01*
X125792001Y-58609000D01*
X125816505Y-58610204D01*
X125816505Y-58610204D01*
G37*
D14*
X125467000Y-59309000D03*
D12*
G36*
X127866505Y-58610204D02*
G01*
X127890773Y-58613804D01*
X127914572Y-58619765D01*
X127937671Y-58628030D01*
X127959850Y-58638520D01*
X127980893Y-58651132D01*
X128000599Y-58665747D01*
X128018777Y-58682223D01*
X128035253Y-58700401D01*
X128049868Y-58720107D01*
X128062480Y-58741150D01*
X128072970Y-58763329D01*
X128081235Y-58786428D01*
X128087196Y-58810227D01*
X128090796Y-58834495D01*
X128092000Y-58858999D01*
X128092000Y-59759001D01*
X128090796Y-59783505D01*
X128087196Y-59807773D01*
X128081235Y-59831572D01*
X128072970Y-59854671D01*
X128062480Y-59876850D01*
X128049868Y-59897893D01*
X128035253Y-59917599D01*
X128018777Y-59935777D01*
X128000599Y-59952253D01*
X127980893Y-59966868D01*
X127959850Y-59979480D01*
X127937671Y-59989970D01*
X127914572Y-59998235D01*
X127890773Y-60004196D01*
X127866505Y-60007796D01*
X127842001Y-60009000D01*
X127191999Y-60009000D01*
X127167495Y-60007796D01*
X127143227Y-60004196D01*
X127119428Y-59998235D01*
X127096329Y-59989970D01*
X127074150Y-59979480D01*
X127053107Y-59966868D01*
X127033401Y-59952253D01*
X127015223Y-59935777D01*
X126998747Y-59917599D01*
X126984132Y-59897893D01*
X126971520Y-59876850D01*
X126961030Y-59854671D01*
X126952765Y-59831572D01*
X126946804Y-59807773D01*
X126943204Y-59783505D01*
X126942000Y-59759001D01*
X126942000Y-58858999D01*
X126943204Y-58834495D01*
X126946804Y-58810227D01*
X126952765Y-58786428D01*
X126961030Y-58763329D01*
X126971520Y-58741150D01*
X126984132Y-58720107D01*
X126998747Y-58700401D01*
X127015223Y-58682223D01*
X127033401Y-58665747D01*
X127053107Y-58651132D01*
X127074150Y-58638520D01*
X127096329Y-58628030D01*
X127119428Y-58619765D01*
X127143227Y-58613804D01*
X127167495Y-58610204D01*
X127191999Y-58609000D01*
X127842001Y-58609000D01*
X127866505Y-58610204D01*
X127866505Y-58610204D01*
G37*
D14*
X127517000Y-59309000D03*
D12*
G36*
X131919505Y-78937204D02*
G01*
X131943773Y-78940804D01*
X131967572Y-78946765D01*
X131990671Y-78955030D01*
X132012850Y-78965520D01*
X132033893Y-78978132D01*
X132053599Y-78992747D01*
X132071777Y-79009223D01*
X132088253Y-79027401D01*
X132102868Y-79047107D01*
X132115480Y-79068150D01*
X132125970Y-79090329D01*
X132134235Y-79113428D01*
X132140196Y-79137227D01*
X132143796Y-79161495D01*
X132145000Y-79185999D01*
X132145000Y-79836001D01*
X132143796Y-79860505D01*
X132140196Y-79884773D01*
X132134235Y-79908572D01*
X132125970Y-79931671D01*
X132115480Y-79953850D01*
X132102868Y-79974893D01*
X132088253Y-79994599D01*
X132071777Y-80012777D01*
X132053599Y-80029253D01*
X132033893Y-80043868D01*
X132012850Y-80056480D01*
X131990671Y-80066970D01*
X131967572Y-80075235D01*
X131943773Y-80081196D01*
X131919505Y-80084796D01*
X131895001Y-80086000D01*
X130994999Y-80086000D01*
X130970495Y-80084796D01*
X130946227Y-80081196D01*
X130922428Y-80075235D01*
X130899329Y-80066970D01*
X130877150Y-80056480D01*
X130856107Y-80043868D01*
X130836401Y-80029253D01*
X130818223Y-80012777D01*
X130801747Y-79994599D01*
X130787132Y-79974893D01*
X130774520Y-79953850D01*
X130764030Y-79931671D01*
X130755765Y-79908572D01*
X130749804Y-79884773D01*
X130746204Y-79860505D01*
X130745000Y-79836001D01*
X130745000Y-79185999D01*
X130746204Y-79161495D01*
X130749804Y-79137227D01*
X130755765Y-79113428D01*
X130764030Y-79090329D01*
X130774520Y-79068150D01*
X130787132Y-79047107D01*
X130801747Y-79027401D01*
X130818223Y-79009223D01*
X130836401Y-78992747D01*
X130856107Y-78978132D01*
X130877150Y-78965520D01*
X130899329Y-78955030D01*
X130922428Y-78946765D01*
X130946227Y-78940804D01*
X130970495Y-78937204D01*
X130994999Y-78936000D01*
X131895001Y-78936000D01*
X131919505Y-78937204D01*
X131919505Y-78937204D01*
G37*
D14*
X131445000Y-79511000D03*
D12*
G36*
X131919505Y-76887204D02*
G01*
X131943773Y-76890804D01*
X131967572Y-76896765D01*
X131990671Y-76905030D01*
X132012850Y-76915520D01*
X132033893Y-76928132D01*
X132053599Y-76942747D01*
X132071777Y-76959223D01*
X132088253Y-76977401D01*
X132102868Y-76997107D01*
X132115480Y-77018150D01*
X132125970Y-77040329D01*
X132134235Y-77063428D01*
X132140196Y-77087227D01*
X132143796Y-77111495D01*
X132145000Y-77135999D01*
X132145000Y-77786001D01*
X132143796Y-77810505D01*
X132140196Y-77834773D01*
X132134235Y-77858572D01*
X132125970Y-77881671D01*
X132115480Y-77903850D01*
X132102868Y-77924893D01*
X132088253Y-77944599D01*
X132071777Y-77962777D01*
X132053599Y-77979253D01*
X132033893Y-77993868D01*
X132012850Y-78006480D01*
X131990671Y-78016970D01*
X131967572Y-78025235D01*
X131943773Y-78031196D01*
X131919505Y-78034796D01*
X131895001Y-78036000D01*
X130994999Y-78036000D01*
X130970495Y-78034796D01*
X130946227Y-78031196D01*
X130922428Y-78025235D01*
X130899329Y-78016970D01*
X130877150Y-78006480D01*
X130856107Y-77993868D01*
X130836401Y-77979253D01*
X130818223Y-77962777D01*
X130801747Y-77944599D01*
X130787132Y-77924893D01*
X130774520Y-77903850D01*
X130764030Y-77881671D01*
X130755765Y-77858572D01*
X130749804Y-77834773D01*
X130746204Y-77810505D01*
X130745000Y-77786001D01*
X130745000Y-77135999D01*
X130746204Y-77111495D01*
X130749804Y-77087227D01*
X130755765Y-77063428D01*
X130764030Y-77040329D01*
X130774520Y-77018150D01*
X130787132Y-76997107D01*
X130801747Y-76977401D01*
X130818223Y-76959223D01*
X130836401Y-76942747D01*
X130856107Y-76928132D01*
X130877150Y-76915520D01*
X130899329Y-76905030D01*
X130922428Y-76896765D01*
X130946227Y-76890804D01*
X130970495Y-76887204D01*
X130994999Y-76886000D01*
X131895001Y-76886000D01*
X131919505Y-76887204D01*
X131919505Y-76887204D01*
G37*
D14*
X131445000Y-77461000D03*
D17*
X127944880Y-85984080D03*
X131643120Y-85984080D03*
X131643120Y-83687920D03*
X127944880Y-83687920D03*
M02*
