G04 #@! TF.GenerationSoftware,KiCad,Pcbnew,5.1.0-060a0da~80~ubuntu18.10.1*
G04 #@! TF.CreationDate,2019-03-23T20:01:21+01:00*
G04 #@! TF.ProjectId,project-embeddedSystemDesign2,70726f6a-6563-4742-9d65-6d6265646465,rev?*
G04 #@! TF.SameCoordinates,Original*
G04 #@! TF.FileFunction,Paste,Bot*
G04 #@! TF.FilePolarity,Positive*
%FSLAX46Y46*%
G04 Gerber Fmt 4.6, Leading zero omitted, Abs format (unit mm)*
G04 Created by KiCad (PCBNEW 5.1.0-060a0da~80~ubuntu18.10.1) date 2019-03-23 20:01:21*
%MOMM*%
%LPD*%
G04 APERTURE LIST*
%ADD10C,0.150000*%
G04 APERTURE END LIST*
D10*
X136904761Y-90988571D02*
X136571428Y-90988571D01*
X136428571Y-91512380D02*
X136904761Y-91512380D01*
X136904761Y-90512380D01*
X136428571Y-90512380D01*
X135666666Y-90988571D02*
X136000000Y-90988571D01*
X136000000Y-91512380D02*
X136000000Y-90512380D01*
X135523809Y-90512380D01*
X135142857Y-91512380D02*
X135142857Y-90512380D01*
X134809523Y-91226666D01*
X134476190Y-90512380D01*
X134476190Y-91512380D01*
X134095238Y-90512380D02*
X133476190Y-90512380D01*
X133809523Y-90893333D01*
X133666666Y-90893333D01*
X133571428Y-90940952D01*
X133523809Y-90988571D01*
X133476190Y-91083809D01*
X133476190Y-91321904D01*
X133523809Y-91417142D01*
X133571428Y-91464761D01*
X133666666Y-91512380D01*
X133952380Y-91512380D01*
X134047619Y-91464761D01*
X134095238Y-91417142D01*
X133095238Y-90607619D02*
X133047619Y-90560000D01*
X132952380Y-90512380D01*
X132714285Y-90512380D01*
X132619047Y-90560000D01*
X132571428Y-90607619D01*
X132523809Y-90702857D01*
X132523809Y-90798095D01*
X132571428Y-90940952D01*
X133142857Y-91512380D01*
X132523809Y-91512380D01*
X132095238Y-91512380D02*
X132095238Y-90512380D01*
X132095238Y-90988571D02*
X131523809Y-90988571D01*
X131523809Y-91512380D02*
X131523809Y-90512380D01*
X130523809Y-90560000D02*
X130619047Y-90512380D01*
X130761904Y-90512380D01*
X130904761Y-90560000D01*
X131000000Y-90655238D01*
X131047619Y-90750476D01*
X131095238Y-90940952D01*
X131095238Y-91083809D01*
X131047619Y-91274285D01*
X131000000Y-91369523D01*
X130904761Y-91464761D01*
X130761904Y-91512380D01*
X130666666Y-91512380D01*
X130523809Y-91464761D01*
X130476190Y-91417142D01*
X130476190Y-91083809D01*
X130666666Y-91083809D01*
X130142857Y-90512380D02*
X129523809Y-90512380D01*
X129857142Y-90893333D01*
X129714285Y-90893333D01*
X129619047Y-90940952D01*
X129571428Y-90988571D01*
X129523809Y-91083809D01*
X129523809Y-91321904D01*
X129571428Y-91417142D01*
X129619047Y-91464761D01*
X129714285Y-91512380D01*
X130000000Y-91512380D01*
X130095238Y-91464761D01*
X130142857Y-91417142D01*
X129142857Y-90607619D02*
X129095238Y-90560000D01*
X129000000Y-90512380D01*
X128761904Y-90512380D01*
X128666666Y-90560000D01*
X128619047Y-90607619D01*
X128571428Y-90702857D01*
X128571428Y-90798095D01*
X128619047Y-90940952D01*
X129190476Y-91512380D01*
X128571428Y-91512380D01*
X128190476Y-90607619D02*
X128142857Y-90560000D01*
X128047619Y-90512380D01*
X127809523Y-90512380D01*
X127714285Y-90560000D01*
X127666666Y-90607619D01*
X127619047Y-90702857D01*
X127619047Y-90798095D01*
X127666666Y-90940952D01*
X128238095Y-91512380D01*
X127619047Y-91512380D01*
X127190476Y-91417142D02*
X127142857Y-91464761D01*
X127190476Y-91512380D01*
X127238095Y-91464761D01*
X127190476Y-91417142D01*
X127190476Y-91512380D01*
X127190476Y-90893333D02*
X127142857Y-90940952D01*
X127190476Y-90988571D01*
X127238095Y-90940952D01*
X127190476Y-90893333D01*
X127190476Y-90988571D01*
X125428571Y-91512380D02*
X126000000Y-91512380D01*
X125714285Y-91512380D02*
X125714285Y-90512380D01*
X125809523Y-90655238D01*
X125904761Y-90750476D01*
X126000000Y-90798095D01*
X125000000Y-91417142D02*
X124952380Y-91464761D01*
X125000000Y-91512380D01*
X125047619Y-91464761D01*
X125000000Y-91417142D01*
X125000000Y-91512380D01*
X124476190Y-91512380D02*
X124285714Y-91512380D01*
X124190476Y-91464761D01*
X124142857Y-91417142D01*
X124047619Y-91274285D01*
X124000000Y-91083809D01*
X124000000Y-90702857D01*
X124047619Y-90607619D01*
X124095238Y-90560000D01*
X124190476Y-90512380D01*
X124380952Y-90512380D01*
X124476190Y-90560000D01*
X124523809Y-90607619D01*
X124571428Y-90702857D01*
X124571428Y-90940952D01*
X124523809Y-91036190D01*
X124476190Y-91083809D01*
X124380952Y-91131428D01*
X124190476Y-91131428D01*
X124095238Y-91083809D01*
X124047619Y-91036190D01*
X124000000Y-90940952D01*
X123428571Y-90940952D02*
X123523809Y-90893333D01*
X123571428Y-90845714D01*
X123619047Y-90750476D01*
X123619047Y-90702857D01*
X123571428Y-90607619D01*
X123523809Y-90560000D01*
X123428571Y-90512380D01*
X123238095Y-90512380D01*
X123142857Y-90560000D01*
X123095238Y-90607619D01*
X123047619Y-90702857D01*
X123047619Y-90750476D01*
X123095238Y-90845714D01*
X123142857Y-90893333D01*
X123238095Y-90940952D01*
X123428571Y-90940952D01*
X123523809Y-90988571D01*
X123571428Y-91036190D01*
X123619047Y-91131428D01*
X123619047Y-91321904D01*
X123571428Y-91417142D01*
X123523809Y-91464761D01*
X123428571Y-91512380D01*
X123238095Y-91512380D01*
X123142857Y-91464761D01*
X123095238Y-91417142D01*
X123047619Y-91321904D01*
X123047619Y-91131428D01*
X123095238Y-91036190D01*
X123142857Y-90988571D01*
X123238095Y-90940952D01*
X121857142Y-91131428D02*
X121095238Y-91131428D01*
X119952380Y-90512380D02*
X119333333Y-90512380D01*
X119666666Y-90893333D01*
X119523809Y-90893333D01*
X119428571Y-90940952D01*
X119380952Y-90988571D01*
X119333333Y-91083809D01*
X119333333Y-91321904D01*
X119380952Y-91417142D01*
X119428571Y-91464761D01*
X119523809Y-91512380D01*
X119809523Y-91512380D01*
X119904761Y-91464761D01*
X119952380Y-91417142D01*
X118904761Y-91417142D02*
X118857142Y-91464761D01*
X118904761Y-91512380D01*
X118952380Y-91464761D01*
X118904761Y-91417142D01*
X118904761Y-91512380D01*
X118285714Y-90940952D02*
X118380952Y-90893333D01*
X118428571Y-90845714D01*
X118476190Y-90750476D01*
X118476190Y-90702857D01*
X118428571Y-90607619D01*
X118380952Y-90560000D01*
X118285714Y-90512380D01*
X118095238Y-90512380D01*
X118000000Y-90560000D01*
X117952380Y-90607619D01*
X117904761Y-90702857D01*
X117904761Y-90750476D01*
X117952380Y-90845714D01*
X118000000Y-90893333D01*
X118095238Y-90940952D01*
X118285714Y-90940952D01*
X118380952Y-90988571D01*
X118428571Y-91036190D01*
X118476190Y-91131428D01*
X118476190Y-91321904D01*
X118428571Y-91417142D01*
X118380952Y-91464761D01*
X118285714Y-91512380D01*
X118095238Y-91512380D01*
X118000000Y-91464761D01*
X117952380Y-91417142D01*
X117904761Y-91321904D01*
X117904761Y-91131428D01*
X117952380Y-91036190D01*
X118000000Y-90988571D01*
X118095238Y-90940952D01*
X117619047Y-90512380D02*
X117285714Y-91512380D01*
X116952380Y-90512380D01*
X134857142Y-92876666D02*
X134380952Y-92876666D01*
X134952380Y-93162380D02*
X134619047Y-92162380D01*
X134285714Y-93162380D01*
X133952380Y-93162380D02*
X133952380Y-92162380D01*
X133714285Y-92162380D01*
X133571428Y-92210000D01*
X133476190Y-92305238D01*
X133428571Y-92400476D01*
X133380952Y-92590952D01*
X133380952Y-92733809D01*
X133428571Y-92924285D01*
X133476190Y-93019523D01*
X133571428Y-93114761D01*
X133714285Y-93162380D01*
X133952380Y-93162380D01*
X133047619Y-92162380D02*
X132380952Y-93162380D01*
X132380952Y-92162380D02*
X133047619Y-93162380D01*
X131523809Y-93162380D02*
X132000000Y-93162380D01*
X132000000Y-92162380D01*
X131285714Y-92162380D02*
X130666666Y-92162380D01*
X131000000Y-92543333D01*
X130857142Y-92543333D01*
X130761904Y-92590952D01*
X130714285Y-92638571D01*
X130666666Y-92733809D01*
X130666666Y-92971904D01*
X130714285Y-93067142D01*
X130761904Y-93114761D01*
X130857142Y-93162380D01*
X131142857Y-93162380D01*
X131238095Y-93114761D01*
X131285714Y-93067142D01*
X129809523Y-92162380D02*
X130000000Y-92162380D01*
X130095238Y-92210000D01*
X130142857Y-92257619D01*
X130238095Y-92400476D01*
X130285714Y-92590952D01*
X130285714Y-92971904D01*
X130238095Y-93067142D01*
X130190476Y-93114761D01*
X130095238Y-93162380D01*
X129904761Y-93162380D01*
X129809523Y-93114761D01*
X129761904Y-93067142D01*
X129714285Y-92971904D01*
X129714285Y-92733809D01*
X129761904Y-92638571D01*
X129809523Y-92590952D01*
X129904761Y-92543333D01*
X130095238Y-92543333D01*
X130190476Y-92590952D01*
X130238095Y-92638571D01*
X130285714Y-92733809D01*
X129333333Y-92257619D02*
X129285714Y-92210000D01*
X129190476Y-92162380D01*
X128952380Y-92162380D01*
X128857142Y-92210000D01*
X128809523Y-92257619D01*
X128761904Y-92352857D01*
X128761904Y-92448095D01*
X128809523Y-92590952D01*
X129380952Y-93162380D01*
X128761904Y-93162380D01*
X128333333Y-93067142D02*
X128285714Y-93114761D01*
X128333333Y-93162380D01*
X128380952Y-93114761D01*
X128333333Y-93067142D01*
X128333333Y-93162380D01*
X128333333Y-92543333D02*
X128285714Y-92590952D01*
X128333333Y-92638571D01*
X128380952Y-92590952D01*
X128333333Y-92543333D01*
X128333333Y-92638571D01*
X126571428Y-93162380D02*
X127142857Y-93162380D01*
X126857142Y-93162380D02*
X126857142Y-92162380D01*
X126952380Y-92305238D01*
X127047619Y-92400476D01*
X127142857Y-92448095D01*
X126142857Y-93067142D02*
X126095238Y-93114761D01*
X126142857Y-93162380D01*
X126190476Y-93114761D01*
X126142857Y-93067142D01*
X126142857Y-93162380D01*
X125238095Y-92162380D02*
X125428571Y-92162380D01*
X125523809Y-92210000D01*
X125571428Y-92257619D01*
X125666666Y-92400476D01*
X125714285Y-92590952D01*
X125714285Y-92971904D01*
X125666666Y-93067142D01*
X125619047Y-93114761D01*
X125523809Y-93162380D01*
X125333333Y-93162380D01*
X125238095Y-93114761D01*
X125190476Y-93067142D01*
X125142857Y-92971904D01*
X125142857Y-92733809D01*
X125190476Y-92638571D01*
X125238095Y-92590952D01*
X125333333Y-92543333D01*
X125523809Y-92543333D01*
X125619047Y-92590952D01*
X125666666Y-92638571D01*
X125714285Y-92733809D01*
X123952380Y-92781428D02*
X123190476Y-92781428D01*
X122047619Y-92162380D02*
X121428571Y-92162380D01*
X121761904Y-92543333D01*
X121619047Y-92543333D01*
X121523809Y-92590952D01*
X121476190Y-92638571D01*
X121428571Y-92733809D01*
X121428571Y-92971904D01*
X121476190Y-93067142D01*
X121523809Y-93114761D01*
X121619047Y-93162380D01*
X121904761Y-93162380D01*
X122000000Y-93114761D01*
X122047619Y-93067142D01*
X121000000Y-93067142D02*
X120952380Y-93114761D01*
X121000000Y-93162380D01*
X121047619Y-93114761D01*
X121000000Y-93067142D01*
X121000000Y-93162380D01*
X120047619Y-92162380D02*
X120523809Y-92162380D01*
X120571428Y-92638571D01*
X120523809Y-92590952D01*
X120428571Y-92543333D01*
X120190476Y-92543333D01*
X120095238Y-92590952D01*
X120047619Y-92638571D01*
X120000000Y-92733809D01*
X120000000Y-92971904D01*
X120047619Y-93067142D01*
X120095238Y-93114761D01*
X120190476Y-93162380D01*
X120428571Y-93162380D01*
X120523809Y-93114761D01*
X120571428Y-93067142D01*
X119714285Y-92162380D02*
X119380952Y-93162380D01*
X119047619Y-92162380D01*
X134238095Y-94812380D02*
X134238095Y-93812380D01*
X134000000Y-93812380D01*
X133857142Y-93860000D01*
X133761904Y-93955238D01*
X133714285Y-94050476D01*
X133666666Y-94240952D01*
X133666666Y-94383809D01*
X133714285Y-94574285D01*
X133761904Y-94669523D01*
X133857142Y-94764761D01*
X134000000Y-94812380D01*
X134238095Y-94812380D01*
X133285714Y-94764761D02*
X133142857Y-94812380D01*
X132904761Y-94812380D01*
X132809523Y-94764761D01*
X132761904Y-94717142D01*
X132714285Y-94621904D01*
X132714285Y-94526666D01*
X132761904Y-94431428D01*
X132809523Y-94383809D01*
X132904761Y-94336190D01*
X133095238Y-94288571D01*
X133190476Y-94240952D01*
X133238095Y-94193333D01*
X133285714Y-94098095D01*
X133285714Y-94002857D01*
X133238095Y-93907619D01*
X133190476Y-93860000D01*
X133095238Y-93812380D01*
X132857142Y-93812380D01*
X132714285Y-93860000D01*
X131761904Y-94812380D02*
X132333333Y-94812380D01*
X132047619Y-94812380D02*
X132047619Y-93812380D01*
X132142857Y-93955238D01*
X132238095Y-94050476D01*
X132333333Y-94098095D01*
X131190476Y-94240952D02*
X131285714Y-94193333D01*
X131333333Y-94145714D01*
X131380952Y-94050476D01*
X131380952Y-94002857D01*
X131333333Y-93907619D01*
X131285714Y-93860000D01*
X131190476Y-93812380D01*
X131000000Y-93812380D01*
X130904761Y-93860000D01*
X130857142Y-93907619D01*
X130809523Y-94002857D01*
X130809523Y-94050476D01*
X130857142Y-94145714D01*
X130904761Y-94193333D01*
X131000000Y-94240952D01*
X131190476Y-94240952D01*
X131285714Y-94288571D01*
X131333333Y-94336190D01*
X131380952Y-94431428D01*
X131380952Y-94621904D01*
X131333333Y-94717142D01*
X131285714Y-94764761D01*
X131190476Y-94812380D01*
X131000000Y-94812380D01*
X130904761Y-94764761D01*
X130857142Y-94717142D01*
X130809523Y-94621904D01*
X130809523Y-94431428D01*
X130857142Y-94336190D01*
X130904761Y-94288571D01*
X131000000Y-94240952D01*
X130047619Y-94288571D02*
X129904761Y-94336190D01*
X129857142Y-94383809D01*
X129809523Y-94479047D01*
X129809523Y-94621904D01*
X129857142Y-94717142D01*
X129904761Y-94764761D01*
X130000000Y-94812380D01*
X130380952Y-94812380D01*
X130380952Y-93812380D01*
X130047619Y-93812380D01*
X129952380Y-93860000D01*
X129904761Y-93907619D01*
X129857142Y-94002857D01*
X129857142Y-94098095D01*
X129904761Y-94193333D01*
X129952380Y-94240952D01*
X130047619Y-94288571D01*
X130380952Y-94288571D01*
X129428571Y-93907619D02*
X129380952Y-93860000D01*
X129285714Y-93812380D01*
X129047619Y-93812380D01*
X128952380Y-93860000D01*
X128904761Y-93907619D01*
X128857142Y-94002857D01*
X128857142Y-94098095D01*
X128904761Y-94240952D01*
X129476190Y-94812380D01*
X128857142Y-94812380D01*
X128238095Y-93812380D02*
X128142857Y-93812380D01*
X128047619Y-93860000D01*
X128000000Y-93907619D01*
X127952380Y-94002857D01*
X127904761Y-94193333D01*
X127904761Y-94431428D01*
X127952380Y-94621904D01*
X128000000Y-94717142D01*
X128047619Y-94764761D01*
X128142857Y-94812380D01*
X128238095Y-94812380D01*
X128333333Y-94764761D01*
X128380952Y-94717142D01*
X128428571Y-94621904D01*
X128476190Y-94431428D01*
X128476190Y-94193333D01*
X128428571Y-94002857D01*
X128380952Y-93907619D01*
X128333333Y-93860000D01*
X128238095Y-93812380D01*
X127476190Y-94717142D02*
X127428571Y-94764761D01*
X127476190Y-94812380D01*
X127523809Y-94764761D01*
X127476190Y-94717142D01*
X127476190Y-94812380D01*
X127476190Y-94193333D02*
X127428571Y-94240952D01*
X127476190Y-94288571D01*
X127523809Y-94240952D01*
X127476190Y-94193333D01*
X127476190Y-94288571D01*
X126333333Y-93812380D02*
X125714285Y-93812380D01*
X126047619Y-94193333D01*
X125904761Y-94193333D01*
X125809523Y-94240952D01*
X125761904Y-94288571D01*
X125714285Y-94383809D01*
X125714285Y-94621904D01*
X125761904Y-94717142D01*
X125809523Y-94764761D01*
X125904761Y-94812380D01*
X126190476Y-94812380D01*
X126285714Y-94764761D01*
X126333333Y-94717142D01*
X124523809Y-94431428D02*
X123761904Y-94431428D01*
X122047619Y-93812380D02*
X122523809Y-93812380D01*
X122571428Y-94288571D01*
X122523809Y-94240952D01*
X122428571Y-94193333D01*
X122190476Y-94193333D01*
X122095238Y-94240952D01*
X122047619Y-94288571D01*
X122000000Y-94383809D01*
X122000000Y-94621904D01*
X122047619Y-94717142D01*
X122095238Y-94764761D01*
X122190476Y-94812380D01*
X122428571Y-94812380D01*
X122523809Y-94764761D01*
X122571428Y-94717142D01*
X121571428Y-94717142D02*
X121523809Y-94764761D01*
X121571428Y-94812380D01*
X121619047Y-94764761D01*
X121571428Y-94717142D01*
X121571428Y-94812380D01*
X120619047Y-93812380D02*
X121095238Y-93812380D01*
X121142857Y-94288571D01*
X121095238Y-94240952D01*
X121000000Y-94193333D01*
X120761904Y-94193333D01*
X120666666Y-94240952D01*
X120619047Y-94288571D01*
X120571428Y-94383809D01*
X120571428Y-94621904D01*
X120619047Y-94717142D01*
X120666666Y-94764761D01*
X120761904Y-94812380D01*
X121000000Y-94812380D01*
X121095238Y-94764761D01*
X121142857Y-94717142D01*
X120285714Y-93812380D02*
X119952380Y-94812380D01*
X119619047Y-93812380D01*
M02*
