G04 #@! TF.GenerationSoftware,KiCad,Pcbnew,5.1.0-060a0da~80~ubuntu18.10.1*
G04 #@! TF.CreationDate,2019-03-23T20:01:21+01:00*
G04 #@! TF.ProjectId,project-embeddedSystemDesign2,70726f6a-6563-4742-9d65-6d6265646465,rev?*
G04 #@! TF.SameCoordinates,Original*
G04 #@! TF.FileFunction,Legend,Top*
G04 #@! TF.FilePolarity,Positive*
%FSLAX46Y46*%
G04 Gerber Fmt 4.6, Leading zero omitted, Abs format (unit mm)*
G04 Created by KiCad (PCBNEW 5.1.0-060a0da~80~ubuntu18.10.1) date 2019-03-23 20:01:21*
%MOMM*%
%LPD*%
G04 APERTURE LIST*
%ADD10C,0.150000*%
%ADD11C,0.120000*%
%ADD12C,0.250000*%
%ADD13C,0.200000*%
%ADD14C,0.203200*%
%ADD15C,0.254000*%
%ADD16R,0.352000X1.402000*%
%ADD17R,1.402000X0.352000*%
%ADD18C,0.100000*%
%ADD19C,1.052000*%
%ADD20C,2.082800*%
%ADD21R,2.082800X2.082800*%
%ADD22O,1.802000X1.802000*%
%ADD23R,1.802000X1.802000*%
%ADD24C,1.252000*%
%ADD25R,1.202000X1.152000*%
%ADD26O,1.702000X1.702000*%
%ADD27R,1.702000X1.702000*%
%ADD28R,1.702000X2.282000*%
%ADD29C,3.102000*%
%ADD30R,2.103120X1.303020*%
G04 APERTURE END LIST*
D10*
X112323619Y-41225928D02*
X113323619Y-41225928D01*
X112609333Y-41559261D01*
X113323619Y-41892595D01*
X112323619Y-41892595D01*
X112323619Y-42368785D02*
X113323619Y-42368785D01*
X112323619Y-42844976D02*
X113323619Y-42844976D01*
X112323619Y-43416404D01*
X113323619Y-43416404D01*
X113323619Y-44559261D02*
X113323619Y-45178309D01*
X112942666Y-44844976D01*
X112942666Y-44987833D01*
X112895047Y-45083071D01*
X112847428Y-45130690D01*
X112752190Y-45178309D01*
X112514095Y-45178309D01*
X112418857Y-45130690D01*
X112371238Y-45083071D01*
X112323619Y-44987833D01*
X112323619Y-44702119D01*
X112371238Y-44606880D01*
X112418857Y-44559261D01*
X112418857Y-45606880D02*
X112371238Y-45654500D01*
X112323619Y-45606880D01*
X112371238Y-45559261D01*
X112418857Y-45606880D01*
X112323619Y-45606880D01*
X113323619Y-46273547D02*
X113323619Y-46368785D01*
X113276000Y-46464023D01*
X113228380Y-46511642D01*
X113133142Y-46559261D01*
X112942666Y-46606880D01*
X112704571Y-46606880D01*
X112514095Y-46559261D01*
X112418857Y-46511642D01*
X112371238Y-46464023D01*
X112323619Y-46368785D01*
X112323619Y-46273547D01*
X112371238Y-46178309D01*
X112418857Y-46130690D01*
X112514095Y-46083071D01*
X112704571Y-46035452D01*
X112942666Y-46035452D01*
X113133142Y-46083071D01*
X113228380Y-46130690D01*
X113276000Y-46178309D01*
X113323619Y-46273547D01*
X113323619Y-46892595D02*
X112323619Y-47225928D01*
X113323619Y-47559261D01*
D11*
X98552000Y-52070000D02*
X103886000Y-52070000D01*
X98552000Y-46228000D02*
X98552000Y-52070000D01*
X103886000Y-46228000D02*
X98552000Y-46228000D01*
X103886000Y-52070000D02*
X103886000Y-46228000D01*
X101346000Y-50546000D02*
X99822000Y-50546000D01*
X99822000Y-50546000D02*
X100330000Y-50038000D01*
X99822000Y-50546000D02*
X100330000Y-51054000D01*
X102362000Y-48006000D02*
X101854000Y-48514000D01*
X102362000Y-48006000D02*
X102870000Y-48514000D01*
X102362000Y-49530000D02*
X102362000Y-48006000D01*
X103378000Y-50546000D02*
G75*
G03X103378000Y-50546000I-1016000J0D01*
G01*
D10*
X102028666Y-49998380D02*
X102695333Y-49998380D01*
X102028666Y-50998380D01*
X102695333Y-50998380D01*
X99314000Y-50522190D02*
X99314000Y-50998380D01*
X98980666Y-49998380D02*
X99314000Y-50522190D01*
X99647333Y-49998380D01*
X102028666Y-46696380D02*
X102695333Y-47696380D01*
X102695333Y-46696380D02*
X102028666Y-47696380D01*
X104957619Y-41194214D02*
X105957619Y-41194214D01*
X105243333Y-41527547D01*
X105957619Y-41860880D01*
X104957619Y-41860880D01*
X105243333Y-42289452D02*
X105243333Y-42765642D01*
X104957619Y-42194214D02*
X105957619Y-42527547D01*
X104957619Y-42860880D01*
X105957619Y-43098976D02*
X104957619Y-43765642D01*
X105957619Y-43765642D02*
X104957619Y-43098976D01*
X105957619Y-44813261D02*
X105957619Y-45432309D01*
X105576666Y-45098976D01*
X105576666Y-45241833D01*
X105529047Y-45337071D01*
X105481428Y-45384690D01*
X105386190Y-45432309D01*
X105148095Y-45432309D01*
X105052857Y-45384690D01*
X105005238Y-45337071D01*
X104957619Y-45241833D01*
X104957619Y-44956119D01*
X105005238Y-44860880D01*
X105052857Y-44813261D01*
X105052857Y-45860880D02*
X105005238Y-45908500D01*
X104957619Y-45860880D01*
X105005238Y-45813261D01*
X105052857Y-45860880D01*
X104957619Y-45860880D01*
X105957619Y-46813261D02*
X105957619Y-46337071D01*
X105481428Y-46289452D01*
X105529047Y-46337071D01*
X105576666Y-46432309D01*
X105576666Y-46670404D01*
X105529047Y-46765642D01*
X105481428Y-46813261D01*
X105386190Y-46860880D01*
X105148095Y-46860880D01*
X105052857Y-46813261D01*
X105005238Y-46765642D01*
X104957619Y-46670404D01*
X104957619Y-46432309D01*
X105005238Y-46337071D01*
X105052857Y-46289452D01*
X105957619Y-47146595D02*
X104957619Y-47479928D01*
X105957619Y-47813261D01*
D11*
X135636000Y-94234000D02*
X135636000Y-93980000D01*
X118364000Y-94234000D02*
X118618000Y-94234000D01*
X118364000Y-93980000D02*
X118364000Y-94234000D01*
X118618000Y-90170000D02*
X118364000Y-90170000D01*
X118364000Y-93980000D02*
X118364000Y-90170000D01*
X135636000Y-94234000D02*
X118618000Y-94234000D01*
X135636000Y-90170000D02*
X135636000Y-93980000D01*
X118618000Y-90170000D02*
X135636000Y-90170000D01*
D12*
X122682000Y-66270142D02*
X122729619Y-66317761D01*
X122682000Y-66365380D01*
X122634380Y-66317761D01*
X122682000Y-66270142D01*
X122682000Y-66365380D01*
D10*
X120483333Y-42672380D02*
X120483333Y-43148571D01*
X120197619Y-42577142D02*
X121197619Y-42910476D01*
X120197619Y-43243809D01*
X120197619Y-43577142D02*
X121197619Y-43577142D01*
X121197619Y-43815238D01*
X121150000Y-43958095D01*
X121054761Y-44053333D01*
X120959523Y-44100952D01*
X120769047Y-44148571D01*
X120626190Y-44148571D01*
X120435714Y-44100952D01*
X120340476Y-44053333D01*
X120245238Y-43958095D01*
X120197619Y-43815238D01*
X120197619Y-43577142D01*
X121197619Y-44481904D02*
X120197619Y-45148571D01*
X121197619Y-45148571D02*
X120197619Y-44481904D01*
X120197619Y-46005714D02*
X120197619Y-45529523D01*
X121197619Y-45529523D01*
X121197619Y-46243809D02*
X121197619Y-46862857D01*
X120816666Y-46529523D01*
X120816666Y-46672380D01*
X120769047Y-46767619D01*
X120721428Y-46815238D01*
X120626190Y-46862857D01*
X120388095Y-46862857D01*
X120292857Y-46815238D01*
X120245238Y-46767619D01*
X120197619Y-46672380D01*
X120197619Y-46386666D01*
X120245238Y-46291428D01*
X120292857Y-46243809D01*
X121197619Y-47720000D02*
X121197619Y-47529523D01*
X121150000Y-47434285D01*
X121102380Y-47386666D01*
X120959523Y-47291428D01*
X120769047Y-47243809D01*
X120388095Y-47243809D01*
X120292857Y-47291428D01*
X120245238Y-47339047D01*
X120197619Y-47434285D01*
X120197619Y-47624761D01*
X120245238Y-47720000D01*
X120292857Y-47767619D01*
X120388095Y-47815238D01*
X120626190Y-47815238D01*
X120721428Y-47767619D01*
X120769047Y-47720000D01*
X120816666Y-47624761D01*
X120816666Y-47434285D01*
X120769047Y-47339047D01*
X120721428Y-47291428D01*
X120626190Y-47243809D01*
X121102380Y-48196190D02*
X121150000Y-48243809D01*
X121197619Y-48339047D01*
X121197619Y-48577142D01*
X121150000Y-48672380D01*
X121102380Y-48720000D01*
X121007142Y-48767619D01*
X120911904Y-48767619D01*
X120769047Y-48720000D01*
X120197619Y-48148571D01*
X120197619Y-48767619D01*
X128699523Y-99862142D02*
X128651904Y-99909761D01*
X128509047Y-99957380D01*
X128413809Y-99957380D01*
X128270952Y-99909761D01*
X128175714Y-99814523D01*
X128128095Y-99719285D01*
X128080476Y-99528809D01*
X128080476Y-99385952D01*
X128128095Y-99195476D01*
X128175714Y-99100238D01*
X128270952Y-99005000D01*
X128413809Y-98957380D01*
X128509047Y-98957380D01*
X128651904Y-99005000D01*
X128699523Y-99052619D01*
X129556666Y-99290714D02*
X129556666Y-99957380D01*
X129128095Y-99290714D02*
X129128095Y-99814523D01*
X129175714Y-99909761D01*
X129270952Y-99957380D01*
X129413809Y-99957380D01*
X129509047Y-99909761D01*
X129556666Y-99862142D01*
X129985238Y-99909761D02*
X130080476Y-99957380D01*
X130270952Y-99957380D01*
X130366190Y-99909761D01*
X130413809Y-99814523D01*
X130413809Y-99766904D01*
X130366190Y-99671666D01*
X130270952Y-99624047D01*
X130128095Y-99624047D01*
X130032857Y-99576428D01*
X129985238Y-99481190D01*
X129985238Y-99433571D01*
X130032857Y-99338333D01*
X130128095Y-99290714D01*
X130270952Y-99290714D01*
X130366190Y-99338333D01*
X130699523Y-99290714D02*
X131080476Y-99290714D01*
X130842380Y-98957380D02*
X130842380Y-99814523D01*
X130890000Y-99909761D01*
X130985238Y-99957380D01*
X131080476Y-99957380D01*
X131556666Y-99957380D02*
X131461428Y-99909761D01*
X131413809Y-99862142D01*
X131366190Y-99766904D01*
X131366190Y-99481190D01*
X131413809Y-99385952D01*
X131461428Y-99338333D01*
X131556666Y-99290714D01*
X131699523Y-99290714D01*
X131794761Y-99338333D01*
X131842380Y-99385952D01*
X131890000Y-99481190D01*
X131890000Y-99766904D01*
X131842380Y-99862142D01*
X131794761Y-99909761D01*
X131699523Y-99957380D01*
X131556666Y-99957380D01*
X132318571Y-99957380D02*
X132318571Y-99290714D01*
X132318571Y-99385952D02*
X132366190Y-99338333D01*
X132461428Y-99290714D01*
X132604285Y-99290714D01*
X132699523Y-99338333D01*
X132747142Y-99433571D01*
X132747142Y-99957380D01*
X132747142Y-99433571D02*
X132794761Y-99338333D01*
X132890000Y-99290714D01*
X133032857Y-99290714D01*
X133128095Y-99338333D01*
X133175714Y-99433571D01*
X133175714Y-99957380D01*
X134413809Y-99957380D02*
X134413809Y-98957380D01*
X134413809Y-99433571D02*
X134985238Y-99433571D01*
X134985238Y-99957380D02*
X134985238Y-98957380D01*
X135890000Y-99957380D02*
X135890000Y-99433571D01*
X135842380Y-99338333D01*
X135747142Y-99290714D01*
X135556666Y-99290714D01*
X135461428Y-99338333D01*
X135890000Y-99909761D02*
X135794761Y-99957380D01*
X135556666Y-99957380D01*
X135461428Y-99909761D01*
X135413809Y-99814523D01*
X135413809Y-99719285D01*
X135461428Y-99624047D01*
X135556666Y-99576428D01*
X135794761Y-99576428D01*
X135890000Y-99528809D01*
X136366190Y-99290714D02*
X136366190Y-100290714D01*
X136366190Y-99338333D02*
X136461428Y-99290714D01*
X136651904Y-99290714D01*
X136747142Y-99338333D01*
X136794761Y-99385952D01*
X136842380Y-99481190D01*
X136842380Y-99766904D01*
X136794761Y-99862142D01*
X136747142Y-99909761D01*
X136651904Y-99957380D01*
X136461428Y-99957380D01*
X136366190Y-99909761D01*
X137270952Y-99290714D02*
X137270952Y-100290714D01*
X137270952Y-99338333D02*
X137366190Y-99290714D01*
X137556666Y-99290714D01*
X137651904Y-99338333D01*
X137699523Y-99385952D01*
X137747142Y-99481190D01*
X137747142Y-99766904D01*
X137699523Y-99862142D01*
X137651904Y-99909761D01*
X137556666Y-99957380D01*
X137366190Y-99957380D01*
X137270952Y-99909761D01*
X138080476Y-99290714D02*
X138318571Y-99957380D01*
X138556666Y-99290714D02*
X138318571Y-99957380D01*
X138223333Y-100195476D01*
X138175714Y-100243095D01*
X138080476Y-100290714D01*
X140223333Y-99005000D02*
X140128095Y-98957380D01*
X139985238Y-98957380D01*
X139842380Y-99005000D01*
X139747142Y-99100238D01*
X139699523Y-99195476D01*
X139651904Y-99385952D01*
X139651904Y-99528809D01*
X139699523Y-99719285D01*
X139747142Y-99814523D01*
X139842380Y-99909761D01*
X139985238Y-99957380D01*
X140080476Y-99957380D01*
X140223333Y-99909761D01*
X140270952Y-99862142D01*
X140270952Y-99528809D01*
X140080476Y-99528809D01*
X141080476Y-99909761D02*
X140985238Y-99957380D01*
X140794761Y-99957380D01*
X140699523Y-99909761D01*
X140651904Y-99814523D01*
X140651904Y-99433571D01*
X140699523Y-99338333D01*
X140794761Y-99290714D01*
X140985238Y-99290714D01*
X141080476Y-99338333D01*
X141128095Y-99433571D01*
X141128095Y-99528809D01*
X140651904Y-99624047D01*
X141985238Y-99909761D02*
X141890000Y-99957380D01*
X141699523Y-99957380D01*
X141604285Y-99909761D01*
X141556666Y-99862142D01*
X141509047Y-99766904D01*
X141509047Y-99481190D01*
X141556666Y-99385952D01*
X141604285Y-99338333D01*
X141699523Y-99290714D01*
X141890000Y-99290714D01*
X141985238Y-99338333D01*
X142413809Y-99957380D02*
X142413809Y-98957380D01*
X142509047Y-99576428D02*
X142794761Y-99957380D01*
X142794761Y-99290714D02*
X142413809Y-99671666D01*
X143366190Y-99957380D02*
X143270952Y-99909761D01*
X143223333Y-99862142D01*
X143175714Y-99766904D01*
X143175714Y-99481190D01*
X143223333Y-99385952D01*
X143270952Y-99338333D01*
X143366190Y-99290714D01*
X143509047Y-99290714D01*
X143604285Y-99338333D01*
X143651904Y-99385952D01*
X143699523Y-99481190D01*
X143699523Y-99766904D01*
X143651904Y-99862142D01*
X143604285Y-99909761D01*
X143509047Y-99957380D01*
X143366190Y-99957380D01*
X128080476Y-100702619D02*
X128128095Y-100655000D01*
X128223333Y-100607380D01*
X128461428Y-100607380D01*
X128556666Y-100655000D01*
X128604285Y-100702619D01*
X128651904Y-100797857D01*
X128651904Y-100893095D01*
X128604285Y-101035952D01*
X128032857Y-101607380D01*
X128651904Y-101607380D01*
X129604285Y-101607380D02*
X129032857Y-101607380D01*
X129318571Y-101607380D02*
X129318571Y-100607380D01*
X129223333Y-100750238D01*
X129128095Y-100845476D01*
X129032857Y-100893095D01*
X130032857Y-101226428D02*
X130794761Y-101226428D01*
X131461428Y-100607380D02*
X131556666Y-100607380D01*
X131651904Y-100655000D01*
X131699523Y-100702619D01*
X131747142Y-100797857D01*
X131794761Y-100988333D01*
X131794761Y-101226428D01*
X131747142Y-101416904D01*
X131699523Y-101512142D01*
X131651904Y-101559761D01*
X131556666Y-101607380D01*
X131461428Y-101607380D01*
X131366190Y-101559761D01*
X131318571Y-101512142D01*
X131270952Y-101416904D01*
X131223333Y-101226428D01*
X131223333Y-100988333D01*
X131270952Y-100797857D01*
X131318571Y-100702619D01*
X131366190Y-100655000D01*
X131461428Y-100607380D01*
X132128095Y-100607380D02*
X132747142Y-100607380D01*
X132413809Y-100988333D01*
X132556666Y-100988333D01*
X132651904Y-101035952D01*
X132699523Y-101083571D01*
X132747142Y-101178809D01*
X132747142Y-101416904D01*
X132699523Y-101512142D01*
X132651904Y-101559761D01*
X132556666Y-101607380D01*
X132270952Y-101607380D01*
X132175714Y-101559761D01*
X132128095Y-101512142D01*
X133175714Y-101226428D02*
X133937619Y-101226428D01*
X134366190Y-100702619D02*
X134413809Y-100655000D01*
X134509047Y-100607380D01*
X134747142Y-100607380D01*
X134842380Y-100655000D01*
X134890000Y-100702619D01*
X134937619Y-100797857D01*
X134937619Y-100893095D01*
X134890000Y-101035952D01*
X134318571Y-101607380D01*
X134937619Y-101607380D01*
X135556666Y-100607380D02*
X135651904Y-100607380D01*
X135747142Y-100655000D01*
X135794761Y-100702619D01*
X135842380Y-100797857D01*
X135890000Y-100988333D01*
X135890000Y-101226428D01*
X135842380Y-101416904D01*
X135794761Y-101512142D01*
X135747142Y-101559761D01*
X135651904Y-101607380D01*
X135556666Y-101607380D01*
X135461428Y-101559761D01*
X135413809Y-101512142D01*
X135366190Y-101416904D01*
X135318571Y-101226428D01*
X135318571Y-100988333D01*
X135366190Y-100797857D01*
X135413809Y-100702619D01*
X135461428Y-100655000D01*
X135556666Y-100607380D01*
X136842380Y-101607380D02*
X136270952Y-101607380D01*
X136556666Y-101607380D02*
X136556666Y-100607380D01*
X136461428Y-100750238D01*
X136366190Y-100845476D01*
X136270952Y-100893095D01*
X137318571Y-101607380D02*
X137509047Y-101607380D01*
X137604285Y-101559761D01*
X137651904Y-101512142D01*
X137747142Y-101369285D01*
X137794761Y-101178809D01*
X137794761Y-100797857D01*
X137747142Y-100702619D01*
X137699523Y-100655000D01*
X137604285Y-100607380D01*
X137413809Y-100607380D01*
X137318571Y-100655000D01*
X137270952Y-100702619D01*
X137223333Y-100797857D01*
X137223333Y-101035952D01*
X137270952Y-101131190D01*
X137318571Y-101178809D01*
X137413809Y-101226428D01*
X137604285Y-101226428D01*
X137699523Y-101178809D01*
X137747142Y-101131190D01*
X137794761Y-101035952D01*
X138985238Y-101226428D02*
X139747142Y-101226428D01*
X140890000Y-100940714D02*
X141128095Y-101607380D01*
X141366190Y-100940714D01*
X142270952Y-101607380D02*
X141699523Y-101607380D01*
X141985238Y-101607380D02*
X141985238Y-100607380D01*
X141890000Y-100750238D01*
X141794761Y-100845476D01*
X141699523Y-100893095D01*
X142699523Y-101512142D02*
X142747142Y-101559761D01*
X142699523Y-101607380D01*
X142651904Y-101559761D01*
X142699523Y-101512142D01*
X142699523Y-101607380D01*
X143366190Y-100607380D02*
X143461428Y-100607380D01*
X143556666Y-100655000D01*
X143604285Y-100702619D01*
X143651904Y-100797857D01*
X143699523Y-100988333D01*
X143699523Y-101226428D01*
X143651904Y-101416904D01*
X143604285Y-101512142D01*
X143556666Y-101559761D01*
X143461428Y-101607380D01*
X143366190Y-101607380D01*
X143270952Y-101559761D01*
X143223333Y-101512142D01*
X143175714Y-101416904D01*
X143128095Y-101226428D01*
X143128095Y-100988333D01*
X143175714Y-100797857D01*
X143223333Y-100702619D01*
X143270952Y-100655000D01*
X143366190Y-100607380D01*
X133882761Y-95956380D02*
X133882761Y-94956380D01*
X134120857Y-94956380D01*
X134263714Y-95004000D01*
X134358952Y-95099238D01*
X134406571Y-95194476D01*
X134454190Y-95384952D01*
X134454190Y-95527809D01*
X134406571Y-95718285D01*
X134358952Y-95813523D01*
X134263714Y-95908761D01*
X134120857Y-95956380D01*
X133882761Y-95956380D01*
X135454190Y-95956380D02*
X135120857Y-95480190D01*
X134882761Y-95956380D02*
X134882761Y-94956380D01*
X135263714Y-94956380D01*
X135358952Y-95004000D01*
X135406571Y-95051619D01*
X135454190Y-95146857D01*
X135454190Y-95289714D01*
X135406571Y-95384952D01*
X135358952Y-95432571D01*
X135263714Y-95480190D01*
X134882761Y-95480190D01*
X135835142Y-95670666D02*
X136311333Y-95670666D01*
X135739904Y-95956380D02*
X136073238Y-94956380D01*
X136406571Y-95956380D01*
X136739904Y-95956380D02*
X136739904Y-94956380D01*
X137073238Y-95670666D01*
X137406571Y-94956380D01*
X137406571Y-95956380D01*
X138454190Y-95861142D02*
X138406571Y-95908761D01*
X138263714Y-95956380D01*
X138168476Y-95956380D01*
X138025619Y-95908761D01*
X137930380Y-95813523D01*
X137882761Y-95718285D01*
X137835142Y-95527809D01*
X137835142Y-95384952D01*
X137882761Y-95194476D01*
X137930380Y-95099238D01*
X138025619Y-95004000D01*
X138168476Y-94956380D01*
X138263714Y-94956380D01*
X138406571Y-95004000D01*
X138454190Y-95051619D01*
X139073238Y-94956380D02*
X139263714Y-94956380D01*
X139358952Y-95004000D01*
X139454190Y-95099238D01*
X139501809Y-95289714D01*
X139501809Y-95623047D01*
X139454190Y-95813523D01*
X139358952Y-95908761D01*
X139263714Y-95956380D01*
X139073238Y-95956380D01*
X138978000Y-95908761D01*
X138882761Y-95813523D01*
X138835142Y-95623047D01*
X138835142Y-95289714D01*
X138882761Y-95099238D01*
X138978000Y-95004000D01*
X139073238Y-94956380D01*
X141168476Y-95956380D02*
X140692285Y-95956380D01*
X140692285Y-94956380D01*
X141644666Y-95956380D02*
X141549428Y-95908761D01*
X141501809Y-95861142D01*
X141454190Y-95765904D01*
X141454190Y-95480190D01*
X141501809Y-95384952D01*
X141549428Y-95337333D01*
X141644666Y-95289714D01*
X141787523Y-95289714D01*
X141882761Y-95337333D01*
X141930380Y-95384952D01*
X141978000Y-95480190D01*
X141978000Y-95765904D01*
X141930380Y-95861142D01*
X141882761Y-95908761D01*
X141787523Y-95956380D01*
X141644666Y-95956380D01*
X142978000Y-95956380D02*
X142644666Y-95480190D01*
X142406571Y-95956380D02*
X142406571Y-94956380D01*
X142787523Y-94956380D01*
X142882761Y-95004000D01*
X142930380Y-95051619D01*
X142978000Y-95146857D01*
X142978000Y-95289714D01*
X142930380Y-95384952D01*
X142882761Y-95432571D01*
X142787523Y-95480190D01*
X142406571Y-95480190D01*
X143835142Y-95956380D02*
X143835142Y-95432571D01*
X143787523Y-95337333D01*
X143692285Y-95289714D01*
X143501809Y-95289714D01*
X143406571Y-95337333D01*
X143835142Y-95908761D02*
X143739904Y-95956380D01*
X143501809Y-95956380D01*
X143406571Y-95908761D01*
X143358952Y-95813523D01*
X143358952Y-95718285D01*
X143406571Y-95623047D01*
X143501809Y-95575428D01*
X143739904Y-95575428D01*
X143835142Y-95527809D01*
X145025619Y-95908761D02*
X145120857Y-95956380D01*
X145311333Y-95956380D01*
X145406571Y-95908761D01*
X145454190Y-95813523D01*
X145454190Y-95765904D01*
X145406571Y-95670666D01*
X145311333Y-95623047D01*
X145168476Y-95623047D01*
X145073238Y-95575428D01*
X145025619Y-95480190D01*
X145025619Y-95432571D01*
X145073238Y-95337333D01*
X145168476Y-95289714D01*
X145311333Y-95289714D01*
X145406571Y-95337333D01*
X145882761Y-95956380D02*
X145882761Y-94956380D01*
X146311333Y-95956380D02*
X146311333Y-95432571D01*
X146263714Y-95337333D01*
X146168476Y-95289714D01*
X146025619Y-95289714D01*
X145930380Y-95337333D01*
X145882761Y-95384952D01*
X146787523Y-95956380D02*
X146787523Y-95289714D01*
X146787523Y-94956380D02*
X146739904Y-95004000D01*
X146787523Y-95051619D01*
X146835142Y-95004000D01*
X146787523Y-94956380D01*
X146787523Y-95051619D01*
X147644666Y-95908761D02*
X147549428Y-95956380D01*
X147358952Y-95956380D01*
X147263714Y-95908761D01*
X147216095Y-95813523D01*
X147216095Y-95432571D01*
X147263714Y-95337333D01*
X147358952Y-95289714D01*
X147549428Y-95289714D01*
X147644666Y-95337333D01*
X147692285Y-95432571D01*
X147692285Y-95527809D01*
X147216095Y-95623047D01*
X148263714Y-95956380D02*
X148168476Y-95908761D01*
X148120857Y-95813523D01*
X148120857Y-94956380D01*
X149073238Y-95956380D02*
X149073238Y-94956380D01*
X149073238Y-95908761D02*
X148978000Y-95956380D01*
X148787523Y-95956380D01*
X148692285Y-95908761D01*
X148644666Y-95861142D01*
X148597047Y-95765904D01*
X148597047Y-95480190D01*
X148644666Y-95384952D01*
X148692285Y-95337333D01*
X148787523Y-95289714D01*
X148978000Y-95289714D01*
X149073238Y-95337333D01*
X146711000Y-50020214D02*
X146711000Y-51020214D01*
X145343619Y-50829738D02*
X145819809Y-50496404D01*
X145343619Y-50258309D02*
X146343619Y-50258309D01*
X146343619Y-50639261D01*
X146296000Y-50734500D01*
X146248380Y-50782119D01*
X146153142Y-50829738D01*
X146010285Y-50829738D01*
X145915047Y-50782119D01*
X145867428Y-50734500D01*
X145819809Y-50639261D01*
X145819809Y-50258309D01*
X146711000Y-51020214D02*
X146711000Y-51972595D01*
X145391238Y-51210690D02*
X145343619Y-51353547D01*
X145343619Y-51591642D01*
X145391238Y-51686880D01*
X145438857Y-51734500D01*
X145534095Y-51782119D01*
X145629333Y-51782119D01*
X145724571Y-51734500D01*
X145772190Y-51686880D01*
X145819809Y-51591642D01*
X145867428Y-51401166D01*
X145915047Y-51305928D01*
X145962666Y-51258309D01*
X146057904Y-51210690D01*
X146153142Y-51210690D01*
X146248380Y-51258309D01*
X146296000Y-51305928D01*
X146343619Y-51401166D01*
X146343619Y-51639261D01*
X146296000Y-51782119D01*
X146711000Y-51972595D02*
X146711000Y-52734500D01*
X146343619Y-52067833D02*
X146343619Y-52639261D01*
X145343619Y-52353547D02*
X146343619Y-52353547D01*
X144057619Y-50226595D02*
X143057619Y-50559928D01*
X144057619Y-50893261D01*
X143057619Y-51226595D02*
X144057619Y-51226595D01*
X144057619Y-51464690D01*
X144010000Y-51607547D01*
X143914761Y-51702785D01*
X143819523Y-51750404D01*
X143629047Y-51798023D01*
X143486190Y-51798023D01*
X143295714Y-51750404D01*
X143200476Y-51702785D01*
X143105238Y-51607547D01*
X143057619Y-51464690D01*
X143057619Y-51226595D01*
X143057619Y-52226595D02*
X144057619Y-52226595D01*
X144057619Y-52464690D01*
X144010000Y-52607547D01*
X143914761Y-52702785D01*
X143819523Y-52750404D01*
X143629047Y-52798023D01*
X143486190Y-52798023D01*
X143295714Y-52750404D01*
X143200476Y-52702785D01*
X143105238Y-52607547D01*
X143057619Y-52464690D01*
X143057619Y-52226595D01*
X141470000Y-50702785D02*
X141517619Y-50607547D01*
X141517619Y-50464690D01*
X141470000Y-50321833D01*
X141374761Y-50226595D01*
X141279523Y-50178976D01*
X141089047Y-50131357D01*
X140946190Y-50131357D01*
X140755714Y-50178976D01*
X140660476Y-50226595D01*
X140565238Y-50321833D01*
X140517619Y-50464690D01*
X140517619Y-50559928D01*
X140565238Y-50702785D01*
X140612857Y-50750404D01*
X140946190Y-50750404D01*
X140946190Y-50559928D01*
X140517619Y-51178976D02*
X141517619Y-51178976D01*
X140517619Y-51750404D01*
X141517619Y-51750404D01*
X140517619Y-52226595D02*
X141517619Y-52226595D01*
X141517619Y-52464690D01*
X141470000Y-52607547D01*
X141374761Y-52702785D01*
X141279523Y-52750404D01*
X141089047Y-52798023D01*
X140946190Y-52798023D01*
X140755714Y-52750404D01*
X140660476Y-52702785D01*
X140565238Y-52607547D01*
X140517619Y-52464690D01*
X140517619Y-52226595D01*
X137977619Y-50845642D02*
X138453809Y-50512309D01*
X137977619Y-50274214D02*
X138977619Y-50274214D01*
X138977619Y-50655166D01*
X138930000Y-50750404D01*
X138882380Y-50798023D01*
X138787142Y-50845642D01*
X138644285Y-50845642D01*
X138549047Y-50798023D01*
X138501428Y-50750404D01*
X138453809Y-50655166D01*
X138453809Y-50274214D01*
X138977619Y-51178976D02*
X137977619Y-51845642D01*
X138977619Y-51845642D02*
X137977619Y-51178976D01*
X137977619Y-52226595D02*
X138977619Y-52226595D01*
X138977619Y-52464690D01*
X138930000Y-52607547D01*
X138834761Y-52702785D01*
X138739523Y-52750404D01*
X138549047Y-52798023D01*
X138406190Y-52798023D01*
X138215714Y-52750404D01*
X138120476Y-52702785D01*
X138025238Y-52607547D01*
X137977619Y-52464690D01*
X137977619Y-52226595D01*
X136437619Y-50369452D02*
X136437619Y-50940880D01*
X135437619Y-50655166D02*
X136437619Y-50655166D01*
X136437619Y-51178976D02*
X135437619Y-51845642D01*
X136437619Y-51845642D02*
X135437619Y-51178976D01*
X135437619Y-52226595D02*
X136437619Y-52226595D01*
X136437619Y-52464690D01*
X136390000Y-52607547D01*
X136294761Y-52702785D01*
X136199523Y-52750404D01*
X136009047Y-52798023D01*
X135866190Y-52798023D01*
X135675714Y-52750404D01*
X135580476Y-52702785D01*
X135485238Y-52607547D01*
X135437619Y-52464690D01*
X135437619Y-52226595D01*
X132945238Y-48274214D02*
X132897619Y-48417071D01*
X132897619Y-48655166D01*
X132945238Y-48750404D01*
X132992857Y-48798023D01*
X133088095Y-48845642D01*
X133183333Y-48845642D01*
X133278571Y-48798023D01*
X133326190Y-48750404D01*
X133373809Y-48655166D01*
X133421428Y-48464690D01*
X133469047Y-48369452D01*
X133516666Y-48321833D01*
X133611904Y-48274214D01*
X133707142Y-48274214D01*
X133802380Y-48321833D01*
X133850000Y-48369452D01*
X133897619Y-48464690D01*
X133897619Y-48702785D01*
X133850000Y-48845642D01*
X133897619Y-49178976D02*
X132897619Y-49417071D01*
X133611904Y-49607547D01*
X132897619Y-49798023D01*
X133897619Y-50036119D01*
X132992857Y-50988500D02*
X132945238Y-50940880D01*
X132897619Y-50798023D01*
X132897619Y-50702785D01*
X132945238Y-50559928D01*
X133040476Y-50464690D01*
X133135714Y-50417071D01*
X133326190Y-50369452D01*
X133469047Y-50369452D01*
X133659523Y-50417071D01*
X133754761Y-50464690D01*
X133850000Y-50559928D01*
X133897619Y-50702785D01*
X133897619Y-50798023D01*
X133850000Y-50940880D01*
X133802380Y-50988500D01*
X132897619Y-51893261D02*
X132897619Y-51417071D01*
X133897619Y-51417071D01*
X132897619Y-52226595D02*
X133897619Y-52226595D01*
X132897619Y-52798023D02*
X133469047Y-52369452D01*
X133897619Y-52798023D02*
X133326190Y-52226595D01*
X130405238Y-48559928D02*
X130357619Y-48702785D01*
X130357619Y-48940880D01*
X130405238Y-49036119D01*
X130452857Y-49083738D01*
X130548095Y-49131357D01*
X130643333Y-49131357D01*
X130738571Y-49083738D01*
X130786190Y-49036119D01*
X130833809Y-48940880D01*
X130881428Y-48750404D01*
X130929047Y-48655166D01*
X130976666Y-48607547D01*
X131071904Y-48559928D01*
X131167142Y-48559928D01*
X131262380Y-48607547D01*
X131310000Y-48655166D01*
X131357619Y-48750404D01*
X131357619Y-48988500D01*
X131310000Y-49131357D01*
X131357619Y-49464690D02*
X130357619Y-49702785D01*
X131071904Y-49893261D01*
X130357619Y-50083738D01*
X131357619Y-50321833D01*
X130357619Y-50702785D02*
X131357619Y-50702785D01*
X131357619Y-50940880D01*
X131310000Y-51083738D01*
X131214761Y-51178976D01*
X131119523Y-51226595D01*
X130929047Y-51274214D01*
X130786190Y-51274214D01*
X130595714Y-51226595D01*
X130500476Y-51178976D01*
X130405238Y-51083738D01*
X130357619Y-50940880D01*
X130357619Y-50702785D01*
X130357619Y-51702785D02*
X131357619Y-51702785D01*
X131357619Y-52369452D02*
X131357619Y-52559928D01*
X131310000Y-52655166D01*
X131214761Y-52750404D01*
X131024285Y-52798023D01*
X130690952Y-52798023D01*
X130500476Y-52750404D01*
X130405238Y-52655166D01*
X130357619Y-52559928D01*
X130357619Y-52369452D01*
X130405238Y-52274214D01*
X130500476Y-52178976D01*
X130690952Y-52131357D01*
X131024285Y-52131357D01*
X131214761Y-52178976D01*
X131310000Y-52274214D01*
X131357619Y-52369452D01*
X118999047Y-98115428D02*
X119760952Y-98115428D01*
X116459047Y-98115428D02*
X117220952Y-98115428D01*
X116840000Y-98496380D02*
X116840000Y-97734476D01*
X114038095Y-98496380D02*
X114038095Y-97496380D01*
X114276190Y-97496380D01*
X114419047Y-97544000D01*
X114514285Y-97639238D01*
X114561904Y-97734476D01*
X114609523Y-97924952D01*
X114609523Y-98067809D01*
X114561904Y-98258285D01*
X114514285Y-98353523D01*
X114419047Y-98448761D01*
X114276190Y-98496380D01*
X114038095Y-98496380D01*
D11*
X109220000Y-53848000D02*
X109220000Y-63500000D01*
D10*
X108497619Y-60388666D02*
X107497619Y-60722000D01*
X108497619Y-61055333D01*
X107497619Y-61388666D02*
X108497619Y-61388666D01*
X108497619Y-61626761D01*
X108450000Y-61769619D01*
X108354761Y-61864857D01*
X108259523Y-61912476D01*
X108069047Y-61960095D01*
X107926190Y-61960095D01*
X107735714Y-61912476D01*
X107640476Y-61864857D01*
X107545238Y-61769619D01*
X107497619Y-61626761D01*
X107497619Y-61388666D01*
X107497619Y-62388666D02*
X108497619Y-62388666D01*
X108497619Y-62626761D01*
X108450000Y-62769619D01*
X108354761Y-62864857D01*
X108259523Y-62912476D01*
X108069047Y-62960095D01*
X107926190Y-62960095D01*
X107735714Y-62912476D01*
X107640476Y-62864857D01*
X107545238Y-62769619D01*
X107497619Y-62626761D01*
X107497619Y-62388666D01*
X110990000Y-60960095D02*
X111037619Y-60864857D01*
X111037619Y-60722000D01*
X110990000Y-60579142D01*
X110894761Y-60483904D01*
X110799523Y-60436285D01*
X110609047Y-60388666D01*
X110466190Y-60388666D01*
X110275714Y-60436285D01*
X110180476Y-60483904D01*
X110085238Y-60579142D01*
X110037619Y-60722000D01*
X110037619Y-60817238D01*
X110085238Y-60960095D01*
X110132857Y-61007714D01*
X110466190Y-61007714D01*
X110466190Y-60817238D01*
X110037619Y-61436285D02*
X111037619Y-61436285D01*
X110037619Y-62007714D01*
X111037619Y-62007714D01*
X110037619Y-62483904D02*
X111037619Y-62483904D01*
X111037619Y-62722000D01*
X110990000Y-62864857D01*
X110894761Y-62960095D01*
X110799523Y-63007714D01*
X110609047Y-63055333D01*
X110466190Y-63055333D01*
X110275714Y-63007714D01*
X110180476Y-62960095D01*
X110085238Y-62864857D01*
X110037619Y-62722000D01*
X110037619Y-62483904D01*
X142984214Y-66492380D02*
X142984214Y-65492380D01*
X143365166Y-65492380D01*
X143460404Y-65540000D01*
X143508023Y-65587619D01*
X143555642Y-65682857D01*
X143555642Y-65825714D01*
X143508023Y-65920952D01*
X143460404Y-65968571D01*
X143365166Y-66016190D01*
X142984214Y-66016190D01*
X144555642Y-66397142D02*
X144508023Y-66444761D01*
X144365166Y-66492380D01*
X144269928Y-66492380D01*
X144127071Y-66444761D01*
X144031833Y-66349523D01*
X143984214Y-66254285D01*
X143936595Y-66063809D01*
X143936595Y-65920952D01*
X143984214Y-65730476D01*
X144031833Y-65635238D01*
X144127071Y-65540000D01*
X144269928Y-65492380D01*
X144365166Y-65492380D01*
X144508023Y-65540000D01*
X144555642Y-65587619D01*
X145127071Y-65920952D02*
X145031833Y-65873333D01*
X144984214Y-65825714D01*
X144936595Y-65730476D01*
X144936595Y-65682857D01*
X144984214Y-65587619D01*
X145031833Y-65540000D01*
X145127071Y-65492380D01*
X145317547Y-65492380D01*
X145412785Y-65540000D01*
X145460404Y-65587619D01*
X145508023Y-65682857D01*
X145508023Y-65730476D01*
X145460404Y-65825714D01*
X145412785Y-65873333D01*
X145317547Y-65920952D01*
X145127071Y-65920952D01*
X145031833Y-65968571D01*
X144984214Y-66016190D01*
X144936595Y-66111428D01*
X144936595Y-66301904D01*
X144984214Y-66397142D01*
X145031833Y-66444761D01*
X145127071Y-66492380D01*
X145317547Y-66492380D01*
X145412785Y-66444761D01*
X145460404Y-66397142D01*
X145508023Y-66301904D01*
X145508023Y-66111428D01*
X145460404Y-66016190D01*
X145412785Y-65968571D01*
X145317547Y-65920952D01*
X142984214Y-69032380D02*
X142984214Y-68032380D01*
X143365166Y-68032380D01*
X143460404Y-68080000D01*
X143508023Y-68127619D01*
X143555642Y-68222857D01*
X143555642Y-68365714D01*
X143508023Y-68460952D01*
X143460404Y-68508571D01*
X143365166Y-68556190D01*
X142984214Y-68556190D01*
X143984214Y-69032380D02*
X143984214Y-68032380D01*
X144222309Y-68032380D01*
X144365166Y-68080000D01*
X144460404Y-68175238D01*
X144508023Y-68270476D01*
X144555642Y-68460952D01*
X144555642Y-68603809D01*
X144508023Y-68794285D01*
X144460404Y-68889523D01*
X144365166Y-68984761D01*
X144222309Y-69032380D01*
X143984214Y-69032380D01*
X144888976Y-68032380D02*
X145555642Y-68032380D01*
X145127071Y-69032380D01*
X142984214Y-71572380D02*
X142984214Y-70572380D01*
X143365166Y-70572380D01*
X143460404Y-70620000D01*
X143508023Y-70667619D01*
X143555642Y-70762857D01*
X143555642Y-70905714D01*
X143508023Y-71000952D01*
X143460404Y-71048571D01*
X143365166Y-71096190D01*
X142984214Y-71096190D01*
X143984214Y-71572380D02*
X143984214Y-70572380D01*
X144222309Y-70572380D01*
X144365166Y-70620000D01*
X144460404Y-70715238D01*
X144508023Y-70810476D01*
X144555642Y-71000952D01*
X144555642Y-71143809D01*
X144508023Y-71334285D01*
X144460404Y-71429523D01*
X144365166Y-71524761D01*
X144222309Y-71572380D01*
X143984214Y-71572380D01*
X145412785Y-70572380D02*
X145222309Y-70572380D01*
X145127071Y-70620000D01*
X145079452Y-70667619D01*
X144984214Y-70810476D01*
X144936595Y-71000952D01*
X144936595Y-71381904D01*
X144984214Y-71477142D01*
X145031833Y-71524761D01*
X145127071Y-71572380D01*
X145317547Y-71572380D01*
X145412785Y-71524761D01*
X145460404Y-71477142D01*
X145508023Y-71381904D01*
X145508023Y-71143809D01*
X145460404Y-71048571D01*
X145412785Y-71000952D01*
X145317547Y-70953333D01*
X145127071Y-70953333D01*
X145031833Y-71000952D01*
X144984214Y-71048571D01*
X144936595Y-71143809D01*
X140247619Y-54624214D02*
X139247619Y-54957547D01*
X140247619Y-55290880D01*
X139247619Y-56195642D02*
X139723809Y-55862309D01*
X139247619Y-55624214D02*
X140247619Y-55624214D01*
X140247619Y-56005166D01*
X140200000Y-56100404D01*
X140152380Y-56148023D01*
X140057142Y-56195642D01*
X139914285Y-56195642D01*
X139819047Y-56148023D01*
X139771428Y-56100404D01*
X139723809Y-56005166D01*
X139723809Y-55624214D01*
X139771428Y-56624214D02*
X139771428Y-56957547D01*
X139247619Y-57100404D02*
X139247619Y-56624214D01*
X140247619Y-56624214D01*
X140247619Y-57100404D01*
X140200000Y-58052785D02*
X140247619Y-57957547D01*
X140247619Y-57814690D01*
X140200000Y-57671833D01*
X140104761Y-57576595D01*
X140009523Y-57528976D01*
X139819047Y-57481357D01*
X139676190Y-57481357D01*
X139485714Y-57528976D01*
X139390476Y-57576595D01*
X139295238Y-57671833D01*
X139247619Y-57814690D01*
X139247619Y-57909928D01*
X139295238Y-58052785D01*
X139342857Y-58100404D01*
X139676190Y-58100404D01*
X139676190Y-57909928D01*
X140247619Y-58719452D02*
X140247619Y-58909928D01*
X140200000Y-59005166D01*
X140104761Y-59100404D01*
X139914285Y-59148023D01*
X139580952Y-59148023D01*
X139390476Y-59100404D01*
X139295238Y-59005166D01*
X139247619Y-58909928D01*
X139247619Y-58719452D01*
X139295238Y-58624214D01*
X139390476Y-58528976D01*
X139580952Y-58481357D01*
X139914285Y-58481357D01*
X140104761Y-58528976D01*
X140200000Y-58624214D01*
X140247619Y-58719452D01*
X142787619Y-55195642D02*
X141787619Y-55528976D01*
X142787619Y-55862309D01*
X141787619Y-56767071D02*
X142263809Y-56433738D01*
X141787619Y-56195642D02*
X142787619Y-56195642D01*
X142787619Y-56576595D01*
X142740000Y-56671833D01*
X142692380Y-56719452D01*
X142597142Y-56767071D01*
X142454285Y-56767071D01*
X142359047Y-56719452D01*
X142311428Y-56671833D01*
X142263809Y-56576595D01*
X142263809Y-56195642D01*
X142311428Y-57195642D02*
X142311428Y-57528976D01*
X141787619Y-57671833D02*
X141787619Y-57195642D01*
X142787619Y-57195642D01*
X142787619Y-57671833D01*
X142740000Y-58624214D02*
X142787619Y-58528976D01*
X142787619Y-58386119D01*
X142740000Y-58243261D01*
X142644761Y-58148023D01*
X142549523Y-58100404D01*
X142359047Y-58052785D01*
X142216190Y-58052785D01*
X142025714Y-58100404D01*
X141930476Y-58148023D01*
X141835238Y-58243261D01*
X141787619Y-58386119D01*
X141787619Y-58481357D01*
X141835238Y-58624214D01*
X141882857Y-58671833D01*
X142216190Y-58671833D01*
X142216190Y-58481357D01*
X141787619Y-59100404D02*
X142787619Y-59100404D01*
X136707619Y-55671833D02*
X137707619Y-55671833D01*
X137707619Y-56052785D01*
X137660000Y-56148023D01*
X137612380Y-56195642D01*
X137517142Y-56243261D01*
X137374285Y-56243261D01*
X137279047Y-56195642D01*
X137231428Y-56148023D01*
X137183809Y-56052785D01*
X137183809Y-55671833D01*
X136802857Y-57243261D02*
X136755238Y-57195642D01*
X136707619Y-57052785D01*
X136707619Y-56957547D01*
X136755238Y-56814690D01*
X136850476Y-56719452D01*
X136945714Y-56671833D01*
X137136190Y-56624214D01*
X137279047Y-56624214D01*
X137469523Y-56671833D01*
X137564761Y-56719452D01*
X137660000Y-56814690D01*
X137707619Y-56957547D01*
X137707619Y-57052785D01*
X137660000Y-57195642D01*
X137612380Y-57243261D01*
X136707619Y-58195642D02*
X136707619Y-57624214D01*
X136707619Y-57909928D02*
X137707619Y-57909928D01*
X137564761Y-57814690D01*
X137469523Y-57719452D01*
X137421904Y-57624214D01*
X137374285Y-59052785D02*
X136707619Y-59052785D01*
X137755238Y-58814690D02*
X137040952Y-58576595D01*
X137040952Y-59195642D01*
X134167619Y-55671833D02*
X135167619Y-55671833D01*
X135167619Y-56052785D01*
X135120000Y-56148023D01*
X135072380Y-56195642D01*
X134977142Y-56243261D01*
X134834285Y-56243261D01*
X134739047Y-56195642D01*
X134691428Y-56148023D01*
X134643809Y-56052785D01*
X134643809Y-55671833D01*
X134262857Y-57243261D02*
X134215238Y-57195642D01*
X134167619Y-57052785D01*
X134167619Y-56957547D01*
X134215238Y-56814690D01*
X134310476Y-56719452D01*
X134405714Y-56671833D01*
X134596190Y-56624214D01*
X134739047Y-56624214D01*
X134929523Y-56671833D01*
X135024761Y-56719452D01*
X135120000Y-56814690D01*
X135167619Y-56957547D01*
X135167619Y-57052785D01*
X135120000Y-57195642D01*
X135072380Y-57243261D01*
X134167619Y-58195642D02*
X134167619Y-57624214D01*
X134167619Y-57909928D02*
X135167619Y-57909928D01*
X135024761Y-57814690D01*
X134929523Y-57719452D01*
X134881904Y-57624214D01*
X135167619Y-59100404D02*
X135167619Y-58624214D01*
X134691428Y-58576595D01*
X134739047Y-58624214D01*
X134786666Y-58719452D01*
X134786666Y-58957547D01*
X134739047Y-59052785D01*
X134691428Y-59100404D01*
X134596190Y-59148023D01*
X134358095Y-59148023D01*
X134262857Y-59100404D01*
X134215238Y-59052785D01*
X134167619Y-58957547D01*
X134167619Y-58719452D01*
X134215238Y-58624214D01*
X134262857Y-58576595D01*
X117205333Y-56332380D02*
X117205333Y-55332380D01*
X117586285Y-55332380D01*
X117681523Y-55380000D01*
X117729142Y-55427619D01*
X117776761Y-55522857D01*
X117776761Y-55665714D01*
X117729142Y-55760952D01*
X117681523Y-55808571D01*
X117586285Y-55856190D01*
X117205333Y-55856190D01*
X118205333Y-55808571D02*
X118538666Y-55808571D01*
X118681523Y-56332380D02*
X118205333Y-56332380D01*
X118205333Y-55332380D01*
X118681523Y-55332380D01*
X119633904Y-56332380D02*
X119062476Y-56332380D01*
X119348190Y-56332380D02*
X119348190Y-55332380D01*
X119252952Y-55475238D01*
X119157714Y-55570476D01*
X119062476Y-55618095D01*
X119967238Y-55332380D02*
X120586285Y-55332380D01*
X120252952Y-55713333D01*
X120395809Y-55713333D01*
X120491047Y-55760952D01*
X120538666Y-55808571D01*
X120586285Y-55903809D01*
X120586285Y-56141904D01*
X120538666Y-56237142D01*
X120491047Y-56284761D01*
X120395809Y-56332380D01*
X120110095Y-56332380D01*
X120014857Y-56284761D01*
X119967238Y-56237142D01*
X113276000Y-50038095D02*
X113323619Y-49942857D01*
X113323619Y-49800000D01*
X113276000Y-49657142D01*
X113180761Y-49561904D01*
X113085523Y-49514285D01*
X112895047Y-49466666D01*
X112752190Y-49466666D01*
X112561714Y-49514285D01*
X112466476Y-49561904D01*
X112371238Y-49657142D01*
X112323619Y-49800000D01*
X112323619Y-49895238D01*
X112371238Y-50038095D01*
X112418857Y-50085714D01*
X112752190Y-50085714D01*
X112752190Y-49895238D01*
X112323619Y-50514285D02*
X113323619Y-50514285D01*
X112323619Y-51085714D01*
X113323619Y-51085714D01*
X112323619Y-51561904D02*
X113323619Y-51561904D01*
X113323619Y-51800000D01*
X113276000Y-51942857D01*
X113180761Y-52038095D01*
X113085523Y-52085714D01*
X112895047Y-52133333D01*
X112752190Y-52133333D01*
X112561714Y-52085714D01*
X112466476Y-52038095D01*
X112371238Y-51942857D01*
X112323619Y-51800000D01*
X112323619Y-51561904D01*
X105957619Y-49466666D02*
X104957619Y-49800000D01*
X105957619Y-50133333D01*
X104957619Y-50466666D02*
X105957619Y-50466666D01*
X105957619Y-50704761D01*
X105910000Y-50847619D01*
X105814761Y-50942857D01*
X105719523Y-50990476D01*
X105529047Y-51038095D01*
X105386190Y-51038095D01*
X105195714Y-50990476D01*
X105100476Y-50942857D01*
X105005238Y-50847619D01*
X104957619Y-50704761D01*
X104957619Y-50466666D01*
X104957619Y-51466666D02*
X105957619Y-51466666D01*
X105957619Y-51704761D01*
X105910000Y-51847619D01*
X105814761Y-51942857D01*
X105719523Y-51990476D01*
X105529047Y-52038095D01*
X105386190Y-52038095D01*
X105195714Y-51990476D01*
X105100476Y-51942857D01*
X105005238Y-51847619D01*
X104957619Y-51704761D01*
X104957619Y-51466666D01*
X108934285Y-97591619D02*
X108981904Y-97544000D01*
X109077142Y-97496380D01*
X109315238Y-97496380D01*
X109410476Y-97544000D01*
X109458095Y-97591619D01*
X109505714Y-97686857D01*
X109505714Y-97782095D01*
X109458095Y-97924952D01*
X108886666Y-98496380D01*
X109505714Y-98496380D01*
X106965714Y-98496380D02*
X106394285Y-98496380D01*
X106680000Y-98496380D02*
X106680000Y-97496380D01*
X106584761Y-97639238D01*
X106489523Y-97734476D01*
X106394285Y-97782095D01*
D13*
X119261904Y-91280571D02*
X119404761Y-91328190D01*
X119452380Y-91375809D01*
X119500000Y-91471047D01*
X119500000Y-91613904D01*
X119452380Y-91709142D01*
X119404761Y-91756761D01*
X119309523Y-91804380D01*
X118928571Y-91804380D01*
X118928571Y-90804380D01*
X119261904Y-90804380D01*
X119357142Y-90852000D01*
X119404761Y-90899619D01*
X119452380Y-90994857D01*
X119452380Y-91090095D01*
X119404761Y-91185333D01*
X119357142Y-91232952D01*
X119261904Y-91280571D01*
X118928571Y-91280571D01*
X119928571Y-91804380D02*
X119928571Y-91137714D01*
X119928571Y-91328190D02*
X119976190Y-91232952D01*
X120023809Y-91185333D01*
X120119047Y-91137714D01*
X120214285Y-91137714D01*
X120928571Y-91756761D02*
X120833333Y-91804380D01*
X120642857Y-91804380D01*
X120547619Y-91756761D01*
X120500000Y-91661523D01*
X120500000Y-91280571D01*
X120547619Y-91185333D01*
X120642857Y-91137714D01*
X120833333Y-91137714D01*
X120928571Y-91185333D01*
X120976190Y-91280571D01*
X120976190Y-91375809D01*
X120500000Y-91471047D01*
X121833333Y-91756761D02*
X121738095Y-91804380D01*
X121547619Y-91804380D01*
X121452380Y-91756761D01*
X121404761Y-91709142D01*
X121357142Y-91613904D01*
X121357142Y-91328190D01*
X121404761Y-91232952D01*
X121452380Y-91185333D01*
X121547619Y-91137714D01*
X121738095Y-91137714D01*
X121833333Y-91185333D01*
X122261904Y-91804380D02*
X122261904Y-90804380D01*
X122690476Y-91804380D02*
X122690476Y-91280571D01*
X122642857Y-91185333D01*
X122547619Y-91137714D01*
X122404761Y-91137714D01*
X122309523Y-91185333D01*
X122261904Y-91232952D01*
X123023809Y-91137714D02*
X123404761Y-91137714D01*
X123166666Y-90804380D02*
X123166666Y-91661523D01*
X123214285Y-91756761D01*
X123309523Y-91804380D01*
X123404761Y-91804380D01*
X124357142Y-90804380D02*
X124690476Y-91804380D01*
X125023809Y-90804380D01*
X125785714Y-91804380D02*
X125785714Y-91280571D01*
X125738095Y-91185333D01*
X125642857Y-91137714D01*
X125452380Y-91137714D01*
X125357142Y-91185333D01*
X125785714Y-91756761D02*
X125690476Y-91804380D01*
X125452380Y-91804380D01*
X125357142Y-91756761D01*
X125309523Y-91661523D01*
X125309523Y-91566285D01*
X125357142Y-91471047D01*
X125452380Y-91423428D01*
X125690476Y-91423428D01*
X125785714Y-91375809D01*
X126261904Y-91137714D02*
X126261904Y-91804380D01*
X126261904Y-91232952D02*
X126309523Y-91185333D01*
X126404761Y-91137714D01*
X126547619Y-91137714D01*
X126642857Y-91185333D01*
X126690476Y-91280571D01*
X126690476Y-91804380D01*
X127928571Y-91280571D02*
X128261904Y-91280571D01*
X128404761Y-91804380D02*
X127928571Y-91804380D01*
X127928571Y-90804380D01*
X128404761Y-90804380D01*
X129214285Y-91756761D02*
X129119047Y-91804380D01*
X128928571Y-91804380D01*
X128833333Y-91756761D01*
X128785714Y-91661523D01*
X128785714Y-91280571D01*
X128833333Y-91185333D01*
X128928571Y-91137714D01*
X129119047Y-91137714D01*
X129214285Y-91185333D01*
X129261904Y-91280571D01*
X129261904Y-91375809D01*
X128785714Y-91471047D01*
X130119047Y-91756761D02*
X130023809Y-91804380D01*
X129833333Y-91804380D01*
X129738095Y-91756761D01*
X129690476Y-91709142D01*
X129642857Y-91613904D01*
X129642857Y-91328190D01*
X129690476Y-91232952D01*
X129738095Y-91185333D01*
X129833333Y-91137714D01*
X130023809Y-91137714D01*
X130119047Y-91185333D01*
X130547619Y-91804380D02*
X130547619Y-90804380D01*
X130642857Y-91423428D02*
X130928571Y-91804380D01*
X130928571Y-91137714D02*
X130547619Y-91518666D01*
X131357142Y-91804380D02*
X131357142Y-90804380D01*
X131785714Y-91804380D02*
X131785714Y-91280571D01*
X131738095Y-91185333D01*
X131642857Y-91137714D01*
X131500000Y-91137714D01*
X131404761Y-91185333D01*
X131357142Y-91232952D01*
X132404761Y-91804380D02*
X132309523Y-91756761D01*
X132261904Y-91709142D01*
X132214285Y-91613904D01*
X132214285Y-91328190D01*
X132261904Y-91232952D01*
X132309523Y-91185333D01*
X132404761Y-91137714D01*
X132547619Y-91137714D01*
X132642857Y-91185333D01*
X132690476Y-91232952D01*
X132738095Y-91328190D01*
X132738095Y-91613904D01*
X132690476Y-91709142D01*
X132642857Y-91756761D01*
X132547619Y-91804380D01*
X132404761Y-91804380D01*
X133595238Y-91137714D02*
X133595238Y-91804380D01*
X133166666Y-91137714D02*
X133166666Y-91661523D01*
X133214285Y-91756761D01*
X133309523Y-91804380D01*
X133452380Y-91804380D01*
X133547619Y-91756761D01*
X133595238Y-91709142D01*
X134500000Y-91804380D02*
X134500000Y-90804380D01*
X134500000Y-91756761D02*
X134404761Y-91804380D01*
X134214285Y-91804380D01*
X134119047Y-91756761D01*
X134071428Y-91709142D01*
X134023809Y-91613904D01*
X134023809Y-91328190D01*
X134071428Y-91232952D01*
X134119047Y-91185333D01*
X134214285Y-91137714D01*
X134404761Y-91137714D01*
X134500000Y-91185333D01*
X134833333Y-91137714D02*
X135214285Y-91137714D01*
X134976190Y-90804380D02*
X134976190Y-91661523D01*
X135023809Y-91756761D01*
X135119047Y-91804380D01*
X135214285Y-91804380D01*
X120119047Y-92837714D02*
X120119047Y-93647238D01*
X120071428Y-93742476D01*
X120023809Y-93790095D01*
X119928571Y-93837714D01*
X119785714Y-93837714D01*
X119690476Y-93790095D01*
X120119047Y-93456761D02*
X120023809Y-93504380D01*
X119833333Y-93504380D01*
X119738095Y-93456761D01*
X119690476Y-93409142D01*
X119642857Y-93313904D01*
X119642857Y-93028190D01*
X119690476Y-92932952D01*
X119738095Y-92885333D01*
X119833333Y-92837714D01*
X120023809Y-92837714D01*
X120119047Y-92885333D01*
X120595238Y-93504380D02*
X120595238Y-92837714D01*
X120595238Y-92504380D02*
X120547619Y-92552000D01*
X120595238Y-92599619D01*
X120642857Y-92552000D01*
X120595238Y-92504380D01*
X120595238Y-92599619D01*
X120928571Y-92837714D02*
X121309523Y-92837714D01*
X121071428Y-92504380D02*
X121071428Y-93361523D01*
X121119047Y-93456761D01*
X121214285Y-93504380D01*
X121309523Y-93504380D01*
X121642857Y-93504380D02*
X121642857Y-92504380D01*
X122071428Y-93504380D02*
X122071428Y-92980571D01*
X122023809Y-92885333D01*
X121928571Y-92837714D01*
X121785714Y-92837714D01*
X121690476Y-92885333D01*
X121642857Y-92932952D01*
X122976190Y-92837714D02*
X122976190Y-93504380D01*
X122547619Y-92837714D02*
X122547619Y-93361523D01*
X122595238Y-93456761D01*
X122690476Y-93504380D01*
X122833333Y-93504380D01*
X122928571Y-93456761D01*
X122976190Y-93409142D01*
X123452380Y-93504380D02*
X123452380Y-92504380D01*
X123452380Y-92885333D02*
X123547619Y-92837714D01*
X123738095Y-92837714D01*
X123833333Y-92885333D01*
X123880952Y-92932952D01*
X123928571Y-93028190D01*
X123928571Y-93313904D01*
X123880952Y-93409142D01*
X123833333Y-93456761D01*
X123738095Y-93504380D01*
X123547619Y-93504380D01*
X123452380Y-93456761D01*
X124357142Y-93409142D02*
X124404761Y-93456761D01*
X124357142Y-93504380D01*
X124309523Y-93456761D01*
X124357142Y-93409142D01*
X124357142Y-93504380D01*
X125261904Y-93456761D02*
X125166666Y-93504380D01*
X124976190Y-93504380D01*
X124880952Y-93456761D01*
X124833333Y-93409142D01*
X124785714Y-93313904D01*
X124785714Y-93028190D01*
X124833333Y-92932952D01*
X124880952Y-92885333D01*
X124976190Y-92837714D01*
X125166666Y-92837714D01*
X125261904Y-92885333D01*
X125833333Y-93504380D02*
X125738095Y-93456761D01*
X125690476Y-93409142D01*
X125642857Y-93313904D01*
X125642857Y-93028190D01*
X125690476Y-92932952D01*
X125738095Y-92885333D01*
X125833333Y-92837714D01*
X125976190Y-92837714D01*
X126071428Y-92885333D01*
X126119047Y-92932952D01*
X126166666Y-93028190D01*
X126166666Y-93313904D01*
X126119047Y-93409142D01*
X126071428Y-93456761D01*
X125976190Y-93504380D01*
X125833333Y-93504380D01*
X126595238Y-93504380D02*
X126595238Y-92837714D01*
X126595238Y-92932952D02*
X126642857Y-92885333D01*
X126738095Y-92837714D01*
X126880952Y-92837714D01*
X126976190Y-92885333D01*
X127023809Y-92980571D01*
X127023809Y-93504380D01*
X127023809Y-92980571D02*
X127071428Y-92885333D01*
X127166666Y-92837714D01*
X127309523Y-92837714D01*
X127404761Y-92885333D01*
X127452380Y-92980571D01*
X127452380Y-93504380D01*
X128642857Y-92456761D02*
X127785714Y-93742476D01*
X129309523Y-92980571D02*
X128976190Y-92980571D01*
X128976190Y-93504380D02*
X128976190Y-92504380D01*
X129452380Y-92504380D01*
X130214285Y-93456761D02*
X130119047Y-93504380D01*
X129928571Y-93504380D01*
X129833333Y-93456761D01*
X129785714Y-93361523D01*
X129785714Y-92980571D01*
X129833333Y-92885333D01*
X129928571Y-92837714D01*
X130119047Y-92837714D01*
X130214285Y-92885333D01*
X130261904Y-92980571D01*
X130261904Y-93075809D01*
X129785714Y-93171047D01*
X130642857Y-93456761D02*
X130738095Y-93504380D01*
X130928571Y-93504380D01*
X131023809Y-93456761D01*
X131071428Y-93361523D01*
X131071428Y-93313904D01*
X131023809Y-93218666D01*
X130928571Y-93171047D01*
X130785714Y-93171047D01*
X130690476Y-93123428D01*
X130642857Y-93028190D01*
X130642857Y-92980571D01*
X130690476Y-92885333D01*
X130785714Y-92837714D01*
X130928571Y-92837714D01*
X131023809Y-92885333D01*
X131928571Y-93456761D02*
X131833333Y-93504380D01*
X131642857Y-93504380D01*
X131547619Y-93456761D01*
X131500000Y-93409142D01*
X131452380Y-93313904D01*
X131452380Y-93028190D01*
X131500000Y-92932952D01*
X131547619Y-92885333D01*
X131642857Y-92837714D01*
X131833333Y-92837714D01*
X131928571Y-92885333D01*
X132357142Y-93504380D02*
X132357142Y-92837714D01*
X132357142Y-93028190D02*
X132404761Y-92932952D01*
X132452380Y-92885333D01*
X132547619Y-92837714D01*
X132642857Y-92837714D01*
X133119047Y-93504380D02*
X133023809Y-93456761D01*
X132976190Y-93409142D01*
X132928571Y-93313904D01*
X132928571Y-93028190D01*
X132976190Y-92932952D01*
X133023809Y-92885333D01*
X133119047Y-92837714D01*
X133261904Y-92837714D01*
X133357142Y-92885333D01*
X133404761Y-92932952D01*
X133452380Y-93028190D01*
X133452380Y-93313904D01*
X133404761Y-93409142D01*
X133357142Y-93456761D01*
X133261904Y-93504380D01*
X133119047Y-93504380D01*
X133880952Y-92837714D02*
X133880952Y-93504380D01*
X133880952Y-92932952D02*
X133928571Y-92885333D01*
X134023809Y-92837714D01*
X134166666Y-92837714D01*
X134261904Y-92885333D01*
X134309523Y-92980571D01*
X134309523Y-93504380D01*
D11*
X97790000Y-96520000D02*
X97790000Y-95885000D01*
X156210000Y-96520000D02*
X97790000Y-96520000D01*
X156210000Y-96266000D02*
X156210000Y-96520000D01*
X156210000Y-95885000D02*
X156210000Y-96266000D01*
X156210000Y-53340000D02*
X97790000Y-53340000D01*
X156210000Y-95885000D02*
X156210000Y-53340000D01*
X97790000Y-53340000D02*
X97790000Y-95885000D01*
D10*
X123375000Y-66650000D02*
X122000000Y-66650000D01*
X130625000Y-66225000D02*
X130100000Y-66225000D01*
X130625000Y-73475000D02*
X130100000Y-73475000D01*
X123375000Y-73475000D02*
X123900000Y-73475000D01*
X123375000Y-66225000D02*
X123900000Y-66225000D01*
X123375000Y-73475000D02*
X123375000Y-72950000D01*
X130625000Y-73475000D02*
X130625000Y-72950000D01*
X130625000Y-66225000D02*
X130625000Y-66750000D01*
X123375000Y-66225000D02*
X123375000Y-66650000D01*
D11*
X136269000Y-78822733D02*
X136269000Y-79165267D01*
X137289000Y-78822733D02*
X137289000Y-79165267D01*
D14*
X110490000Y-99695000D02*
X110490000Y-100965000D01*
X107315000Y-101600000D02*
X106045000Y-101600000D01*
X105410000Y-100965000D02*
X106045000Y-101600000D01*
X106045000Y-99060000D02*
X105410000Y-99695000D01*
X105410000Y-99695000D02*
X105410000Y-100965000D01*
X108585000Y-101600000D02*
X107950000Y-100965000D01*
X109855000Y-101600000D02*
X108585000Y-101600000D01*
X110490000Y-100965000D02*
X109855000Y-101600000D01*
X109855000Y-99060000D02*
X110490000Y-99695000D01*
X108585000Y-99060000D02*
X109855000Y-99060000D01*
X107950000Y-99695000D02*
X108585000Y-99060000D01*
X107950000Y-100965000D02*
X107315000Y-101600000D01*
X107315000Y-99060000D02*
X107950000Y-99695000D01*
X106045000Y-99060000D02*
X107315000Y-99060000D01*
X120650000Y-99695000D02*
X120650000Y-100965000D01*
X114935000Y-101600000D02*
X113665000Y-101600000D01*
X113030000Y-100965000D02*
X113665000Y-101600000D01*
X113665000Y-99060000D02*
X113030000Y-99695000D01*
X113030000Y-99695000D02*
X113030000Y-100965000D01*
X116205000Y-101600000D02*
X115570000Y-100965000D01*
X117475000Y-101600000D02*
X116205000Y-101600000D01*
X118110000Y-100965000D02*
X117475000Y-101600000D01*
X117475000Y-99060000D02*
X118110000Y-99695000D01*
X116205000Y-99060000D02*
X117475000Y-99060000D01*
X115570000Y-99695000D02*
X116205000Y-99060000D01*
X115570000Y-100965000D02*
X114935000Y-101600000D01*
X114935000Y-99060000D02*
X115570000Y-99695000D01*
X113665000Y-99060000D02*
X114935000Y-99060000D01*
X118745000Y-101600000D02*
X118110000Y-100965000D01*
X120015000Y-101600000D02*
X118745000Y-101600000D01*
X120650000Y-100965000D02*
X120015000Y-101600000D01*
X120015000Y-99060000D02*
X120650000Y-99695000D01*
X118745000Y-99060000D02*
X120015000Y-99060000D01*
X118110000Y-99695000D02*
X118745000Y-99060000D01*
D11*
X107950000Y-59750000D02*
X106620000Y-59750000D01*
X106620000Y-59750000D02*
X106620000Y-58420000D01*
X109220000Y-59750000D02*
X109220000Y-57150000D01*
X109220000Y-57150000D02*
X106620000Y-57150000D01*
X106620000Y-57150000D02*
X106620000Y-54550000D01*
X111820000Y-54550000D02*
X106620000Y-54550000D01*
X111820000Y-59750000D02*
X111820000Y-54550000D01*
X111820000Y-59750000D02*
X109220000Y-59750000D01*
D14*
X147320000Y-41402000D02*
X147320000Y-42672000D01*
X131445000Y-43307000D02*
X130175000Y-43307000D01*
X129540000Y-42672000D02*
X130175000Y-43307000D01*
X130175000Y-40767000D02*
X129540000Y-41402000D01*
X129540000Y-41402000D02*
X129540000Y-42672000D01*
X132715000Y-43307000D02*
X132080000Y-42672000D01*
X133985000Y-43307000D02*
X132715000Y-43307000D01*
X134620000Y-42672000D02*
X133985000Y-43307000D01*
X133985000Y-40767000D02*
X134620000Y-41402000D01*
X132715000Y-40767000D02*
X133985000Y-40767000D01*
X132080000Y-41402000D02*
X132715000Y-40767000D01*
X132080000Y-42672000D02*
X131445000Y-43307000D01*
X131445000Y-40767000D02*
X132080000Y-41402000D01*
X130175000Y-40767000D02*
X131445000Y-40767000D01*
X139065000Y-43307000D02*
X137795000Y-43307000D01*
X137160000Y-42672000D02*
X137795000Y-43307000D01*
X137795000Y-40767000D02*
X137160000Y-41402000D01*
X135255000Y-43307000D02*
X134620000Y-42672000D01*
X136525000Y-43307000D02*
X135255000Y-43307000D01*
X137160000Y-42672000D02*
X136525000Y-43307000D01*
X136525000Y-40767000D02*
X137160000Y-41402000D01*
X135255000Y-40767000D02*
X136525000Y-40767000D01*
X134620000Y-41402000D02*
X135255000Y-40767000D01*
X140335000Y-43307000D02*
X139700000Y-42672000D01*
X141605000Y-43307000D02*
X140335000Y-43307000D01*
X142240000Y-42672000D02*
X141605000Y-43307000D01*
X141605000Y-40767000D02*
X142240000Y-41402000D01*
X140335000Y-40767000D02*
X141605000Y-40767000D01*
X139700000Y-41402000D02*
X140335000Y-40767000D01*
X139700000Y-42672000D02*
X139065000Y-43307000D01*
X139065000Y-40767000D02*
X139700000Y-41402000D01*
X137795000Y-40767000D02*
X139065000Y-40767000D01*
X146685000Y-43307000D02*
X145415000Y-43307000D01*
X144780000Y-42672000D02*
X145415000Y-43307000D01*
X145415000Y-40767000D02*
X144780000Y-41402000D01*
X142875000Y-43307000D02*
X142240000Y-42672000D01*
X144145000Y-43307000D02*
X142875000Y-43307000D01*
X144780000Y-42672000D02*
X144145000Y-43307000D01*
X144145000Y-40767000D02*
X144780000Y-41402000D01*
X142875000Y-40767000D02*
X144145000Y-40767000D01*
X142240000Y-41402000D02*
X142875000Y-40767000D01*
X147320000Y-42672000D02*
X146685000Y-43307000D01*
X146685000Y-40767000D02*
X147320000Y-41402000D01*
X145415000Y-40767000D02*
X146685000Y-40767000D01*
X116205000Y-54610000D02*
X114935000Y-54610000D01*
X116840000Y-55245000D02*
X116205000Y-54610000D01*
X116840000Y-56515000D02*
X116840000Y-55245000D01*
X116205000Y-57150000D02*
X116840000Y-56515000D01*
X114935000Y-57150000D02*
X116205000Y-57150000D01*
X114300000Y-56515000D02*
X114935000Y-57150000D01*
X114300000Y-55245000D02*
X114300000Y-56515000D01*
X114935000Y-54610000D02*
X114300000Y-55245000D01*
D11*
X106680000Y-52070000D02*
X106680000Y-50800000D01*
X107950000Y-52070000D02*
X106680000Y-52070000D01*
X110870000Y-49757071D02*
X110870000Y-49360000D01*
X110110000Y-49757071D02*
X110110000Y-49360000D01*
X110870000Y-40700000D02*
X110870000Y-46700000D01*
X110110000Y-40700000D02*
X110870000Y-40700000D01*
X110110000Y-46700000D02*
X110110000Y-40700000D01*
X109220000Y-49360000D02*
X109220000Y-46700000D01*
X108330000Y-49690000D02*
X108330000Y-49360000D01*
X107570000Y-49690000D02*
X107570000Y-49360000D01*
X108230000Y-46700000D02*
X108230000Y-40700000D01*
X108110000Y-46700000D02*
X108110000Y-40700000D01*
X107990000Y-46700000D02*
X107990000Y-40700000D01*
X107870000Y-46700000D02*
X107870000Y-40700000D01*
X107750000Y-46700000D02*
X107750000Y-40700000D01*
X107630000Y-46700000D02*
X107630000Y-40700000D01*
X108330000Y-40700000D02*
X108330000Y-46700000D01*
X107570000Y-40700000D02*
X108330000Y-40700000D01*
X107570000Y-46700000D02*
X107570000Y-40700000D01*
X106620000Y-46700000D02*
X106620000Y-49360000D01*
X111820000Y-46700000D02*
X106620000Y-46700000D01*
X111820000Y-49360000D02*
X111820000Y-46700000D01*
X106620000Y-49360000D02*
X111820000Y-49360000D01*
D14*
X146558000Y-64770000D02*
X147828000Y-64770000D01*
X148463000Y-70485000D02*
X148463000Y-71755000D01*
X147828000Y-72390000D02*
X148463000Y-71755000D01*
X145923000Y-71755000D02*
X146558000Y-72390000D01*
X146558000Y-72390000D02*
X147828000Y-72390000D01*
X148463000Y-69215000D02*
X147828000Y-69850000D01*
X148463000Y-67945000D02*
X148463000Y-69215000D01*
X147828000Y-67310000D02*
X148463000Y-67945000D01*
X145923000Y-67945000D02*
X146558000Y-67310000D01*
X145923000Y-69215000D02*
X145923000Y-67945000D01*
X146558000Y-69850000D02*
X145923000Y-69215000D01*
X147828000Y-69850000D02*
X148463000Y-70485000D01*
X145923000Y-70485000D02*
X146558000Y-69850000D01*
X145923000Y-71755000D02*
X145923000Y-70485000D01*
X148463000Y-66675000D02*
X147828000Y-67310000D01*
X148463000Y-65405000D02*
X148463000Y-66675000D01*
X147828000Y-64770000D02*
X148463000Y-65405000D01*
X145923000Y-65405000D02*
X146558000Y-64770000D01*
X145923000Y-66675000D02*
X145923000Y-65405000D01*
X146558000Y-67310000D02*
X145923000Y-66675000D01*
D11*
X99000000Y-90110000D02*
X100330000Y-90110000D01*
X99000000Y-91440000D02*
X99000000Y-90110000D01*
X101600000Y-90110000D02*
X104200000Y-90110000D01*
X101600000Y-92710000D02*
X101600000Y-90110000D01*
X99000000Y-92710000D02*
X101600000Y-92710000D01*
X104200000Y-90110000D02*
X104200000Y-95310000D01*
X99000000Y-92710000D02*
X99000000Y-95310000D01*
X99000000Y-95310000D02*
X104200000Y-95310000D01*
X149800000Y-90110000D02*
X151130000Y-90110000D01*
X149800000Y-91440000D02*
X149800000Y-90110000D01*
X152400000Y-90110000D02*
X155000000Y-90110000D01*
X152400000Y-92710000D02*
X152400000Y-90110000D01*
X149800000Y-92710000D02*
X152400000Y-92710000D01*
X155000000Y-90110000D02*
X155000000Y-95310000D01*
X149800000Y-92710000D02*
X149800000Y-95310000D01*
X149800000Y-95310000D02*
X155000000Y-95310000D01*
X99000000Y-54550000D02*
X100330000Y-54550000D01*
X99000000Y-55880000D02*
X99000000Y-54550000D01*
X101600000Y-54550000D02*
X104200000Y-54550000D01*
X101600000Y-57150000D02*
X101600000Y-54550000D01*
X99000000Y-57150000D02*
X101600000Y-57150000D01*
X104200000Y-54550000D02*
X104200000Y-77530000D01*
X99000000Y-57150000D02*
X99000000Y-77530000D01*
X99000000Y-77530000D02*
X104200000Y-77530000D01*
X149800000Y-54550000D02*
X151130000Y-54550000D01*
X149800000Y-55880000D02*
X149800000Y-54550000D01*
X152400000Y-54550000D02*
X155000000Y-54550000D01*
X152400000Y-57150000D02*
X152400000Y-54550000D01*
X149800000Y-57150000D02*
X152400000Y-57150000D01*
X155000000Y-54550000D02*
X155000000Y-64830000D01*
X149800000Y-57150000D02*
X149800000Y-64830000D01*
X149800000Y-64830000D02*
X155000000Y-64830000D01*
D14*
X143510000Y-60198000D02*
X143510000Y-61468000D01*
X135255000Y-62103000D02*
X133985000Y-62103000D01*
X133350000Y-61468000D02*
X133985000Y-62103000D01*
X133985000Y-59563000D02*
X133350000Y-60198000D01*
X133350000Y-60198000D02*
X133350000Y-61468000D01*
X136525000Y-62103000D02*
X135890000Y-61468000D01*
X137795000Y-62103000D02*
X136525000Y-62103000D01*
X138430000Y-61468000D02*
X137795000Y-62103000D01*
X137795000Y-59563000D02*
X138430000Y-60198000D01*
X136525000Y-59563000D02*
X137795000Y-59563000D01*
X135890000Y-60198000D02*
X136525000Y-59563000D01*
X135890000Y-61468000D02*
X135255000Y-62103000D01*
X135255000Y-59563000D02*
X135890000Y-60198000D01*
X133985000Y-59563000D02*
X135255000Y-59563000D01*
X142875000Y-62103000D02*
X141605000Y-62103000D01*
X140970000Y-61468000D02*
X141605000Y-62103000D01*
X141605000Y-59563000D02*
X140970000Y-60198000D01*
X139065000Y-62103000D02*
X138430000Y-61468000D01*
X140335000Y-62103000D02*
X139065000Y-62103000D01*
X140970000Y-61468000D02*
X140335000Y-62103000D01*
X140335000Y-59563000D02*
X140970000Y-60198000D01*
X139065000Y-59563000D02*
X140335000Y-59563000D01*
X138430000Y-60198000D02*
X139065000Y-59563000D01*
X143510000Y-61468000D02*
X142875000Y-62103000D01*
X142875000Y-59563000D02*
X143510000Y-60198000D01*
X141605000Y-59563000D02*
X142875000Y-59563000D01*
D11*
X125991252Y-79554000D02*
X125468748Y-79554000D01*
X125991252Y-80974000D02*
X125468748Y-80974000D01*
X114225000Y-68064748D02*
X114225000Y-68587252D01*
X115645000Y-68064748D02*
X115645000Y-68587252D01*
X117437000Y-73788000D02*
X117437000Y-76638000D01*
X119037000Y-73788000D02*
X117437000Y-73788000D01*
X119037000Y-76638000D02*
X119037000Y-73788000D01*
X123885000Y-40580000D02*
X121650000Y-40580000D01*
X123885000Y-50860000D02*
X123885000Y-40580000D01*
X117415000Y-50860000D02*
X123885000Y-50860000D01*
X117415000Y-40580000D02*
X117415000Y-50860000D01*
X119650000Y-40580000D02*
X117415000Y-40580000D01*
X121650000Y-40580000D02*
G75*
G02X119650000Y-40580000I-1000000J0D01*
G01*
X111685000Y-68064748D02*
X111685000Y-68587252D01*
X113105000Y-68064748D02*
X113105000Y-68587252D01*
X151225000Y-43295000D02*
X154845000Y-43295000D01*
X151225000Y-49415000D02*
X151225000Y-43295000D01*
X154845000Y-49415000D02*
X151225000Y-49415000D01*
X154845000Y-43295000D02*
X154845000Y-49415000D01*
X147626000Y-50807252D02*
X147626000Y-50284748D01*
X149046000Y-50807252D02*
X149046000Y-50284748D01*
X144518748Y-45668000D02*
X145041252Y-45668000D01*
X144518748Y-44248000D02*
X145041252Y-44248000D01*
X137720000Y-45458748D02*
X137720000Y-45981252D01*
X139140000Y-45458748D02*
X139140000Y-45981252D01*
X135180000Y-45458748D02*
X135180000Y-45981252D01*
X136600000Y-45458748D02*
X136600000Y-45981252D01*
X142755252Y-47550000D02*
X142232748Y-47550000D01*
X142755252Y-48970000D02*
X142232748Y-48970000D01*
X139961252Y-79935000D02*
X139438748Y-79935000D01*
X139961252Y-81355000D02*
X139438748Y-81355000D01*
X134418000Y-84574748D02*
X134418000Y-85097252D01*
X135838000Y-84574748D02*
X135838000Y-85097252D01*
X125170000Y-85088252D02*
X125170000Y-84565748D01*
X123750000Y-85088252D02*
X123750000Y-84565748D01*
X114942252Y-75744000D02*
X114419748Y-75744000D01*
X114942252Y-77164000D02*
X114419748Y-77164000D01*
X114933252Y-75132000D02*
X114410748Y-75132000D01*
X114933252Y-73712000D02*
X114410748Y-73712000D01*
X149046000Y-45712748D02*
X149046000Y-46235252D01*
X147626000Y-45712748D02*
X147626000Y-46235252D01*
X139429748Y-69798000D02*
X139952252Y-69798000D01*
X139429748Y-68378000D02*
X139952252Y-68378000D01*
X139438748Y-78942000D02*
X139961252Y-78942000D01*
X139438748Y-77522000D02*
X139961252Y-77522000D01*
X139438748Y-76402000D02*
X139961252Y-76402000D01*
X139438748Y-74982000D02*
X139961252Y-74982000D01*
X139429748Y-72338000D02*
X139952252Y-72338000D01*
X139429748Y-70918000D02*
X139952252Y-70918000D01*
X126753252Y-58599000D02*
X126230748Y-58599000D01*
X126753252Y-60019000D02*
X126230748Y-60019000D01*
X130735000Y-78224748D02*
X130735000Y-78747252D01*
X132155000Y-78224748D02*
X132155000Y-78747252D01*
D15*
X126873000Y-86995000D02*
G75*
G03X126873000Y-86995000I-127000J0D01*
G01*
D14*
X129194560Y-83136740D02*
X130393440Y-83136740D01*
X132392420Y-84536280D02*
X132392420Y-85135720D01*
X130393440Y-86535260D02*
X129194560Y-86535260D01*
X127195580Y-84536280D02*
X127195580Y-85135720D01*
D10*
X126238095Y-63452380D02*
X126238095Y-64261904D01*
X126285714Y-64357142D01*
X126333333Y-64404761D01*
X126428571Y-64452380D01*
X126619047Y-64452380D01*
X126714285Y-64404761D01*
X126761904Y-64357142D01*
X126809523Y-64261904D01*
X126809523Y-63452380D01*
X127809523Y-64452380D02*
X127238095Y-64452380D01*
X127523809Y-64452380D02*
X127523809Y-63452380D01*
X127428571Y-63595238D01*
X127333333Y-63690476D01*
X127238095Y-63738095D01*
X136485333Y-76906380D02*
X136009142Y-76906380D01*
X136009142Y-75906380D01*
X137342476Y-76906380D02*
X136771047Y-76906380D01*
X137056761Y-76906380D02*
X137056761Y-75906380D01*
X136961523Y-76049238D01*
X136866285Y-76144476D01*
X136771047Y-76192095D01*
X105870476Y-102068380D02*
X105870476Y-102782666D01*
X105822857Y-102925523D01*
X105727619Y-103020761D01*
X105584761Y-103068380D01*
X105489523Y-103068380D01*
X106870476Y-103068380D02*
X106299047Y-103068380D01*
X106584761Y-103068380D02*
X106584761Y-102068380D01*
X106489523Y-102211238D01*
X106394285Y-102306476D01*
X106299047Y-102354095D01*
X107251428Y-102163619D02*
X107299047Y-102116000D01*
X107394285Y-102068380D01*
X107632380Y-102068380D01*
X107727619Y-102116000D01*
X107775238Y-102163619D01*
X107822857Y-102258857D01*
X107822857Y-102354095D01*
X107775238Y-102496952D01*
X107203809Y-103068380D01*
X107822857Y-103068380D01*
X113490476Y-102068380D02*
X113490476Y-102782666D01*
X113442857Y-102925523D01*
X113347619Y-103020761D01*
X113204761Y-103068380D01*
X113109523Y-103068380D01*
X114490476Y-103068380D02*
X113919047Y-103068380D01*
X114204761Y-103068380D02*
X114204761Y-102068380D01*
X114109523Y-102211238D01*
X114014285Y-102306476D01*
X113919047Y-102354095D01*
X115442857Y-103068380D02*
X114871428Y-103068380D01*
X115157142Y-103068380D02*
X115157142Y-102068380D01*
X115061904Y-102211238D01*
X114966666Y-102306476D01*
X114871428Y-102354095D01*
X113069619Y-56340476D02*
X112355333Y-56340476D01*
X112212476Y-56292857D01*
X112117238Y-56197619D01*
X112069619Y-56054761D01*
X112069619Y-55959523D01*
X112069619Y-57340476D02*
X112069619Y-56769047D01*
X112069619Y-57054761D02*
X113069619Y-57054761D01*
X112926761Y-56959523D01*
X112831523Y-56864285D01*
X112783904Y-56769047D01*
X113069619Y-57959523D02*
X113069619Y-58054761D01*
X113022000Y-58150000D01*
X112974380Y-58197619D01*
X112879142Y-58245238D01*
X112688666Y-58292857D01*
X112450571Y-58292857D01*
X112260095Y-58245238D01*
X112164857Y-58197619D01*
X112117238Y-58150000D01*
X112069619Y-58054761D01*
X112069619Y-57959523D01*
X112117238Y-57864285D01*
X112164857Y-57816666D01*
X112260095Y-57769047D01*
X112450571Y-57721428D01*
X112688666Y-57721428D01*
X112879142Y-57769047D01*
X112974380Y-57816666D01*
X113022000Y-57864285D01*
X113069619Y-57959523D01*
X128190666Y-41362380D02*
X128190666Y-42076666D01*
X128143047Y-42219523D01*
X128047809Y-42314761D01*
X127904952Y-42362380D01*
X127809714Y-42362380D01*
X128714476Y-42362380D02*
X128904952Y-42362380D01*
X129000190Y-42314761D01*
X129047809Y-42267142D01*
X129143047Y-42124285D01*
X129190666Y-41933809D01*
X129190666Y-41552857D01*
X129143047Y-41457619D01*
X129095428Y-41410000D01*
X129000190Y-41362380D01*
X128809714Y-41362380D01*
X128714476Y-41410000D01*
X128666857Y-41457619D01*
X128619238Y-41552857D01*
X128619238Y-41790952D01*
X128666857Y-41886190D01*
X128714476Y-41933809D01*
X128809714Y-41981428D01*
X129000190Y-41981428D01*
X129095428Y-41933809D01*
X129143047Y-41886190D01*
X129190666Y-41790952D01*
X115236666Y-57618380D02*
X115236666Y-58332666D01*
X115189047Y-58475523D01*
X115093809Y-58570761D01*
X114950952Y-58618380D01*
X114855714Y-58618380D01*
X115855714Y-58046952D02*
X115760476Y-57999333D01*
X115712857Y-57951714D01*
X115665238Y-57856476D01*
X115665238Y-57808857D01*
X115712857Y-57713619D01*
X115760476Y-57666000D01*
X115855714Y-57618380D01*
X116046190Y-57618380D01*
X116141428Y-57666000D01*
X116189047Y-57713619D01*
X116236666Y-57808857D01*
X116236666Y-57856476D01*
X116189047Y-57951714D01*
X116141428Y-57999333D01*
X116046190Y-58046952D01*
X115855714Y-58046952D01*
X115760476Y-58094571D01*
X115712857Y-58142190D01*
X115665238Y-58237428D01*
X115665238Y-58427904D01*
X115712857Y-58523142D01*
X115760476Y-58570761D01*
X115855714Y-58618380D01*
X116046190Y-58618380D01*
X116141428Y-58570761D01*
X116189047Y-58523142D01*
X116236666Y-58427904D01*
X116236666Y-58237428D01*
X116189047Y-58142190D01*
X116141428Y-58094571D01*
X116046190Y-58046952D01*
X108886666Y-47458380D02*
X108886666Y-48172666D01*
X108839047Y-48315523D01*
X108743809Y-48410761D01*
X108600952Y-48458380D01*
X108505714Y-48458380D01*
X109267619Y-47458380D02*
X109934285Y-47458380D01*
X109505714Y-48458380D01*
X146732666Y-63206380D02*
X146732666Y-63920666D01*
X146685047Y-64063523D01*
X146589809Y-64158761D01*
X146446952Y-64206380D01*
X146351714Y-64206380D01*
X147637428Y-63206380D02*
X147446952Y-63206380D01*
X147351714Y-63254000D01*
X147304095Y-63301619D01*
X147208857Y-63444476D01*
X147161238Y-63634952D01*
X147161238Y-64015904D01*
X147208857Y-64111142D01*
X147256476Y-64158761D01*
X147351714Y-64206380D01*
X147542190Y-64206380D01*
X147637428Y-64158761D01*
X147685047Y-64111142D01*
X147732666Y-64015904D01*
X147732666Y-63777809D01*
X147685047Y-63682571D01*
X147637428Y-63634952D01*
X147542190Y-63587333D01*
X147351714Y-63587333D01*
X147256476Y-63634952D01*
X147208857Y-63682571D01*
X147161238Y-63777809D01*
X101266666Y-88562380D02*
X101266666Y-89276666D01*
X101219047Y-89419523D01*
X101123809Y-89514761D01*
X100980952Y-89562380D01*
X100885714Y-89562380D01*
X102219047Y-88562380D02*
X101742857Y-88562380D01*
X101695238Y-89038571D01*
X101742857Y-88990952D01*
X101838095Y-88943333D01*
X102076190Y-88943333D01*
X102171428Y-88990952D01*
X102219047Y-89038571D01*
X102266666Y-89133809D01*
X102266666Y-89371904D01*
X102219047Y-89467142D01*
X102171428Y-89514761D01*
X102076190Y-89562380D01*
X101838095Y-89562380D01*
X101742857Y-89514761D01*
X101695238Y-89467142D01*
X152066666Y-88562380D02*
X152066666Y-89276666D01*
X152019047Y-89419523D01*
X151923809Y-89514761D01*
X151780952Y-89562380D01*
X151685714Y-89562380D01*
X152971428Y-88895714D02*
X152971428Y-89562380D01*
X152733333Y-88514761D02*
X152495238Y-89229047D01*
X153114285Y-89229047D01*
X101012666Y-78192380D02*
X101012666Y-78906666D01*
X100965047Y-79049523D01*
X100869809Y-79144761D01*
X100726952Y-79192380D01*
X100631714Y-79192380D01*
X101441238Y-78287619D02*
X101488857Y-78240000D01*
X101584095Y-78192380D01*
X101822190Y-78192380D01*
X101917428Y-78240000D01*
X101965047Y-78287619D01*
X102012666Y-78382857D01*
X102012666Y-78478095D01*
X101965047Y-78620952D01*
X101393619Y-79192380D01*
X102012666Y-79192380D01*
X152066666Y-65492380D02*
X152066666Y-66206666D01*
X152019047Y-66349523D01*
X151923809Y-66444761D01*
X151780952Y-66492380D01*
X151685714Y-66492380D01*
X153066666Y-66492380D02*
X152495238Y-66492380D01*
X152780952Y-66492380D02*
X152780952Y-65492380D01*
X152685714Y-65635238D01*
X152590476Y-65730476D01*
X152495238Y-65778095D01*
X132000666Y-60412380D02*
X132000666Y-61126666D01*
X131953047Y-61269523D01*
X131857809Y-61364761D01*
X131714952Y-61412380D01*
X131619714Y-61412380D01*
X132381619Y-60412380D02*
X133000666Y-60412380D01*
X132667333Y-60793333D01*
X132810190Y-60793333D01*
X132905428Y-60840952D01*
X132953047Y-60888571D01*
X133000666Y-60983809D01*
X133000666Y-61221904D01*
X132953047Y-61317142D01*
X132905428Y-61364761D01*
X132810190Y-61412380D01*
X132524476Y-61412380D01*
X132429238Y-61364761D01*
X132381619Y-61317142D01*
X125563333Y-82399142D02*
X125515714Y-82446761D01*
X125372857Y-82494380D01*
X125277619Y-82494380D01*
X125134761Y-82446761D01*
X125039523Y-82351523D01*
X124991904Y-82256285D01*
X124944285Y-82065809D01*
X124944285Y-81922952D01*
X124991904Y-81732476D01*
X125039523Y-81637238D01*
X125134761Y-81542000D01*
X125277619Y-81494380D01*
X125372857Y-81494380D01*
X125515714Y-81542000D01*
X125563333Y-81589619D01*
X126134761Y-81922952D02*
X126039523Y-81875333D01*
X125991904Y-81827714D01*
X125944285Y-81732476D01*
X125944285Y-81684857D01*
X125991904Y-81589619D01*
X126039523Y-81542000D01*
X126134761Y-81494380D01*
X126325238Y-81494380D01*
X126420476Y-81542000D01*
X126468095Y-81589619D01*
X126515714Y-81684857D01*
X126515714Y-81732476D01*
X126468095Y-81827714D01*
X126420476Y-81875333D01*
X126325238Y-81922952D01*
X126134761Y-81922952D01*
X126039523Y-81970571D01*
X125991904Y-82018190D01*
X125944285Y-82113428D01*
X125944285Y-82303904D01*
X125991904Y-82399142D01*
X126039523Y-82446761D01*
X126134761Y-82494380D01*
X126325238Y-82494380D01*
X126420476Y-82446761D01*
X126468095Y-82399142D01*
X126515714Y-82303904D01*
X126515714Y-82113428D01*
X126468095Y-82018190D01*
X126420476Y-81970571D01*
X126325238Y-81922952D01*
X114768333Y-66143142D02*
X114720714Y-66190761D01*
X114577857Y-66238380D01*
X114482619Y-66238380D01*
X114339761Y-66190761D01*
X114244523Y-66095523D01*
X114196904Y-66000285D01*
X114149285Y-65809809D01*
X114149285Y-65666952D01*
X114196904Y-65476476D01*
X114244523Y-65381238D01*
X114339761Y-65286000D01*
X114482619Y-65238380D01*
X114577857Y-65238380D01*
X114720714Y-65286000D01*
X114768333Y-65333619D01*
X115149285Y-65333619D02*
X115196904Y-65286000D01*
X115292142Y-65238380D01*
X115530238Y-65238380D01*
X115625476Y-65286000D01*
X115673095Y-65333619D01*
X115720714Y-65428857D01*
X115720714Y-65524095D01*
X115673095Y-65666952D01*
X115101666Y-66238380D01*
X115720714Y-66238380D01*
X119665809Y-75414190D02*
X119665809Y-75890380D01*
X119332476Y-74890380D02*
X119665809Y-75414190D01*
X119999142Y-74890380D01*
X120856285Y-75890380D02*
X120284857Y-75890380D01*
X120570571Y-75890380D02*
X120570571Y-74890380D01*
X120475333Y-75033238D01*
X120380095Y-75128476D01*
X120284857Y-75176095D01*
X112228333Y-66143142D02*
X112180714Y-66190761D01*
X112037857Y-66238380D01*
X111942619Y-66238380D01*
X111799761Y-66190761D01*
X111704523Y-66095523D01*
X111656904Y-66000285D01*
X111609285Y-65809809D01*
X111609285Y-65666952D01*
X111656904Y-65476476D01*
X111704523Y-65381238D01*
X111799761Y-65286000D01*
X111942619Y-65238380D01*
X112037857Y-65238380D01*
X112180714Y-65286000D01*
X112228333Y-65333619D01*
X113180714Y-66238380D02*
X112609285Y-66238380D01*
X112895000Y-66238380D02*
X112895000Y-65238380D01*
X112799761Y-65381238D01*
X112704523Y-65476476D01*
X112609285Y-65524095D01*
X155182619Y-44902619D02*
X155658809Y-44569285D01*
X155182619Y-44331190D02*
X156182619Y-44331190D01*
X156182619Y-44712142D01*
X156135000Y-44807380D01*
X156087380Y-44855000D01*
X155992142Y-44902619D01*
X155849285Y-44902619D01*
X155754047Y-44855000D01*
X155706428Y-44807380D01*
X155658809Y-44712142D01*
X155658809Y-44331190D01*
X155706428Y-45331190D02*
X155706428Y-45664523D01*
X155182619Y-45807380D02*
X155182619Y-45331190D01*
X156182619Y-45331190D01*
X156182619Y-45807380D01*
X155230238Y-46188333D02*
X155182619Y-46331190D01*
X155182619Y-46569285D01*
X155230238Y-46664523D01*
X155277857Y-46712142D01*
X155373095Y-46759761D01*
X155468333Y-46759761D01*
X155563571Y-46712142D01*
X155611190Y-46664523D01*
X155658809Y-46569285D01*
X155706428Y-46378809D01*
X155754047Y-46283571D01*
X155801666Y-46235952D01*
X155896904Y-46188333D01*
X155992142Y-46188333D01*
X156087380Y-46235952D01*
X156135000Y-46283571D01*
X156182619Y-46378809D01*
X156182619Y-46616904D01*
X156135000Y-46759761D01*
X155706428Y-47188333D02*
X155706428Y-47521666D01*
X155182619Y-47664523D02*
X155182619Y-47188333D01*
X156182619Y-47188333D01*
X156182619Y-47664523D01*
X156182619Y-47950238D02*
X156182619Y-48521666D01*
X155182619Y-48235952D02*
X156182619Y-48235952D01*
X150074333Y-50998380D02*
X149741000Y-50522190D01*
X149502904Y-50998380D02*
X149502904Y-49998380D01*
X149883857Y-49998380D01*
X149979095Y-50046000D01*
X150026714Y-50093619D01*
X150074333Y-50188857D01*
X150074333Y-50331714D01*
X150026714Y-50426952D01*
X149979095Y-50474571D01*
X149883857Y-50522190D01*
X149502904Y-50522190D01*
X150931476Y-49998380D02*
X150741000Y-49998380D01*
X150645761Y-50046000D01*
X150598142Y-50093619D01*
X150502904Y-50236476D01*
X150455285Y-50426952D01*
X150455285Y-50807904D01*
X150502904Y-50903142D01*
X150550523Y-50950761D01*
X150645761Y-50998380D01*
X150836238Y-50998380D01*
X150931476Y-50950761D01*
X150979095Y-50903142D01*
X151026714Y-50807904D01*
X151026714Y-50569809D01*
X150979095Y-50474571D01*
X150931476Y-50426952D01*
X150836238Y-50379333D01*
X150645761Y-50379333D01*
X150550523Y-50426952D01*
X150502904Y-50474571D01*
X150455285Y-50569809D01*
X141819333Y-45410380D02*
X141486000Y-44934190D01*
X141247904Y-45410380D02*
X141247904Y-44410380D01*
X141628857Y-44410380D01*
X141724095Y-44458000D01*
X141771714Y-44505619D01*
X141819333Y-44600857D01*
X141819333Y-44743714D01*
X141771714Y-44838952D01*
X141724095Y-44886571D01*
X141628857Y-44934190D01*
X141247904Y-44934190D01*
X142724095Y-44410380D02*
X142247904Y-44410380D01*
X142200285Y-44886571D01*
X142247904Y-44838952D01*
X142343142Y-44791333D01*
X142581238Y-44791333D01*
X142676476Y-44838952D01*
X142724095Y-44886571D01*
X142771714Y-44981809D01*
X142771714Y-45219904D01*
X142724095Y-45315142D01*
X142676476Y-45362761D01*
X142581238Y-45410380D01*
X142343142Y-45410380D01*
X142247904Y-45362761D01*
X142200285Y-45315142D01*
X138263333Y-48712380D02*
X137930000Y-48236190D01*
X137691904Y-48712380D02*
X137691904Y-47712380D01*
X138072857Y-47712380D01*
X138168095Y-47760000D01*
X138215714Y-47807619D01*
X138263333Y-47902857D01*
X138263333Y-48045714D01*
X138215714Y-48140952D01*
X138168095Y-48188571D01*
X138072857Y-48236190D01*
X137691904Y-48236190D01*
X139120476Y-48045714D02*
X139120476Y-48712380D01*
X138882380Y-47664761D02*
X138644285Y-48379047D01*
X139263333Y-48379047D01*
X135723333Y-48712380D02*
X135390000Y-48236190D01*
X135151904Y-48712380D02*
X135151904Y-47712380D01*
X135532857Y-47712380D01*
X135628095Y-47760000D01*
X135675714Y-47807619D01*
X135723333Y-47902857D01*
X135723333Y-48045714D01*
X135675714Y-48140952D01*
X135628095Y-48188571D01*
X135532857Y-48236190D01*
X135151904Y-48236190D01*
X136056666Y-47712380D02*
X136675714Y-47712380D01*
X136342380Y-48093333D01*
X136485238Y-48093333D01*
X136580476Y-48140952D01*
X136628095Y-48188571D01*
X136675714Y-48283809D01*
X136675714Y-48521904D01*
X136628095Y-48617142D01*
X136580476Y-48664761D01*
X136485238Y-48712380D01*
X136199523Y-48712380D01*
X136104285Y-48664761D01*
X136056666Y-48617142D01*
X145121333Y-48712380D02*
X144788000Y-48236190D01*
X144549904Y-48712380D02*
X144549904Y-47712380D01*
X144930857Y-47712380D01*
X145026095Y-47760000D01*
X145073714Y-47807619D01*
X145121333Y-47902857D01*
X145121333Y-48045714D01*
X145073714Y-48140952D01*
X145026095Y-48188571D01*
X144930857Y-48236190D01*
X144549904Y-48236190D01*
X145502285Y-47807619D02*
X145549904Y-47760000D01*
X145645142Y-47712380D01*
X145883238Y-47712380D01*
X145978476Y-47760000D01*
X146026095Y-47807619D01*
X146073714Y-47902857D01*
X146073714Y-47998095D01*
X146026095Y-48140952D01*
X145454666Y-48712380D01*
X146073714Y-48712380D01*
X142581333Y-80970380D02*
X142248000Y-80494190D01*
X142009904Y-80970380D02*
X142009904Y-79970380D01*
X142390857Y-79970380D01*
X142486095Y-80018000D01*
X142533714Y-80065619D01*
X142581333Y-80160857D01*
X142581333Y-80303714D01*
X142533714Y-80398952D01*
X142486095Y-80446571D01*
X142390857Y-80494190D01*
X142009904Y-80494190D01*
X143533714Y-80970380D02*
X142962285Y-80970380D01*
X143248000Y-80970380D02*
X143248000Y-79970380D01*
X143152761Y-80113238D01*
X143057523Y-80208476D01*
X142962285Y-80256095D01*
X137025142Y-85193142D02*
X136977523Y-85240761D01*
X136834666Y-85288380D01*
X136739428Y-85288380D01*
X136596571Y-85240761D01*
X136501333Y-85145523D01*
X136453714Y-85050285D01*
X136406095Y-84859809D01*
X136406095Y-84716952D01*
X136453714Y-84526476D01*
X136501333Y-84431238D01*
X136596571Y-84336000D01*
X136739428Y-84288380D01*
X136834666Y-84288380D01*
X136977523Y-84336000D01*
X137025142Y-84383619D01*
X137977523Y-85288380D02*
X137406095Y-85288380D01*
X137691809Y-85288380D02*
X137691809Y-84288380D01*
X137596571Y-84431238D01*
X137501333Y-84526476D01*
X137406095Y-84574095D01*
X138834666Y-84621714D02*
X138834666Y-85288380D01*
X138596571Y-84240761D02*
X138358476Y-84955047D01*
X138977523Y-84955047D01*
X121277142Y-85193142D02*
X121229523Y-85240761D01*
X121086666Y-85288380D01*
X120991428Y-85288380D01*
X120848571Y-85240761D01*
X120753333Y-85145523D01*
X120705714Y-85050285D01*
X120658095Y-84859809D01*
X120658095Y-84716952D01*
X120705714Y-84526476D01*
X120753333Y-84431238D01*
X120848571Y-84336000D01*
X120991428Y-84288380D01*
X121086666Y-84288380D01*
X121229523Y-84336000D01*
X121277142Y-84383619D01*
X122229523Y-85288380D02*
X121658095Y-85288380D01*
X121943809Y-85288380D02*
X121943809Y-84288380D01*
X121848571Y-84431238D01*
X121753333Y-84526476D01*
X121658095Y-84574095D01*
X122562857Y-84288380D02*
X123181904Y-84288380D01*
X122848571Y-84669333D01*
X122991428Y-84669333D01*
X123086666Y-84716952D01*
X123134285Y-84764571D01*
X123181904Y-84859809D01*
X123181904Y-85097904D01*
X123134285Y-85193142D01*
X123086666Y-85240761D01*
X122991428Y-85288380D01*
X122705714Y-85288380D01*
X122610476Y-85240761D01*
X122562857Y-85193142D01*
X113911142Y-78589142D02*
X113863523Y-78636761D01*
X113720666Y-78684380D01*
X113625428Y-78684380D01*
X113482571Y-78636761D01*
X113387333Y-78541523D01*
X113339714Y-78446285D01*
X113292095Y-78255809D01*
X113292095Y-78112952D01*
X113339714Y-77922476D01*
X113387333Y-77827238D01*
X113482571Y-77732000D01*
X113625428Y-77684380D01*
X113720666Y-77684380D01*
X113863523Y-77732000D01*
X113911142Y-77779619D01*
X114863523Y-78684380D02*
X114292095Y-78684380D01*
X114577809Y-78684380D02*
X114577809Y-77684380D01*
X114482571Y-77827238D01*
X114387333Y-77922476D01*
X114292095Y-77970095D01*
X115244476Y-77779619D02*
X115292095Y-77732000D01*
X115387333Y-77684380D01*
X115625428Y-77684380D01*
X115720666Y-77732000D01*
X115768285Y-77779619D01*
X115815904Y-77874857D01*
X115815904Y-77970095D01*
X115768285Y-78112952D01*
X115196857Y-78684380D01*
X115815904Y-78684380D01*
X113911142Y-73001142D02*
X113863523Y-73048761D01*
X113720666Y-73096380D01*
X113625428Y-73096380D01*
X113482571Y-73048761D01*
X113387333Y-72953523D01*
X113339714Y-72858285D01*
X113292095Y-72667809D01*
X113292095Y-72524952D01*
X113339714Y-72334476D01*
X113387333Y-72239238D01*
X113482571Y-72144000D01*
X113625428Y-72096380D01*
X113720666Y-72096380D01*
X113863523Y-72144000D01*
X113911142Y-72191619D01*
X114863523Y-73096380D02*
X114292095Y-73096380D01*
X114577809Y-73096380D02*
X114577809Y-72096380D01*
X114482571Y-72239238D01*
X114387333Y-72334476D01*
X114292095Y-72382095D01*
X115815904Y-73096380D02*
X115244476Y-73096380D01*
X115530190Y-73096380D02*
X115530190Y-72096380D01*
X115434952Y-72239238D01*
X115339714Y-72334476D01*
X115244476Y-72382095D01*
X148455142Y-43791142D02*
X148407523Y-43838761D01*
X148264666Y-43886380D01*
X148169428Y-43886380D01*
X148026571Y-43838761D01*
X147931333Y-43743523D01*
X147883714Y-43648285D01*
X147836095Y-43457809D01*
X147836095Y-43314952D01*
X147883714Y-43124476D01*
X147931333Y-43029238D01*
X148026571Y-42934000D01*
X148169428Y-42886380D01*
X148264666Y-42886380D01*
X148407523Y-42934000D01*
X148455142Y-42981619D01*
X149407523Y-43886380D02*
X148836095Y-43886380D01*
X149121809Y-43886380D02*
X149121809Y-42886380D01*
X149026571Y-43029238D01*
X148931333Y-43124476D01*
X148836095Y-43172095D01*
X150026571Y-42886380D02*
X150121809Y-42886380D01*
X150217047Y-42934000D01*
X150264666Y-42981619D01*
X150312285Y-43076857D01*
X150359904Y-43267333D01*
X150359904Y-43505428D01*
X150312285Y-43695904D01*
X150264666Y-43791142D01*
X150217047Y-43838761D01*
X150121809Y-43886380D01*
X150026571Y-43886380D01*
X149931333Y-43838761D01*
X149883714Y-43791142D01*
X149836095Y-43695904D01*
X149788476Y-43505428D01*
X149788476Y-43267333D01*
X149836095Y-43076857D01*
X149883714Y-42981619D01*
X149931333Y-42934000D01*
X150026571Y-42886380D01*
X136485333Y-69445142D02*
X136437714Y-69492761D01*
X136294857Y-69540380D01*
X136199619Y-69540380D01*
X136056761Y-69492761D01*
X135961523Y-69397523D01*
X135913904Y-69302285D01*
X135866285Y-69111809D01*
X135866285Y-68968952D01*
X135913904Y-68778476D01*
X135961523Y-68683238D01*
X136056761Y-68588000D01*
X136199619Y-68540380D01*
X136294857Y-68540380D01*
X136437714Y-68588000D01*
X136485333Y-68635619D01*
X136961523Y-69540380D02*
X137152000Y-69540380D01*
X137247238Y-69492761D01*
X137294857Y-69445142D01*
X137390095Y-69302285D01*
X137437714Y-69111809D01*
X137437714Y-68730857D01*
X137390095Y-68635619D01*
X137342476Y-68588000D01*
X137247238Y-68540380D01*
X137056761Y-68540380D01*
X136961523Y-68588000D01*
X136913904Y-68635619D01*
X136866285Y-68730857D01*
X136866285Y-68968952D01*
X136913904Y-69064190D01*
X136961523Y-69111809D01*
X137056761Y-69159428D01*
X137247238Y-69159428D01*
X137342476Y-69111809D01*
X137390095Y-69064190D01*
X137437714Y-68968952D01*
X142581333Y-78589142D02*
X142533714Y-78636761D01*
X142390857Y-78684380D01*
X142295619Y-78684380D01*
X142152761Y-78636761D01*
X142057523Y-78541523D01*
X142009904Y-78446285D01*
X141962285Y-78255809D01*
X141962285Y-78112952D01*
X142009904Y-77922476D01*
X142057523Y-77827238D01*
X142152761Y-77732000D01*
X142295619Y-77684380D01*
X142390857Y-77684380D01*
X142533714Y-77732000D01*
X142581333Y-77779619D01*
X142914666Y-77684380D02*
X143581333Y-77684380D01*
X143152761Y-78684380D01*
X142581333Y-76049142D02*
X142533714Y-76096761D01*
X142390857Y-76144380D01*
X142295619Y-76144380D01*
X142152761Y-76096761D01*
X142057523Y-76001523D01*
X142009904Y-75906285D01*
X141962285Y-75715809D01*
X141962285Y-75572952D01*
X142009904Y-75382476D01*
X142057523Y-75287238D01*
X142152761Y-75192000D01*
X142295619Y-75144380D01*
X142390857Y-75144380D01*
X142533714Y-75192000D01*
X142581333Y-75239619D01*
X143438476Y-75144380D02*
X143248000Y-75144380D01*
X143152761Y-75192000D01*
X143105142Y-75239619D01*
X143009904Y-75382476D01*
X142962285Y-75572952D01*
X142962285Y-75953904D01*
X143009904Y-76049142D01*
X143057523Y-76096761D01*
X143152761Y-76144380D01*
X143343238Y-76144380D01*
X143438476Y-76096761D01*
X143486095Y-76049142D01*
X143533714Y-75953904D01*
X143533714Y-75715809D01*
X143486095Y-75620571D01*
X143438476Y-75572952D01*
X143343238Y-75525333D01*
X143152761Y-75525333D01*
X143057523Y-75572952D01*
X143009904Y-75620571D01*
X142962285Y-75715809D01*
X136485333Y-71985142D02*
X136437714Y-72032761D01*
X136294857Y-72080380D01*
X136199619Y-72080380D01*
X136056761Y-72032761D01*
X135961523Y-71937523D01*
X135913904Y-71842285D01*
X135866285Y-71651809D01*
X135866285Y-71508952D01*
X135913904Y-71318476D01*
X135961523Y-71223238D01*
X136056761Y-71128000D01*
X136199619Y-71080380D01*
X136294857Y-71080380D01*
X136437714Y-71128000D01*
X136485333Y-71175619D01*
X137390095Y-71080380D02*
X136913904Y-71080380D01*
X136866285Y-71556571D01*
X136913904Y-71508952D01*
X137009142Y-71461333D01*
X137247238Y-71461333D01*
X137342476Y-71508952D01*
X137390095Y-71556571D01*
X137437714Y-71651809D01*
X137437714Y-71889904D01*
X137390095Y-71985142D01*
X137342476Y-72032761D01*
X137247238Y-72080380D01*
X137009142Y-72080380D01*
X136913904Y-72032761D01*
X136866285Y-71985142D01*
X126325333Y-61571142D02*
X126277714Y-61618761D01*
X126134857Y-61666380D01*
X126039619Y-61666380D01*
X125896761Y-61618761D01*
X125801523Y-61523523D01*
X125753904Y-61428285D01*
X125706285Y-61237809D01*
X125706285Y-61094952D01*
X125753904Y-60904476D01*
X125801523Y-60809238D01*
X125896761Y-60714000D01*
X126039619Y-60666380D01*
X126134857Y-60666380D01*
X126277714Y-60714000D01*
X126325333Y-60761619D01*
X127182476Y-60999714D02*
X127182476Y-61666380D01*
X126944380Y-60618761D02*
X126706285Y-61333047D01*
X127325333Y-61333047D01*
X129119333Y-78843142D02*
X129071714Y-78890761D01*
X128928857Y-78938380D01*
X128833619Y-78938380D01*
X128690761Y-78890761D01*
X128595523Y-78795523D01*
X128547904Y-78700285D01*
X128500285Y-78509809D01*
X128500285Y-78366952D01*
X128547904Y-78176476D01*
X128595523Y-78081238D01*
X128690761Y-77986000D01*
X128833619Y-77938380D01*
X128928857Y-77938380D01*
X129071714Y-77986000D01*
X129119333Y-78033619D01*
X129452666Y-77938380D02*
X130071714Y-77938380D01*
X129738380Y-78319333D01*
X129881238Y-78319333D01*
X129976476Y-78366952D01*
X130024095Y-78414571D01*
X130071714Y-78509809D01*
X130071714Y-78747904D01*
X130024095Y-78843142D01*
X129976476Y-78890761D01*
X129881238Y-78938380D01*
X129595523Y-78938380D01*
X129500285Y-78890761D01*
X129452666Y-78843142D01*
X129317809Y-82018190D02*
X129317809Y-82494380D01*
X128984476Y-81494380D02*
X129317809Y-82018190D01*
X129651142Y-81494380D01*
X129936857Y-81589619D02*
X129984476Y-81542000D01*
X130079714Y-81494380D01*
X130317809Y-81494380D01*
X130413047Y-81542000D01*
X130460666Y-81589619D01*
X130508285Y-81684857D01*
X130508285Y-81780095D01*
X130460666Y-81922952D01*
X129889238Y-82494380D01*
X130508285Y-82494380D01*
%LPC*%
D16*
X124250000Y-65500000D03*
X124750000Y-65500000D03*
X125250000Y-65500000D03*
X125750000Y-65500000D03*
X126250000Y-65500000D03*
X126750000Y-65500000D03*
X127250000Y-65500000D03*
X127750000Y-65500000D03*
X128250000Y-65500000D03*
X128750000Y-65500000D03*
X129250000Y-65500000D03*
X129750000Y-65500000D03*
D17*
X131350000Y-67100000D03*
X131350000Y-67600000D03*
X131350000Y-68100000D03*
X131350000Y-68600000D03*
X131350000Y-69100000D03*
X131350000Y-69600000D03*
X131350000Y-70100000D03*
X131350000Y-70600000D03*
X131350000Y-71100000D03*
X131350000Y-71600000D03*
X131350000Y-72100000D03*
X131350000Y-72600000D03*
D16*
X129750000Y-74200000D03*
X129250000Y-74200000D03*
X128750000Y-74200000D03*
X128250000Y-74200000D03*
X127750000Y-74200000D03*
X127250000Y-74200000D03*
X126750000Y-74200000D03*
X126250000Y-74200000D03*
X125750000Y-74200000D03*
X125250000Y-74200000D03*
X124750000Y-74200000D03*
X124250000Y-74200000D03*
D17*
X122650000Y-72600000D03*
X122650000Y-72100000D03*
X122650000Y-71600000D03*
X122650000Y-71100000D03*
X122650000Y-70600000D03*
X122650000Y-70100000D03*
X122650000Y-69600000D03*
X122650000Y-69100000D03*
X122650000Y-68600000D03*
X122650000Y-68100000D03*
X122650000Y-67600000D03*
X122650000Y-67100000D03*
D18*
G36*
X137067779Y-79294266D02*
G01*
X137093309Y-79298053D01*
X137118345Y-79304325D01*
X137142646Y-79313020D01*
X137165977Y-79324055D01*
X137188115Y-79337323D01*
X137208845Y-79352698D01*
X137227969Y-79370031D01*
X137245302Y-79389155D01*
X137260677Y-79409885D01*
X137273945Y-79432023D01*
X137284980Y-79455354D01*
X137293675Y-79479655D01*
X137299947Y-79504691D01*
X137303734Y-79530221D01*
X137305000Y-79556000D01*
X137305000Y-80182000D01*
X137303734Y-80207779D01*
X137299947Y-80233309D01*
X137293675Y-80258345D01*
X137284980Y-80282646D01*
X137273945Y-80305977D01*
X137260677Y-80328115D01*
X137245302Y-80348845D01*
X137227969Y-80367969D01*
X137208845Y-80385302D01*
X137188115Y-80400677D01*
X137165977Y-80413945D01*
X137142646Y-80424980D01*
X137118345Y-80433675D01*
X137093309Y-80439947D01*
X137067779Y-80443734D01*
X137042000Y-80445000D01*
X136516000Y-80445000D01*
X136490221Y-80443734D01*
X136464691Y-80439947D01*
X136439655Y-80433675D01*
X136415354Y-80424980D01*
X136392023Y-80413945D01*
X136369885Y-80400677D01*
X136349155Y-80385302D01*
X136330031Y-80367969D01*
X136312698Y-80348845D01*
X136297323Y-80328115D01*
X136284055Y-80305977D01*
X136273020Y-80282646D01*
X136264325Y-80258345D01*
X136258053Y-80233309D01*
X136254266Y-80207779D01*
X136253000Y-80182000D01*
X136253000Y-79556000D01*
X136254266Y-79530221D01*
X136258053Y-79504691D01*
X136264325Y-79479655D01*
X136273020Y-79455354D01*
X136284055Y-79432023D01*
X136297323Y-79409885D01*
X136312698Y-79389155D01*
X136330031Y-79370031D01*
X136349155Y-79352698D01*
X136369885Y-79337323D01*
X136392023Y-79324055D01*
X136415354Y-79313020D01*
X136439655Y-79304325D01*
X136464691Y-79298053D01*
X136490221Y-79294266D01*
X136516000Y-79293000D01*
X137042000Y-79293000D01*
X137067779Y-79294266D01*
X137067779Y-79294266D01*
G37*
D19*
X136779000Y-79869000D03*
D18*
G36*
X137067779Y-77544266D02*
G01*
X137093309Y-77548053D01*
X137118345Y-77554325D01*
X137142646Y-77563020D01*
X137165977Y-77574055D01*
X137188115Y-77587323D01*
X137208845Y-77602698D01*
X137227969Y-77620031D01*
X137245302Y-77639155D01*
X137260677Y-77659885D01*
X137273945Y-77682023D01*
X137284980Y-77705354D01*
X137293675Y-77729655D01*
X137299947Y-77754691D01*
X137303734Y-77780221D01*
X137305000Y-77806000D01*
X137305000Y-78432000D01*
X137303734Y-78457779D01*
X137299947Y-78483309D01*
X137293675Y-78508345D01*
X137284980Y-78532646D01*
X137273945Y-78555977D01*
X137260677Y-78578115D01*
X137245302Y-78598845D01*
X137227969Y-78617969D01*
X137208845Y-78635302D01*
X137188115Y-78650677D01*
X137165977Y-78663945D01*
X137142646Y-78674980D01*
X137118345Y-78683675D01*
X137093309Y-78689947D01*
X137067779Y-78693734D01*
X137042000Y-78695000D01*
X136516000Y-78695000D01*
X136490221Y-78693734D01*
X136464691Y-78689947D01*
X136439655Y-78683675D01*
X136415354Y-78674980D01*
X136392023Y-78663945D01*
X136369885Y-78650677D01*
X136349155Y-78635302D01*
X136330031Y-78617969D01*
X136312698Y-78598845D01*
X136297323Y-78578115D01*
X136284055Y-78555977D01*
X136273020Y-78532646D01*
X136264325Y-78508345D01*
X136258053Y-78483309D01*
X136254266Y-78457779D01*
X136253000Y-78432000D01*
X136253000Y-77806000D01*
X136254266Y-77780221D01*
X136258053Y-77754691D01*
X136264325Y-77729655D01*
X136273020Y-77705354D01*
X136284055Y-77682023D01*
X136297323Y-77659885D01*
X136312698Y-77639155D01*
X136330031Y-77620031D01*
X136349155Y-77602698D01*
X136369885Y-77587323D01*
X136392023Y-77574055D01*
X136415354Y-77563020D01*
X136439655Y-77554325D01*
X136464691Y-77548053D01*
X136490221Y-77544266D01*
X136516000Y-77543000D01*
X137042000Y-77543000D01*
X137067779Y-77544266D01*
X137067779Y-77544266D01*
G37*
D19*
X136779000Y-78119000D03*
D20*
X109397800Y-100330000D03*
D21*
X106502200Y-100330000D03*
D20*
X119380000Y-100203000D03*
X116840000Y-100457000D03*
D21*
X114300000Y-100203000D03*
D22*
X110490000Y-55880000D03*
X107950000Y-55880000D03*
X110490000Y-58420000D03*
D23*
X107950000Y-58420000D03*
D20*
X146050000Y-41910000D03*
X143510000Y-42164000D03*
X140970000Y-41910000D03*
X138430000Y-42164000D03*
X135890000Y-41910000D03*
X133350000Y-42164000D03*
D21*
X130810000Y-41910000D03*
X115570000Y-55880000D03*
D22*
X110490000Y-50800000D03*
D23*
X107950000Y-50800000D03*
D20*
X147066000Y-66040000D03*
X147320000Y-68580000D03*
D21*
X147066000Y-71120000D03*
D22*
X102870000Y-93980000D03*
X100330000Y-93980000D03*
X102870000Y-91440000D03*
D23*
X100330000Y-91440000D03*
D22*
X153670000Y-93980000D03*
X151130000Y-93980000D03*
X153670000Y-91440000D03*
D23*
X151130000Y-91440000D03*
D22*
X102870000Y-76200000D03*
X100330000Y-76200000D03*
X102870000Y-73660000D03*
X100330000Y-73660000D03*
X102870000Y-71120000D03*
X100330000Y-71120000D03*
X102870000Y-68580000D03*
X100330000Y-68580000D03*
X102870000Y-66040000D03*
X100330000Y-66040000D03*
X102870000Y-63500000D03*
X100330000Y-63500000D03*
X102870000Y-60960000D03*
X100330000Y-60960000D03*
X102870000Y-58420000D03*
X100330000Y-58420000D03*
X102870000Y-55880000D03*
D23*
X100330000Y-55880000D03*
D22*
X153670000Y-63500000D03*
X151130000Y-63500000D03*
X153670000Y-60960000D03*
X151130000Y-60960000D03*
X153670000Y-58420000D03*
X151130000Y-58420000D03*
X153670000Y-55880000D03*
D23*
X151130000Y-55880000D03*
D20*
X142240000Y-60960000D03*
X139700000Y-60706000D03*
X137160000Y-60960000D03*
D21*
X134620000Y-60706000D03*
D18*
G36*
X125085505Y-79514311D02*
G01*
X125111925Y-79518230D01*
X125137835Y-79524720D01*
X125162983Y-79533718D01*
X125187128Y-79545138D01*
X125210038Y-79558869D01*
X125231492Y-79574780D01*
X125251282Y-79592718D01*
X125269220Y-79612508D01*
X125285131Y-79633962D01*
X125298862Y-79656872D01*
X125310282Y-79681017D01*
X125319280Y-79706165D01*
X125325770Y-79732075D01*
X125329689Y-79758495D01*
X125331000Y-79785173D01*
X125331000Y-80742827D01*
X125329689Y-80769505D01*
X125325770Y-80795925D01*
X125319280Y-80821835D01*
X125310282Y-80846983D01*
X125298862Y-80871128D01*
X125285131Y-80894038D01*
X125269220Y-80915492D01*
X125251282Y-80935282D01*
X125231492Y-80953220D01*
X125210038Y-80969131D01*
X125187128Y-80982862D01*
X125162983Y-80994282D01*
X125137835Y-81003280D01*
X125111925Y-81009770D01*
X125085505Y-81013689D01*
X125058827Y-81015000D01*
X124351173Y-81015000D01*
X124324495Y-81013689D01*
X124298075Y-81009770D01*
X124272165Y-81003280D01*
X124247017Y-80994282D01*
X124222872Y-80982862D01*
X124199962Y-80969131D01*
X124178508Y-80953220D01*
X124158718Y-80935282D01*
X124140780Y-80915492D01*
X124124869Y-80894038D01*
X124111138Y-80871128D01*
X124099718Y-80846983D01*
X124090720Y-80821835D01*
X124084230Y-80795925D01*
X124080311Y-80769505D01*
X124079000Y-80742827D01*
X124079000Y-79785173D01*
X124080311Y-79758495D01*
X124084230Y-79732075D01*
X124090720Y-79706165D01*
X124099718Y-79681017D01*
X124111138Y-79656872D01*
X124124869Y-79633962D01*
X124140780Y-79612508D01*
X124158718Y-79592718D01*
X124178508Y-79574780D01*
X124199962Y-79558869D01*
X124222872Y-79545138D01*
X124247017Y-79533718D01*
X124272165Y-79524720D01*
X124298075Y-79518230D01*
X124324495Y-79514311D01*
X124351173Y-79513000D01*
X125058827Y-79513000D01*
X125085505Y-79514311D01*
X125085505Y-79514311D01*
G37*
D24*
X124705000Y-80264000D03*
D18*
G36*
X127135505Y-79514311D02*
G01*
X127161925Y-79518230D01*
X127187835Y-79524720D01*
X127212983Y-79533718D01*
X127237128Y-79545138D01*
X127260038Y-79558869D01*
X127281492Y-79574780D01*
X127301282Y-79592718D01*
X127319220Y-79612508D01*
X127335131Y-79633962D01*
X127348862Y-79656872D01*
X127360282Y-79681017D01*
X127369280Y-79706165D01*
X127375770Y-79732075D01*
X127379689Y-79758495D01*
X127381000Y-79785173D01*
X127381000Y-80742827D01*
X127379689Y-80769505D01*
X127375770Y-80795925D01*
X127369280Y-80821835D01*
X127360282Y-80846983D01*
X127348862Y-80871128D01*
X127335131Y-80894038D01*
X127319220Y-80915492D01*
X127301282Y-80935282D01*
X127281492Y-80953220D01*
X127260038Y-80969131D01*
X127237128Y-80982862D01*
X127212983Y-80994282D01*
X127187835Y-81003280D01*
X127161925Y-81009770D01*
X127135505Y-81013689D01*
X127108827Y-81015000D01*
X126401173Y-81015000D01*
X126374495Y-81013689D01*
X126348075Y-81009770D01*
X126322165Y-81003280D01*
X126297017Y-80994282D01*
X126272872Y-80982862D01*
X126249962Y-80969131D01*
X126228508Y-80953220D01*
X126208718Y-80935282D01*
X126190780Y-80915492D01*
X126174869Y-80894038D01*
X126161138Y-80871128D01*
X126149718Y-80846983D01*
X126140720Y-80821835D01*
X126134230Y-80795925D01*
X126130311Y-80769505D01*
X126129000Y-80742827D01*
X126129000Y-79785173D01*
X126130311Y-79758495D01*
X126134230Y-79732075D01*
X126140720Y-79706165D01*
X126149718Y-79681017D01*
X126161138Y-79656872D01*
X126174869Y-79633962D01*
X126190780Y-79612508D01*
X126208718Y-79592718D01*
X126228508Y-79574780D01*
X126249962Y-79558869D01*
X126272872Y-79545138D01*
X126297017Y-79533718D01*
X126322165Y-79524720D01*
X126348075Y-79518230D01*
X126374495Y-79514311D01*
X126401173Y-79513000D01*
X127108827Y-79513000D01*
X127135505Y-79514311D01*
X127135505Y-79514311D01*
G37*
D24*
X126755000Y-80264000D03*
D18*
G36*
X115440505Y-68726311D02*
G01*
X115466925Y-68730230D01*
X115492835Y-68736720D01*
X115517983Y-68745718D01*
X115542128Y-68757138D01*
X115565038Y-68770869D01*
X115586492Y-68786780D01*
X115606282Y-68804718D01*
X115624220Y-68824508D01*
X115640131Y-68845962D01*
X115653862Y-68868872D01*
X115665282Y-68893017D01*
X115674280Y-68918165D01*
X115680770Y-68944075D01*
X115684689Y-68970495D01*
X115686000Y-68997173D01*
X115686000Y-69704827D01*
X115684689Y-69731505D01*
X115680770Y-69757925D01*
X115674280Y-69783835D01*
X115665282Y-69808983D01*
X115653862Y-69833128D01*
X115640131Y-69856038D01*
X115624220Y-69877492D01*
X115606282Y-69897282D01*
X115586492Y-69915220D01*
X115565038Y-69931131D01*
X115542128Y-69944862D01*
X115517983Y-69956282D01*
X115492835Y-69965280D01*
X115466925Y-69971770D01*
X115440505Y-69975689D01*
X115413827Y-69977000D01*
X114456173Y-69977000D01*
X114429495Y-69975689D01*
X114403075Y-69971770D01*
X114377165Y-69965280D01*
X114352017Y-69956282D01*
X114327872Y-69944862D01*
X114304962Y-69931131D01*
X114283508Y-69915220D01*
X114263718Y-69897282D01*
X114245780Y-69877492D01*
X114229869Y-69856038D01*
X114216138Y-69833128D01*
X114204718Y-69808983D01*
X114195720Y-69783835D01*
X114189230Y-69757925D01*
X114185311Y-69731505D01*
X114184000Y-69704827D01*
X114184000Y-68997173D01*
X114185311Y-68970495D01*
X114189230Y-68944075D01*
X114195720Y-68918165D01*
X114204718Y-68893017D01*
X114216138Y-68868872D01*
X114229869Y-68845962D01*
X114245780Y-68824508D01*
X114263718Y-68804718D01*
X114283508Y-68786780D01*
X114304962Y-68770869D01*
X114327872Y-68757138D01*
X114352017Y-68745718D01*
X114377165Y-68736720D01*
X114403075Y-68730230D01*
X114429495Y-68726311D01*
X114456173Y-68725000D01*
X115413827Y-68725000D01*
X115440505Y-68726311D01*
X115440505Y-68726311D01*
G37*
D24*
X114935000Y-69351000D03*
D18*
G36*
X115440505Y-66676311D02*
G01*
X115466925Y-66680230D01*
X115492835Y-66686720D01*
X115517983Y-66695718D01*
X115542128Y-66707138D01*
X115565038Y-66720869D01*
X115586492Y-66736780D01*
X115606282Y-66754718D01*
X115624220Y-66774508D01*
X115640131Y-66795962D01*
X115653862Y-66818872D01*
X115665282Y-66843017D01*
X115674280Y-66868165D01*
X115680770Y-66894075D01*
X115684689Y-66920495D01*
X115686000Y-66947173D01*
X115686000Y-67654827D01*
X115684689Y-67681505D01*
X115680770Y-67707925D01*
X115674280Y-67733835D01*
X115665282Y-67758983D01*
X115653862Y-67783128D01*
X115640131Y-67806038D01*
X115624220Y-67827492D01*
X115606282Y-67847282D01*
X115586492Y-67865220D01*
X115565038Y-67881131D01*
X115542128Y-67894862D01*
X115517983Y-67906282D01*
X115492835Y-67915280D01*
X115466925Y-67921770D01*
X115440505Y-67925689D01*
X115413827Y-67927000D01*
X114456173Y-67927000D01*
X114429495Y-67925689D01*
X114403075Y-67921770D01*
X114377165Y-67915280D01*
X114352017Y-67906282D01*
X114327872Y-67894862D01*
X114304962Y-67881131D01*
X114283508Y-67865220D01*
X114263718Y-67847282D01*
X114245780Y-67827492D01*
X114229869Y-67806038D01*
X114216138Y-67783128D01*
X114204718Y-67758983D01*
X114195720Y-67733835D01*
X114189230Y-67707925D01*
X114185311Y-67681505D01*
X114184000Y-67654827D01*
X114184000Y-66947173D01*
X114185311Y-66920495D01*
X114189230Y-66894075D01*
X114195720Y-66868165D01*
X114204718Y-66843017D01*
X114216138Y-66818872D01*
X114229869Y-66795962D01*
X114245780Y-66774508D01*
X114263718Y-66754718D01*
X114283508Y-66736780D01*
X114304962Y-66720869D01*
X114327872Y-66707138D01*
X114352017Y-66695718D01*
X114377165Y-66686720D01*
X114403075Y-66680230D01*
X114429495Y-66676311D01*
X114456173Y-66675000D01*
X115413827Y-66675000D01*
X115440505Y-66676311D01*
X115440505Y-66676311D01*
G37*
D24*
X114935000Y-67301000D03*
D25*
X118237000Y-76363000D03*
X118237000Y-74513000D03*
D26*
X125730000Y-41910000D03*
X115570000Y-49530000D03*
X125730000Y-44450000D03*
X115570000Y-46990000D03*
X125730000Y-46990000D03*
X115570000Y-44450000D03*
X125730000Y-49530000D03*
D27*
X115570000Y-41910000D03*
D18*
G36*
X112900505Y-68726311D02*
G01*
X112926925Y-68730230D01*
X112952835Y-68736720D01*
X112977983Y-68745718D01*
X113002128Y-68757138D01*
X113025038Y-68770869D01*
X113046492Y-68786780D01*
X113066282Y-68804718D01*
X113084220Y-68824508D01*
X113100131Y-68845962D01*
X113113862Y-68868872D01*
X113125282Y-68893017D01*
X113134280Y-68918165D01*
X113140770Y-68944075D01*
X113144689Y-68970495D01*
X113146000Y-68997173D01*
X113146000Y-69704827D01*
X113144689Y-69731505D01*
X113140770Y-69757925D01*
X113134280Y-69783835D01*
X113125282Y-69808983D01*
X113113862Y-69833128D01*
X113100131Y-69856038D01*
X113084220Y-69877492D01*
X113066282Y-69897282D01*
X113046492Y-69915220D01*
X113025038Y-69931131D01*
X113002128Y-69944862D01*
X112977983Y-69956282D01*
X112952835Y-69965280D01*
X112926925Y-69971770D01*
X112900505Y-69975689D01*
X112873827Y-69977000D01*
X111916173Y-69977000D01*
X111889495Y-69975689D01*
X111863075Y-69971770D01*
X111837165Y-69965280D01*
X111812017Y-69956282D01*
X111787872Y-69944862D01*
X111764962Y-69931131D01*
X111743508Y-69915220D01*
X111723718Y-69897282D01*
X111705780Y-69877492D01*
X111689869Y-69856038D01*
X111676138Y-69833128D01*
X111664718Y-69808983D01*
X111655720Y-69783835D01*
X111649230Y-69757925D01*
X111645311Y-69731505D01*
X111644000Y-69704827D01*
X111644000Y-68997173D01*
X111645311Y-68970495D01*
X111649230Y-68944075D01*
X111655720Y-68918165D01*
X111664718Y-68893017D01*
X111676138Y-68868872D01*
X111689869Y-68845962D01*
X111705780Y-68824508D01*
X111723718Y-68804718D01*
X111743508Y-68786780D01*
X111764962Y-68770869D01*
X111787872Y-68757138D01*
X111812017Y-68745718D01*
X111837165Y-68736720D01*
X111863075Y-68730230D01*
X111889495Y-68726311D01*
X111916173Y-68725000D01*
X112873827Y-68725000D01*
X112900505Y-68726311D01*
X112900505Y-68726311D01*
G37*
D24*
X112395000Y-69351000D03*
D18*
G36*
X112900505Y-66676311D02*
G01*
X112926925Y-66680230D01*
X112952835Y-66686720D01*
X112977983Y-66695718D01*
X113002128Y-66707138D01*
X113025038Y-66720869D01*
X113046492Y-66736780D01*
X113066282Y-66754718D01*
X113084220Y-66774508D01*
X113100131Y-66795962D01*
X113113862Y-66818872D01*
X113125282Y-66843017D01*
X113134280Y-66868165D01*
X113140770Y-66894075D01*
X113144689Y-66920495D01*
X113146000Y-66947173D01*
X113146000Y-67654827D01*
X113144689Y-67681505D01*
X113140770Y-67707925D01*
X113134280Y-67733835D01*
X113125282Y-67758983D01*
X113113862Y-67783128D01*
X113100131Y-67806038D01*
X113084220Y-67827492D01*
X113066282Y-67847282D01*
X113046492Y-67865220D01*
X113025038Y-67881131D01*
X113002128Y-67894862D01*
X112977983Y-67906282D01*
X112952835Y-67915280D01*
X112926925Y-67921770D01*
X112900505Y-67925689D01*
X112873827Y-67927000D01*
X111916173Y-67927000D01*
X111889495Y-67925689D01*
X111863075Y-67921770D01*
X111837165Y-67915280D01*
X111812017Y-67906282D01*
X111787872Y-67894862D01*
X111764962Y-67881131D01*
X111743508Y-67865220D01*
X111723718Y-67847282D01*
X111705780Y-67827492D01*
X111689869Y-67806038D01*
X111676138Y-67783128D01*
X111664718Y-67758983D01*
X111655720Y-67733835D01*
X111649230Y-67707925D01*
X111645311Y-67681505D01*
X111644000Y-67654827D01*
X111644000Y-66947173D01*
X111645311Y-66920495D01*
X111649230Y-66894075D01*
X111655720Y-66868165D01*
X111664718Y-66843017D01*
X111676138Y-66818872D01*
X111689869Y-66795962D01*
X111705780Y-66774508D01*
X111723718Y-66754718D01*
X111743508Y-66736780D01*
X111764962Y-66720869D01*
X111787872Y-66707138D01*
X111812017Y-66695718D01*
X111837165Y-66686720D01*
X111863075Y-66680230D01*
X111889495Y-66676311D01*
X111916173Y-66675000D01*
X112873827Y-66675000D01*
X112900505Y-66676311D01*
X112900505Y-66676311D01*
G37*
D24*
X112395000Y-67301000D03*
D28*
X153035000Y-50945000D03*
X153035000Y-41765000D03*
D18*
G36*
X148841505Y-50946311D02*
G01*
X148867925Y-50950230D01*
X148893835Y-50956720D01*
X148918983Y-50965718D01*
X148943128Y-50977138D01*
X148966038Y-50990869D01*
X148987492Y-51006780D01*
X149007282Y-51024718D01*
X149025220Y-51044508D01*
X149041131Y-51065962D01*
X149054862Y-51088872D01*
X149066282Y-51113017D01*
X149075280Y-51138165D01*
X149081770Y-51164075D01*
X149085689Y-51190495D01*
X149087000Y-51217173D01*
X149087000Y-51924827D01*
X149085689Y-51951505D01*
X149081770Y-51977925D01*
X149075280Y-52003835D01*
X149066282Y-52028983D01*
X149054862Y-52053128D01*
X149041131Y-52076038D01*
X149025220Y-52097492D01*
X149007282Y-52117282D01*
X148987492Y-52135220D01*
X148966038Y-52151131D01*
X148943128Y-52164862D01*
X148918983Y-52176282D01*
X148893835Y-52185280D01*
X148867925Y-52191770D01*
X148841505Y-52195689D01*
X148814827Y-52197000D01*
X147857173Y-52197000D01*
X147830495Y-52195689D01*
X147804075Y-52191770D01*
X147778165Y-52185280D01*
X147753017Y-52176282D01*
X147728872Y-52164862D01*
X147705962Y-52151131D01*
X147684508Y-52135220D01*
X147664718Y-52117282D01*
X147646780Y-52097492D01*
X147630869Y-52076038D01*
X147617138Y-52053128D01*
X147605718Y-52028983D01*
X147596720Y-52003835D01*
X147590230Y-51977925D01*
X147586311Y-51951505D01*
X147585000Y-51924827D01*
X147585000Y-51217173D01*
X147586311Y-51190495D01*
X147590230Y-51164075D01*
X147596720Y-51138165D01*
X147605718Y-51113017D01*
X147617138Y-51088872D01*
X147630869Y-51065962D01*
X147646780Y-51044508D01*
X147664718Y-51024718D01*
X147684508Y-51006780D01*
X147705962Y-50990869D01*
X147728872Y-50977138D01*
X147753017Y-50965718D01*
X147778165Y-50956720D01*
X147804075Y-50950230D01*
X147830495Y-50946311D01*
X147857173Y-50945000D01*
X148814827Y-50945000D01*
X148841505Y-50946311D01*
X148841505Y-50946311D01*
G37*
D24*
X148336000Y-51571000D03*
D18*
G36*
X148841505Y-48896311D02*
G01*
X148867925Y-48900230D01*
X148893835Y-48906720D01*
X148918983Y-48915718D01*
X148943128Y-48927138D01*
X148966038Y-48940869D01*
X148987492Y-48956780D01*
X149007282Y-48974718D01*
X149025220Y-48994508D01*
X149041131Y-49015962D01*
X149054862Y-49038872D01*
X149066282Y-49063017D01*
X149075280Y-49088165D01*
X149081770Y-49114075D01*
X149085689Y-49140495D01*
X149087000Y-49167173D01*
X149087000Y-49874827D01*
X149085689Y-49901505D01*
X149081770Y-49927925D01*
X149075280Y-49953835D01*
X149066282Y-49978983D01*
X149054862Y-50003128D01*
X149041131Y-50026038D01*
X149025220Y-50047492D01*
X149007282Y-50067282D01*
X148987492Y-50085220D01*
X148966038Y-50101131D01*
X148943128Y-50114862D01*
X148918983Y-50126282D01*
X148893835Y-50135280D01*
X148867925Y-50141770D01*
X148841505Y-50145689D01*
X148814827Y-50147000D01*
X147857173Y-50147000D01*
X147830495Y-50145689D01*
X147804075Y-50141770D01*
X147778165Y-50135280D01*
X147753017Y-50126282D01*
X147728872Y-50114862D01*
X147705962Y-50101131D01*
X147684508Y-50085220D01*
X147664718Y-50067282D01*
X147646780Y-50047492D01*
X147630869Y-50026038D01*
X147617138Y-50003128D01*
X147605718Y-49978983D01*
X147596720Y-49953835D01*
X147590230Y-49927925D01*
X147586311Y-49901505D01*
X147585000Y-49874827D01*
X147585000Y-49167173D01*
X147586311Y-49140495D01*
X147590230Y-49114075D01*
X147596720Y-49088165D01*
X147605718Y-49063017D01*
X147617138Y-49038872D01*
X147630869Y-49015962D01*
X147646780Y-48994508D01*
X147664718Y-48974718D01*
X147684508Y-48956780D01*
X147705962Y-48940869D01*
X147728872Y-48927138D01*
X147753017Y-48915718D01*
X147778165Y-48906720D01*
X147804075Y-48900230D01*
X147830495Y-48896311D01*
X147857173Y-48895000D01*
X148814827Y-48895000D01*
X148841505Y-48896311D01*
X148841505Y-48896311D01*
G37*
D24*
X148336000Y-49521000D03*
D18*
G36*
X146185505Y-44208311D02*
G01*
X146211925Y-44212230D01*
X146237835Y-44218720D01*
X146262983Y-44227718D01*
X146287128Y-44239138D01*
X146310038Y-44252869D01*
X146331492Y-44268780D01*
X146351282Y-44286718D01*
X146369220Y-44306508D01*
X146385131Y-44327962D01*
X146398862Y-44350872D01*
X146410282Y-44375017D01*
X146419280Y-44400165D01*
X146425770Y-44426075D01*
X146429689Y-44452495D01*
X146431000Y-44479173D01*
X146431000Y-45436827D01*
X146429689Y-45463505D01*
X146425770Y-45489925D01*
X146419280Y-45515835D01*
X146410282Y-45540983D01*
X146398862Y-45565128D01*
X146385131Y-45588038D01*
X146369220Y-45609492D01*
X146351282Y-45629282D01*
X146331492Y-45647220D01*
X146310038Y-45663131D01*
X146287128Y-45676862D01*
X146262983Y-45688282D01*
X146237835Y-45697280D01*
X146211925Y-45703770D01*
X146185505Y-45707689D01*
X146158827Y-45709000D01*
X145451173Y-45709000D01*
X145424495Y-45707689D01*
X145398075Y-45703770D01*
X145372165Y-45697280D01*
X145347017Y-45688282D01*
X145322872Y-45676862D01*
X145299962Y-45663131D01*
X145278508Y-45647220D01*
X145258718Y-45629282D01*
X145240780Y-45609492D01*
X145224869Y-45588038D01*
X145211138Y-45565128D01*
X145199718Y-45540983D01*
X145190720Y-45515835D01*
X145184230Y-45489925D01*
X145180311Y-45463505D01*
X145179000Y-45436827D01*
X145179000Y-44479173D01*
X145180311Y-44452495D01*
X145184230Y-44426075D01*
X145190720Y-44400165D01*
X145199718Y-44375017D01*
X145211138Y-44350872D01*
X145224869Y-44327962D01*
X145240780Y-44306508D01*
X145258718Y-44286718D01*
X145278508Y-44268780D01*
X145299962Y-44252869D01*
X145322872Y-44239138D01*
X145347017Y-44227718D01*
X145372165Y-44218720D01*
X145398075Y-44212230D01*
X145424495Y-44208311D01*
X145451173Y-44207000D01*
X146158827Y-44207000D01*
X146185505Y-44208311D01*
X146185505Y-44208311D01*
G37*
D24*
X145805000Y-44958000D03*
D18*
G36*
X144135505Y-44208311D02*
G01*
X144161925Y-44212230D01*
X144187835Y-44218720D01*
X144212983Y-44227718D01*
X144237128Y-44239138D01*
X144260038Y-44252869D01*
X144281492Y-44268780D01*
X144301282Y-44286718D01*
X144319220Y-44306508D01*
X144335131Y-44327962D01*
X144348862Y-44350872D01*
X144360282Y-44375017D01*
X144369280Y-44400165D01*
X144375770Y-44426075D01*
X144379689Y-44452495D01*
X144381000Y-44479173D01*
X144381000Y-45436827D01*
X144379689Y-45463505D01*
X144375770Y-45489925D01*
X144369280Y-45515835D01*
X144360282Y-45540983D01*
X144348862Y-45565128D01*
X144335131Y-45588038D01*
X144319220Y-45609492D01*
X144301282Y-45629282D01*
X144281492Y-45647220D01*
X144260038Y-45663131D01*
X144237128Y-45676862D01*
X144212983Y-45688282D01*
X144187835Y-45697280D01*
X144161925Y-45703770D01*
X144135505Y-45707689D01*
X144108827Y-45709000D01*
X143401173Y-45709000D01*
X143374495Y-45707689D01*
X143348075Y-45703770D01*
X143322165Y-45697280D01*
X143297017Y-45688282D01*
X143272872Y-45676862D01*
X143249962Y-45663131D01*
X143228508Y-45647220D01*
X143208718Y-45629282D01*
X143190780Y-45609492D01*
X143174869Y-45588038D01*
X143161138Y-45565128D01*
X143149718Y-45540983D01*
X143140720Y-45515835D01*
X143134230Y-45489925D01*
X143130311Y-45463505D01*
X143129000Y-45436827D01*
X143129000Y-44479173D01*
X143130311Y-44452495D01*
X143134230Y-44426075D01*
X143140720Y-44400165D01*
X143149718Y-44375017D01*
X143161138Y-44350872D01*
X143174869Y-44327962D01*
X143190780Y-44306508D01*
X143208718Y-44286718D01*
X143228508Y-44268780D01*
X143249962Y-44252869D01*
X143272872Y-44239138D01*
X143297017Y-44227718D01*
X143322165Y-44218720D01*
X143348075Y-44212230D01*
X143374495Y-44208311D01*
X143401173Y-44207000D01*
X144108827Y-44207000D01*
X144135505Y-44208311D01*
X144135505Y-44208311D01*
G37*
D24*
X143755000Y-44958000D03*
D18*
G36*
X138935505Y-46120311D02*
G01*
X138961925Y-46124230D01*
X138987835Y-46130720D01*
X139012983Y-46139718D01*
X139037128Y-46151138D01*
X139060038Y-46164869D01*
X139081492Y-46180780D01*
X139101282Y-46198718D01*
X139119220Y-46218508D01*
X139135131Y-46239962D01*
X139148862Y-46262872D01*
X139160282Y-46287017D01*
X139169280Y-46312165D01*
X139175770Y-46338075D01*
X139179689Y-46364495D01*
X139181000Y-46391173D01*
X139181000Y-47098827D01*
X139179689Y-47125505D01*
X139175770Y-47151925D01*
X139169280Y-47177835D01*
X139160282Y-47202983D01*
X139148862Y-47227128D01*
X139135131Y-47250038D01*
X139119220Y-47271492D01*
X139101282Y-47291282D01*
X139081492Y-47309220D01*
X139060038Y-47325131D01*
X139037128Y-47338862D01*
X139012983Y-47350282D01*
X138987835Y-47359280D01*
X138961925Y-47365770D01*
X138935505Y-47369689D01*
X138908827Y-47371000D01*
X137951173Y-47371000D01*
X137924495Y-47369689D01*
X137898075Y-47365770D01*
X137872165Y-47359280D01*
X137847017Y-47350282D01*
X137822872Y-47338862D01*
X137799962Y-47325131D01*
X137778508Y-47309220D01*
X137758718Y-47291282D01*
X137740780Y-47271492D01*
X137724869Y-47250038D01*
X137711138Y-47227128D01*
X137699718Y-47202983D01*
X137690720Y-47177835D01*
X137684230Y-47151925D01*
X137680311Y-47125505D01*
X137679000Y-47098827D01*
X137679000Y-46391173D01*
X137680311Y-46364495D01*
X137684230Y-46338075D01*
X137690720Y-46312165D01*
X137699718Y-46287017D01*
X137711138Y-46262872D01*
X137724869Y-46239962D01*
X137740780Y-46218508D01*
X137758718Y-46198718D01*
X137778508Y-46180780D01*
X137799962Y-46164869D01*
X137822872Y-46151138D01*
X137847017Y-46139718D01*
X137872165Y-46130720D01*
X137898075Y-46124230D01*
X137924495Y-46120311D01*
X137951173Y-46119000D01*
X138908827Y-46119000D01*
X138935505Y-46120311D01*
X138935505Y-46120311D01*
G37*
D24*
X138430000Y-46745000D03*
D18*
G36*
X138935505Y-44070311D02*
G01*
X138961925Y-44074230D01*
X138987835Y-44080720D01*
X139012983Y-44089718D01*
X139037128Y-44101138D01*
X139060038Y-44114869D01*
X139081492Y-44130780D01*
X139101282Y-44148718D01*
X139119220Y-44168508D01*
X139135131Y-44189962D01*
X139148862Y-44212872D01*
X139160282Y-44237017D01*
X139169280Y-44262165D01*
X139175770Y-44288075D01*
X139179689Y-44314495D01*
X139181000Y-44341173D01*
X139181000Y-45048827D01*
X139179689Y-45075505D01*
X139175770Y-45101925D01*
X139169280Y-45127835D01*
X139160282Y-45152983D01*
X139148862Y-45177128D01*
X139135131Y-45200038D01*
X139119220Y-45221492D01*
X139101282Y-45241282D01*
X139081492Y-45259220D01*
X139060038Y-45275131D01*
X139037128Y-45288862D01*
X139012983Y-45300282D01*
X138987835Y-45309280D01*
X138961925Y-45315770D01*
X138935505Y-45319689D01*
X138908827Y-45321000D01*
X137951173Y-45321000D01*
X137924495Y-45319689D01*
X137898075Y-45315770D01*
X137872165Y-45309280D01*
X137847017Y-45300282D01*
X137822872Y-45288862D01*
X137799962Y-45275131D01*
X137778508Y-45259220D01*
X137758718Y-45241282D01*
X137740780Y-45221492D01*
X137724869Y-45200038D01*
X137711138Y-45177128D01*
X137699718Y-45152983D01*
X137690720Y-45127835D01*
X137684230Y-45101925D01*
X137680311Y-45075505D01*
X137679000Y-45048827D01*
X137679000Y-44341173D01*
X137680311Y-44314495D01*
X137684230Y-44288075D01*
X137690720Y-44262165D01*
X137699718Y-44237017D01*
X137711138Y-44212872D01*
X137724869Y-44189962D01*
X137740780Y-44168508D01*
X137758718Y-44148718D01*
X137778508Y-44130780D01*
X137799962Y-44114869D01*
X137822872Y-44101138D01*
X137847017Y-44089718D01*
X137872165Y-44080720D01*
X137898075Y-44074230D01*
X137924495Y-44070311D01*
X137951173Y-44069000D01*
X138908827Y-44069000D01*
X138935505Y-44070311D01*
X138935505Y-44070311D01*
G37*
D24*
X138430000Y-44695000D03*
D18*
G36*
X136395505Y-46120311D02*
G01*
X136421925Y-46124230D01*
X136447835Y-46130720D01*
X136472983Y-46139718D01*
X136497128Y-46151138D01*
X136520038Y-46164869D01*
X136541492Y-46180780D01*
X136561282Y-46198718D01*
X136579220Y-46218508D01*
X136595131Y-46239962D01*
X136608862Y-46262872D01*
X136620282Y-46287017D01*
X136629280Y-46312165D01*
X136635770Y-46338075D01*
X136639689Y-46364495D01*
X136641000Y-46391173D01*
X136641000Y-47098827D01*
X136639689Y-47125505D01*
X136635770Y-47151925D01*
X136629280Y-47177835D01*
X136620282Y-47202983D01*
X136608862Y-47227128D01*
X136595131Y-47250038D01*
X136579220Y-47271492D01*
X136561282Y-47291282D01*
X136541492Y-47309220D01*
X136520038Y-47325131D01*
X136497128Y-47338862D01*
X136472983Y-47350282D01*
X136447835Y-47359280D01*
X136421925Y-47365770D01*
X136395505Y-47369689D01*
X136368827Y-47371000D01*
X135411173Y-47371000D01*
X135384495Y-47369689D01*
X135358075Y-47365770D01*
X135332165Y-47359280D01*
X135307017Y-47350282D01*
X135282872Y-47338862D01*
X135259962Y-47325131D01*
X135238508Y-47309220D01*
X135218718Y-47291282D01*
X135200780Y-47271492D01*
X135184869Y-47250038D01*
X135171138Y-47227128D01*
X135159718Y-47202983D01*
X135150720Y-47177835D01*
X135144230Y-47151925D01*
X135140311Y-47125505D01*
X135139000Y-47098827D01*
X135139000Y-46391173D01*
X135140311Y-46364495D01*
X135144230Y-46338075D01*
X135150720Y-46312165D01*
X135159718Y-46287017D01*
X135171138Y-46262872D01*
X135184869Y-46239962D01*
X135200780Y-46218508D01*
X135218718Y-46198718D01*
X135238508Y-46180780D01*
X135259962Y-46164869D01*
X135282872Y-46151138D01*
X135307017Y-46139718D01*
X135332165Y-46130720D01*
X135358075Y-46124230D01*
X135384495Y-46120311D01*
X135411173Y-46119000D01*
X136368827Y-46119000D01*
X136395505Y-46120311D01*
X136395505Y-46120311D01*
G37*
D24*
X135890000Y-46745000D03*
D18*
G36*
X136395505Y-44070311D02*
G01*
X136421925Y-44074230D01*
X136447835Y-44080720D01*
X136472983Y-44089718D01*
X136497128Y-44101138D01*
X136520038Y-44114869D01*
X136541492Y-44130780D01*
X136561282Y-44148718D01*
X136579220Y-44168508D01*
X136595131Y-44189962D01*
X136608862Y-44212872D01*
X136620282Y-44237017D01*
X136629280Y-44262165D01*
X136635770Y-44288075D01*
X136639689Y-44314495D01*
X136641000Y-44341173D01*
X136641000Y-45048827D01*
X136639689Y-45075505D01*
X136635770Y-45101925D01*
X136629280Y-45127835D01*
X136620282Y-45152983D01*
X136608862Y-45177128D01*
X136595131Y-45200038D01*
X136579220Y-45221492D01*
X136561282Y-45241282D01*
X136541492Y-45259220D01*
X136520038Y-45275131D01*
X136497128Y-45288862D01*
X136472983Y-45300282D01*
X136447835Y-45309280D01*
X136421925Y-45315770D01*
X136395505Y-45319689D01*
X136368827Y-45321000D01*
X135411173Y-45321000D01*
X135384495Y-45319689D01*
X135358075Y-45315770D01*
X135332165Y-45309280D01*
X135307017Y-45300282D01*
X135282872Y-45288862D01*
X135259962Y-45275131D01*
X135238508Y-45259220D01*
X135218718Y-45241282D01*
X135200780Y-45221492D01*
X135184869Y-45200038D01*
X135171138Y-45177128D01*
X135159718Y-45152983D01*
X135150720Y-45127835D01*
X135144230Y-45101925D01*
X135140311Y-45075505D01*
X135139000Y-45048827D01*
X135139000Y-44341173D01*
X135140311Y-44314495D01*
X135144230Y-44288075D01*
X135150720Y-44262165D01*
X135159718Y-44237017D01*
X135171138Y-44212872D01*
X135184869Y-44189962D01*
X135200780Y-44168508D01*
X135218718Y-44148718D01*
X135238508Y-44130780D01*
X135259962Y-44114869D01*
X135282872Y-44101138D01*
X135307017Y-44089718D01*
X135332165Y-44080720D01*
X135358075Y-44074230D01*
X135384495Y-44070311D01*
X135411173Y-44069000D01*
X136368827Y-44069000D01*
X136395505Y-44070311D01*
X136395505Y-44070311D01*
G37*
D24*
X135890000Y-44695000D03*
D18*
G36*
X141849505Y-47510311D02*
G01*
X141875925Y-47514230D01*
X141901835Y-47520720D01*
X141926983Y-47529718D01*
X141951128Y-47541138D01*
X141974038Y-47554869D01*
X141995492Y-47570780D01*
X142015282Y-47588718D01*
X142033220Y-47608508D01*
X142049131Y-47629962D01*
X142062862Y-47652872D01*
X142074282Y-47677017D01*
X142083280Y-47702165D01*
X142089770Y-47728075D01*
X142093689Y-47754495D01*
X142095000Y-47781173D01*
X142095000Y-48738827D01*
X142093689Y-48765505D01*
X142089770Y-48791925D01*
X142083280Y-48817835D01*
X142074282Y-48842983D01*
X142062862Y-48867128D01*
X142049131Y-48890038D01*
X142033220Y-48911492D01*
X142015282Y-48931282D01*
X141995492Y-48949220D01*
X141974038Y-48965131D01*
X141951128Y-48978862D01*
X141926983Y-48990282D01*
X141901835Y-48999280D01*
X141875925Y-49005770D01*
X141849505Y-49009689D01*
X141822827Y-49011000D01*
X141115173Y-49011000D01*
X141088495Y-49009689D01*
X141062075Y-49005770D01*
X141036165Y-48999280D01*
X141011017Y-48990282D01*
X140986872Y-48978862D01*
X140963962Y-48965131D01*
X140942508Y-48949220D01*
X140922718Y-48931282D01*
X140904780Y-48911492D01*
X140888869Y-48890038D01*
X140875138Y-48867128D01*
X140863718Y-48842983D01*
X140854720Y-48817835D01*
X140848230Y-48791925D01*
X140844311Y-48765505D01*
X140843000Y-48738827D01*
X140843000Y-47781173D01*
X140844311Y-47754495D01*
X140848230Y-47728075D01*
X140854720Y-47702165D01*
X140863718Y-47677017D01*
X140875138Y-47652872D01*
X140888869Y-47629962D01*
X140904780Y-47608508D01*
X140922718Y-47588718D01*
X140942508Y-47570780D01*
X140963962Y-47554869D01*
X140986872Y-47541138D01*
X141011017Y-47529718D01*
X141036165Y-47520720D01*
X141062075Y-47514230D01*
X141088495Y-47510311D01*
X141115173Y-47509000D01*
X141822827Y-47509000D01*
X141849505Y-47510311D01*
X141849505Y-47510311D01*
G37*
D24*
X141469000Y-48260000D03*
D18*
G36*
X143899505Y-47510311D02*
G01*
X143925925Y-47514230D01*
X143951835Y-47520720D01*
X143976983Y-47529718D01*
X144001128Y-47541138D01*
X144024038Y-47554869D01*
X144045492Y-47570780D01*
X144065282Y-47588718D01*
X144083220Y-47608508D01*
X144099131Y-47629962D01*
X144112862Y-47652872D01*
X144124282Y-47677017D01*
X144133280Y-47702165D01*
X144139770Y-47728075D01*
X144143689Y-47754495D01*
X144145000Y-47781173D01*
X144145000Y-48738827D01*
X144143689Y-48765505D01*
X144139770Y-48791925D01*
X144133280Y-48817835D01*
X144124282Y-48842983D01*
X144112862Y-48867128D01*
X144099131Y-48890038D01*
X144083220Y-48911492D01*
X144065282Y-48931282D01*
X144045492Y-48949220D01*
X144024038Y-48965131D01*
X144001128Y-48978862D01*
X143976983Y-48990282D01*
X143951835Y-48999280D01*
X143925925Y-49005770D01*
X143899505Y-49009689D01*
X143872827Y-49011000D01*
X143165173Y-49011000D01*
X143138495Y-49009689D01*
X143112075Y-49005770D01*
X143086165Y-48999280D01*
X143061017Y-48990282D01*
X143036872Y-48978862D01*
X143013962Y-48965131D01*
X142992508Y-48949220D01*
X142972718Y-48931282D01*
X142954780Y-48911492D01*
X142938869Y-48890038D01*
X142925138Y-48867128D01*
X142913718Y-48842983D01*
X142904720Y-48817835D01*
X142898230Y-48791925D01*
X142894311Y-48765505D01*
X142893000Y-48738827D01*
X142893000Y-47781173D01*
X142894311Y-47754495D01*
X142898230Y-47728075D01*
X142904720Y-47702165D01*
X142913718Y-47677017D01*
X142925138Y-47652872D01*
X142938869Y-47629962D01*
X142954780Y-47608508D01*
X142972718Y-47588718D01*
X142992508Y-47570780D01*
X143013962Y-47554869D01*
X143036872Y-47541138D01*
X143061017Y-47529718D01*
X143086165Y-47520720D01*
X143112075Y-47514230D01*
X143138495Y-47510311D01*
X143165173Y-47509000D01*
X143872827Y-47509000D01*
X143899505Y-47510311D01*
X143899505Y-47510311D01*
G37*
D24*
X143519000Y-48260000D03*
D18*
G36*
X139055505Y-79895311D02*
G01*
X139081925Y-79899230D01*
X139107835Y-79905720D01*
X139132983Y-79914718D01*
X139157128Y-79926138D01*
X139180038Y-79939869D01*
X139201492Y-79955780D01*
X139221282Y-79973718D01*
X139239220Y-79993508D01*
X139255131Y-80014962D01*
X139268862Y-80037872D01*
X139280282Y-80062017D01*
X139289280Y-80087165D01*
X139295770Y-80113075D01*
X139299689Y-80139495D01*
X139301000Y-80166173D01*
X139301000Y-81123827D01*
X139299689Y-81150505D01*
X139295770Y-81176925D01*
X139289280Y-81202835D01*
X139280282Y-81227983D01*
X139268862Y-81252128D01*
X139255131Y-81275038D01*
X139239220Y-81296492D01*
X139221282Y-81316282D01*
X139201492Y-81334220D01*
X139180038Y-81350131D01*
X139157128Y-81363862D01*
X139132983Y-81375282D01*
X139107835Y-81384280D01*
X139081925Y-81390770D01*
X139055505Y-81394689D01*
X139028827Y-81396000D01*
X138321173Y-81396000D01*
X138294495Y-81394689D01*
X138268075Y-81390770D01*
X138242165Y-81384280D01*
X138217017Y-81375282D01*
X138192872Y-81363862D01*
X138169962Y-81350131D01*
X138148508Y-81334220D01*
X138128718Y-81316282D01*
X138110780Y-81296492D01*
X138094869Y-81275038D01*
X138081138Y-81252128D01*
X138069718Y-81227983D01*
X138060720Y-81202835D01*
X138054230Y-81176925D01*
X138050311Y-81150505D01*
X138049000Y-81123827D01*
X138049000Y-80166173D01*
X138050311Y-80139495D01*
X138054230Y-80113075D01*
X138060720Y-80087165D01*
X138069718Y-80062017D01*
X138081138Y-80037872D01*
X138094869Y-80014962D01*
X138110780Y-79993508D01*
X138128718Y-79973718D01*
X138148508Y-79955780D01*
X138169962Y-79939869D01*
X138192872Y-79926138D01*
X138217017Y-79914718D01*
X138242165Y-79905720D01*
X138268075Y-79899230D01*
X138294495Y-79895311D01*
X138321173Y-79894000D01*
X139028827Y-79894000D01*
X139055505Y-79895311D01*
X139055505Y-79895311D01*
G37*
D24*
X138675000Y-80645000D03*
D18*
G36*
X141105505Y-79895311D02*
G01*
X141131925Y-79899230D01*
X141157835Y-79905720D01*
X141182983Y-79914718D01*
X141207128Y-79926138D01*
X141230038Y-79939869D01*
X141251492Y-79955780D01*
X141271282Y-79973718D01*
X141289220Y-79993508D01*
X141305131Y-80014962D01*
X141318862Y-80037872D01*
X141330282Y-80062017D01*
X141339280Y-80087165D01*
X141345770Y-80113075D01*
X141349689Y-80139495D01*
X141351000Y-80166173D01*
X141351000Y-81123827D01*
X141349689Y-81150505D01*
X141345770Y-81176925D01*
X141339280Y-81202835D01*
X141330282Y-81227983D01*
X141318862Y-81252128D01*
X141305131Y-81275038D01*
X141289220Y-81296492D01*
X141271282Y-81316282D01*
X141251492Y-81334220D01*
X141230038Y-81350131D01*
X141207128Y-81363862D01*
X141182983Y-81375282D01*
X141157835Y-81384280D01*
X141131925Y-81390770D01*
X141105505Y-81394689D01*
X141078827Y-81396000D01*
X140371173Y-81396000D01*
X140344495Y-81394689D01*
X140318075Y-81390770D01*
X140292165Y-81384280D01*
X140267017Y-81375282D01*
X140242872Y-81363862D01*
X140219962Y-81350131D01*
X140198508Y-81334220D01*
X140178718Y-81316282D01*
X140160780Y-81296492D01*
X140144869Y-81275038D01*
X140131138Y-81252128D01*
X140119718Y-81227983D01*
X140110720Y-81202835D01*
X140104230Y-81176925D01*
X140100311Y-81150505D01*
X140099000Y-81123827D01*
X140099000Y-80166173D01*
X140100311Y-80139495D01*
X140104230Y-80113075D01*
X140110720Y-80087165D01*
X140119718Y-80062017D01*
X140131138Y-80037872D01*
X140144869Y-80014962D01*
X140160780Y-79993508D01*
X140178718Y-79973718D01*
X140198508Y-79955780D01*
X140219962Y-79939869D01*
X140242872Y-79926138D01*
X140267017Y-79914718D01*
X140292165Y-79905720D01*
X140318075Y-79899230D01*
X140344495Y-79895311D01*
X140371173Y-79894000D01*
X141078827Y-79894000D01*
X141105505Y-79895311D01*
X141105505Y-79895311D01*
G37*
D24*
X140725000Y-80645000D03*
D29*
X152400000Y-100330000D03*
X101600000Y-100330000D03*
X101600000Y-43180000D03*
D18*
G36*
X135633505Y-85236311D02*
G01*
X135659925Y-85240230D01*
X135685835Y-85246720D01*
X135710983Y-85255718D01*
X135735128Y-85267138D01*
X135758038Y-85280869D01*
X135779492Y-85296780D01*
X135799282Y-85314718D01*
X135817220Y-85334508D01*
X135833131Y-85355962D01*
X135846862Y-85378872D01*
X135858282Y-85403017D01*
X135867280Y-85428165D01*
X135873770Y-85454075D01*
X135877689Y-85480495D01*
X135879000Y-85507173D01*
X135879000Y-86214827D01*
X135877689Y-86241505D01*
X135873770Y-86267925D01*
X135867280Y-86293835D01*
X135858282Y-86318983D01*
X135846862Y-86343128D01*
X135833131Y-86366038D01*
X135817220Y-86387492D01*
X135799282Y-86407282D01*
X135779492Y-86425220D01*
X135758038Y-86441131D01*
X135735128Y-86454862D01*
X135710983Y-86466282D01*
X135685835Y-86475280D01*
X135659925Y-86481770D01*
X135633505Y-86485689D01*
X135606827Y-86487000D01*
X134649173Y-86487000D01*
X134622495Y-86485689D01*
X134596075Y-86481770D01*
X134570165Y-86475280D01*
X134545017Y-86466282D01*
X134520872Y-86454862D01*
X134497962Y-86441131D01*
X134476508Y-86425220D01*
X134456718Y-86407282D01*
X134438780Y-86387492D01*
X134422869Y-86366038D01*
X134409138Y-86343128D01*
X134397718Y-86318983D01*
X134388720Y-86293835D01*
X134382230Y-86267925D01*
X134378311Y-86241505D01*
X134377000Y-86214827D01*
X134377000Y-85507173D01*
X134378311Y-85480495D01*
X134382230Y-85454075D01*
X134388720Y-85428165D01*
X134397718Y-85403017D01*
X134409138Y-85378872D01*
X134422869Y-85355962D01*
X134438780Y-85334508D01*
X134456718Y-85314718D01*
X134476508Y-85296780D01*
X134497962Y-85280869D01*
X134520872Y-85267138D01*
X134545017Y-85255718D01*
X134570165Y-85246720D01*
X134596075Y-85240230D01*
X134622495Y-85236311D01*
X134649173Y-85235000D01*
X135606827Y-85235000D01*
X135633505Y-85236311D01*
X135633505Y-85236311D01*
G37*
D24*
X135128000Y-85861000D03*
D18*
G36*
X135633505Y-83186311D02*
G01*
X135659925Y-83190230D01*
X135685835Y-83196720D01*
X135710983Y-83205718D01*
X135735128Y-83217138D01*
X135758038Y-83230869D01*
X135779492Y-83246780D01*
X135799282Y-83264718D01*
X135817220Y-83284508D01*
X135833131Y-83305962D01*
X135846862Y-83328872D01*
X135858282Y-83353017D01*
X135867280Y-83378165D01*
X135873770Y-83404075D01*
X135877689Y-83430495D01*
X135879000Y-83457173D01*
X135879000Y-84164827D01*
X135877689Y-84191505D01*
X135873770Y-84217925D01*
X135867280Y-84243835D01*
X135858282Y-84268983D01*
X135846862Y-84293128D01*
X135833131Y-84316038D01*
X135817220Y-84337492D01*
X135799282Y-84357282D01*
X135779492Y-84375220D01*
X135758038Y-84391131D01*
X135735128Y-84404862D01*
X135710983Y-84416282D01*
X135685835Y-84425280D01*
X135659925Y-84431770D01*
X135633505Y-84435689D01*
X135606827Y-84437000D01*
X134649173Y-84437000D01*
X134622495Y-84435689D01*
X134596075Y-84431770D01*
X134570165Y-84425280D01*
X134545017Y-84416282D01*
X134520872Y-84404862D01*
X134497962Y-84391131D01*
X134476508Y-84375220D01*
X134456718Y-84357282D01*
X134438780Y-84337492D01*
X134422869Y-84316038D01*
X134409138Y-84293128D01*
X134397718Y-84268983D01*
X134388720Y-84243835D01*
X134382230Y-84217925D01*
X134378311Y-84191505D01*
X134377000Y-84164827D01*
X134377000Y-83457173D01*
X134378311Y-83430495D01*
X134382230Y-83404075D01*
X134388720Y-83378165D01*
X134397718Y-83353017D01*
X134409138Y-83328872D01*
X134422869Y-83305962D01*
X134438780Y-83284508D01*
X134456718Y-83264718D01*
X134476508Y-83246780D01*
X134497962Y-83230869D01*
X134520872Y-83217138D01*
X134545017Y-83205718D01*
X134570165Y-83196720D01*
X134596075Y-83190230D01*
X134622495Y-83186311D01*
X134649173Y-83185000D01*
X135606827Y-83185000D01*
X135633505Y-83186311D01*
X135633505Y-83186311D01*
G37*
D24*
X135128000Y-83811000D03*
D18*
G36*
X124965505Y-83177311D02*
G01*
X124991925Y-83181230D01*
X125017835Y-83187720D01*
X125042983Y-83196718D01*
X125067128Y-83208138D01*
X125090038Y-83221869D01*
X125111492Y-83237780D01*
X125131282Y-83255718D01*
X125149220Y-83275508D01*
X125165131Y-83296962D01*
X125178862Y-83319872D01*
X125190282Y-83344017D01*
X125199280Y-83369165D01*
X125205770Y-83395075D01*
X125209689Y-83421495D01*
X125211000Y-83448173D01*
X125211000Y-84155827D01*
X125209689Y-84182505D01*
X125205770Y-84208925D01*
X125199280Y-84234835D01*
X125190282Y-84259983D01*
X125178862Y-84284128D01*
X125165131Y-84307038D01*
X125149220Y-84328492D01*
X125131282Y-84348282D01*
X125111492Y-84366220D01*
X125090038Y-84382131D01*
X125067128Y-84395862D01*
X125042983Y-84407282D01*
X125017835Y-84416280D01*
X124991925Y-84422770D01*
X124965505Y-84426689D01*
X124938827Y-84428000D01*
X123981173Y-84428000D01*
X123954495Y-84426689D01*
X123928075Y-84422770D01*
X123902165Y-84416280D01*
X123877017Y-84407282D01*
X123852872Y-84395862D01*
X123829962Y-84382131D01*
X123808508Y-84366220D01*
X123788718Y-84348282D01*
X123770780Y-84328492D01*
X123754869Y-84307038D01*
X123741138Y-84284128D01*
X123729718Y-84259983D01*
X123720720Y-84234835D01*
X123714230Y-84208925D01*
X123710311Y-84182505D01*
X123709000Y-84155827D01*
X123709000Y-83448173D01*
X123710311Y-83421495D01*
X123714230Y-83395075D01*
X123720720Y-83369165D01*
X123729718Y-83344017D01*
X123741138Y-83319872D01*
X123754869Y-83296962D01*
X123770780Y-83275508D01*
X123788718Y-83255718D01*
X123808508Y-83237780D01*
X123829962Y-83221869D01*
X123852872Y-83208138D01*
X123877017Y-83196718D01*
X123902165Y-83187720D01*
X123928075Y-83181230D01*
X123954495Y-83177311D01*
X123981173Y-83176000D01*
X124938827Y-83176000D01*
X124965505Y-83177311D01*
X124965505Y-83177311D01*
G37*
D24*
X124460000Y-83802000D03*
D18*
G36*
X124965505Y-85227311D02*
G01*
X124991925Y-85231230D01*
X125017835Y-85237720D01*
X125042983Y-85246718D01*
X125067128Y-85258138D01*
X125090038Y-85271869D01*
X125111492Y-85287780D01*
X125131282Y-85305718D01*
X125149220Y-85325508D01*
X125165131Y-85346962D01*
X125178862Y-85369872D01*
X125190282Y-85394017D01*
X125199280Y-85419165D01*
X125205770Y-85445075D01*
X125209689Y-85471495D01*
X125211000Y-85498173D01*
X125211000Y-86205827D01*
X125209689Y-86232505D01*
X125205770Y-86258925D01*
X125199280Y-86284835D01*
X125190282Y-86309983D01*
X125178862Y-86334128D01*
X125165131Y-86357038D01*
X125149220Y-86378492D01*
X125131282Y-86398282D01*
X125111492Y-86416220D01*
X125090038Y-86432131D01*
X125067128Y-86445862D01*
X125042983Y-86457282D01*
X125017835Y-86466280D01*
X124991925Y-86472770D01*
X124965505Y-86476689D01*
X124938827Y-86478000D01*
X123981173Y-86478000D01*
X123954495Y-86476689D01*
X123928075Y-86472770D01*
X123902165Y-86466280D01*
X123877017Y-86457282D01*
X123852872Y-86445862D01*
X123829962Y-86432131D01*
X123808508Y-86416220D01*
X123788718Y-86398282D01*
X123770780Y-86378492D01*
X123754869Y-86357038D01*
X123741138Y-86334128D01*
X123729718Y-86309983D01*
X123720720Y-86284835D01*
X123714230Y-86258925D01*
X123710311Y-86232505D01*
X123709000Y-86205827D01*
X123709000Y-85498173D01*
X123710311Y-85471495D01*
X123714230Y-85445075D01*
X123720720Y-85419165D01*
X123729718Y-85394017D01*
X123741138Y-85369872D01*
X123754869Y-85346962D01*
X123770780Y-85325508D01*
X123788718Y-85305718D01*
X123808508Y-85287780D01*
X123829962Y-85271869D01*
X123852872Y-85258138D01*
X123877017Y-85246718D01*
X123902165Y-85237720D01*
X123928075Y-85231230D01*
X123954495Y-85227311D01*
X123981173Y-85226000D01*
X124938827Y-85226000D01*
X124965505Y-85227311D01*
X124965505Y-85227311D01*
G37*
D24*
X124460000Y-85852000D03*
D18*
G36*
X114036505Y-75704311D02*
G01*
X114062925Y-75708230D01*
X114088835Y-75714720D01*
X114113983Y-75723718D01*
X114138128Y-75735138D01*
X114161038Y-75748869D01*
X114182492Y-75764780D01*
X114202282Y-75782718D01*
X114220220Y-75802508D01*
X114236131Y-75823962D01*
X114249862Y-75846872D01*
X114261282Y-75871017D01*
X114270280Y-75896165D01*
X114276770Y-75922075D01*
X114280689Y-75948495D01*
X114282000Y-75975173D01*
X114282000Y-76932827D01*
X114280689Y-76959505D01*
X114276770Y-76985925D01*
X114270280Y-77011835D01*
X114261282Y-77036983D01*
X114249862Y-77061128D01*
X114236131Y-77084038D01*
X114220220Y-77105492D01*
X114202282Y-77125282D01*
X114182492Y-77143220D01*
X114161038Y-77159131D01*
X114138128Y-77172862D01*
X114113983Y-77184282D01*
X114088835Y-77193280D01*
X114062925Y-77199770D01*
X114036505Y-77203689D01*
X114009827Y-77205000D01*
X113302173Y-77205000D01*
X113275495Y-77203689D01*
X113249075Y-77199770D01*
X113223165Y-77193280D01*
X113198017Y-77184282D01*
X113173872Y-77172862D01*
X113150962Y-77159131D01*
X113129508Y-77143220D01*
X113109718Y-77125282D01*
X113091780Y-77105492D01*
X113075869Y-77084038D01*
X113062138Y-77061128D01*
X113050718Y-77036983D01*
X113041720Y-77011835D01*
X113035230Y-76985925D01*
X113031311Y-76959505D01*
X113030000Y-76932827D01*
X113030000Y-75975173D01*
X113031311Y-75948495D01*
X113035230Y-75922075D01*
X113041720Y-75896165D01*
X113050718Y-75871017D01*
X113062138Y-75846872D01*
X113075869Y-75823962D01*
X113091780Y-75802508D01*
X113109718Y-75782718D01*
X113129508Y-75764780D01*
X113150962Y-75748869D01*
X113173872Y-75735138D01*
X113198017Y-75723718D01*
X113223165Y-75714720D01*
X113249075Y-75708230D01*
X113275495Y-75704311D01*
X113302173Y-75703000D01*
X114009827Y-75703000D01*
X114036505Y-75704311D01*
X114036505Y-75704311D01*
G37*
D24*
X113656000Y-76454000D03*
D18*
G36*
X116086505Y-75704311D02*
G01*
X116112925Y-75708230D01*
X116138835Y-75714720D01*
X116163983Y-75723718D01*
X116188128Y-75735138D01*
X116211038Y-75748869D01*
X116232492Y-75764780D01*
X116252282Y-75782718D01*
X116270220Y-75802508D01*
X116286131Y-75823962D01*
X116299862Y-75846872D01*
X116311282Y-75871017D01*
X116320280Y-75896165D01*
X116326770Y-75922075D01*
X116330689Y-75948495D01*
X116332000Y-75975173D01*
X116332000Y-76932827D01*
X116330689Y-76959505D01*
X116326770Y-76985925D01*
X116320280Y-77011835D01*
X116311282Y-77036983D01*
X116299862Y-77061128D01*
X116286131Y-77084038D01*
X116270220Y-77105492D01*
X116252282Y-77125282D01*
X116232492Y-77143220D01*
X116211038Y-77159131D01*
X116188128Y-77172862D01*
X116163983Y-77184282D01*
X116138835Y-77193280D01*
X116112925Y-77199770D01*
X116086505Y-77203689D01*
X116059827Y-77205000D01*
X115352173Y-77205000D01*
X115325495Y-77203689D01*
X115299075Y-77199770D01*
X115273165Y-77193280D01*
X115248017Y-77184282D01*
X115223872Y-77172862D01*
X115200962Y-77159131D01*
X115179508Y-77143220D01*
X115159718Y-77125282D01*
X115141780Y-77105492D01*
X115125869Y-77084038D01*
X115112138Y-77061128D01*
X115100718Y-77036983D01*
X115091720Y-77011835D01*
X115085230Y-76985925D01*
X115081311Y-76959505D01*
X115080000Y-76932827D01*
X115080000Y-75975173D01*
X115081311Y-75948495D01*
X115085230Y-75922075D01*
X115091720Y-75896165D01*
X115100718Y-75871017D01*
X115112138Y-75846872D01*
X115125869Y-75823962D01*
X115141780Y-75802508D01*
X115159718Y-75782718D01*
X115179508Y-75764780D01*
X115200962Y-75748869D01*
X115223872Y-75735138D01*
X115248017Y-75723718D01*
X115273165Y-75714720D01*
X115299075Y-75708230D01*
X115325495Y-75704311D01*
X115352173Y-75703000D01*
X116059827Y-75703000D01*
X116086505Y-75704311D01*
X116086505Y-75704311D01*
G37*
D24*
X115706000Y-76454000D03*
D18*
G36*
X116077505Y-73672311D02*
G01*
X116103925Y-73676230D01*
X116129835Y-73682720D01*
X116154983Y-73691718D01*
X116179128Y-73703138D01*
X116202038Y-73716869D01*
X116223492Y-73732780D01*
X116243282Y-73750718D01*
X116261220Y-73770508D01*
X116277131Y-73791962D01*
X116290862Y-73814872D01*
X116302282Y-73839017D01*
X116311280Y-73864165D01*
X116317770Y-73890075D01*
X116321689Y-73916495D01*
X116323000Y-73943173D01*
X116323000Y-74900827D01*
X116321689Y-74927505D01*
X116317770Y-74953925D01*
X116311280Y-74979835D01*
X116302282Y-75004983D01*
X116290862Y-75029128D01*
X116277131Y-75052038D01*
X116261220Y-75073492D01*
X116243282Y-75093282D01*
X116223492Y-75111220D01*
X116202038Y-75127131D01*
X116179128Y-75140862D01*
X116154983Y-75152282D01*
X116129835Y-75161280D01*
X116103925Y-75167770D01*
X116077505Y-75171689D01*
X116050827Y-75173000D01*
X115343173Y-75173000D01*
X115316495Y-75171689D01*
X115290075Y-75167770D01*
X115264165Y-75161280D01*
X115239017Y-75152282D01*
X115214872Y-75140862D01*
X115191962Y-75127131D01*
X115170508Y-75111220D01*
X115150718Y-75093282D01*
X115132780Y-75073492D01*
X115116869Y-75052038D01*
X115103138Y-75029128D01*
X115091718Y-75004983D01*
X115082720Y-74979835D01*
X115076230Y-74953925D01*
X115072311Y-74927505D01*
X115071000Y-74900827D01*
X115071000Y-73943173D01*
X115072311Y-73916495D01*
X115076230Y-73890075D01*
X115082720Y-73864165D01*
X115091718Y-73839017D01*
X115103138Y-73814872D01*
X115116869Y-73791962D01*
X115132780Y-73770508D01*
X115150718Y-73750718D01*
X115170508Y-73732780D01*
X115191962Y-73716869D01*
X115214872Y-73703138D01*
X115239017Y-73691718D01*
X115264165Y-73682720D01*
X115290075Y-73676230D01*
X115316495Y-73672311D01*
X115343173Y-73671000D01*
X116050827Y-73671000D01*
X116077505Y-73672311D01*
X116077505Y-73672311D01*
G37*
D24*
X115697000Y-74422000D03*
D18*
G36*
X114027505Y-73672311D02*
G01*
X114053925Y-73676230D01*
X114079835Y-73682720D01*
X114104983Y-73691718D01*
X114129128Y-73703138D01*
X114152038Y-73716869D01*
X114173492Y-73732780D01*
X114193282Y-73750718D01*
X114211220Y-73770508D01*
X114227131Y-73791962D01*
X114240862Y-73814872D01*
X114252282Y-73839017D01*
X114261280Y-73864165D01*
X114267770Y-73890075D01*
X114271689Y-73916495D01*
X114273000Y-73943173D01*
X114273000Y-74900827D01*
X114271689Y-74927505D01*
X114267770Y-74953925D01*
X114261280Y-74979835D01*
X114252282Y-75004983D01*
X114240862Y-75029128D01*
X114227131Y-75052038D01*
X114211220Y-75073492D01*
X114193282Y-75093282D01*
X114173492Y-75111220D01*
X114152038Y-75127131D01*
X114129128Y-75140862D01*
X114104983Y-75152282D01*
X114079835Y-75161280D01*
X114053925Y-75167770D01*
X114027505Y-75171689D01*
X114000827Y-75173000D01*
X113293173Y-75173000D01*
X113266495Y-75171689D01*
X113240075Y-75167770D01*
X113214165Y-75161280D01*
X113189017Y-75152282D01*
X113164872Y-75140862D01*
X113141962Y-75127131D01*
X113120508Y-75111220D01*
X113100718Y-75093282D01*
X113082780Y-75073492D01*
X113066869Y-75052038D01*
X113053138Y-75029128D01*
X113041718Y-75004983D01*
X113032720Y-74979835D01*
X113026230Y-74953925D01*
X113022311Y-74927505D01*
X113021000Y-74900827D01*
X113021000Y-73943173D01*
X113022311Y-73916495D01*
X113026230Y-73890075D01*
X113032720Y-73864165D01*
X113041718Y-73839017D01*
X113053138Y-73814872D01*
X113066869Y-73791962D01*
X113082780Y-73770508D01*
X113100718Y-73750718D01*
X113120508Y-73732780D01*
X113141962Y-73716869D01*
X113164872Y-73703138D01*
X113189017Y-73691718D01*
X113214165Y-73682720D01*
X113240075Y-73676230D01*
X113266495Y-73672311D01*
X113293173Y-73671000D01*
X114000827Y-73671000D01*
X114027505Y-73672311D01*
X114027505Y-73672311D01*
G37*
D24*
X113647000Y-74422000D03*
D18*
G36*
X148841505Y-44324311D02*
G01*
X148867925Y-44328230D01*
X148893835Y-44334720D01*
X148918983Y-44343718D01*
X148943128Y-44355138D01*
X148966038Y-44368869D01*
X148987492Y-44384780D01*
X149007282Y-44402718D01*
X149025220Y-44422508D01*
X149041131Y-44443962D01*
X149054862Y-44466872D01*
X149066282Y-44491017D01*
X149075280Y-44516165D01*
X149081770Y-44542075D01*
X149085689Y-44568495D01*
X149087000Y-44595173D01*
X149087000Y-45302827D01*
X149085689Y-45329505D01*
X149081770Y-45355925D01*
X149075280Y-45381835D01*
X149066282Y-45406983D01*
X149054862Y-45431128D01*
X149041131Y-45454038D01*
X149025220Y-45475492D01*
X149007282Y-45495282D01*
X148987492Y-45513220D01*
X148966038Y-45529131D01*
X148943128Y-45542862D01*
X148918983Y-45554282D01*
X148893835Y-45563280D01*
X148867925Y-45569770D01*
X148841505Y-45573689D01*
X148814827Y-45575000D01*
X147857173Y-45575000D01*
X147830495Y-45573689D01*
X147804075Y-45569770D01*
X147778165Y-45563280D01*
X147753017Y-45554282D01*
X147728872Y-45542862D01*
X147705962Y-45529131D01*
X147684508Y-45513220D01*
X147664718Y-45495282D01*
X147646780Y-45475492D01*
X147630869Y-45454038D01*
X147617138Y-45431128D01*
X147605718Y-45406983D01*
X147596720Y-45381835D01*
X147590230Y-45355925D01*
X147586311Y-45329505D01*
X147585000Y-45302827D01*
X147585000Y-44595173D01*
X147586311Y-44568495D01*
X147590230Y-44542075D01*
X147596720Y-44516165D01*
X147605718Y-44491017D01*
X147617138Y-44466872D01*
X147630869Y-44443962D01*
X147646780Y-44422508D01*
X147664718Y-44402718D01*
X147684508Y-44384780D01*
X147705962Y-44368869D01*
X147728872Y-44355138D01*
X147753017Y-44343718D01*
X147778165Y-44334720D01*
X147804075Y-44328230D01*
X147830495Y-44324311D01*
X147857173Y-44323000D01*
X148814827Y-44323000D01*
X148841505Y-44324311D01*
X148841505Y-44324311D01*
G37*
D24*
X148336000Y-44949000D03*
D18*
G36*
X148841505Y-46374311D02*
G01*
X148867925Y-46378230D01*
X148893835Y-46384720D01*
X148918983Y-46393718D01*
X148943128Y-46405138D01*
X148966038Y-46418869D01*
X148987492Y-46434780D01*
X149007282Y-46452718D01*
X149025220Y-46472508D01*
X149041131Y-46493962D01*
X149054862Y-46516872D01*
X149066282Y-46541017D01*
X149075280Y-46566165D01*
X149081770Y-46592075D01*
X149085689Y-46618495D01*
X149087000Y-46645173D01*
X149087000Y-47352827D01*
X149085689Y-47379505D01*
X149081770Y-47405925D01*
X149075280Y-47431835D01*
X149066282Y-47456983D01*
X149054862Y-47481128D01*
X149041131Y-47504038D01*
X149025220Y-47525492D01*
X149007282Y-47545282D01*
X148987492Y-47563220D01*
X148966038Y-47579131D01*
X148943128Y-47592862D01*
X148918983Y-47604282D01*
X148893835Y-47613280D01*
X148867925Y-47619770D01*
X148841505Y-47623689D01*
X148814827Y-47625000D01*
X147857173Y-47625000D01*
X147830495Y-47623689D01*
X147804075Y-47619770D01*
X147778165Y-47613280D01*
X147753017Y-47604282D01*
X147728872Y-47592862D01*
X147705962Y-47579131D01*
X147684508Y-47563220D01*
X147664718Y-47545282D01*
X147646780Y-47525492D01*
X147630869Y-47504038D01*
X147617138Y-47481128D01*
X147605718Y-47456983D01*
X147596720Y-47431835D01*
X147590230Y-47405925D01*
X147586311Y-47379505D01*
X147585000Y-47352827D01*
X147585000Y-46645173D01*
X147586311Y-46618495D01*
X147590230Y-46592075D01*
X147596720Y-46566165D01*
X147605718Y-46541017D01*
X147617138Y-46516872D01*
X147630869Y-46493962D01*
X147646780Y-46472508D01*
X147664718Y-46452718D01*
X147684508Y-46434780D01*
X147705962Y-46418869D01*
X147728872Y-46405138D01*
X147753017Y-46393718D01*
X147778165Y-46384720D01*
X147804075Y-46378230D01*
X147830495Y-46374311D01*
X147857173Y-46373000D01*
X148814827Y-46373000D01*
X148841505Y-46374311D01*
X148841505Y-46374311D01*
G37*
D24*
X148336000Y-46999000D03*
D18*
G36*
X141096505Y-68338311D02*
G01*
X141122925Y-68342230D01*
X141148835Y-68348720D01*
X141173983Y-68357718D01*
X141198128Y-68369138D01*
X141221038Y-68382869D01*
X141242492Y-68398780D01*
X141262282Y-68416718D01*
X141280220Y-68436508D01*
X141296131Y-68457962D01*
X141309862Y-68480872D01*
X141321282Y-68505017D01*
X141330280Y-68530165D01*
X141336770Y-68556075D01*
X141340689Y-68582495D01*
X141342000Y-68609173D01*
X141342000Y-69566827D01*
X141340689Y-69593505D01*
X141336770Y-69619925D01*
X141330280Y-69645835D01*
X141321282Y-69670983D01*
X141309862Y-69695128D01*
X141296131Y-69718038D01*
X141280220Y-69739492D01*
X141262282Y-69759282D01*
X141242492Y-69777220D01*
X141221038Y-69793131D01*
X141198128Y-69806862D01*
X141173983Y-69818282D01*
X141148835Y-69827280D01*
X141122925Y-69833770D01*
X141096505Y-69837689D01*
X141069827Y-69839000D01*
X140362173Y-69839000D01*
X140335495Y-69837689D01*
X140309075Y-69833770D01*
X140283165Y-69827280D01*
X140258017Y-69818282D01*
X140233872Y-69806862D01*
X140210962Y-69793131D01*
X140189508Y-69777220D01*
X140169718Y-69759282D01*
X140151780Y-69739492D01*
X140135869Y-69718038D01*
X140122138Y-69695128D01*
X140110718Y-69670983D01*
X140101720Y-69645835D01*
X140095230Y-69619925D01*
X140091311Y-69593505D01*
X140090000Y-69566827D01*
X140090000Y-68609173D01*
X140091311Y-68582495D01*
X140095230Y-68556075D01*
X140101720Y-68530165D01*
X140110718Y-68505017D01*
X140122138Y-68480872D01*
X140135869Y-68457962D01*
X140151780Y-68436508D01*
X140169718Y-68416718D01*
X140189508Y-68398780D01*
X140210962Y-68382869D01*
X140233872Y-68369138D01*
X140258017Y-68357718D01*
X140283165Y-68348720D01*
X140309075Y-68342230D01*
X140335495Y-68338311D01*
X140362173Y-68337000D01*
X141069827Y-68337000D01*
X141096505Y-68338311D01*
X141096505Y-68338311D01*
G37*
D24*
X140716000Y-69088000D03*
D18*
G36*
X139046505Y-68338311D02*
G01*
X139072925Y-68342230D01*
X139098835Y-68348720D01*
X139123983Y-68357718D01*
X139148128Y-68369138D01*
X139171038Y-68382869D01*
X139192492Y-68398780D01*
X139212282Y-68416718D01*
X139230220Y-68436508D01*
X139246131Y-68457962D01*
X139259862Y-68480872D01*
X139271282Y-68505017D01*
X139280280Y-68530165D01*
X139286770Y-68556075D01*
X139290689Y-68582495D01*
X139292000Y-68609173D01*
X139292000Y-69566827D01*
X139290689Y-69593505D01*
X139286770Y-69619925D01*
X139280280Y-69645835D01*
X139271282Y-69670983D01*
X139259862Y-69695128D01*
X139246131Y-69718038D01*
X139230220Y-69739492D01*
X139212282Y-69759282D01*
X139192492Y-69777220D01*
X139171038Y-69793131D01*
X139148128Y-69806862D01*
X139123983Y-69818282D01*
X139098835Y-69827280D01*
X139072925Y-69833770D01*
X139046505Y-69837689D01*
X139019827Y-69839000D01*
X138312173Y-69839000D01*
X138285495Y-69837689D01*
X138259075Y-69833770D01*
X138233165Y-69827280D01*
X138208017Y-69818282D01*
X138183872Y-69806862D01*
X138160962Y-69793131D01*
X138139508Y-69777220D01*
X138119718Y-69759282D01*
X138101780Y-69739492D01*
X138085869Y-69718038D01*
X138072138Y-69695128D01*
X138060718Y-69670983D01*
X138051720Y-69645835D01*
X138045230Y-69619925D01*
X138041311Y-69593505D01*
X138040000Y-69566827D01*
X138040000Y-68609173D01*
X138041311Y-68582495D01*
X138045230Y-68556075D01*
X138051720Y-68530165D01*
X138060718Y-68505017D01*
X138072138Y-68480872D01*
X138085869Y-68457962D01*
X138101780Y-68436508D01*
X138119718Y-68416718D01*
X138139508Y-68398780D01*
X138160962Y-68382869D01*
X138183872Y-68369138D01*
X138208017Y-68357718D01*
X138233165Y-68348720D01*
X138259075Y-68342230D01*
X138285495Y-68338311D01*
X138312173Y-68337000D01*
X139019827Y-68337000D01*
X139046505Y-68338311D01*
X139046505Y-68338311D01*
G37*
D24*
X138666000Y-69088000D03*
D18*
G36*
X141105505Y-77482311D02*
G01*
X141131925Y-77486230D01*
X141157835Y-77492720D01*
X141182983Y-77501718D01*
X141207128Y-77513138D01*
X141230038Y-77526869D01*
X141251492Y-77542780D01*
X141271282Y-77560718D01*
X141289220Y-77580508D01*
X141305131Y-77601962D01*
X141318862Y-77624872D01*
X141330282Y-77649017D01*
X141339280Y-77674165D01*
X141345770Y-77700075D01*
X141349689Y-77726495D01*
X141351000Y-77753173D01*
X141351000Y-78710827D01*
X141349689Y-78737505D01*
X141345770Y-78763925D01*
X141339280Y-78789835D01*
X141330282Y-78814983D01*
X141318862Y-78839128D01*
X141305131Y-78862038D01*
X141289220Y-78883492D01*
X141271282Y-78903282D01*
X141251492Y-78921220D01*
X141230038Y-78937131D01*
X141207128Y-78950862D01*
X141182983Y-78962282D01*
X141157835Y-78971280D01*
X141131925Y-78977770D01*
X141105505Y-78981689D01*
X141078827Y-78983000D01*
X140371173Y-78983000D01*
X140344495Y-78981689D01*
X140318075Y-78977770D01*
X140292165Y-78971280D01*
X140267017Y-78962282D01*
X140242872Y-78950862D01*
X140219962Y-78937131D01*
X140198508Y-78921220D01*
X140178718Y-78903282D01*
X140160780Y-78883492D01*
X140144869Y-78862038D01*
X140131138Y-78839128D01*
X140119718Y-78814983D01*
X140110720Y-78789835D01*
X140104230Y-78763925D01*
X140100311Y-78737505D01*
X140099000Y-78710827D01*
X140099000Y-77753173D01*
X140100311Y-77726495D01*
X140104230Y-77700075D01*
X140110720Y-77674165D01*
X140119718Y-77649017D01*
X140131138Y-77624872D01*
X140144869Y-77601962D01*
X140160780Y-77580508D01*
X140178718Y-77560718D01*
X140198508Y-77542780D01*
X140219962Y-77526869D01*
X140242872Y-77513138D01*
X140267017Y-77501718D01*
X140292165Y-77492720D01*
X140318075Y-77486230D01*
X140344495Y-77482311D01*
X140371173Y-77481000D01*
X141078827Y-77481000D01*
X141105505Y-77482311D01*
X141105505Y-77482311D01*
G37*
D24*
X140725000Y-78232000D03*
D18*
G36*
X139055505Y-77482311D02*
G01*
X139081925Y-77486230D01*
X139107835Y-77492720D01*
X139132983Y-77501718D01*
X139157128Y-77513138D01*
X139180038Y-77526869D01*
X139201492Y-77542780D01*
X139221282Y-77560718D01*
X139239220Y-77580508D01*
X139255131Y-77601962D01*
X139268862Y-77624872D01*
X139280282Y-77649017D01*
X139289280Y-77674165D01*
X139295770Y-77700075D01*
X139299689Y-77726495D01*
X139301000Y-77753173D01*
X139301000Y-78710827D01*
X139299689Y-78737505D01*
X139295770Y-78763925D01*
X139289280Y-78789835D01*
X139280282Y-78814983D01*
X139268862Y-78839128D01*
X139255131Y-78862038D01*
X139239220Y-78883492D01*
X139221282Y-78903282D01*
X139201492Y-78921220D01*
X139180038Y-78937131D01*
X139157128Y-78950862D01*
X139132983Y-78962282D01*
X139107835Y-78971280D01*
X139081925Y-78977770D01*
X139055505Y-78981689D01*
X139028827Y-78983000D01*
X138321173Y-78983000D01*
X138294495Y-78981689D01*
X138268075Y-78977770D01*
X138242165Y-78971280D01*
X138217017Y-78962282D01*
X138192872Y-78950862D01*
X138169962Y-78937131D01*
X138148508Y-78921220D01*
X138128718Y-78903282D01*
X138110780Y-78883492D01*
X138094869Y-78862038D01*
X138081138Y-78839128D01*
X138069718Y-78814983D01*
X138060720Y-78789835D01*
X138054230Y-78763925D01*
X138050311Y-78737505D01*
X138049000Y-78710827D01*
X138049000Y-77753173D01*
X138050311Y-77726495D01*
X138054230Y-77700075D01*
X138060720Y-77674165D01*
X138069718Y-77649017D01*
X138081138Y-77624872D01*
X138094869Y-77601962D01*
X138110780Y-77580508D01*
X138128718Y-77560718D01*
X138148508Y-77542780D01*
X138169962Y-77526869D01*
X138192872Y-77513138D01*
X138217017Y-77501718D01*
X138242165Y-77492720D01*
X138268075Y-77486230D01*
X138294495Y-77482311D01*
X138321173Y-77481000D01*
X139028827Y-77481000D01*
X139055505Y-77482311D01*
X139055505Y-77482311D01*
G37*
D24*
X138675000Y-78232000D03*
D18*
G36*
X141105505Y-74942311D02*
G01*
X141131925Y-74946230D01*
X141157835Y-74952720D01*
X141182983Y-74961718D01*
X141207128Y-74973138D01*
X141230038Y-74986869D01*
X141251492Y-75002780D01*
X141271282Y-75020718D01*
X141289220Y-75040508D01*
X141305131Y-75061962D01*
X141318862Y-75084872D01*
X141330282Y-75109017D01*
X141339280Y-75134165D01*
X141345770Y-75160075D01*
X141349689Y-75186495D01*
X141351000Y-75213173D01*
X141351000Y-76170827D01*
X141349689Y-76197505D01*
X141345770Y-76223925D01*
X141339280Y-76249835D01*
X141330282Y-76274983D01*
X141318862Y-76299128D01*
X141305131Y-76322038D01*
X141289220Y-76343492D01*
X141271282Y-76363282D01*
X141251492Y-76381220D01*
X141230038Y-76397131D01*
X141207128Y-76410862D01*
X141182983Y-76422282D01*
X141157835Y-76431280D01*
X141131925Y-76437770D01*
X141105505Y-76441689D01*
X141078827Y-76443000D01*
X140371173Y-76443000D01*
X140344495Y-76441689D01*
X140318075Y-76437770D01*
X140292165Y-76431280D01*
X140267017Y-76422282D01*
X140242872Y-76410862D01*
X140219962Y-76397131D01*
X140198508Y-76381220D01*
X140178718Y-76363282D01*
X140160780Y-76343492D01*
X140144869Y-76322038D01*
X140131138Y-76299128D01*
X140119718Y-76274983D01*
X140110720Y-76249835D01*
X140104230Y-76223925D01*
X140100311Y-76197505D01*
X140099000Y-76170827D01*
X140099000Y-75213173D01*
X140100311Y-75186495D01*
X140104230Y-75160075D01*
X140110720Y-75134165D01*
X140119718Y-75109017D01*
X140131138Y-75084872D01*
X140144869Y-75061962D01*
X140160780Y-75040508D01*
X140178718Y-75020718D01*
X140198508Y-75002780D01*
X140219962Y-74986869D01*
X140242872Y-74973138D01*
X140267017Y-74961718D01*
X140292165Y-74952720D01*
X140318075Y-74946230D01*
X140344495Y-74942311D01*
X140371173Y-74941000D01*
X141078827Y-74941000D01*
X141105505Y-74942311D01*
X141105505Y-74942311D01*
G37*
D24*
X140725000Y-75692000D03*
D18*
G36*
X139055505Y-74942311D02*
G01*
X139081925Y-74946230D01*
X139107835Y-74952720D01*
X139132983Y-74961718D01*
X139157128Y-74973138D01*
X139180038Y-74986869D01*
X139201492Y-75002780D01*
X139221282Y-75020718D01*
X139239220Y-75040508D01*
X139255131Y-75061962D01*
X139268862Y-75084872D01*
X139280282Y-75109017D01*
X139289280Y-75134165D01*
X139295770Y-75160075D01*
X139299689Y-75186495D01*
X139301000Y-75213173D01*
X139301000Y-76170827D01*
X139299689Y-76197505D01*
X139295770Y-76223925D01*
X139289280Y-76249835D01*
X139280282Y-76274983D01*
X139268862Y-76299128D01*
X139255131Y-76322038D01*
X139239220Y-76343492D01*
X139221282Y-76363282D01*
X139201492Y-76381220D01*
X139180038Y-76397131D01*
X139157128Y-76410862D01*
X139132983Y-76422282D01*
X139107835Y-76431280D01*
X139081925Y-76437770D01*
X139055505Y-76441689D01*
X139028827Y-76443000D01*
X138321173Y-76443000D01*
X138294495Y-76441689D01*
X138268075Y-76437770D01*
X138242165Y-76431280D01*
X138217017Y-76422282D01*
X138192872Y-76410862D01*
X138169962Y-76397131D01*
X138148508Y-76381220D01*
X138128718Y-76363282D01*
X138110780Y-76343492D01*
X138094869Y-76322038D01*
X138081138Y-76299128D01*
X138069718Y-76274983D01*
X138060720Y-76249835D01*
X138054230Y-76223925D01*
X138050311Y-76197505D01*
X138049000Y-76170827D01*
X138049000Y-75213173D01*
X138050311Y-75186495D01*
X138054230Y-75160075D01*
X138060720Y-75134165D01*
X138069718Y-75109017D01*
X138081138Y-75084872D01*
X138094869Y-75061962D01*
X138110780Y-75040508D01*
X138128718Y-75020718D01*
X138148508Y-75002780D01*
X138169962Y-74986869D01*
X138192872Y-74973138D01*
X138217017Y-74961718D01*
X138242165Y-74952720D01*
X138268075Y-74946230D01*
X138294495Y-74942311D01*
X138321173Y-74941000D01*
X139028827Y-74941000D01*
X139055505Y-74942311D01*
X139055505Y-74942311D01*
G37*
D24*
X138675000Y-75692000D03*
D18*
G36*
X141096505Y-70878311D02*
G01*
X141122925Y-70882230D01*
X141148835Y-70888720D01*
X141173983Y-70897718D01*
X141198128Y-70909138D01*
X141221038Y-70922869D01*
X141242492Y-70938780D01*
X141262282Y-70956718D01*
X141280220Y-70976508D01*
X141296131Y-70997962D01*
X141309862Y-71020872D01*
X141321282Y-71045017D01*
X141330280Y-71070165D01*
X141336770Y-71096075D01*
X141340689Y-71122495D01*
X141342000Y-71149173D01*
X141342000Y-72106827D01*
X141340689Y-72133505D01*
X141336770Y-72159925D01*
X141330280Y-72185835D01*
X141321282Y-72210983D01*
X141309862Y-72235128D01*
X141296131Y-72258038D01*
X141280220Y-72279492D01*
X141262282Y-72299282D01*
X141242492Y-72317220D01*
X141221038Y-72333131D01*
X141198128Y-72346862D01*
X141173983Y-72358282D01*
X141148835Y-72367280D01*
X141122925Y-72373770D01*
X141096505Y-72377689D01*
X141069827Y-72379000D01*
X140362173Y-72379000D01*
X140335495Y-72377689D01*
X140309075Y-72373770D01*
X140283165Y-72367280D01*
X140258017Y-72358282D01*
X140233872Y-72346862D01*
X140210962Y-72333131D01*
X140189508Y-72317220D01*
X140169718Y-72299282D01*
X140151780Y-72279492D01*
X140135869Y-72258038D01*
X140122138Y-72235128D01*
X140110718Y-72210983D01*
X140101720Y-72185835D01*
X140095230Y-72159925D01*
X140091311Y-72133505D01*
X140090000Y-72106827D01*
X140090000Y-71149173D01*
X140091311Y-71122495D01*
X140095230Y-71096075D01*
X140101720Y-71070165D01*
X140110718Y-71045017D01*
X140122138Y-71020872D01*
X140135869Y-70997962D01*
X140151780Y-70976508D01*
X140169718Y-70956718D01*
X140189508Y-70938780D01*
X140210962Y-70922869D01*
X140233872Y-70909138D01*
X140258017Y-70897718D01*
X140283165Y-70888720D01*
X140309075Y-70882230D01*
X140335495Y-70878311D01*
X140362173Y-70877000D01*
X141069827Y-70877000D01*
X141096505Y-70878311D01*
X141096505Y-70878311D01*
G37*
D24*
X140716000Y-71628000D03*
D18*
G36*
X139046505Y-70878311D02*
G01*
X139072925Y-70882230D01*
X139098835Y-70888720D01*
X139123983Y-70897718D01*
X139148128Y-70909138D01*
X139171038Y-70922869D01*
X139192492Y-70938780D01*
X139212282Y-70956718D01*
X139230220Y-70976508D01*
X139246131Y-70997962D01*
X139259862Y-71020872D01*
X139271282Y-71045017D01*
X139280280Y-71070165D01*
X139286770Y-71096075D01*
X139290689Y-71122495D01*
X139292000Y-71149173D01*
X139292000Y-72106827D01*
X139290689Y-72133505D01*
X139286770Y-72159925D01*
X139280280Y-72185835D01*
X139271282Y-72210983D01*
X139259862Y-72235128D01*
X139246131Y-72258038D01*
X139230220Y-72279492D01*
X139212282Y-72299282D01*
X139192492Y-72317220D01*
X139171038Y-72333131D01*
X139148128Y-72346862D01*
X139123983Y-72358282D01*
X139098835Y-72367280D01*
X139072925Y-72373770D01*
X139046505Y-72377689D01*
X139019827Y-72379000D01*
X138312173Y-72379000D01*
X138285495Y-72377689D01*
X138259075Y-72373770D01*
X138233165Y-72367280D01*
X138208017Y-72358282D01*
X138183872Y-72346862D01*
X138160962Y-72333131D01*
X138139508Y-72317220D01*
X138119718Y-72299282D01*
X138101780Y-72279492D01*
X138085869Y-72258038D01*
X138072138Y-72235128D01*
X138060718Y-72210983D01*
X138051720Y-72185835D01*
X138045230Y-72159925D01*
X138041311Y-72133505D01*
X138040000Y-72106827D01*
X138040000Y-71149173D01*
X138041311Y-71122495D01*
X138045230Y-71096075D01*
X138051720Y-71070165D01*
X138060718Y-71045017D01*
X138072138Y-71020872D01*
X138085869Y-70997962D01*
X138101780Y-70976508D01*
X138119718Y-70956718D01*
X138139508Y-70938780D01*
X138160962Y-70922869D01*
X138183872Y-70909138D01*
X138208017Y-70897718D01*
X138233165Y-70888720D01*
X138259075Y-70882230D01*
X138285495Y-70878311D01*
X138312173Y-70877000D01*
X139019827Y-70877000D01*
X139046505Y-70878311D01*
X139046505Y-70878311D01*
G37*
D24*
X138666000Y-71628000D03*
D18*
G36*
X125847505Y-58559311D02*
G01*
X125873925Y-58563230D01*
X125899835Y-58569720D01*
X125924983Y-58578718D01*
X125949128Y-58590138D01*
X125972038Y-58603869D01*
X125993492Y-58619780D01*
X126013282Y-58637718D01*
X126031220Y-58657508D01*
X126047131Y-58678962D01*
X126060862Y-58701872D01*
X126072282Y-58726017D01*
X126081280Y-58751165D01*
X126087770Y-58777075D01*
X126091689Y-58803495D01*
X126093000Y-58830173D01*
X126093000Y-59787827D01*
X126091689Y-59814505D01*
X126087770Y-59840925D01*
X126081280Y-59866835D01*
X126072282Y-59891983D01*
X126060862Y-59916128D01*
X126047131Y-59939038D01*
X126031220Y-59960492D01*
X126013282Y-59980282D01*
X125993492Y-59998220D01*
X125972038Y-60014131D01*
X125949128Y-60027862D01*
X125924983Y-60039282D01*
X125899835Y-60048280D01*
X125873925Y-60054770D01*
X125847505Y-60058689D01*
X125820827Y-60060000D01*
X125113173Y-60060000D01*
X125086495Y-60058689D01*
X125060075Y-60054770D01*
X125034165Y-60048280D01*
X125009017Y-60039282D01*
X124984872Y-60027862D01*
X124961962Y-60014131D01*
X124940508Y-59998220D01*
X124920718Y-59980282D01*
X124902780Y-59960492D01*
X124886869Y-59939038D01*
X124873138Y-59916128D01*
X124861718Y-59891983D01*
X124852720Y-59866835D01*
X124846230Y-59840925D01*
X124842311Y-59814505D01*
X124841000Y-59787827D01*
X124841000Y-58830173D01*
X124842311Y-58803495D01*
X124846230Y-58777075D01*
X124852720Y-58751165D01*
X124861718Y-58726017D01*
X124873138Y-58701872D01*
X124886869Y-58678962D01*
X124902780Y-58657508D01*
X124920718Y-58637718D01*
X124940508Y-58619780D01*
X124961962Y-58603869D01*
X124984872Y-58590138D01*
X125009017Y-58578718D01*
X125034165Y-58569720D01*
X125060075Y-58563230D01*
X125086495Y-58559311D01*
X125113173Y-58558000D01*
X125820827Y-58558000D01*
X125847505Y-58559311D01*
X125847505Y-58559311D01*
G37*
D24*
X125467000Y-59309000D03*
D18*
G36*
X127897505Y-58559311D02*
G01*
X127923925Y-58563230D01*
X127949835Y-58569720D01*
X127974983Y-58578718D01*
X127999128Y-58590138D01*
X128022038Y-58603869D01*
X128043492Y-58619780D01*
X128063282Y-58637718D01*
X128081220Y-58657508D01*
X128097131Y-58678962D01*
X128110862Y-58701872D01*
X128122282Y-58726017D01*
X128131280Y-58751165D01*
X128137770Y-58777075D01*
X128141689Y-58803495D01*
X128143000Y-58830173D01*
X128143000Y-59787827D01*
X128141689Y-59814505D01*
X128137770Y-59840925D01*
X128131280Y-59866835D01*
X128122282Y-59891983D01*
X128110862Y-59916128D01*
X128097131Y-59939038D01*
X128081220Y-59960492D01*
X128063282Y-59980282D01*
X128043492Y-59998220D01*
X128022038Y-60014131D01*
X127999128Y-60027862D01*
X127974983Y-60039282D01*
X127949835Y-60048280D01*
X127923925Y-60054770D01*
X127897505Y-60058689D01*
X127870827Y-60060000D01*
X127163173Y-60060000D01*
X127136495Y-60058689D01*
X127110075Y-60054770D01*
X127084165Y-60048280D01*
X127059017Y-60039282D01*
X127034872Y-60027862D01*
X127011962Y-60014131D01*
X126990508Y-59998220D01*
X126970718Y-59980282D01*
X126952780Y-59960492D01*
X126936869Y-59939038D01*
X126923138Y-59916128D01*
X126911718Y-59891983D01*
X126902720Y-59866835D01*
X126896230Y-59840925D01*
X126892311Y-59814505D01*
X126891000Y-59787827D01*
X126891000Y-58830173D01*
X126892311Y-58803495D01*
X126896230Y-58777075D01*
X126902720Y-58751165D01*
X126911718Y-58726017D01*
X126923138Y-58701872D01*
X126936869Y-58678962D01*
X126952780Y-58657508D01*
X126970718Y-58637718D01*
X126990508Y-58619780D01*
X127011962Y-58603869D01*
X127034872Y-58590138D01*
X127059017Y-58578718D01*
X127084165Y-58569720D01*
X127110075Y-58563230D01*
X127136495Y-58559311D01*
X127163173Y-58558000D01*
X127870827Y-58558000D01*
X127897505Y-58559311D01*
X127897505Y-58559311D01*
G37*
D24*
X127517000Y-59309000D03*
D18*
G36*
X131950505Y-78886311D02*
G01*
X131976925Y-78890230D01*
X132002835Y-78896720D01*
X132027983Y-78905718D01*
X132052128Y-78917138D01*
X132075038Y-78930869D01*
X132096492Y-78946780D01*
X132116282Y-78964718D01*
X132134220Y-78984508D01*
X132150131Y-79005962D01*
X132163862Y-79028872D01*
X132175282Y-79053017D01*
X132184280Y-79078165D01*
X132190770Y-79104075D01*
X132194689Y-79130495D01*
X132196000Y-79157173D01*
X132196000Y-79864827D01*
X132194689Y-79891505D01*
X132190770Y-79917925D01*
X132184280Y-79943835D01*
X132175282Y-79968983D01*
X132163862Y-79993128D01*
X132150131Y-80016038D01*
X132134220Y-80037492D01*
X132116282Y-80057282D01*
X132096492Y-80075220D01*
X132075038Y-80091131D01*
X132052128Y-80104862D01*
X132027983Y-80116282D01*
X132002835Y-80125280D01*
X131976925Y-80131770D01*
X131950505Y-80135689D01*
X131923827Y-80137000D01*
X130966173Y-80137000D01*
X130939495Y-80135689D01*
X130913075Y-80131770D01*
X130887165Y-80125280D01*
X130862017Y-80116282D01*
X130837872Y-80104862D01*
X130814962Y-80091131D01*
X130793508Y-80075220D01*
X130773718Y-80057282D01*
X130755780Y-80037492D01*
X130739869Y-80016038D01*
X130726138Y-79993128D01*
X130714718Y-79968983D01*
X130705720Y-79943835D01*
X130699230Y-79917925D01*
X130695311Y-79891505D01*
X130694000Y-79864827D01*
X130694000Y-79157173D01*
X130695311Y-79130495D01*
X130699230Y-79104075D01*
X130705720Y-79078165D01*
X130714718Y-79053017D01*
X130726138Y-79028872D01*
X130739869Y-79005962D01*
X130755780Y-78984508D01*
X130773718Y-78964718D01*
X130793508Y-78946780D01*
X130814962Y-78930869D01*
X130837872Y-78917138D01*
X130862017Y-78905718D01*
X130887165Y-78896720D01*
X130913075Y-78890230D01*
X130939495Y-78886311D01*
X130966173Y-78885000D01*
X131923827Y-78885000D01*
X131950505Y-78886311D01*
X131950505Y-78886311D01*
G37*
D24*
X131445000Y-79511000D03*
D18*
G36*
X131950505Y-76836311D02*
G01*
X131976925Y-76840230D01*
X132002835Y-76846720D01*
X132027983Y-76855718D01*
X132052128Y-76867138D01*
X132075038Y-76880869D01*
X132096492Y-76896780D01*
X132116282Y-76914718D01*
X132134220Y-76934508D01*
X132150131Y-76955962D01*
X132163862Y-76978872D01*
X132175282Y-77003017D01*
X132184280Y-77028165D01*
X132190770Y-77054075D01*
X132194689Y-77080495D01*
X132196000Y-77107173D01*
X132196000Y-77814827D01*
X132194689Y-77841505D01*
X132190770Y-77867925D01*
X132184280Y-77893835D01*
X132175282Y-77918983D01*
X132163862Y-77943128D01*
X132150131Y-77966038D01*
X132134220Y-77987492D01*
X132116282Y-78007282D01*
X132096492Y-78025220D01*
X132075038Y-78041131D01*
X132052128Y-78054862D01*
X132027983Y-78066282D01*
X132002835Y-78075280D01*
X131976925Y-78081770D01*
X131950505Y-78085689D01*
X131923827Y-78087000D01*
X130966173Y-78087000D01*
X130939495Y-78085689D01*
X130913075Y-78081770D01*
X130887165Y-78075280D01*
X130862017Y-78066282D01*
X130837872Y-78054862D01*
X130814962Y-78041131D01*
X130793508Y-78025220D01*
X130773718Y-78007282D01*
X130755780Y-77987492D01*
X130739869Y-77966038D01*
X130726138Y-77943128D01*
X130714718Y-77918983D01*
X130705720Y-77893835D01*
X130699230Y-77867925D01*
X130695311Y-77841505D01*
X130694000Y-77814827D01*
X130694000Y-77107173D01*
X130695311Y-77080495D01*
X130699230Y-77054075D01*
X130705720Y-77028165D01*
X130714718Y-77003017D01*
X130726138Y-76978872D01*
X130739869Y-76955962D01*
X130755780Y-76934508D01*
X130773718Y-76914718D01*
X130793508Y-76896780D01*
X130814962Y-76880869D01*
X130837872Y-76867138D01*
X130862017Y-76855718D01*
X130887165Y-76846720D01*
X130913075Y-76840230D01*
X130939495Y-76836311D01*
X130966173Y-76835000D01*
X131923827Y-76835000D01*
X131950505Y-76836311D01*
X131950505Y-76836311D01*
G37*
D24*
X131445000Y-77461000D03*
D30*
X127944880Y-85984080D03*
X131643120Y-85984080D03*
X131643120Y-83687920D03*
X127944880Y-83687920D03*
M02*
