G04 #@! TF.GenerationSoftware,KiCad,Pcbnew,5.1.0-060a0da~80~ubuntu18.10.1*
G04 #@! TF.CreationDate,2019-03-23T20:01:21+01:00*
G04 #@! TF.ProjectId,project-embeddedSystemDesign2,70726f6a-6563-4742-9d65-6d6265646465,rev?*
G04 #@! TF.SameCoordinates,Original*
G04 #@! TF.FileFunction,Legend,Bot*
G04 #@! TF.FilePolarity,Positive*
%FSLAX46Y46*%
G04 Gerber Fmt 4.6, Leading zero omitted, Abs format (unit mm)*
G04 Created by KiCad (PCBNEW 5.1.0-060a0da~80~ubuntu18.10.1) date 2019-03-23 20:01:21*
%MOMM*%
%LPD*%
G04 APERTURE LIST*
%ADD10C,2.082800*%
%ADD11R,2.082800X2.082800*%
%ADD12O,1.802000X1.802000*%
%ADD13R,1.802000X1.802000*%
%ADD14O,1.702000X1.702000*%
%ADD15R,1.702000X1.702000*%
%ADD16C,3.102000*%
G04 APERTURE END LIST*
%LPC*%
D10*
X109397800Y-100330000D03*
D11*
X106502200Y-100330000D03*
D10*
X119380000Y-100203000D03*
X116840000Y-100457000D03*
D11*
X114300000Y-100203000D03*
D12*
X110490000Y-55880000D03*
X107950000Y-55880000D03*
X110490000Y-58420000D03*
D13*
X107950000Y-58420000D03*
D10*
X146050000Y-41910000D03*
X143510000Y-42164000D03*
X140970000Y-41910000D03*
X138430000Y-42164000D03*
X135890000Y-41910000D03*
X133350000Y-42164000D03*
D11*
X130810000Y-41910000D03*
X115570000Y-55880000D03*
D12*
X110490000Y-50800000D03*
D13*
X107950000Y-50800000D03*
D10*
X147066000Y-66040000D03*
X147320000Y-68580000D03*
D11*
X147066000Y-71120000D03*
D12*
X102870000Y-93980000D03*
X100330000Y-93980000D03*
X102870000Y-91440000D03*
D13*
X100330000Y-91440000D03*
D12*
X153670000Y-93980000D03*
X151130000Y-93980000D03*
X153670000Y-91440000D03*
D13*
X151130000Y-91440000D03*
D12*
X102870000Y-76200000D03*
X100330000Y-76200000D03*
X102870000Y-73660000D03*
X100330000Y-73660000D03*
X102870000Y-71120000D03*
X100330000Y-71120000D03*
X102870000Y-68580000D03*
X100330000Y-68580000D03*
X102870000Y-66040000D03*
X100330000Y-66040000D03*
X102870000Y-63500000D03*
X100330000Y-63500000D03*
X102870000Y-60960000D03*
X100330000Y-60960000D03*
X102870000Y-58420000D03*
X100330000Y-58420000D03*
X102870000Y-55880000D03*
D13*
X100330000Y-55880000D03*
D12*
X153670000Y-63500000D03*
X151130000Y-63500000D03*
X153670000Y-60960000D03*
X151130000Y-60960000D03*
X153670000Y-58420000D03*
X151130000Y-58420000D03*
X153670000Y-55880000D03*
D13*
X151130000Y-55880000D03*
D10*
X142240000Y-60960000D03*
X139700000Y-60706000D03*
X137160000Y-60960000D03*
D11*
X134620000Y-60706000D03*
D14*
X125730000Y-41910000D03*
X115570000Y-49530000D03*
X125730000Y-44450000D03*
X115570000Y-46990000D03*
X125730000Y-46990000D03*
X115570000Y-44450000D03*
X125730000Y-49530000D03*
D15*
X115570000Y-41910000D03*
D16*
X152400000Y-100330000D03*
X101600000Y-100330000D03*
X101600000Y-43180000D03*
M02*
