G04 #@! TF.GenerationSoftware,KiCad,Pcbnew,5.1.0-060a0da~80~ubuntu18.10.1*
G04 #@! TF.CreationDate,2019-03-23T20:01:21+01:00*
G04 #@! TF.ProjectId,project-embeddedSystemDesign2,70726f6a-6563-4742-9d65-6d6265646465,rev?*
G04 #@! TF.SameCoordinates,Original*
G04 #@! TF.FileFunction,Copper,L2,Bot*
G04 #@! TF.FilePolarity,Positive*
%FSLAX46Y46*%
G04 Gerber Fmt 4.6, Leading zero omitted, Abs format (unit mm)*
G04 Created by KiCad (PCBNEW 5.1.0-060a0da~80~ubuntu18.10.1) date 2019-03-23 20:01:21*
%MOMM*%
%LPD*%
G04 APERTURE LIST*
%ADD10C,1.879600*%
%ADD11R,1.879600X1.879600*%
%ADD12O,1.700000X1.700000*%
%ADD13R,1.700000X1.700000*%
%ADD14O,1.600000X1.600000*%
%ADD15R,1.600000X1.600000*%
%ADD16C,1.727200*%
%ADD17C,1.016000*%
%ADD18C,0.254000*%
G04 APERTURE END LIST*
D10*
X109397800Y-100330000D03*
D11*
X106502200Y-100330000D03*
D10*
X119380000Y-100203000D03*
X116840000Y-100457000D03*
D11*
X114300000Y-100203000D03*
D12*
X110490000Y-55880000D03*
X107950000Y-55880000D03*
X110490000Y-58420000D03*
D13*
X107950000Y-58420000D03*
D10*
X146050000Y-41910000D03*
X143510000Y-42164000D03*
X140970000Y-41910000D03*
X138430000Y-42164000D03*
X135890000Y-41910000D03*
X133350000Y-42164000D03*
D11*
X130810000Y-41910000D03*
X115570000Y-55880000D03*
D12*
X110490000Y-50800000D03*
D13*
X107950000Y-50800000D03*
D10*
X147066000Y-66040000D03*
X147320000Y-68580000D03*
D11*
X147066000Y-71120000D03*
D12*
X102870000Y-93980000D03*
X100330000Y-93980000D03*
X102870000Y-91440000D03*
D13*
X100330000Y-91440000D03*
D12*
X153670000Y-93980000D03*
X151130000Y-93980000D03*
X153670000Y-91440000D03*
D13*
X151130000Y-91440000D03*
D12*
X102870000Y-76200000D03*
X100330000Y-76200000D03*
X102870000Y-73660000D03*
X100330000Y-73660000D03*
X102870000Y-71120000D03*
X100330000Y-71120000D03*
X102870000Y-68580000D03*
X100330000Y-68580000D03*
X102870000Y-66040000D03*
X100330000Y-66040000D03*
X102870000Y-63500000D03*
X100330000Y-63500000D03*
X102870000Y-60960000D03*
X100330000Y-60960000D03*
X102870000Y-58420000D03*
X100330000Y-58420000D03*
X102870000Y-55880000D03*
D13*
X100330000Y-55880000D03*
D12*
X153670000Y-63500000D03*
X151130000Y-63500000D03*
X153670000Y-60960000D03*
X151130000Y-60960000D03*
X153670000Y-58420000D03*
X151130000Y-58420000D03*
X153670000Y-55880000D03*
D13*
X151130000Y-55880000D03*
D10*
X142240000Y-60960000D03*
X139700000Y-60706000D03*
X137160000Y-60960000D03*
D11*
X134620000Y-60706000D03*
D14*
X125730000Y-41910000D03*
X115570000Y-49530000D03*
X125730000Y-44450000D03*
X115570000Y-46990000D03*
X125730000Y-46990000D03*
X115570000Y-44450000D03*
X125730000Y-49530000D03*
D15*
X115570000Y-41910000D03*
D16*
X121920000Y-82042000D03*
X133477000Y-88646000D03*
X143002000Y-76962000D03*
X143002000Y-70358000D03*
X124460000Y-56642000D03*
X133985000Y-81280000D03*
X109728000Y-68834000D03*
X150114000Y-48260000D03*
X111379000Y-76454000D03*
X111379000Y-81153000D03*
X121920000Y-88646000D03*
X110236000Y-91440000D03*
X140970000Y-55499000D03*
X120015000Y-51816000D03*
X137287000Y-51181000D03*
X114173000Y-64770000D03*
X127000000Y-56642000D03*
X136144000Y-71374000D03*
X134620000Y-78105000D03*
X138684000Y-65532000D03*
X110236000Y-84074000D03*
X103378000Y-84074000D03*
X141224000Y-65532000D03*
X110236000Y-86614000D03*
X102870000Y-86614000D03*
X118110000Y-60960000D03*
X109855000Y-73660000D03*
X116713000Y-65278000D03*
X138430000Y-49022000D03*
X120396000Y-61341000D03*
X128397000Y-44450000D03*
X133350000Y-46736000D03*
X113157000Y-53467000D03*
X117856000Y-42037000D03*
X107315000Y-73025000D03*
X105410000Y-71120000D03*
D17*
X110490000Y-50800000D02*
X110490000Y-55880000D01*
X110490000Y-55880000D02*
X110490000Y-58420000D01*
X100330000Y-58420000D02*
X102870000Y-58420000D01*
X100330000Y-55880000D02*
X102870000Y-55880000D01*
X102870000Y-55880000D02*
X107950000Y-55880000D01*
X107950000Y-55880000D02*
X107950000Y-50800000D01*
X107950000Y-58420000D02*
X107950000Y-55880000D01*
X140970000Y-53340000D02*
X143510000Y-50800000D01*
X143510000Y-50800000D02*
X143510000Y-42037000D01*
X136144000Y-76581000D02*
X134620000Y-78105000D01*
X136144000Y-71374000D02*
X136144000Y-76581000D01*
X107950000Y-55880000D02*
X107950000Y-54610000D01*
X107950000Y-58420000D02*
X107950000Y-60960000D01*
X107950000Y-60960000D02*
X110490000Y-63500000D01*
X125730000Y-63500000D02*
X127000000Y-62230000D01*
X131064000Y-71374000D02*
X123190000Y-63500000D01*
X136144000Y-71374000D02*
X131064000Y-71374000D01*
X123190000Y-63500000D02*
X125730000Y-63500000D01*
X110490000Y-63500000D02*
X116840000Y-63500000D01*
X116840000Y-63500000D02*
X123190000Y-63500000D01*
X112903000Y-63500000D02*
X114173000Y-64770000D01*
X110490000Y-63500000D02*
X112903000Y-63500000D01*
X127000000Y-62230000D02*
X127000000Y-56642000D01*
X130302000Y-53340000D02*
X127000000Y-56642000D01*
X140970000Y-53340000D02*
X130302000Y-53340000D01*
D18*
X138684000Y-65532000D02*
X138684000Y-81280000D01*
X138684000Y-81280000D02*
X135890000Y-84074000D01*
X135890000Y-84074000D02*
X110236000Y-84074000D01*
X110236000Y-84074000D02*
X110236000Y-84074000D01*
X103378000Y-84074000D02*
X103378000Y-78613000D01*
X102870000Y-78105000D02*
X102870000Y-76200000D01*
X103378000Y-78613000D02*
X102870000Y-78105000D01*
X141224000Y-65532000D02*
X141224000Y-81280000D01*
X141224000Y-81280000D02*
X135890000Y-86614000D01*
X135890000Y-86614000D02*
X110236000Y-86614000D01*
X110236000Y-86614000D02*
X110236000Y-86614000D01*
X102870000Y-86614000D02*
X102489000Y-86614000D01*
X102489000Y-86614000D02*
X101600000Y-85725000D01*
X101600000Y-74930000D02*
X102870000Y-73660000D01*
X101600000Y-85725000D02*
X101600000Y-74930000D01*
X124079000Y-41910000D02*
X125730000Y-41910000D01*
X122809000Y-43180000D02*
X124079000Y-41910000D01*
X118110000Y-60960000D02*
X118110000Y-51308000D01*
X122809000Y-46609000D02*
X122809000Y-43180000D01*
X118110000Y-51308000D02*
X122809000Y-46609000D01*
X114300000Y-97790000D02*
X114300000Y-100330000D01*
X109474000Y-96266000D02*
X112776000Y-96266000D01*
X107950000Y-94742000D02*
X109474000Y-96266000D01*
X109855000Y-73660000D02*
X107950000Y-75565000D01*
X112776000Y-96266000D02*
X114300000Y-97790000D01*
X107950000Y-75565000D02*
X107950000Y-94742000D01*
X116713000Y-66421000D02*
X116713000Y-65278000D01*
X101346000Y-67310000D02*
X115824000Y-67310000D01*
X115824000Y-67310000D02*
X116713000Y-66421000D01*
X100330000Y-66040000D02*
X100330000Y-66294000D01*
X100330000Y-66294000D02*
X101346000Y-67310000D01*
X136398000Y-49022000D02*
X138430000Y-49022000D01*
X120396000Y-61341000D02*
X120396000Y-56134000D01*
X120396000Y-56134000D02*
X124460000Y-52070000D01*
X124460000Y-52070000D02*
X127381000Y-52070000D01*
X135001000Y-50419000D02*
X136398000Y-49022000D01*
X127381000Y-52070000D02*
X129032000Y-50419000D01*
X129032000Y-50419000D02*
X135001000Y-50419000D01*
X130683000Y-46736000D02*
X128397000Y-44450000D01*
X133350000Y-46736000D02*
X130683000Y-46736000D01*
X113157000Y-43053000D02*
X114300000Y-41910000D01*
X114300000Y-41910000D02*
X115570000Y-41910000D01*
X113157000Y-53467000D02*
X113157000Y-43053000D01*
X117856000Y-42037000D02*
X117856000Y-48895000D01*
X117221000Y-49530000D02*
X115570000Y-49530000D01*
X117856000Y-48895000D02*
X117221000Y-49530000D01*
X107315000Y-73025000D02*
X107315000Y-73914000D01*
X107315000Y-73914000D02*
X106426000Y-74803000D01*
X106426000Y-74803000D02*
X106426000Y-95504000D01*
X109397800Y-98475800D02*
X109397800Y-100330000D01*
X106426000Y-95504000D02*
X109397800Y-98475800D01*
X106680000Y-100152200D02*
X106502200Y-100330000D01*
X105410000Y-71120000D02*
X105410000Y-96520000D01*
X106502200Y-97612200D02*
X106502200Y-100330000D01*
X105410000Y-96520000D02*
X106502200Y-97612200D01*
G36*
X155550000Y-103480000D02*
G01*
X98450000Y-103480000D01*
X98450000Y-100119721D01*
X99465000Y-100119721D01*
X99465000Y-100540279D01*
X99547047Y-100952756D01*
X99707988Y-101341302D01*
X99941637Y-101690983D01*
X100239017Y-101988363D01*
X100588698Y-102222012D01*
X100977244Y-102382953D01*
X101389721Y-102465000D01*
X101810279Y-102465000D01*
X102222756Y-102382953D01*
X102611302Y-102222012D01*
X102960983Y-101988363D01*
X103258363Y-101690983D01*
X103492012Y-101341302D01*
X103652953Y-100952756D01*
X103735000Y-100540279D01*
X103735000Y-100119721D01*
X103652953Y-99707244D01*
X103492012Y-99318698D01*
X103258363Y-98969017D01*
X102960983Y-98671637D01*
X102611302Y-98437988D01*
X102222756Y-98277047D01*
X101810279Y-98195000D01*
X101389721Y-98195000D01*
X100977244Y-98277047D01*
X100588698Y-98437988D01*
X100239017Y-98671637D01*
X99941637Y-98969017D01*
X99707988Y-99318698D01*
X99547047Y-99707244D01*
X99465000Y-100119721D01*
X98450000Y-100119721D01*
X98450000Y-93980000D01*
X98837815Y-93980000D01*
X98866487Y-94271111D01*
X98951401Y-94551034D01*
X99089294Y-94809014D01*
X99274866Y-95035134D01*
X99500986Y-95220706D01*
X99758966Y-95358599D01*
X100038889Y-95443513D01*
X100257050Y-95465000D01*
X100402950Y-95465000D01*
X100621111Y-95443513D01*
X100901034Y-95358599D01*
X101159014Y-95220706D01*
X101385134Y-95035134D01*
X101570706Y-94809014D01*
X101600000Y-94754209D01*
X101629294Y-94809014D01*
X101814866Y-95035134D01*
X102040986Y-95220706D01*
X102298966Y-95358599D01*
X102578889Y-95443513D01*
X102797050Y-95465000D01*
X102942950Y-95465000D01*
X103161111Y-95443513D01*
X103441034Y-95358599D01*
X103699014Y-95220706D01*
X103925134Y-95035134D01*
X104110706Y-94809014D01*
X104248599Y-94551034D01*
X104333513Y-94271111D01*
X104362185Y-93980000D01*
X104333513Y-93688889D01*
X104248599Y-93408966D01*
X104110706Y-93150986D01*
X103925134Y-92924866D01*
X103699014Y-92739294D01*
X103634477Y-92704799D01*
X103751355Y-92635178D01*
X103967588Y-92440269D01*
X104141641Y-92206920D01*
X104266825Y-91944099D01*
X104311476Y-91796890D01*
X104190155Y-91567000D01*
X102997000Y-91567000D01*
X102997000Y-91587000D01*
X102743000Y-91587000D01*
X102743000Y-91567000D01*
X100457000Y-91567000D01*
X100457000Y-91587000D01*
X100203000Y-91587000D01*
X100203000Y-91567000D01*
X99003750Y-91567000D01*
X98845000Y-91725750D01*
X98841928Y-92290000D01*
X98854188Y-92414482D01*
X98890498Y-92534180D01*
X98949463Y-92644494D01*
X99028815Y-92741185D01*
X99125506Y-92820537D01*
X99235820Y-92879502D01*
X99304687Y-92900393D01*
X99274866Y-92924866D01*
X99089294Y-93150986D01*
X98951401Y-93408966D01*
X98866487Y-93688889D01*
X98837815Y-93980000D01*
X98450000Y-93980000D01*
X98450000Y-90590000D01*
X98841928Y-90590000D01*
X98845000Y-91154250D01*
X99003750Y-91313000D01*
X100203000Y-91313000D01*
X100203000Y-90113750D01*
X100457000Y-90113750D01*
X100457000Y-91313000D01*
X102743000Y-91313000D01*
X102743000Y-90119186D01*
X102997000Y-90119186D01*
X102997000Y-91313000D01*
X104190155Y-91313000D01*
X104311476Y-91083110D01*
X104266825Y-90935901D01*
X104141641Y-90673080D01*
X103967588Y-90439731D01*
X103751355Y-90244822D01*
X103501252Y-90095843D01*
X103226891Y-89998519D01*
X102997000Y-90119186D01*
X102743000Y-90119186D01*
X102513109Y-89998519D01*
X102238748Y-90095843D01*
X101988645Y-90244822D01*
X101792498Y-90421626D01*
X101769502Y-90345820D01*
X101710537Y-90235506D01*
X101631185Y-90138815D01*
X101534494Y-90059463D01*
X101424180Y-90000498D01*
X101304482Y-89964188D01*
X101180000Y-89951928D01*
X100615750Y-89955000D01*
X100457000Y-90113750D01*
X100203000Y-90113750D01*
X100044250Y-89955000D01*
X99480000Y-89951928D01*
X99355518Y-89964188D01*
X99235820Y-90000498D01*
X99125506Y-90059463D01*
X99028815Y-90138815D01*
X98949463Y-90235506D01*
X98890498Y-90345820D01*
X98854188Y-90465518D01*
X98841928Y-90590000D01*
X98450000Y-90590000D01*
X98450000Y-60960000D01*
X98837815Y-60960000D01*
X98866487Y-61251111D01*
X98951401Y-61531034D01*
X99089294Y-61789014D01*
X99274866Y-62015134D01*
X99500986Y-62200706D01*
X99555791Y-62230000D01*
X99500986Y-62259294D01*
X99274866Y-62444866D01*
X99089294Y-62670986D01*
X98951401Y-62928966D01*
X98866487Y-63208889D01*
X98837815Y-63500000D01*
X98866487Y-63791111D01*
X98951401Y-64071034D01*
X99089294Y-64329014D01*
X99274866Y-64555134D01*
X99500986Y-64740706D01*
X99555791Y-64770000D01*
X99500986Y-64799294D01*
X99274866Y-64984866D01*
X99089294Y-65210986D01*
X98951401Y-65468966D01*
X98866487Y-65748889D01*
X98837815Y-66040000D01*
X98866487Y-66331111D01*
X98951401Y-66611034D01*
X99089294Y-66869014D01*
X99274866Y-67095134D01*
X99500986Y-67280706D01*
X99555791Y-67310000D01*
X99500986Y-67339294D01*
X99274866Y-67524866D01*
X99089294Y-67750986D01*
X98951401Y-68008966D01*
X98866487Y-68288889D01*
X98837815Y-68580000D01*
X98866487Y-68871111D01*
X98951401Y-69151034D01*
X99089294Y-69409014D01*
X99274866Y-69635134D01*
X99500986Y-69820706D01*
X99555791Y-69850000D01*
X99500986Y-69879294D01*
X99274866Y-70064866D01*
X99089294Y-70290986D01*
X98951401Y-70548966D01*
X98866487Y-70828889D01*
X98837815Y-71120000D01*
X98866487Y-71411111D01*
X98951401Y-71691034D01*
X99089294Y-71949014D01*
X99274866Y-72175134D01*
X99500986Y-72360706D01*
X99555791Y-72390000D01*
X99500986Y-72419294D01*
X99274866Y-72604866D01*
X99089294Y-72830986D01*
X98951401Y-73088966D01*
X98866487Y-73368889D01*
X98837815Y-73660000D01*
X98866487Y-73951111D01*
X98951401Y-74231034D01*
X99089294Y-74489014D01*
X99274866Y-74715134D01*
X99500986Y-74900706D01*
X99555791Y-74930000D01*
X99500986Y-74959294D01*
X99274866Y-75144866D01*
X99089294Y-75370986D01*
X98951401Y-75628966D01*
X98866487Y-75908889D01*
X98837815Y-76200000D01*
X98866487Y-76491111D01*
X98951401Y-76771034D01*
X99089294Y-77029014D01*
X99274866Y-77255134D01*
X99500986Y-77440706D01*
X99758966Y-77578599D01*
X100038889Y-77663513D01*
X100257050Y-77685000D01*
X100402950Y-77685000D01*
X100621111Y-77663513D01*
X100838001Y-77597720D01*
X100838000Y-85687577D01*
X100834314Y-85725000D01*
X100838000Y-85762423D01*
X100838000Y-85762425D01*
X100849026Y-85874377D01*
X100892598Y-86018014D01*
X100892599Y-86018015D01*
X100963355Y-86150392D01*
X100994718Y-86188607D01*
X101058578Y-86266422D01*
X101087653Y-86290284D01*
X101371400Y-86574030D01*
X101371400Y-86761599D01*
X101428990Y-87051125D01*
X101541958Y-87323853D01*
X101705961Y-87569302D01*
X101914698Y-87778039D01*
X102160147Y-87942042D01*
X102432875Y-88055010D01*
X102722401Y-88112600D01*
X103017599Y-88112600D01*
X103307125Y-88055010D01*
X103579853Y-87942042D01*
X103825302Y-87778039D01*
X104034039Y-87569302D01*
X104198042Y-87323853D01*
X104311010Y-87051125D01*
X104368600Y-86761599D01*
X104368600Y-86466401D01*
X104311010Y-86176875D01*
X104198042Y-85904147D01*
X104034039Y-85658698D01*
X103868318Y-85492977D01*
X104087853Y-85402042D01*
X104333302Y-85238039D01*
X104542039Y-85029302D01*
X104648001Y-84870719D01*
X104648001Y-96482567D01*
X104644314Y-96520000D01*
X104659027Y-96669378D01*
X104702599Y-96813015D01*
X104773355Y-96945392D01*
X104838125Y-97024314D01*
X104868579Y-97061422D01*
X104897649Y-97085279D01*
X105740200Y-97927831D01*
X105740200Y-98752128D01*
X105562400Y-98752128D01*
X105437918Y-98764388D01*
X105318220Y-98800698D01*
X105207906Y-98859663D01*
X105111215Y-98939015D01*
X105031863Y-99035706D01*
X104972898Y-99146020D01*
X104936588Y-99265718D01*
X104924328Y-99390200D01*
X104924328Y-101269800D01*
X104936588Y-101394282D01*
X104972898Y-101513980D01*
X105031863Y-101624294D01*
X105111215Y-101720985D01*
X105207906Y-101800337D01*
X105318220Y-101859302D01*
X105437918Y-101895612D01*
X105562400Y-101907872D01*
X107442000Y-101907872D01*
X107566482Y-101895612D01*
X107686180Y-101859302D01*
X107796494Y-101800337D01*
X107893185Y-101720985D01*
X107972537Y-101624294D01*
X108031502Y-101513980D01*
X108067812Y-101394282D01*
X108080072Y-101269800D01*
X108080072Y-101192447D01*
X108174573Y-101333877D01*
X108393923Y-101553227D01*
X108651852Y-101725570D01*
X108938448Y-101844282D01*
X109242696Y-101904800D01*
X109552904Y-101904800D01*
X109857152Y-101844282D01*
X110143748Y-101725570D01*
X110401677Y-101553227D01*
X110621027Y-101333877D01*
X110793370Y-101075948D01*
X110912082Y-100789352D01*
X110972600Y-100485104D01*
X110972600Y-100174896D01*
X110912082Y-99870648D01*
X110793370Y-99584052D01*
X110621027Y-99326123D01*
X110401677Y-99106773D01*
X110159800Y-98945156D01*
X110159800Y-98513223D01*
X110163486Y-98475800D01*
X110159762Y-98437988D01*
X110148774Y-98326422D01*
X110105202Y-98182785D01*
X110034446Y-98050409D01*
X110034445Y-98050407D01*
X109963079Y-97963448D01*
X109939222Y-97934378D01*
X109910153Y-97910522D01*
X107188000Y-95188370D01*
X107188000Y-94779423D01*
X107199027Y-94891378D01*
X107242599Y-95035015D01*
X107313355Y-95167392D01*
X107384721Y-95254351D01*
X107408579Y-95283422D01*
X107437649Y-95307279D01*
X108908720Y-96778351D01*
X108932578Y-96807422D01*
X109048608Y-96902645D01*
X109180985Y-96973402D01*
X109324622Y-97016974D01*
X109436574Y-97028000D01*
X109436576Y-97028000D01*
X109473999Y-97031686D01*
X109511422Y-97028000D01*
X112460370Y-97028000D01*
X113538000Y-98105631D01*
X113538000Y-98625128D01*
X113360200Y-98625128D01*
X113235718Y-98637388D01*
X113116020Y-98673698D01*
X113005706Y-98732663D01*
X112909015Y-98812015D01*
X112829663Y-98908706D01*
X112770698Y-99019020D01*
X112734388Y-99138718D01*
X112722128Y-99263200D01*
X112722128Y-101142800D01*
X112734388Y-101267282D01*
X112770698Y-101386980D01*
X112829663Y-101497294D01*
X112909015Y-101593985D01*
X113005706Y-101673337D01*
X113116020Y-101732302D01*
X113235718Y-101768612D01*
X113360200Y-101780872D01*
X115239800Y-101780872D01*
X115364282Y-101768612D01*
X115483980Y-101732302D01*
X115594294Y-101673337D01*
X115690985Y-101593985D01*
X115717533Y-101561637D01*
X115836123Y-101680227D01*
X116094052Y-101852570D01*
X116380648Y-101971282D01*
X116684896Y-102031800D01*
X116995104Y-102031800D01*
X117299352Y-101971282D01*
X117585948Y-101852570D01*
X117843877Y-101680227D01*
X118063227Y-101460877D01*
X118173744Y-101295476D01*
X118467129Y-101295476D01*
X118555623Y-101553723D01*
X118834976Y-101688597D01*
X119135275Y-101766381D01*
X119444977Y-101784084D01*
X119752184Y-101741027D01*
X120045086Y-101638865D01*
X120204377Y-101553723D01*
X120292871Y-101295476D01*
X119380000Y-100382605D01*
X118467129Y-101295476D01*
X118173744Y-101295476D01*
X118235570Y-101202948D01*
X118273613Y-101111104D01*
X118287524Y-101115871D01*
X119200395Y-100203000D01*
X119559605Y-100203000D01*
X120472476Y-101115871D01*
X120730723Y-101027377D01*
X120865597Y-100748024D01*
X120943381Y-100447725D01*
X120961084Y-100138023D01*
X120958519Y-100119721D01*
X150265000Y-100119721D01*
X150265000Y-100540279D01*
X150347047Y-100952756D01*
X150507988Y-101341302D01*
X150741637Y-101690983D01*
X151039017Y-101988363D01*
X151388698Y-102222012D01*
X151777244Y-102382953D01*
X152189721Y-102465000D01*
X152610279Y-102465000D01*
X153022756Y-102382953D01*
X153411302Y-102222012D01*
X153760983Y-101988363D01*
X154058363Y-101690983D01*
X154292012Y-101341302D01*
X154452953Y-100952756D01*
X154535000Y-100540279D01*
X154535000Y-100119721D01*
X154452953Y-99707244D01*
X154292012Y-99318698D01*
X154058363Y-98969017D01*
X153760983Y-98671637D01*
X153411302Y-98437988D01*
X153022756Y-98277047D01*
X152610279Y-98195000D01*
X152189721Y-98195000D01*
X151777244Y-98277047D01*
X151388698Y-98437988D01*
X151039017Y-98671637D01*
X150741637Y-98969017D01*
X150507988Y-99318698D01*
X150347047Y-99707244D01*
X150265000Y-100119721D01*
X120958519Y-100119721D01*
X120918027Y-99830816D01*
X120815865Y-99537914D01*
X120730723Y-99378623D01*
X120472476Y-99290129D01*
X119559605Y-100203000D01*
X119200395Y-100203000D01*
X118287524Y-99290129D01*
X118029277Y-99378623D01*
X118016074Y-99405970D01*
X117843877Y-99233773D01*
X117659423Y-99110524D01*
X118467129Y-99110524D01*
X119380000Y-100023395D01*
X120292871Y-99110524D01*
X120204377Y-98852277D01*
X119925024Y-98717403D01*
X119624725Y-98639619D01*
X119315023Y-98621916D01*
X119007816Y-98664973D01*
X118714914Y-98767135D01*
X118555623Y-98852277D01*
X118467129Y-99110524D01*
X117659423Y-99110524D01*
X117585948Y-99061430D01*
X117299352Y-98942718D01*
X116995104Y-98882200D01*
X116684896Y-98882200D01*
X116380648Y-98942718D01*
X116094052Y-99061430D01*
X115872575Y-99209417D01*
X115865612Y-99138718D01*
X115829302Y-99019020D01*
X115770337Y-98908706D01*
X115690985Y-98812015D01*
X115594294Y-98732663D01*
X115483980Y-98673698D01*
X115364282Y-98637388D01*
X115239800Y-98625128D01*
X115062000Y-98625128D01*
X115062000Y-97827422D01*
X115065686Y-97789999D01*
X115057818Y-97710114D01*
X115050974Y-97640622D01*
X115007402Y-97496985D01*
X114936645Y-97364608D01*
X114841422Y-97248578D01*
X114812353Y-97224722D01*
X113341284Y-95753654D01*
X113317422Y-95724578D01*
X113201392Y-95629355D01*
X113069015Y-95558598D01*
X112925378Y-95515026D01*
X112813426Y-95504000D01*
X112813423Y-95504000D01*
X112776000Y-95500314D01*
X112738577Y-95504000D01*
X109789631Y-95504000D01*
X108712000Y-94426370D01*
X108712000Y-93980000D01*
X149637815Y-93980000D01*
X149666487Y-94271111D01*
X149751401Y-94551034D01*
X149889294Y-94809014D01*
X150074866Y-95035134D01*
X150300986Y-95220706D01*
X150558966Y-95358599D01*
X150838889Y-95443513D01*
X151057050Y-95465000D01*
X151202950Y-95465000D01*
X151421111Y-95443513D01*
X151701034Y-95358599D01*
X151959014Y-95220706D01*
X152185134Y-95035134D01*
X152370706Y-94809014D01*
X152400000Y-94754209D01*
X152429294Y-94809014D01*
X152614866Y-95035134D01*
X152840986Y-95220706D01*
X153098966Y-95358599D01*
X153378889Y-95443513D01*
X153597050Y-95465000D01*
X153742950Y-95465000D01*
X153961111Y-95443513D01*
X154241034Y-95358599D01*
X154499014Y-95220706D01*
X154725134Y-95035134D01*
X154910706Y-94809014D01*
X155048599Y-94551034D01*
X155133513Y-94271111D01*
X155162185Y-93980000D01*
X155133513Y-93688889D01*
X155048599Y-93408966D01*
X154910706Y-93150986D01*
X154725134Y-92924866D01*
X154499014Y-92739294D01*
X154434477Y-92704799D01*
X154551355Y-92635178D01*
X154767588Y-92440269D01*
X154941641Y-92206920D01*
X155066825Y-91944099D01*
X155111476Y-91796890D01*
X154990155Y-91567000D01*
X153797000Y-91567000D01*
X153797000Y-91587000D01*
X153543000Y-91587000D01*
X153543000Y-91567000D01*
X151257000Y-91567000D01*
X151257000Y-91587000D01*
X151003000Y-91587000D01*
X151003000Y-91567000D01*
X149803750Y-91567000D01*
X149645000Y-91725750D01*
X149641928Y-92290000D01*
X149654188Y-92414482D01*
X149690498Y-92534180D01*
X149749463Y-92644494D01*
X149828815Y-92741185D01*
X149925506Y-92820537D01*
X150035820Y-92879502D01*
X150104687Y-92900393D01*
X150074866Y-92924866D01*
X149889294Y-93150986D01*
X149751401Y-93408966D01*
X149666487Y-93688889D01*
X149637815Y-93980000D01*
X108712000Y-93980000D01*
X108712000Y-90590000D01*
X149641928Y-90590000D01*
X149645000Y-91154250D01*
X149803750Y-91313000D01*
X151003000Y-91313000D01*
X151003000Y-90113750D01*
X151257000Y-90113750D01*
X151257000Y-91313000D01*
X153543000Y-91313000D01*
X153543000Y-90119186D01*
X153797000Y-90119186D01*
X153797000Y-91313000D01*
X154990155Y-91313000D01*
X155111476Y-91083110D01*
X155066825Y-90935901D01*
X154941641Y-90673080D01*
X154767588Y-90439731D01*
X154551355Y-90244822D01*
X154301252Y-90095843D01*
X154026891Y-89998519D01*
X153797000Y-90119186D01*
X153543000Y-90119186D01*
X153313109Y-89998519D01*
X153038748Y-90095843D01*
X152788645Y-90244822D01*
X152592498Y-90421626D01*
X152569502Y-90345820D01*
X152510537Y-90235506D01*
X152431185Y-90138815D01*
X152334494Y-90059463D01*
X152224180Y-90000498D01*
X152104482Y-89964188D01*
X151980000Y-89951928D01*
X151415750Y-89955000D01*
X151257000Y-90113750D01*
X151003000Y-90113750D01*
X150844250Y-89955000D01*
X150280000Y-89951928D01*
X150155518Y-89964188D01*
X150035820Y-90000498D01*
X149925506Y-90059463D01*
X149828815Y-90138815D01*
X149749463Y-90235506D01*
X149690498Y-90345820D01*
X149654188Y-90465518D01*
X149641928Y-90590000D01*
X108712000Y-90590000D01*
X108712000Y-83926401D01*
X108737400Y-83926401D01*
X108737400Y-84221599D01*
X108794990Y-84511125D01*
X108907958Y-84783853D01*
X109071961Y-85029302D01*
X109280698Y-85238039D01*
X109439281Y-85344000D01*
X109280698Y-85449961D01*
X109071961Y-85658698D01*
X108907958Y-85904147D01*
X108794990Y-86176875D01*
X108737400Y-86466401D01*
X108737400Y-86761599D01*
X108794990Y-87051125D01*
X108907958Y-87323853D01*
X109071961Y-87569302D01*
X109280698Y-87778039D01*
X109526147Y-87942042D01*
X109798875Y-88055010D01*
X110088401Y-88112600D01*
X110383599Y-88112600D01*
X110673125Y-88055010D01*
X110945853Y-87942042D01*
X111191302Y-87778039D01*
X111400039Y-87569302D01*
X111529199Y-87376000D01*
X135852577Y-87376000D01*
X135890000Y-87379686D01*
X135927423Y-87376000D01*
X135927426Y-87376000D01*
X136039378Y-87364974D01*
X136183015Y-87321402D01*
X136315392Y-87250645D01*
X136431422Y-87155422D01*
X136455284Y-87126346D01*
X141736352Y-81845279D01*
X141765422Y-81821422D01*
X141860645Y-81705392D01*
X141931402Y-81573015D01*
X141974974Y-81429378D01*
X141986000Y-81317426D01*
X141986000Y-81317424D01*
X141989686Y-81280001D01*
X141986000Y-81242578D01*
X141986000Y-70180200D01*
X145488128Y-70180200D01*
X145488128Y-72059800D01*
X145500388Y-72184282D01*
X145536698Y-72303980D01*
X145595663Y-72414294D01*
X145675015Y-72510985D01*
X145771706Y-72590337D01*
X145882020Y-72649302D01*
X146001718Y-72685612D01*
X146126200Y-72697872D01*
X148005800Y-72697872D01*
X148130282Y-72685612D01*
X148249980Y-72649302D01*
X148360294Y-72590337D01*
X148456985Y-72510985D01*
X148536337Y-72414294D01*
X148595302Y-72303980D01*
X148631612Y-72184282D01*
X148643872Y-72059800D01*
X148643872Y-70180200D01*
X148631612Y-70055718D01*
X148595302Y-69936020D01*
X148536337Y-69825706D01*
X148456985Y-69729015D01*
X148424637Y-69702467D01*
X148543227Y-69583877D01*
X148715570Y-69325948D01*
X148834282Y-69039352D01*
X148894800Y-68735104D01*
X148894800Y-68424896D01*
X148834282Y-68120648D01*
X148715570Y-67834052D01*
X148543227Y-67576123D01*
X148323877Y-67356773D01*
X148115539Y-67217565D01*
X148289227Y-67043877D01*
X148461570Y-66785948D01*
X148580282Y-66499352D01*
X148640800Y-66195104D01*
X148640800Y-65884896D01*
X148580282Y-65580648D01*
X148461570Y-65294052D01*
X148289227Y-65036123D01*
X148069877Y-64816773D01*
X147811948Y-64644430D01*
X147525352Y-64525718D01*
X147221104Y-64465200D01*
X146910896Y-64465200D01*
X146606648Y-64525718D01*
X146320052Y-64644430D01*
X146062123Y-64816773D01*
X145842773Y-65036123D01*
X145670430Y-65294052D01*
X145551718Y-65580648D01*
X145491200Y-65884896D01*
X145491200Y-66195104D01*
X145551718Y-66499352D01*
X145670430Y-66785948D01*
X145842773Y-67043877D01*
X146062123Y-67263227D01*
X146270461Y-67402435D01*
X146096773Y-67576123D01*
X145924430Y-67834052D01*
X145805718Y-68120648D01*
X145745200Y-68424896D01*
X145745200Y-68735104D01*
X145805718Y-69039352D01*
X145924430Y-69325948D01*
X146072417Y-69547425D01*
X146001718Y-69554388D01*
X145882020Y-69590698D01*
X145771706Y-69649663D01*
X145675015Y-69729015D01*
X145595663Y-69825706D01*
X145536698Y-69936020D01*
X145500388Y-70055718D01*
X145488128Y-70180200D01*
X141986000Y-70180200D01*
X141986000Y-66825199D01*
X142179302Y-66696039D01*
X142388039Y-66487302D01*
X142552042Y-66241853D01*
X142665010Y-65969125D01*
X142722600Y-65679599D01*
X142722600Y-65384401D01*
X142665010Y-65094875D01*
X142552042Y-64822147D01*
X142388039Y-64576698D01*
X142179302Y-64367961D01*
X141933853Y-64203958D01*
X141661125Y-64090990D01*
X141371599Y-64033400D01*
X141076401Y-64033400D01*
X140786875Y-64090990D01*
X140514147Y-64203958D01*
X140268698Y-64367961D01*
X140059961Y-64576698D01*
X139954000Y-64735281D01*
X139848039Y-64576698D01*
X139639302Y-64367961D01*
X139393853Y-64203958D01*
X139121125Y-64090990D01*
X138831599Y-64033400D01*
X138536401Y-64033400D01*
X138246875Y-64090990D01*
X137974147Y-64203958D01*
X137728698Y-64367961D01*
X137519961Y-64576698D01*
X137355958Y-64822147D01*
X137242990Y-65094875D01*
X137185400Y-65384401D01*
X137185400Y-65679599D01*
X137242990Y-65969125D01*
X137355958Y-66241853D01*
X137519961Y-66487302D01*
X137728698Y-66696039D01*
X137922000Y-66825199D01*
X137922001Y-80964369D01*
X135574370Y-83312000D01*
X111529199Y-83312000D01*
X111400039Y-83118698D01*
X111191302Y-82909961D01*
X110945853Y-82745958D01*
X110673125Y-82632990D01*
X110383599Y-82575400D01*
X110088401Y-82575400D01*
X109798875Y-82632990D01*
X109526147Y-82745958D01*
X109280698Y-82909961D01*
X109071961Y-83118698D01*
X108907958Y-83364147D01*
X108794990Y-83636875D01*
X108737400Y-83926401D01*
X108712000Y-83926401D01*
X108712000Y-75880630D01*
X109479385Y-75113245D01*
X109707401Y-75158600D01*
X110002599Y-75158600D01*
X110292125Y-75101010D01*
X110564853Y-74988042D01*
X110810302Y-74824039D01*
X111019039Y-74615302D01*
X111183042Y-74369853D01*
X111296010Y-74097125D01*
X111353600Y-73807599D01*
X111353600Y-73512401D01*
X111296010Y-73222875D01*
X111183042Y-72950147D01*
X111019039Y-72704698D01*
X110810302Y-72495961D01*
X110564853Y-72331958D01*
X110292125Y-72218990D01*
X110002599Y-72161400D01*
X109707401Y-72161400D01*
X109417875Y-72218990D01*
X109145147Y-72331958D01*
X108899698Y-72495961D01*
X108764600Y-72631059D01*
X108756010Y-72587875D01*
X108643042Y-72315147D01*
X108479039Y-72069698D01*
X108270302Y-71860961D01*
X108024853Y-71696958D01*
X107752125Y-71583990D01*
X107462599Y-71526400D01*
X107167401Y-71526400D01*
X106877875Y-71583990D01*
X106832013Y-71602987D01*
X106851010Y-71557125D01*
X106908600Y-71267599D01*
X106908600Y-70972401D01*
X106851010Y-70682875D01*
X106738042Y-70410147D01*
X106574039Y-70164698D01*
X106365302Y-69955961D01*
X106119853Y-69791958D01*
X105847125Y-69678990D01*
X105557599Y-69621400D01*
X105262401Y-69621400D01*
X104972875Y-69678990D01*
X104700147Y-69791958D01*
X104454698Y-69955961D01*
X104245961Y-70164698D01*
X104133315Y-70333285D01*
X104110706Y-70290986D01*
X103925134Y-70064866D01*
X103699014Y-69879294D01*
X103644209Y-69850000D01*
X103699014Y-69820706D01*
X103925134Y-69635134D01*
X104110706Y-69409014D01*
X104248599Y-69151034D01*
X104333513Y-68871111D01*
X104362185Y-68580000D01*
X104333513Y-68288889D01*
X104267720Y-68072000D01*
X115786577Y-68072000D01*
X115824000Y-68075686D01*
X115861423Y-68072000D01*
X115861426Y-68072000D01*
X115973378Y-68060974D01*
X116117015Y-68017402D01*
X116249392Y-67946645D01*
X116365422Y-67851422D01*
X116389284Y-67822347D01*
X117225353Y-66986278D01*
X117254422Y-66962422D01*
X117338443Y-66860042D01*
X117349645Y-66846393D01*
X117420401Y-66714016D01*
X117420402Y-66714015D01*
X117460859Y-66580647D01*
X117668302Y-66442039D01*
X117877039Y-66233302D01*
X118041042Y-65987853D01*
X118154010Y-65715125D01*
X118211600Y-65425599D01*
X118211600Y-65130401D01*
X118154010Y-64840875D01*
X118072047Y-64643000D01*
X122716555Y-64643000D01*
X130216077Y-72142523D01*
X130251867Y-72186133D01*
X130425911Y-72328968D01*
X130537017Y-72388355D01*
X130624476Y-72435103D01*
X130833795Y-72498599D01*
X130839933Y-72500461D01*
X131007854Y-72517000D01*
X131007861Y-72517000D01*
X131064000Y-72522529D01*
X131120139Y-72517000D01*
X135001000Y-72517000D01*
X135001001Y-76107553D01*
X134502155Y-76606400D01*
X134472401Y-76606400D01*
X134182875Y-76663990D01*
X133910147Y-76776958D01*
X133664698Y-76940961D01*
X133455961Y-77149698D01*
X133291958Y-77395147D01*
X133178990Y-77667875D01*
X133121400Y-77957401D01*
X133121400Y-78252599D01*
X133178990Y-78542125D01*
X133291958Y-78814853D01*
X133455961Y-79060302D01*
X133664698Y-79269039D01*
X133910147Y-79433042D01*
X134182875Y-79546010D01*
X134472401Y-79603600D01*
X134767599Y-79603600D01*
X135057125Y-79546010D01*
X135329853Y-79433042D01*
X135575302Y-79269039D01*
X135784039Y-79060302D01*
X135948042Y-78814853D01*
X136061010Y-78542125D01*
X136118600Y-78252599D01*
X136118600Y-78222845D01*
X136912523Y-77428923D01*
X136956133Y-77393133D01*
X137098968Y-77219089D01*
X137205103Y-77020523D01*
X137270461Y-76805067D01*
X137287000Y-76637146D01*
X137287000Y-76637140D01*
X137292529Y-76581001D01*
X137287000Y-76524862D01*
X137287000Y-72350341D01*
X137308039Y-72329302D01*
X137472042Y-72083853D01*
X137585010Y-71811125D01*
X137642600Y-71521599D01*
X137642600Y-71226401D01*
X137585010Y-70936875D01*
X137472042Y-70664147D01*
X137308039Y-70418698D01*
X137099302Y-70209961D01*
X136853853Y-70045958D01*
X136581125Y-69932990D01*
X136291599Y-69875400D01*
X135996401Y-69875400D01*
X135706875Y-69932990D01*
X135434147Y-70045958D01*
X135188698Y-70209961D01*
X135167659Y-70231000D01*
X131537446Y-70231000D01*
X125934804Y-64628358D01*
X125954067Y-64626461D01*
X126169523Y-64561103D01*
X126368089Y-64454968D01*
X126542133Y-64312133D01*
X126577927Y-64268518D01*
X127768524Y-63077922D01*
X127812133Y-63042133D01*
X127954968Y-62868089D01*
X128061103Y-62669523D01*
X128126461Y-62454067D01*
X128143000Y-62286146D01*
X128143000Y-62286140D01*
X128148529Y-62230001D01*
X128143000Y-62173862D01*
X128143000Y-59766200D01*
X133042128Y-59766200D01*
X133042128Y-61645800D01*
X133054388Y-61770282D01*
X133090698Y-61889980D01*
X133149663Y-62000294D01*
X133229015Y-62096985D01*
X133325706Y-62176337D01*
X133436020Y-62235302D01*
X133555718Y-62271612D01*
X133680200Y-62283872D01*
X135559800Y-62283872D01*
X135684282Y-62271612D01*
X135803980Y-62235302D01*
X135914294Y-62176337D01*
X136010985Y-62096985D01*
X136037533Y-62064637D01*
X136156123Y-62183227D01*
X136414052Y-62355570D01*
X136700648Y-62474282D01*
X137004896Y-62534800D01*
X137315104Y-62534800D01*
X137619352Y-62474282D01*
X137905948Y-62355570D01*
X138163877Y-62183227D01*
X138383227Y-61963877D01*
X138522435Y-61755539D01*
X138696123Y-61929227D01*
X138954052Y-62101570D01*
X139240648Y-62220282D01*
X139544896Y-62280800D01*
X139855104Y-62280800D01*
X140159352Y-62220282D01*
X140445948Y-62101570D01*
X140703877Y-61929227D01*
X140877565Y-61755539D01*
X141016773Y-61963877D01*
X141236123Y-62183227D01*
X141494052Y-62355570D01*
X141780648Y-62474282D01*
X142084896Y-62534800D01*
X142395104Y-62534800D01*
X142699352Y-62474282D01*
X142985948Y-62355570D01*
X143243877Y-62183227D01*
X143463227Y-61963877D01*
X143635570Y-61705948D01*
X143754282Y-61419352D01*
X143814800Y-61115104D01*
X143814800Y-60960000D01*
X149637815Y-60960000D01*
X149666487Y-61251111D01*
X149751401Y-61531034D01*
X149889294Y-61789014D01*
X150074866Y-62015134D01*
X150300986Y-62200706D01*
X150355791Y-62230000D01*
X150300986Y-62259294D01*
X150074866Y-62444866D01*
X149889294Y-62670986D01*
X149751401Y-62928966D01*
X149666487Y-63208889D01*
X149637815Y-63500000D01*
X149666487Y-63791111D01*
X149751401Y-64071034D01*
X149889294Y-64329014D01*
X150074866Y-64555134D01*
X150300986Y-64740706D01*
X150558966Y-64878599D01*
X150838889Y-64963513D01*
X151057050Y-64985000D01*
X151202950Y-64985000D01*
X151421111Y-64963513D01*
X151701034Y-64878599D01*
X151959014Y-64740706D01*
X152185134Y-64555134D01*
X152370706Y-64329014D01*
X152400000Y-64274209D01*
X152429294Y-64329014D01*
X152614866Y-64555134D01*
X152840986Y-64740706D01*
X153098966Y-64878599D01*
X153378889Y-64963513D01*
X153597050Y-64985000D01*
X153742950Y-64985000D01*
X153961111Y-64963513D01*
X154241034Y-64878599D01*
X154499014Y-64740706D01*
X154725134Y-64555134D01*
X154910706Y-64329014D01*
X155048599Y-64071034D01*
X155133513Y-63791111D01*
X155162185Y-63500000D01*
X155133513Y-63208889D01*
X155048599Y-62928966D01*
X154910706Y-62670986D01*
X154725134Y-62444866D01*
X154499014Y-62259294D01*
X154444209Y-62230000D01*
X154499014Y-62200706D01*
X154725134Y-62015134D01*
X154910706Y-61789014D01*
X155048599Y-61531034D01*
X155133513Y-61251111D01*
X155162185Y-60960000D01*
X155133513Y-60668889D01*
X155048599Y-60388966D01*
X154910706Y-60130986D01*
X154725134Y-59904866D01*
X154499014Y-59719294D01*
X154434477Y-59684799D01*
X154551355Y-59615178D01*
X154767588Y-59420269D01*
X154941641Y-59186920D01*
X155066825Y-58924099D01*
X155111476Y-58776890D01*
X154990155Y-58547000D01*
X153797000Y-58547000D01*
X153797000Y-58567000D01*
X153543000Y-58567000D01*
X153543000Y-58547000D01*
X151257000Y-58547000D01*
X151257000Y-58567000D01*
X151003000Y-58567000D01*
X151003000Y-58547000D01*
X149809845Y-58547000D01*
X149688524Y-58776890D01*
X149733175Y-58924099D01*
X149858359Y-59186920D01*
X150032412Y-59420269D01*
X150248645Y-59615178D01*
X150365523Y-59684799D01*
X150300986Y-59719294D01*
X150074866Y-59904866D01*
X149889294Y-60130986D01*
X149751401Y-60388966D01*
X149666487Y-60668889D01*
X149637815Y-60960000D01*
X143814800Y-60960000D01*
X143814800Y-60804896D01*
X143754282Y-60500648D01*
X143635570Y-60214052D01*
X143463227Y-59956123D01*
X143243877Y-59736773D01*
X142985948Y-59564430D01*
X142699352Y-59445718D01*
X142395104Y-59385200D01*
X142084896Y-59385200D01*
X141780648Y-59445718D01*
X141494052Y-59564430D01*
X141236123Y-59736773D01*
X141062435Y-59910461D01*
X140923227Y-59702123D01*
X140703877Y-59482773D01*
X140445948Y-59310430D01*
X140159352Y-59191718D01*
X139855104Y-59131200D01*
X139544896Y-59131200D01*
X139240648Y-59191718D01*
X138954052Y-59310430D01*
X138696123Y-59482773D01*
X138476773Y-59702123D01*
X138337565Y-59910461D01*
X138163877Y-59736773D01*
X137905948Y-59564430D01*
X137619352Y-59445718D01*
X137315104Y-59385200D01*
X137004896Y-59385200D01*
X136700648Y-59445718D01*
X136414052Y-59564430D01*
X136192575Y-59712417D01*
X136185612Y-59641718D01*
X136149302Y-59522020D01*
X136090337Y-59411706D01*
X136010985Y-59315015D01*
X135914294Y-59235663D01*
X135803980Y-59176698D01*
X135684282Y-59140388D01*
X135559800Y-59128128D01*
X133680200Y-59128128D01*
X133555718Y-59140388D01*
X133436020Y-59176698D01*
X133325706Y-59235663D01*
X133229015Y-59315015D01*
X133149663Y-59411706D01*
X133090698Y-59522020D01*
X133054388Y-59641718D01*
X133042128Y-59766200D01*
X128143000Y-59766200D01*
X128143000Y-57618341D01*
X128164039Y-57597302D01*
X128328042Y-57351853D01*
X128441010Y-57079125D01*
X128498600Y-56789599D01*
X128498600Y-56759845D01*
X130228445Y-55030000D01*
X149641928Y-55030000D01*
X149641928Y-56730000D01*
X149654188Y-56854482D01*
X149690498Y-56974180D01*
X149749463Y-57084494D01*
X149828815Y-57181185D01*
X149925506Y-57260537D01*
X150035820Y-57319502D01*
X150116466Y-57343966D01*
X150032412Y-57419731D01*
X149858359Y-57653080D01*
X149733175Y-57915901D01*
X149688524Y-58063110D01*
X149809845Y-58293000D01*
X151003000Y-58293000D01*
X151003000Y-58273000D01*
X151257000Y-58273000D01*
X151257000Y-58293000D01*
X153543000Y-58293000D01*
X153543000Y-58273000D01*
X153797000Y-58273000D01*
X153797000Y-58293000D01*
X154990155Y-58293000D01*
X155111476Y-58063110D01*
X155066825Y-57915901D01*
X154941641Y-57653080D01*
X154767588Y-57419731D01*
X154551355Y-57224822D01*
X154434477Y-57155201D01*
X154499014Y-57120706D01*
X154725134Y-56935134D01*
X154910706Y-56709014D01*
X155048599Y-56451034D01*
X155133513Y-56171111D01*
X155162185Y-55880000D01*
X155133513Y-55588889D01*
X155048599Y-55308966D01*
X154910706Y-55050986D01*
X154725134Y-54824866D01*
X154499014Y-54639294D01*
X154241034Y-54501401D01*
X153961111Y-54416487D01*
X153742950Y-54395000D01*
X153597050Y-54395000D01*
X153378889Y-54416487D01*
X153098966Y-54501401D01*
X152840986Y-54639294D01*
X152614866Y-54824866D01*
X152590393Y-54854687D01*
X152569502Y-54785820D01*
X152510537Y-54675506D01*
X152431185Y-54578815D01*
X152334494Y-54499463D01*
X152224180Y-54440498D01*
X152104482Y-54404188D01*
X151980000Y-54391928D01*
X150280000Y-54391928D01*
X150155518Y-54404188D01*
X150035820Y-54440498D01*
X149925506Y-54499463D01*
X149828815Y-54578815D01*
X149749463Y-54675506D01*
X149690498Y-54785820D01*
X149654188Y-54905518D01*
X149641928Y-55030000D01*
X130228445Y-55030000D01*
X130775446Y-54483000D01*
X140913861Y-54483000D01*
X140970000Y-54488529D01*
X141026139Y-54483000D01*
X141026146Y-54483000D01*
X141194067Y-54466461D01*
X141409523Y-54401103D01*
X141608089Y-54294968D01*
X141782133Y-54152133D01*
X141817927Y-54108518D01*
X144278524Y-51647922D01*
X144322133Y-51612133D01*
X144464968Y-51438089D01*
X144571103Y-51239523D01*
X144636461Y-51024067D01*
X144653000Y-50856146D01*
X144653000Y-50856140D01*
X144658529Y-50800001D01*
X144653000Y-50743862D01*
X144653000Y-43248104D01*
X144733227Y-43167877D01*
X144872435Y-42959539D01*
X145046123Y-43133227D01*
X145304052Y-43305570D01*
X145590648Y-43424282D01*
X145894896Y-43484800D01*
X146205104Y-43484800D01*
X146509352Y-43424282D01*
X146795948Y-43305570D01*
X147053877Y-43133227D01*
X147273227Y-42913877D01*
X147445570Y-42655948D01*
X147564282Y-42369352D01*
X147624800Y-42065104D01*
X147624800Y-41754896D01*
X147564282Y-41450648D01*
X147445570Y-41164052D01*
X147273227Y-40906123D01*
X147053877Y-40686773D01*
X146795948Y-40514430D01*
X146509352Y-40395718D01*
X146205104Y-40335200D01*
X145894896Y-40335200D01*
X145590648Y-40395718D01*
X145304052Y-40514430D01*
X145046123Y-40686773D01*
X144826773Y-40906123D01*
X144687565Y-41114461D01*
X144513877Y-40940773D01*
X144255948Y-40768430D01*
X143969352Y-40649718D01*
X143665104Y-40589200D01*
X143354896Y-40589200D01*
X143050648Y-40649718D01*
X142764052Y-40768430D01*
X142506123Y-40940773D01*
X142334848Y-41112048D01*
X142320723Y-41085623D01*
X142062476Y-40997129D01*
X141149605Y-41910000D01*
X142062476Y-42822871D01*
X142076387Y-42818104D01*
X142114430Y-42909948D01*
X142286773Y-43167877D01*
X142367001Y-43248105D01*
X142367000Y-50326554D01*
X140496555Y-52197000D01*
X130358138Y-52197000D01*
X130301999Y-52191471D01*
X130245860Y-52197000D01*
X130245854Y-52197000D01*
X130100600Y-52211306D01*
X130077932Y-52213539D01*
X130012574Y-52233365D01*
X129862477Y-52278897D01*
X129663911Y-52385032D01*
X129489867Y-52527867D01*
X129454077Y-52571477D01*
X126882155Y-55143400D01*
X126852401Y-55143400D01*
X126562875Y-55200990D01*
X126290147Y-55313958D01*
X126044698Y-55477961D01*
X125835961Y-55686698D01*
X125671958Y-55932147D01*
X125558990Y-56204875D01*
X125501400Y-56494401D01*
X125501400Y-56789599D01*
X125558990Y-57079125D01*
X125671958Y-57351853D01*
X125835961Y-57597302D01*
X125857001Y-57618342D01*
X125857000Y-61756554D01*
X125256555Y-62357000D01*
X123246139Y-62357000D01*
X123190000Y-62351471D01*
X123133861Y-62357000D01*
X121499341Y-62357000D01*
X121560039Y-62296302D01*
X121724042Y-62050853D01*
X121837010Y-61778125D01*
X121894600Y-61488599D01*
X121894600Y-61193401D01*
X121837010Y-60903875D01*
X121724042Y-60631147D01*
X121560039Y-60385698D01*
X121351302Y-60176961D01*
X121158000Y-60047801D01*
X121158000Y-56449630D01*
X124775631Y-52832000D01*
X127343577Y-52832000D01*
X127381000Y-52835686D01*
X127418423Y-52832000D01*
X127418426Y-52832000D01*
X127530378Y-52820974D01*
X127674015Y-52777402D01*
X127806392Y-52706645D01*
X127922422Y-52611422D01*
X127946284Y-52582346D01*
X129347630Y-51181000D01*
X134963577Y-51181000D01*
X135001000Y-51184686D01*
X135038423Y-51181000D01*
X135038426Y-51181000D01*
X135150378Y-51169974D01*
X135294015Y-51126402D01*
X135426392Y-51055645D01*
X135542422Y-50960422D01*
X135566284Y-50931346D01*
X136713631Y-49784000D01*
X137136801Y-49784000D01*
X137265961Y-49977302D01*
X137474698Y-50186039D01*
X137720147Y-50350042D01*
X137992875Y-50463010D01*
X138282401Y-50520600D01*
X138577599Y-50520600D01*
X138867125Y-50463010D01*
X139139853Y-50350042D01*
X139385302Y-50186039D01*
X139594039Y-49977302D01*
X139758042Y-49731853D01*
X139871010Y-49459125D01*
X139928600Y-49169599D01*
X139928600Y-48874401D01*
X139871010Y-48584875D01*
X139758042Y-48312147D01*
X139594039Y-48066698D01*
X139385302Y-47857961D01*
X139139853Y-47693958D01*
X138867125Y-47580990D01*
X138577599Y-47523400D01*
X138282401Y-47523400D01*
X137992875Y-47580990D01*
X137720147Y-47693958D01*
X137474698Y-47857961D01*
X137265961Y-48066698D01*
X137136801Y-48260000D01*
X136435422Y-48260000D01*
X136397999Y-48256314D01*
X136360576Y-48260000D01*
X136360574Y-48260000D01*
X136248622Y-48271026D01*
X136104985Y-48314598D01*
X135972608Y-48385355D01*
X135856578Y-48480578D01*
X135832721Y-48509648D01*
X134685370Y-49657000D01*
X129069423Y-49657000D01*
X129032000Y-49653314D01*
X128994577Y-49657000D01*
X128994574Y-49657000D01*
X128882622Y-49668026D01*
X128738985Y-49711598D01*
X128705676Y-49729402D01*
X128606607Y-49782355D01*
X128571327Y-49811309D01*
X128490578Y-49877578D01*
X128466716Y-49906654D01*
X127065370Y-51308000D01*
X124497423Y-51308000D01*
X124460000Y-51304314D01*
X124422577Y-51308000D01*
X124422574Y-51308000D01*
X124310622Y-51319026D01*
X124166985Y-51362598D01*
X124105364Y-51395535D01*
X124034607Y-51433355D01*
X123951904Y-51501228D01*
X123918578Y-51528578D01*
X123894721Y-51557648D01*
X119883649Y-55568721D01*
X119854579Y-55592578D01*
X119830722Y-55621648D01*
X119830721Y-55621649D01*
X119759355Y-55708608D01*
X119688599Y-55840985D01*
X119645027Y-55984622D01*
X119630314Y-56134000D01*
X119634001Y-56171433D01*
X119634000Y-60047801D01*
X119440698Y-60176961D01*
X119409792Y-60207867D01*
X119274039Y-60004698D01*
X119065302Y-59795961D01*
X118872000Y-59666801D01*
X118872000Y-51623630D01*
X123321347Y-47174283D01*
X123350422Y-47150422D01*
X123410857Y-47076781D01*
X123445645Y-47034393D01*
X123516401Y-46902016D01*
X123516402Y-46902015D01*
X123559974Y-46758378D01*
X123571000Y-46646426D01*
X123571000Y-46646423D01*
X123574686Y-46609000D01*
X123571000Y-46571577D01*
X123571000Y-43495630D01*
X124394631Y-42672000D01*
X124510168Y-42672000D01*
X124531068Y-42711101D01*
X124710392Y-42929608D01*
X124928899Y-43108932D01*
X125066682Y-43182579D01*
X124874869Y-43297615D01*
X124666481Y-43486586D01*
X124498963Y-43712580D01*
X124378754Y-43966913D01*
X124338096Y-44100961D01*
X124460085Y-44323000D01*
X125603000Y-44323000D01*
X125603000Y-44303000D01*
X125857000Y-44303000D01*
X125857000Y-44323000D01*
X125877000Y-44323000D01*
X125877000Y-44577000D01*
X125857000Y-44577000D01*
X125857000Y-44597000D01*
X125603000Y-44597000D01*
X125603000Y-44577000D01*
X124460085Y-44577000D01*
X124338096Y-44799039D01*
X124378754Y-44933087D01*
X124498963Y-45187420D01*
X124666481Y-45413414D01*
X124874869Y-45602385D01*
X125066682Y-45717421D01*
X124928899Y-45791068D01*
X124710392Y-45970392D01*
X124531068Y-46188899D01*
X124397818Y-46438192D01*
X124315764Y-46708691D01*
X124288057Y-46990000D01*
X124315764Y-47271309D01*
X124397818Y-47541808D01*
X124531068Y-47791101D01*
X124710392Y-48009608D01*
X124928899Y-48188932D01*
X125061858Y-48260000D01*
X124928899Y-48331068D01*
X124710392Y-48510392D01*
X124531068Y-48728899D01*
X124397818Y-48978192D01*
X124315764Y-49248691D01*
X124288057Y-49530000D01*
X124315764Y-49811309D01*
X124397818Y-50081808D01*
X124531068Y-50331101D01*
X124710392Y-50549608D01*
X124928899Y-50728932D01*
X125178192Y-50862182D01*
X125448691Y-50944236D01*
X125659508Y-50965000D01*
X125800492Y-50965000D01*
X126011309Y-50944236D01*
X126281808Y-50862182D01*
X126531101Y-50728932D01*
X126749608Y-50549608D01*
X126928932Y-50331101D01*
X127062182Y-50081808D01*
X127144236Y-49811309D01*
X127171943Y-49530000D01*
X127144236Y-49248691D01*
X127062182Y-48978192D01*
X126928932Y-48728899D01*
X126749608Y-48510392D01*
X126531101Y-48331068D01*
X126398142Y-48260000D01*
X126531101Y-48188932D01*
X126749608Y-48009608D01*
X126928932Y-47791101D01*
X127062182Y-47541808D01*
X127144236Y-47271309D01*
X127171943Y-46990000D01*
X127144236Y-46708691D01*
X127062182Y-46438192D01*
X126928932Y-46188899D01*
X126749608Y-45970392D01*
X126531101Y-45791068D01*
X126393318Y-45717421D01*
X126585131Y-45602385D01*
X126793519Y-45413414D01*
X126961037Y-45187420D01*
X127024638Y-45052856D01*
X127068958Y-45159853D01*
X127232961Y-45405302D01*
X127441698Y-45614039D01*
X127687147Y-45778042D01*
X127959875Y-45891010D01*
X128249401Y-45948600D01*
X128544599Y-45948600D01*
X128772615Y-45903245D01*
X130117721Y-47248352D01*
X130141578Y-47277422D01*
X130257608Y-47372645D01*
X130389985Y-47443402D01*
X130533622Y-47486974D01*
X130645574Y-47498000D01*
X130645576Y-47498000D01*
X130682999Y-47501686D01*
X130720422Y-47498000D01*
X132056801Y-47498000D01*
X132185961Y-47691302D01*
X132394698Y-47900039D01*
X132640147Y-48064042D01*
X132912875Y-48177010D01*
X133202401Y-48234600D01*
X133497599Y-48234600D01*
X133787125Y-48177010D01*
X134059853Y-48064042D01*
X134305302Y-47900039D01*
X134514039Y-47691302D01*
X134678042Y-47445853D01*
X134791010Y-47173125D01*
X134848600Y-46883599D01*
X134848600Y-46588401D01*
X134791010Y-46298875D01*
X134678042Y-46026147D01*
X134514039Y-45780698D01*
X134305302Y-45571961D01*
X134059853Y-45407958D01*
X133787125Y-45294990D01*
X133497599Y-45237400D01*
X133202401Y-45237400D01*
X132912875Y-45294990D01*
X132640147Y-45407958D01*
X132394698Y-45571961D01*
X132185961Y-45780698D01*
X132056801Y-45974000D01*
X130998631Y-45974000D01*
X129850245Y-44825615D01*
X129895600Y-44597599D01*
X129895600Y-44302401D01*
X129838010Y-44012875D01*
X129725042Y-43740147D01*
X129561039Y-43494698D01*
X129352302Y-43285961D01*
X129106853Y-43121958D01*
X128834125Y-43008990D01*
X128544599Y-42951400D01*
X128249401Y-42951400D01*
X127959875Y-43008990D01*
X127687147Y-43121958D01*
X127441698Y-43285961D01*
X127232961Y-43494698D01*
X127068958Y-43740147D01*
X127024638Y-43847144D01*
X126961037Y-43712580D01*
X126793519Y-43486586D01*
X126585131Y-43297615D01*
X126393318Y-43182579D01*
X126531101Y-43108932D01*
X126749608Y-42929608D01*
X126928932Y-42711101D01*
X127062182Y-42461808D01*
X127144236Y-42191309D01*
X127171943Y-41910000D01*
X127144236Y-41628691D01*
X127062182Y-41358192D01*
X126928932Y-41108899D01*
X126815105Y-40970200D01*
X129232128Y-40970200D01*
X129232128Y-42849800D01*
X129244388Y-42974282D01*
X129280698Y-43093980D01*
X129339663Y-43204294D01*
X129419015Y-43300985D01*
X129515706Y-43380337D01*
X129626020Y-43439302D01*
X129745718Y-43475612D01*
X129870200Y-43487872D01*
X131749800Y-43487872D01*
X131874282Y-43475612D01*
X131993980Y-43439302D01*
X132104294Y-43380337D01*
X132200985Y-43300985D01*
X132227533Y-43268637D01*
X132346123Y-43387227D01*
X132604052Y-43559570D01*
X132890648Y-43678282D01*
X133194896Y-43738800D01*
X133505104Y-43738800D01*
X133809352Y-43678282D01*
X134095948Y-43559570D01*
X134353877Y-43387227D01*
X134573227Y-43167877D01*
X134712435Y-42959539D01*
X134886123Y-43133227D01*
X135144052Y-43305570D01*
X135430648Y-43424282D01*
X135734896Y-43484800D01*
X136045104Y-43484800D01*
X136349352Y-43424282D01*
X136635948Y-43305570D01*
X136893877Y-43133227D01*
X137067565Y-42959539D01*
X137206773Y-43167877D01*
X137426123Y-43387227D01*
X137684052Y-43559570D01*
X137970648Y-43678282D01*
X138274896Y-43738800D01*
X138585104Y-43738800D01*
X138889352Y-43678282D01*
X139175948Y-43559570D01*
X139433877Y-43387227D01*
X139653227Y-43167877D01*
X139763744Y-43002476D01*
X140057129Y-43002476D01*
X140145623Y-43260723D01*
X140424976Y-43395597D01*
X140725275Y-43473381D01*
X141034977Y-43491084D01*
X141342184Y-43448027D01*
X141635086Y-43345865D01*
X141794377Y-43260723D01*
X141882871Y-43002476D01*
X140970000Y-42089605D01*
X140057129Y-43002476D01*
X139763744Y-43002476D01*
X139825570Y-42909948D01*
X139863613Y-42818104D01*
X139877524Y-42822871D01*
X140790395Y-41910000D01*
X139877524Y-40997129D01*
X139619277Y-41085623D01*
X139606074Y-41112970D01*
X139433877Y-40940773D01*
X139249423Y-40817524D01*
X140057129Y-40817524D01*
X140970000Y-41730395D01*
X141882871Y-40817524D01*
X141794377Y-40559277D01*
X141515024Y-40424403D01*
X141214725Y-40346619D01*
X140905023Y-40328916D01*
X140597816Y-40371973D01*
X140304914Y-40474135D01*
X140145623Y-40559277D01*
X140057129Y-40817524D01*
X139249423Y-40817524D01*
X139175948Y-40768430D01*
X138889352Y-40649718D01*
X138585104Y-40589200D01*
X138274896Y-40589200D01*
X137970648Y-40649718D01*
X137684052Y-40768430D01*
X137426123Y-40940773D01*
X137252435Y-41114461D01*
X137113227Y-40906123D01*
X136893877Y-40686773D01*
X136635948Y-40514430D01*
X136349352Y-40395718D01*
X136045104Y-40335200D01*
X135734896Y-40335200D01*
X135430648Y-40395718D01*
X135144052Y-40514430D01*
X134886123Y-40686773D01*
X134666773Y-40906123D01*
X134527565Y-41114461D01*
X134353877Y-40940773D01*
X134095948Y-40768430D01*
X133809352Y-40649718D01*
X133505104Y-40589200D01*
X133194896Y-40589200D01*
X132890648Y-40649718D01*
X132604052Y-40768430D01*
X132382575Y-40916417D01*
X132375612Y-40845718D01*
X132339302Y-40726020D01*
X132280337Y-40615706D01*
X132200985Y-40519015D01*
X132104294Y-40439663D01*
X131993980Y-40380698D01*
X131874282Y-40344388D01*
X131749800Y-40332128D01*
X129870200Y-40332128D01*
X129745718Y-40344388D01*
X129626020Y-40380698D01*
X129515706Y-40439663D01*
X129419015Y-40519015D01*
X129339663Y-40615706D01*
X129280698Y-40726020D01*
X129244388Y-40845718D01*
X129232128Y-40970200D01*
X126815105Y-40970200D01*
X126749608Y-40890392D01*
X126531101Y-40711068D01*
X126281808Y-40577818D01*
X126011309Y-40495764D01*
X125800492Y-40475000D01*
X125659508Y-40475000D01*
X125448691Y-40495764D01*
X125178192Y-40577818D01*
X124928899Y-40711068D01*
X124710392Y-40890392D01*
X124531068Y-41108899D01*
X124510168Y-41148000D01*
X124116422Y-41148000D01*
X124078999Y-41144314D01*
X124041576Y-41148000D01*
X124041574Y-41148000D01*
X123929622Y-41159026D01*
X123785985Y-41202598D01*
X123653608Y-41273355D01*
X123537578Y-41368578D01*
X123513721Y-41397648D01*
X122296649Y-42614721D01*
X122267579Y-42638578D01*
X122243722Y-42667648D01*
X122243721Y-42667649D01*
X122172355Y-42754608D01*
X122101599Y-42886985D01*
X122058027Y-43030622D01*
X122043314Y-43180000D01*
X122047001Y-43217433D01*
X122047000Y-46293370D01*
X117597649Y-50742721D01*
X117568579Y-50766578D01*
X117544722Y-50795648D01*
X117544721Y-50795649D01*
X117473355Y-50882608D01*
X117402599Y-51014985D01*
X117359027Y-51158622D01*
X117344314Y-51308000D01*
X117348001Y-51345433D01*
X117348000Y-59666801D01*
X117154698Y-59795961D01*
X116945961Y-60004698D01*
X116781958Y-60250147D01*
X116668990Y-60522875D01*
X116611400Y-60812401D01*
X116611400Y-61107599D01*
X116668990Y-61397125D01*
X116781958Y-61669853D01*
X116945961Y-61915302D01*
X117154698Y-62124039D01*
X117400147Y-62288042D01*
X117566626Y-62357000D01*
X112959139Y-62357000D01*
X112903000Y-62351471D01*
X112846861Y-62357000D01*
X110963446Y-62357000D01*
X109093000Y-60486555D01*
X109093000Y-59833407D01*
X109154494Y-59800537D01*
X109251185Y-59721185D01*
X109330537Y-59624494D01*
X109389502Y-59514180D01*
X109412498Y-59438374D01*
X109608645Y-59615178D01*
X109858748Y-59764157D01*
X110133109Y-59861481D01*
X110363000Y-59740814D01*
X110363000Y-58547000D01*
X110617000Y-58547000D01*
X110617000Y-59740814D01*
X110846891Y-59861481D01*
X111121252Y-59764157D01*
X111371355Y-59615178D01*
X111587588Y-59420269D01*
X111761641Y-59186920D01*
X111886825Y-58924099D01*
X111931476Y-58776890D01*
X111810155Y-58547000D01*
X110617000Y-58547000D01*
X110363000Y-58547000D01*
X110343000Y-58547000D01*
X110343000Y-58293000D01*
X110363000Y-58293000D01*
X110363000Y-56007000D01*
X110617000Y-56007000D01*
X110617000Y-58293000D01*
X111810155Y-58293000D01*
X111931476Y-58063110D01*
X111886825Y-57915901D01*
X111761641Y-57653080D01*
X111587588Y-57419731D01*
X111371355Y-57224822D01*
X111245745Y-57150000D01*
X111371355Y-57075178D01*
X111587588Y-56880269D01*
X111761641Y-56646920D01*
X111886825Y-56384099D01*
X111931476Y-56236890D01*
X111810155Y-56007000D01*
X110617000Y-56007000D01*
X110363000Y-56007000D01*
X110343000Y-56007000D01*
X110343000Y-55753000D01*
X110363000Y-55753000D01*
X110363000Y-54559186D01*
X110617000Y-54559186D01*
X110617000Y-55753000D01*
X111810155Y-55753000D01*
X111931476Y-55523110D01*
X111886825Y-55375901D01*
X111761641Y-55113080D01*
X111587588Y-54879731D01*
X111371355Y-54684822D01*
X111121252Y-54535843D01*
X110846891Y-54438519D01*
X110617000Y-54559186D01*
X110363000Y-54559186D01*
X110133109Y-54438519D01*
X109858748Y-54535843D01*
X109608645Y-54684822D01*
X109392412Y-54879731D01*
X109221584Y-55108756D01*
X109190706Y-55050986D01*
X109093000Y-54931931D01*
X109093000Y-53319401D01*
X111658400Y-53319401D01*
X111658400Y-53614599D01*
X111715990Y-53904125D01*
X111828958Y-54176853D01*
X111992961Y-54422302D01*
X112201698Y-54631039D01*
X112447147Y-54795042D01*
X112719875Y-54908010D01*
X113009401Y-54965600D01*
X113304599Y-54965600D01*
X113594125Y-54908010D01*
X113866853Y-54795042D01*
X114054947Y-54669362D01*
X114040698Y-54696020D01*
X114004388Y-54815718D01*
X113992128Y-54940200D01*
X113992128Y-56819800D01*
X114004388Y-56944282D01*
X114040698Y-57063980D01*
X114099663Y-57174294D01*
X114179015Y-57270985D01*
X114275706Y-57350337D01*
X114386020Y-57409302D01*
X114505718Y-57445612D01*
X114630200Y-57457872D01*
X116509800Y-57457872D01*
X116634282Y-57445612D01*
X116753980Y-57409302D01*
X116864294Y-57350337D01*
X116960985Y-57270985D01*
X117040337Y-57174294D01*
X117099302Y-57063980D01*
X117135612Y-56944282D01*
X117147872Y-56819800D01*
X117147872Y-54940200D01*
X117135612Y-54815718D01*
X117099302Y-54696020D01*
X117040337Y-54585706D01*
X116960985Y-54489015D01*
X116864294Y-54409663D01*
X116753980Y-54350698D01*
X116634282Y-54314388D01*
X116509800Y-54302128D01*
X114630200Y-54302128D01*
X114505718Y-54314388D01*
X114386020Y-54350698D01*
X114359362Y-54364947D01*
X114485042Y-54176853D01*
X114598010Y-53904125D01*
X114655600Y-53614599D01*
X114655600Y-53319401D01*
X114598010Y-53029875D01*
X114485042Y-52757147D01*
X114321039Y-52511698D01*
X114112302Y-52302961D01*
X113919000Y-52173801D01*
X113919000Y-43368630D01*
X114233776Y-43053854D01*
X114239463Y-43064494D01*
X114318815Y-43161185D01*
X114415506Y-43240537D01*
X114525820Y-43299502D01*
X114645518Y-43335812D01*
X114663482Y-43337581D01*
X114550392Y-43430392D01*
X114371068Y-43648899D01*
X114237818Y-43898192D01*
X114155764Y-44168691D01*
X114128057Y-44450000D01*
X114155764Y-44731309D01*
X114237818Y-45001808D01*
X114371068Y-45251101D01*
X114550392Y-45469608D01*
X114768899Y-45648932D01*
X114901858Y-45720000D01*
X114768899Y-45791068D01*
X114550392Y-45970392D01*
X114371068Y-46188899D01*
X114237818Y-46438192D01*
X114155764Y-46708691D01*
X114128057Y-46990000D01*
X114155764Y-47271309D01*
X114237818Y-47541808D01*
X114371068Y-47791101D01*
X114550392Y-48009608D01*
X114768899Y-48188932D01*
X114901858Y-48260000D01*
X114768899Y-48331068D01*
X114550392Y-48510392D01*
X114371068Y-48728899D01*
X114237818Y-48978192D01*
X114155764Y-49248691D01*
X114128057Y-49530000D01*
X114155764Y-49811309D01*
X114237818Y-50081808D01*
X114371068Y-50331101D01*
X114550392Y-50549608D01*
X114768899Y-50728932D01*
X115018192Y-50862182D01*
X115288691Y-50944236D01*
X115499508Y-50965000D01*
X115640492Y-50965000D01*
X115851309Y-50944236D01*
X116121808Y-50862182D01*
X116371101Y-50728932D01*
X116589608Y-50549608D01*
X116768932Y-50331101D01*
X116789832Y-50292000D01*
X117183577Y-50292000D01*
X117221000Y-50295686D01*
X117258423Y-50292000D01*
X117258426Y-50292000D01*
X117370378Y-50280974D01*
X117514015Y-50237402D01*
X117646392Y-50166645D01*
X117762422Y-50071422D01*
X117786284Y-50042346D01*
X118368346Y-49460284D01*
X118397422Y-49436422D01*
X118489530Y-49324188D01*
X118492645Y-49320393D01*
X118563401Y-49188016D01*
X118563402Y-49188015D01*
X118606974Y-49044378D01*
X118618000Y-48932426D01*
X118618000Y-48932423D01*
X118621686Y-48895000D01*
X118618000Y-48857577D01*
X118618000Y-43330199D01*
X118811302Y-43201039D01*
X119020039Y-42992302D01*
X119184042Y-42746853D01*
X119297010Y-42474125D01*
X119354600Y-42184599D01*
X119354600Y-41889401D01*
X119297010Y-41599875D01*
X119184042Y-41327147D01*
X119020039Y-41081698D01*
X118811302Y-40872961D01*
X118565853Y-40708958D01*
X118293125Y-40595990D01*
X118003599Y-40538400D01*
X117708401Y-40538400D01*
X117418875Y-40595990D01*
X117146147Y-40708958D01*
X116946839Y-40842130D01*
X116900537Y-40755506D01*
X116821185Y-40658815D01*
X116724494Y-40579463D01*
X116614180Y-40520498D01*
X116494482Y-40484188D01*
X116370000Y-40471928D01*
X114770000Y-40471928D01*
X114645518Y-40484188D01*
X114525820Y-40520498D01*
X114415506Y-40579463D01*
X114318815Y-40658815D01*
X114239463Y-40755506D01*
X114180498Y-40865820D01*
X114144188Y-40985518D01*
X114131928Y-41110000D01*
X114131928Y-41164697D01*
X114006985Y-41202598D01*
X113874608Y-41273355D01*
X113758578Y-41368578D01*
X113734721Y-41397648D01*
X112644649Y-42487721D01*
X112615579Y-42511578D01*
X112591722Y-42540648D01*
X112591721Y-42540649D01*
X112520355Y-42627608D01*
X112449599Y-42759985D01*
X112406027Y-42903622D01*
X112391314Y-43053000D01*
X112395001Y-43090433D01*
X112395000Y-52173801D01*
X112201698Y-52302961D01*
X111992961Y-52511698D01*
X111828958Y-52757147D01*
X111715990Y-53029875D01*
X111658400Y-53319401D01*
X109093000Y-53319401D01*
X109093000Y-52213407D01*
X109154494Y-52180537D01*
X109251185Y-52101185D01*
X109330537Y-52004494D01*
X109389502Y-51894180D01*
X109413966Y-51813534D01*
X109489731Y-51897588D01*
X109723080Y-52071641D01*
X109985901Y-52196825D01*
X110133110Y-52241476D01*
X110363000Y-52120155D01*
X110363000Y-50927000D01*
X110617000Y-50927000D01*
X110617000Y-52120155D01*
X110846890Y-52241476D01*
X110994099Y-52196825D01*
X111256920Y-52071641D01*
X111490269Y-51897588D01*
X111685178Y-51681355D01*
X111834157Y-51431252D01*
X111931481Y-51156891D01*
X111810814Y-50927000D01*
X110617000Y-50927000D01*
X110363000Y-50927000D01*
X110343000Y-50927000D01*
X110343000Y-50673000D01*
X110363000Y-50673000D01*
X110363000Y-49479845D01*
X110617000Y-49479845D01*
X110617000Y-50673000D01*
X111810814Y-50673000D01*
X111931481Y-50443109D01*
X111834157Y-50168748D01*
X111685178Y-49918645D01*
X111490269Y-49702412D01*
X111256920Y-49528359D01*
X110994099Y-49403175D01*
X110846890Y-49358524D01*
X110617000Y-49479845D01*
X110363000Y-49479845D01*
X110133110Y-49358524D01*
X109985901Y-49403175D01*
X109723080Y-49528359D01*
X109489731Y-49702412D01*
X109413966Y-49786466D01*
X109389502Y-49705820D01*
X109330537Y-49595506D01*
X109251185Y-49498815D01*
X109154494Y-49419463D01*
X109044180Y-49360498D01*
X108924482Y-49324188D01*
X108800000Y-49311928D01*
X107100000Y-49311928D01*
X106975518Y-49324188D01*
X106855820Y-49360498D01*
X106745506Y-49419463D01*
X106648815Y-49498815D01*
X106569463Y-49595506D01*
X106510498Y-49705820D01*
X106474188Y-49825518D01*
X106461928Y-49950000D01*
X106461928Y-51650000D01*
X106474188Y-51774482D01*
X106510498Y-51894180D01*
X106569463Y-52004494D01*
X106648815Y-52101185D01*
X106745506Y-52180537D01*
X106807001Y-52213407D01*
X106807000Y-54553851D01*
X106807000Y-54737000D01*
X103818069Y-54737000D01*
X103699014Y-54639294D01*
X103441034Y-54501401D01*
X103161111Y-54416487D01*
X102942950Y-54395000D01*
X102797050Y-54395000D01*
X102578889Y-54416487D01*
X102298966Y-54501401D01*
X102040986Y-54639294D01*
X101921931Y-54737000D01*
X101743407Y-54737000D01*
X101710537Y-54675506D01*
X101631185Y-54578815D01*
X101534494Y-54499463D01*
X101424180Y-54440498D01*
X101304482Y-54404188D01*
X101180000Y-54391928D01*
X99480000Y-54391928D01*
X99355518Y-54404188D01*
X99235820Y-54440498D01*
X99125506Y-54499463D01*
X99028815Y-54578815D01*
X98949463Y-54675506D01*
X98890498Y-54785820D01*
X98854188Y-54905518D01*
X98841928Y-55030000D01*
X98841928Y-56730000D01*
X98854188Y-56854482D01*
X98890498Y-56974180D01*
X98949463Y-57084494D01*
X99028815Y-57181185D01*
X99125506Y-57260537D01*
X99235820Y-57319502D01*
X99316466Y-57343966D01*
X99232412Y-57419731D01*
X99058359Y-57653080D01*
X98933175Y-57915901D01*
X98888524Y-58063110D01*
X99009845Y-58293000D01*
X100203000Y-58293000D01*
X100203000Y-58273000D01*
X100457000Y-58273000D01*
X100457000Y-58293000D01*
X102743000Y-58293000D01*
X102743000Y-58273000D01*
X102997000Y-58273000D01*
X102997000Y-58293000D01*
X104190155Y-58293000D01*
X104311476Y-58063110D01*
X104266825Y-57915901D01*
X104141641Y-57653080D01*
X103967588Y-57419731D01*
X103751355Y-57224822D01*
X103634477Y-57155201D01*
X103699014Y-57120706D01*
X103818069Y-57023000D01*
X106776306Y-57023000D01*
X106745506Y-57039463D01*
X106648815Y-57118815D01*
X106569463Y-57215506D01*
X106510498Y-57325820D01*
X106474188Y-57445518D01*
X106461928Y-57570000D01*
X106461928Y-59270000D01*
X106474188Y-59394482D01*
X106510498Y-59514180D01*
X106569463Y-59624494D01*
X106648815Y-59721185D01*
X106745506Y-59800537D01*
X106807001Y-59833407D01*
X106807001Y-60903852D01*
X106801471Y-60960000D01*
X106823539Y-61184067D01*
X106844455Y-61253015D01*
X106888898Y-61399523D01*
X106995033Y-61598089D01*
X107024517Y-61634015D01*
X107099750Y-61725686D01*
X107137868Y-61772133D01*
X107181478Y-61807923D01*
X109642075Y-64268521D01*
X109677867Y-64312133D01*
X109851911Y-64454968D01*
X110050477Y-64561103D01*
X110200574Y-64606635D01*
X110265932Y-64626461D01*
X110288600Y-64628694D01*
X110433854Y-64643000D01*
X110433860Y-64643000D01*
X110489999Y-64648529D01*
X110546138Y-64643000D01*
X112429555Y-64643000D01*
X112674400Y-64887845D01*
X112674400Y-64917599D01*
X112731990Y-65207125D01*
X112844958Y-65479853D01*
X113008961Y-65725302D01*
X113217698Y-65934039D01*
X113463147Y-66098042D01*
X113735875Y-66211010D01*
X114025401Y-66268600D01*
X114320599Y-66268600D01*
X114610125Y-66211010D01*
X114882853Y-66098042D01*
X115128302Y-65934039D01*
X115294023Y-65768318D01*
X115384958Y-65987853D01*
X115548961Y-66233302D01*
X115686014Y-66370355D01*
X115508370Y-66548000D01*
X104267720Y-66548000D01*
X104333513Y-66331111D01*
X104362185Y-66040000D01*
X104333513Y-65748889D01*
X104248599Y-65468966D01*
X104110706Y-65210986D01*
X103925134Y-64984866D01*
X103699014Y-64799294D01*
X103644209Y-64770000D01*
X103699014Y-64740706D01*
X103925134Y-64555134D01*
X104110706Y-64329014D01*
X104248599Y-64071034D01*
X104333513Y-63791111D01*
X104362185Y-63500000D01*
X104333513Y-63208889D01*
X104248599Y-62928966D01*
X104110706Y-62670986D01*
X103925134Y-62444866D01*
X103699014Y-62259294D01*
X103644209Y-62230000D01*
X103699014Y-62200706D01*
X103925134Y-62015134D01*
X104110706Y-61789014D01*
X104248599Y-61531034D01*
X104333513Y-61251111D01*
X104362185Y-60960000D01*
X104333513Y-60668889D01*
X104248599Y-60388966D01*
X104110706Y-60130986D01*
X103925134Y-59904866D01*
X103699014Y-59719294D01*
X103634477Y-59684799D01*
X103751355Y-59615178D01*
X103967588Y-59420269D01*
X104141641Y-59186920D01*
X104266825Y-58924099D01*
X104311476Y-58776890D01*
X104190155Y-58547000D01*
X102997000Y-58547000D01*
X102997000Y-58567000D01*
X102743000Y-58567000D01*
X102743000Y-58547000D01*
X100457000Y-58547000D01*
X100457000Y-58567000D01*
X100203000Y-58567000D01*
X100203000Y-58547000D01*
X99009845Y-58547000D01*
X98888524Y-58776890D01*
X98933175Y-58924099D01*
X99058359Y-59186920D01*
X99232412Y-59420269D01*
X99448645Y-59615178D01*
X99565523Y-59684799D01*
X99500986Y-59719294D01*
X99274866Y-59904866D01*
X99089294Y-60130986D01*
X98951401Y-60388966D01*
X98866487Y-60668889D01*
X98837815Y-60960000D01*
X98450000Y-60960000D01*
X98450000Y-42969721D01*
X99465000Y-42969721D01*
X99465000Y-43390279D01*
X99547047Y-43802756D01*
X99707988Y-44191302D01*
X99941637Y-44540983D01*
X100239017Y-44838363D01*
X100588698Y-45072012D01*
X100977244Y-45232953D01*
X101389721Y-45315000D01*
X101810279Y-45315000D01*
X102222756Y-45232953D01*
X102611302Y-45072012D01*
X102960983Y-44838363D01*
X103258363Y-44540983D01*
X103492012Y-44191302D01*
X103652953Y-43802756D01*
X103735000Y-43390279D01*
X103735000Y-42969721D01*
X103652953Y-42557244D01*
X103492012Y-42168698D01*
X103258363Y-41819017D01*
X102960983Y-41521637D01*
X102611302Y-41287988D01*
X102222756Y-41127047D01*
X101810279Y-41045000D01*
X101389721Y-41045000D01*
X100977244Y-41127047D01*
X100588698Y-41287988D01*
X100239017Y-41521637D01*
X99941637Y-41819017D01*
X99707988Y-42168698D01*
X99547047Y-42557244D01*
X99465000Y-42969721D01*
X98450000Y-42969721D01*
X98450000Y-40030000D01*
X155550001Y-40030000D01*
X155550000Y-103480000D01*
X155550000Y-103480000D01*
G37*
X155550000Y-103480000D02*
X98450000Y-103480000D01*
X98450000Y-100119721D01*
X99465000Y-100119721D01*
X99465000Y-100540279D01*
X99547047Y-100952756D01*
X99707988Y-101341302D01*
X99941637Y-101690983D01*
X100239017Y-101988363D01*
X100588698Y-102222012D01*
X100977244Y-102382953D01*
X101389721Y-102465000D01*
X101810279Y-102465000D01*
X102222756Y-102382953D01*
X102611302Y-102222012D01*
X102960983Y-101988363D01*
X103258363Y-101690983D01*
X103492012Y-101341302D01*
X103652953Y-100952756D01*
X103735000Y-100540279D01*
X103735000Y-100119721D01*
X103652953Y-99707244D01*
X103492012Y-99318698D01*
X103258363Y-98969017D01*
X102960983Y-98671637D01*
X102611302Y-98437988D01*
X102222756Y-98277047D01*
X101810279Y-98195000D01*
X101389721Y-98195000D01*
X100977244Y-98277047D01*
X100588698Y-98437988D01*
X100239017Y-98671637D01*
X99941637Y-98969017D01*
X99707988Y-99318698D01*
X99547047Y-99707244D01*
X99465000Y-100119721D01*
X98450000Y-100119721D01*
X98450000Y-93980000D01*
X98837815Y-93980000D01*
X98866487Y-94271111D01*
X98951401Y-94551034D01*
X99089294Y-94809014D01*
X99274866Y-95035134D01*
X99500986Y-95220706D01*
X99758966Y-95358599D01*
X100038889Y-95443513D01*
X100257050Y-95465000D01*
X100402950Y-95465000D01*
X100621111Y-95443513D01*
X100901034Y-95358599D01*
X101159014Y-95220706D01*
X101385134Y-95035134D01*
X101570706Y-94809014D01*
X101600000Y-94754209D01*
X101629294Y-94809014D01*
X101814866Y-95035134D01*
X102040986Y-95220706D01*
X102298966Y-95358599D01*
X102578889Y-95443513D01*
X102797050Y-95465000D01*
X102942950Y-95465000D01*
X103161111Y-95443513D01*
X103441034Y-95358599D01*
X103699014Y-95220706D01*
X103925134Y-95035134D01*
X104110706Y-94809014D01*
X104248599Y-94551034D01*
X104333513Y-94271111D01*
X104362185Y-93980000D01*
X104333513Y-93688889D01*
X104248599Y-93408966D01*
X104110706Y-93150986D01*
X103925134Y-92924866D01*
X103699014Y-92739294D01*
X103634477Y-92704799D01*
X103751355Y-92635178D01*
X103967588Y-92440269D01*
X104141641Y-92206920D01*
X104266825Y-91944099D01*
X104311476Y-91796890D01*
X104190155Y-91567000D01*
X102997000Y-91567000D01*
X102997000Y-91587000D01*
X102743000Y-91587000D01*
X102743000Y-91567000D01*
X100457000Y-91567000D01*
X100457000Y-91587000D01*
X100203000Y-91587000D01*
X100203000Y-91567000D01*
X99003750Y-91567000D01*
X98845000Y-91725750D01*
X98841928Y-92290000D01*
X98854188Y-92414482D01*
X98890498Y-92534180D01*
X98949463Y-92644494D01*
X99028815Y-92741185D01*
X99125506Y-92820537D01*
X99235820Y-92879502D01*
X99304687Y-92900393D01*
X99274866Y-92924866D01*
X99089294Y-93150986D01*
X98951401Y-93408966D01*
X98866487Y-93688889D01*
X98837815Y-93980000D01*
X98450000Y-93980000D01*
X98450000Y-90590000D01*
X98841928Y-90590000D01*
X98845000Y-91154250D01*
X99003750Y-91313000D01*
X100203000Y-91313000D01*
X100203000Y-90113750D01*
X100457000Y-90113750D01*
X100457000Y-91313000D01*
X102743000Y-91313000D01*
X102743000Y-90119186D01*
X102997000Y-90119186D01*
X102997000Y-91313000D01*
X104190155Y-91313000D01*
X104311476Y-91083110D01*
X104266825Y-90935901D01*
X104141641Y-90673080D01*
X103967588Y-90439731D01*
X103751355Y-90244822D01*
X103501252Y-90095843D01*
X103226891Y-89998519D01*
X102997000Y-90119186D01*
X102743000Y-90119186D01*
X102513109Y-89998519D01*
X102238748Y-90095843D01*
X101988645Y-90244822D01*
X101792498Y-90421626D01*
X101769502Y-90345820D01*
X101710537Y-90235506D01*
X101631185Y-90138815D01*
X101534494Y-90059463D01*
X101424180Y-90000498D01*
X101304482Y-89964188D01*
X101180000Y-89951928D01*
X100615750Y-89955000D01*
X100457000Y-90113750D01*
X100203000Y-90113750D01*
X100044250Y-89955000D01*
X99480000Y-89951928D01*
X99355518Y-89964188D01*
X99235820Y-90000498D01*
X99125506Y-90059463D01*
X99028815Y-90138815D01*
X98949463Y-90235506D01*
X98890498Y-90345820D01*
X98854188Y-90465518D01*
X98841928Y-90590000D01*
X98450000Y-90590000D01*
X98450000Y-60960000D01*
X98837815Y-60960000D01*
X98866487Y-61251111D01*
X98951401Y-61531034D01*
X99089294Y-61789014D01*
X99274866Y-62015134D01*
X99500986Y-62200706D01*
X99555791Y-62230000D01*
X99500986Y-62259294D01*
X99274866Y-62444866D01*
X99089294Y-62670986D01*
X98951401Y-62928966D01*
X98866487Y-63208889D01*
X98837815Y-63500000D01*
X98866487Y-63791111D01*
X98951401Y-64071034D01*
X99089294Y-64329014D01*
X99274866Y-64555134D01*
X99500986Y-64740706D01*
X99555791Y-64770000D01*
X99500986Y-64799294D01*
X99274866Y-64984866D01*
X99089294Y-65210986D01*
X98951401Y-65468966D01*
X98866487Y-65748889D01*
X98837815Y-66040000D01*
X98866487Y-66331111D01*
X98951401Y-66611034D01*
X99089294Y-66869014D01*
X99274866Y-67095134D01*
X99500986Y-67280706D01*
X99555791Y-67310000D01*
X99500986Y-67339294D01*
X99274866Y-67524866D01*
X99089294Y-67750986D01*
X98951401Y-68008966D01*
X98866487Y-68288889D01*
X98837815Y-68580000D01*
X98866487Y-68871111D01*
X98951401Y-69151034D01*
X99089294Y-69409014D01*
X99274866Y-69635134D01*
X99500986Y-69820706D01*
X99555791Y-69850000D01*
X99500986Y-69879294D01*
X99274866Y-70064866D01*
X99089294Y-70290986D01*
X98951401Y-70548966D01*
X98866487Y-70828889D01*
X98837815Y-71120000D01*
X98866487Y-71411111D01*
X98951401Y-71691034D01*
X99089294Y-71949014D01*
X99274866Y-72175134D01*
X99500986Y-72360706D01*
X99555791Y-72390000D01*
X99500986Y-72419294D01*
X99274866Y-72604866D01*
X99089294Y-72830986D01*
X98951401Y-73088966D01*
X98866487Y-73368889D01*
X98837815Y-73660000D01*
X98866487Y-73951111D01*
X98951401Y-74231034D01*
X99089294Y-74489014D01*
X99274866Y-74715134D01*
X99500986Y-74900706D01*
X99555791Y-74930000D01*
X99500986Y-74959294D01*
X99274866Y-75144866D01*
X99089294Y-75370986D01*
X98951401Y-75628966D01*
X98866487Y-75908889D01*
X98837815Y-76200000D01*
X98866487Y-76491111D01*
X98951401Y-76771034D01*
X99089294Y-77029014D01*
X99274866Y-77255134D01*
X99500986Y-77440706D01*
X99758966Y-77578599D01*
X100038889Y-77663513D01*
X100257050Y-77685000D01*
X100402950Y-77685000D01*
X100621111Y-77663513D01*
X100838001Y-77597720D01*
X100838000Y-85687577D01*
X100834314Y-85725000D01*
X100838000Y-85762423D01*
X100838000Y-85762425D01*
X100849026Y-85874377D01*
X100892598Y-86018014D01*
X100892599Y-86018015D01*
X100963355Y-86150392D01*
X100994718Y-86188607D01*
X101058578Y-86266422D01*
X101087653Y-86290284D01*
X101371400Y-86574030D01*
X101371400Y-86761599D01*
X101428990Y-87051125D01*
X101541958Y-87323853D01*
X101705961Y-87569302D01*
X101914698Y-87778039D01*
X102160147Y-87942042D01*
X102432875Y-88055010D01*
X102722401Y-88112600D01*
X103017599Y-88112600D01*
X103307125Y-88055010D01*
X103579853Y-87942042D01*
X103825302Y-87778039D01*
X104034039Y-87569302D01*
X104198042Y-87323853D01*
X104311010Y-87051125D01*
X104368600Y-86761599D01*
X104368600Y-86466401D01*
X104311010Y-86176875D01*
X104198042Y-85904147D01*
X104034039Y-85658698D01*
X103868318Y-85492977D01*
X104087853Y-85402042D01*
X104333302Y-85238039D01*
X104542039Y-85029302D01*
X104648001Y-84870719D01*
X104648001Y-96482567D01*
X104644314Y-96520000D01*
X104659027Y-96669378D01*
X104702599Y-96813015D01*
X104773355Y-96945392D01*
X104838125Y-97024314D01*
X104868579Y-97061422D01*
X104897649Y-97085279D01*
X105740200Y-97927831D01*
X105740200Y-98752128D01*
X105562400Y-98752128D01*
X105437918Y-98764388D01*
X105318220Y-98800698D01*
X105207906Y-98859663D01*
X105111215Y-98939015D01*
X105031863Y-99035706D01*
X104972898Y-99146020D01*
X104936588Y-99265718D01*
X104924328Y-99390200D01*
X104924328Y-101269800D01*
X104936588Y-101394282D01*
X104972898Y-101513980D01*
X105031863Y-101624294D01*
X105111215Y-101720985D01*
X105207906Y-101800337D01*
X105318220Y-101859302D01*
X105437918Y-101895612D01*
X105562400Y-101907872D01*
X107442000Y-101907872D01*
X107566482Y-101895612D01*
X107686180Y-101859302D01*
X107796494Y-101800337D01*
X107893185Y-101720985D01*
X107972537Y-101624294D01*
X108031502Y-101513980D01*
X108067812Y-101394282D01*
X108080072Y-101269800D01*
X108080072Y-101192447D01*
X108174573Y-101333877D01*
X108393923Y-101553227D01*
X108651852Y-101725570D01*
X108938448Y-101844282D01*
X109242696Y-101904800D01*
X109552904Y-101904800D01*
X109857152Y-101844282D01*
X110143748Y-101725570D01*
X110401677Y-101553227D01*
X110621027Y-101333877D01*
X110793370Y-101075948D01*
X110912082Y-100789352D01*
X110972600Y-100485104D01*
X110972600Y-100174896D01*
X110912082Y-99870648D01*
X110793370Y-99584052D01*
X110621027Y-99326123D01*
X110401677Y-99106773D01*
X110159800Y-98945156D01*
X110159800Y-98513223D01*
X110163486Y-98475800D01*
X110159762Y-98437988D01*
X110148774Y-98326422D01*
X110105202Y-98182785D01*
X110034446Y-98050409D01*
X110034445Y-98050407D01*
X109963079Y-97963448D01*
X109939222Y-97934378D01*
X109910153Y-97910522D01*
X107188000Y-95188370D01*
X107188000Y-94779423D01*
X107199027Y-94891378D01*
X107242599Y-95035015D01*
X107313355Y-95167392D01*
X107384721Y-95254351D01*
X107408579Y-95283422D01*
X107437649Y-95307279D01*
X108908720Y-96778351D01*
X108932578Y-96807422D01*
X109048608Y-96902645D01*
X109180985Y-96973402D01*
X109324622Y-97016974D01*
X109436574Y-97028000D01*
X109436576Y-97028000D01*
X109473999Y-97031686D01*
X109511422Y-97028000D01*
X112460370Y-97028000D01*
X113538000Y-98105631D01*
X113538000Y-98625128D01*
X113360200Y-98625128D01*
X113235718Y-98637388D01*
X113116020Y-98673698D01*
X113005706Y-98732663D01*
X112909015Y-98812015D01*
X112829663Y-98908706D01*
X112770698Y-99019020D01*
X112734388Y-99138718D01*
X112722128Y-99263200D01*
X112722128Y-101142800D01*
X112734388Y-101267282D01*
X112770698Y-101386980D01*
X112829663Y-101497294D01*
X112909015Y-101593985D01*
X113005706Y-101673337D01*
X113116020Y-101732302D01*
X113235718Y-101768612D01*
X113360200Y-101780872D01*
X115239800Y-101780872D01*
X115364282Y-101768612D01*
X115483980Y-101732302D01*
X115594294Y-101673337D01*
X115690985Y-101593985D01*
X115717533Y-101561637D01*
X115836123Y-101680227D01*
X116094052Y-101852570D01*
X116380648Y-101971282D01*
X116684896Y-102031800D01*
X116995104Y-102031800D01*
X117299352Y-101971282D01*
X117585948Y-101852570D01*
X117843877Y-101680227D01*
X118063227Y-101460877D01*
X118173744Y-101295476D01*
X118467129Y-101295476D01*
X118555623Y-101553723D01*
X118834976Y-101688597D01*
X119135275Y-101766381D01*
X119444977Y-101784084D01*
X119752184Y-101741027D01*
X120045086Y-101638865D01*
X120204377Y-101553723D01*
X120292871Y-101295476D01*
X119380000Y-100382605D01*
X118467129Y-101295476D01*
X118173744Y-101295476D01*
X118235570Y-101202948D01*
X118273613Y-101111104D01*
X118287524Y-101115871D01*
X119200395Y-100203000D01*
X119559605Y-100203000D01*
X120472476Y-101115871D01*
X120730723Y-101027377D01*
X120865597Y-100748024D01*
X120943381Y-100447725D01*
X120961084Y-100138023D01*
X120958519Y-100119721D01*
X150265000Y-100119721D01*
X150265000Y-100540279D01*
X150347047Y-100952756D01*
X150507988Y-101341302D01*
X150741637Y-101690983D01*
X151039017Y-101988363D01*
X151388698Y-102222012D01*
X151777244Y-102382953D01*
X152189721Y-102465000D01*
X152610279Y-102465000D01*
X153022756Y-102382953D01*
X153411302Y-102222012D01*
X153760983Y-101988363D01*
X154058363Y-101690983D01*
X154292012Y-101341302D01*
X154452953Y-100952756D01*
X154535000Y-100540279D01*
X154535000Y-100119721D01*
X154452953Y-99707244D01*
X154292012Y-99318698D01*
X154058363Y-98969017D01*
X153760983Y-98671637D01*
X153411302Y-98437988D01*
X153022756Y-98277047D01*
X152610279Y-98195000D01*
X152189721Y-98195000D01*
X151777244Y-98277047D01*
X151388698Y-98437988D01*
X151039017Y-98671637D01*
X150741637Y-98969017D01*
X150507988Y-99318698D01*
X150347047Y-99707244D01*
X150265000Y-100119721D01*
X120958519Y-100119721D01*
X120918027Y-99830816D01*
X120815865Y-99537914D01*
X120730723Y-99378623D01*
X120472476Y-99290129D01*
X119559605Y-100203000D01*
X119200395Y-100203000D01*
X118287524Y-99290129D01*
X118029277Y-99378623D01*
X118016074Y-99405970D01*
X117843877Y-99233773D01*
X117659423Y-99110524D01*
X118467129Y-99110524D01*
X119380000Y-100023395D01*
X120292871Y-99110524D01*
X120204377Y-98852277D01*
X119925024Y-98717403D01*
X119624725Y-98639619D01*
X119315023Y-98621916D01*
X119007816Y-98664973D01*
X118714914Y-98767135D01*
X118555623Y-98852277D01*
X118467129Y-99110524D01*
X117659423Y-99110524D01*
X117585948Y-99061430D01*
X117299352Y-98942718D01*
X116995104Y-98882200D01*
X116684896Y-98882200D01*
X116380648Y-98942718D01*
X116094052Y-99061430D01*
X115872575Y-99209417D01*
X115865612Y-99138718D01*
X115829302Y-99019020D01*
X115770337Y-98908706D01*
X115690985Y-98812015D01*
X115594294Y-98732663D01*
X115483980Y-98673698D01*
X115364282Y-98637388D01*
X115239800Y-98625128D01*
X115062000Y-98625128D01*
X115062000Y-97827422D01*
X115065686Y-97789999D01*
X115057818Y-97710114D01*
X115050974Y-97640622D01*
X115007402Y-97496985D01*
X114936645Y-97364608D01*
X114841422Y-97248578D01*
X114812353Y-97224722D01*
X113341284Y-95753654D01*
X113317422Y-95724578D01*
X113201392Y-95629355D01*
X113069015Y-95558598D01*
X112925378Y-95515026D01*
X112813426Y-95504000D01*
X112813423Y-95504000D01*
X112776000Y-95500314D01*
X112738577Y-95504000D01*
X109789631Y-95504000D01*
X108712000Y-94426370D01*
X108712000Y-93980000D01*
X149637815Y-93980000D01*
X149666487Y-94271111D01*
X149751401Y-94551034D01*
X149889294Y-94809014D01*
X150074866Y-95035134D01*
X150300986Y-95220706D01*
X150558966Y-95358599D01*
X150838889Y-95443513D01*
X151057050Y-95465000D01*
X151202950Y-95465000D01*
X151421111Y-95443513D01*
X151701034Y-95358599D01*
X151959014Y-95220706D01*
X152185134Y-95035134D01*
X152370706Y-94809014D01*
X152400000Y-94754209D01*
X152429294Y-94809014D01*
X152614866Y-95035134D01*
X152840986Y-95220706D01*
X153098966Y-95358599D01*
X153378889Y-95443513D01*
X153597050Y-95465000D01*
X153742950Y-95465000D01*
X153961111Y-95443513D01*
X154241034Y-95358599D01*
X154499014Y-95220706D01*
X154725134Y-95035134D01*
X154910706Y-94809014D01*
X155048599Y-94551034D01*
X155133513Y-94271111D01*
X155162185Y-93980000D01*
X155133513Y-93688889D01*
X155048599Y-93408966D01*
X154910706Y-93150986D01*
X154725134Y-92924866D01*
X154499014Y-92739294D01*
X154434477Y-92704799D01*
X154551355Y-92635178D01*
X154767588Y-92440269D01*
X154941641Y-92206920D01*
X155066825Y-91944099D01*
X155111476Y-91796890D01*
X154990155Y-91567000D01*
X153797000Y-91567000D01*
X153797000Y-91587000D01*
X153543000Y-91587000D01*
X153543000Y-91567000D01*
X151257000Y-91567000D01*
X151257000Y-91587000D01*
X151003000Y-91587000D01*
X151003000Y-91567000D01*
X149803750Y-91567000D01*
X149645000Y-91725750D01*
X149641928Y-92290000D01*
X149654188Y-92414482D01*
X149690498Y-92534180D01*
X149749463Y-92644494D01*
X149828815Y-92741185D01*
X149925506Y-92820537D01*
X150035820Y-92879502D01*
X150104687Y-92900393D01*
X150074866Y-92924866D01*
X149889294Y-93150986D01*
X149751401Y-93408966D01*
X149666487Y-93688889D01*
X149637815Y-93980000D01*
X108712000Y-93980000D01*
X108712000Y-90590000D01*
X149641928Y-90590000D01*
X149645000Y-91154250D01*
X149803750Y-91313000D01*
X151003000Y-91313000D01*
X151003000Y-90113750D01*
X151257000Y-90113750D01*
X151257000Y-91313000D01*
X153543000Y-91313000D01*
X153543000Y-90119186D01*
X153797000Y-90119186D01*
X153797000Y-91313000D01*
X154990155Y-91313000D01*
X155111476Y-91083110D01*
X155066825Y-90935901D01*
X154941641Y-90673080D01*
X154767588Y-90439731D01*
X154551355Y-90244822D01*
X154301252Y-90095843D01*
X154026891Y-89998519D01*
X153797000Y-90119186D01*
X153543000Y-90119186D01*
X153313109Y-89998519D01*
X153038748Y-90095843D01*
X152788645Y-90244822D01*
X152592498Y-90421626D01*
X152569502Y-90345820D01*
X152510537Y-90235506D01*
X152431185Y-90138815D01*
X152334494Y-90059463D01*
X152224180Y-90000498D01*
X152104482Y-89964188D01*
X151980000Y-89951928D01*
X151415750Y-89955000D01*
X151257000Y-90113750D01*
X151003000Y-90113750D01*
X150844250Y-89955000D01*
X150280000Y-89951928D01*
X150155518Y-89964188D01*
X150035820Y-90000498D01*
X149925506Y-90059463D01*
X149828815Y-90138815D01*
X149749463Y-90235506D01*
X149690498Y-90345820D01*
X149654188Y-90465518D01*
X149641928Y-90590000D01*
X108712000Y-90590000D01*
X108712000Y-83926401D01*
X108737400Y-83926401D01*
X108737400Y-84221599D01*
X108794990Y-84511125D01*
X108907958Y-84783853D01*
X109071961Y-85029302D01*
X109280698Y-85238039D01*
X109439281Y-85344000D01*
X109280698Y-85449961D01*
X109071961Y-85658698D01*
X108907958Y-85904147D01*
X108794990Y-86176875D01*
X108737400Y-86466401D01*
X108737400Y-86761599D01*
X108794990Y-87051125D01*
X108907958Y-87323853D01*
X109071961Y-87569302D01*
X109280698Y-87778039D01*
X109526147Y-87942042D01*
X109798875Y-88055010D01*
X110088401Y-88112600D01*
X110383599Y-88112600D01*
X110673125Y-88055010D01*
X110945853Y-87942042D01*
X111191302Y-87778039D01*
X111400039Y-87569302D01*
X111529199Y-87376000D01*
X135852577Y-87376000D01*
X135890000Y-87379686D01*
X135927423Y-87376000D01*
X135927426Y-87376000D01*
X136039378Y-87364974D01*
X136183015Y-87321402D01*
X136315392Y-87250645D01*
X136431422Y-87155422D01*
X136455284Y-87126346D01*
X141736352Y-81845279D01*
X141765422Y-81821422D01*
X141860645Y-81705392D01*
X141931402Y-81573015D01*
X141974974Y-81429378D01*
X141986000Y-81317426D01*
X141986000Y-81317424D01*
X141989686Y-81280001D01*
X141986000Y-81242578D01*
X141986000Y-70180200D01*
X145488128Y-70180200D01*
X145488128Y-72059800D01*
X145500388Y-72184282D01*
X145536698Y-72303980D01*
X145595663Y-72414294D01*
X145675015Y-72510985D01*
X145771706Y-72590337D01*
X145882020Y-72649302D01*
X146001718Y-72685612D01*
X146126200Y-72697872D01*
X148005800Y-72697872D01*
X148130282Y-72685612D01*
X148249980Y-72649302D01*
X148360294Y-72590337D01*
X148456985Y-72510985D01*
X148536337Y-72414294D01*
X148595302Y-72303980D01*
X148631612Y-72184282D01*
X148643872Y-72059800D01*
X148643872Y-70180200D01*
X148631612Y-70055718D01*
X148595302Y-69936020D01*
X148536337Y-69825706D01*
X148456985Y-69729015D01*
X148424637Y-69702467D01*
X148543227Y-69583877D01*
X148715570Y-69325948D01*
X148834282Y-69039352D01*
X148894800Y-68735104D01*
X148894800Y-68424896D01*
X148834282Y-68120648D01*
X148715570Y-67834052D01*
X148543227Y-67576123D01*
X148323877Y-67356773D01*
X148115539Y-67217565D01*
X148289227Y-67043877D01*
X148461570Y-66785948D01*
X148580282Y-66499352D01*
X148640800Y-66195104D01*
X148640800Y-65884896D01*
X148580282Y-65580648D01*
X148461570Y-65294052D01*
X148289227Y-65036123D01*
X148069877Y-64816773D01*
X147811948Y-64644430D01*
X147525352Y-64525718D01*
X147221104Y-64465200D01*
X146910896Y-64465200D01*
X146606648Y-64525718D01*
X146320052Y-64644430D01*
X146062123Y-64816773D01*
X145842773Y-65036123D01*
X145670430Y-65294052D01*
X145551718Y-65580648D01*
X145491200Y-65884896D01*
X145491200Y-66195104D01*
X145551718Y-66499352D01*
X145670430Y-66785948D01*
X145842773Y-67043877D01*
X146062123Y-67263227D01*
X146270461Y-67402435D01*
X146096773Y-67576123D01*
X145924430Y-67834052D01*
X145805718Y-68120648D01*
X145745200Y-68424896D01*
X145745200Y-68735104D01*
X145805718Y-69039352D01*
X145924430Y-69325948D01*
X146072417Y-69547425D01*
X146001718Y-69554388D01*
X145882020Y-69590698D01*
X145771706Y-69649663D01*
X145675015Y-69729015D01*
X145595663Y-69825706D01*
X145536698Y-69936020D01*
X145500388Y-70055718D01*
X145488128Y-70180200D01*
X141986000Y-70180200D01*
X141986000Y-66825199D01*
X142179302Y-66696039D01*
X142388039Y-66487302D01*
X142552042Y-66241853D01*
X142665010Y-65969125D01*
X142722600Y-65679599D01*
X142722600Y-65384401D01*
X142665010Y-65094875D01*
X142552042Y-64822147D01*
X142388039Y-64576698D01*
X142179302Y-64367961D01*
X141933853Y-64203958D01*
X141661125Y-64090990D01*
X141371599Y-64033400D01*
X141076401Y-64033400D01*
X140786875Y-64090990D01*
X140514147Y-64203958D01*
X140268698Y-64367961D01*
X140059961Y-64576698D01*
X139954000Y-64735281D01*
X139848039Y-64576698D01*
X139639302Y-64367961D01*
X139393853Y-64203958D01*
X139121125Y-64090990D01*
X138831599Y-64033400D01*
X138536401Y-64033400D01*
X138246875Y-64090990D01*
X137974147Y-64203958D01*
X137728698Y-64367961D01*
X137519961Y-64576698D01*
X137355958Y-64822147D01*
X137242990Y-65094875D01*
X137185400Y-65384401D01*
X137185400Y-65679599D01*
X137242990Y-65969125D01*
X137355958Y-66241853D01*
X137519961Y-66487302D01*
X137728698Y-66696039D01*
X137922000Y-66825199D01*
X137922001Y-80964369D01*
X135574370Y-83312000D01*
X111529199Y-83312000D01*
X111400039Y-83118698D01*
X111191302Y-82909961D01*
X110945853Y-82745958D01*
X110673125Y-82632990D01*
X110383599Y-82575400D01*
X110088401Y-82575400D01*
X109798875Y-82632990D01*
X109526147Y-82745958D01*
X109280698Y-82909961D01*
X109071961Y-83118698D01*
X108907958Y-83364147D01*
X108794990Y-83636875D01*
X108737400Y-83926401D01*
X108712000Y-83926401D01*
X108712000Y-75880630D01*
X109479385Y-75113245D01*
X109707401Y-75158600D01*
X110002599Y-75158600D01*
X110292125Y-75101010D01*
X110564853Y-74988042D01*
X110810302Y-74824039D01*
X111019039Y-74615302D01*
X111183042Y-74369853D01*
X111296010Y-74097125D01*
X111353600Y-73807599D01*
X111353600Y-73512401D01*
X111296010Y-73222875D01*
X111183042Y-72950147D01*
X111019039Y-72704698D01*
X110810302Y-72495961D01*
X110564853Y-72331958D01*
X110292125Y-72218990D01*
X110002599Y-72161400D01*
X109707401Y-72161400D01*
X109417875Y-72218990D01*
X109145147Y-72331958D01*
X108899698Y-72495961D01*
X108764600Y-72631059D01*
X108756010Y-72587875D01*
X108643042Y-72315147D01*
X108479039Y-72069698D01*
X108270302Y-71860961D01*
X108024853Y-71696958D01*
X107752125Y-71583990D01*
X107462599Y-71526400D01*
X107167401Y-71526400D01*
X106877875Y-71583990D01*
X106832013Y-71602987D01*
X106851010Y-71557125D01*
X106908600Y-71267599D01*
X106908600Y-70972401D01*
X106851010Y-70682875D01*
X106738042Y-70410147D01*
X106574039Y-70164698D01*
X106365302Y-69955961D01*
X106119853Y-69791958D01*
X105847125Y-69678990D01*
X105557599Y-69621400D01*
X105262401Y-69621400D01*
X104972875Y-69678990D01*
X104700147Y-69791958D01*
X104454698Y-69955961D01*
X104245961Y-70164698D01*
X104133315Y-70333285D01*
X104110706Y-70290986D01*
X103925134Y-70064866D01*
X103699014Y-69879294D01*
X103644209Y-69850000D01*
X103699014Y-69820706D01*
X103925134Y-69635134D01*
X104110706Y-69409014D01*
X104248599Y-69151034D01*
X104333513Y-68871111D01*
X104362185Y-68580000D01*
X104333513Y-68288889D01*
X104267720Y-68072000D01*
X115786577Y-68072000D01*
X115824000Y-68075686D01*
X115861423Y-68072000D01*
X115861426Y-68072000D01*
X115973378Y-68060974D01*
X116117015Y-68017402D01*
X116249392Y-67946645D01*
X116365422Y-67851422D01*
X116389284Y-67822347D01*
X117225353Y-66986278D01*
X117254422Y-66962422D01*
X117338443Y-66860042D01*
X117349645Y-66846393D01*
X117420401Y-66714016D01*
X117420402Y-66714015D01*
X117460859Y-66580647D01*
X117668302Y-66442039D01*
X117877039Y-66233302D01*
X118041042Y-65987853D01*
X118154010Y-65715125D01*
X118211600Y-65425599D01*
X118211600Y-65130401D01*
X118154010Y-64840875D01*
X118072047Y-64643000D01*
X122716555Y-64643000D01*
X130216077Y-72142523D01*
X130251867Y-72186133D01*
X130425911Y-72328968D01*
X130537017Y-72388355D01*
X130624476Y-72435103D01*
X130833795Y-72498599D01*
X130839933Y-72500461D01*
X131007854Y-72517000D01*
X131007861Y-72517000D01*
X131064000Y-72522529D01*
X131120139Y-72517000D01*
X135001000Y-72517000D01*
X135001001Y-76107553D01*
X134502155Y-76606400D01*
X134472401Y-76606400D01*
X134182875Y-76663990D01*
X133910147Y-76776958D01*
X133664698Y-76940961D01*
X133455961Y-77149698D01*
X133291958Y-77395147D01*
X133178990Y-77667875D01*
X133121400Y-77957401D01*
X133121400Y-78252599D01*
X133178990Y-78542125D01*
X133291958Y-78814853D01*
X133455961Y-79060302D01*
X133664698Y-79269039D01*
X133910147Y-79433042D01*
X134182875Y-79546010D01*
X134472401Y-79603600D01*
X134767599Y-79603600D01*
X135057125Y-79546010D01*
X135329853Y-79433042D01*
X135575302Y-79269039D01*
X135784039Y-79060302D01*
X135948042Y-78814853D01*
X136061010Y-78542125D01*
X136118600Y-78252599D01*
X136118600Y-78222845D01*
X136912523Y-77428923D01*
X136956133Y-77393133D01*
X137098968Y-77219089D01*
X137205103Y-77020523D01*
X137270461Y-76805067D01*
X137287000Y-76637146D01*
X137287000Y-76637140D01*
X137292529Y-76581001D01*
X137287000Y-76524862D01*
X137287000Y-72350341D01*
X137308039Y-72329302D01*
X137472042Y-72083853D01*
X137585010Y-71811125D01*
X137642600Y-71521599D01*
X137642600Y-71226401D01*
X137585010Y-70936875D01*
X137472042Y-70664147D01*
X137308039Y-70418698D01*
X137099302Y-70209961D01*
X136853853Y-70045958D01*
X136581125Y-69932990D01*
X136291599Y-69875400D01*
X135996401Y-69875400D01*
X135706875Y-69932990D01*
X135434147Y-70045958D01*
X135188698Y-70209961D01*
X135167659Y-70231000D01*
X131537446Y-70231000D01*
X125934804Y-64628358D01*
X125954067Y-64626461D01*
X126169523Y-64561103D01*
X126368089Y-64454968D01*
X126542133Y-64312133D01*
X126577927Y-64268518D01*
X127768524Y-63077922D01*
X127812133Y-63042133D01*
X127954968Y-62868089D01*
X128061103Y-62669523D01*
X128126461Y-62454067D01*
X128143000Y-62286146D01*
X128143000Y-62286140D01*
X128148529Y-62230001D01*
X128143000Y-62173862D01*
X128143000Y-59766200D01*
X133042128Y-59766200D01*
X133042128Y-61645800D01*
X133054388Y-61770282D01*
X133090698Y-61889980D01*
X133149663Y-62000294D01*
X133229015Y-62096985D01*
X133325706Y-62176337D01*
X133436020Y-62235302D01*
X133555718Y-62271612D01*
X133680200Y-62283872D01*
X135559800Y-62283872D01*
X135684282Y-62271612D01*
X135803980Y-62235302D01*
X135914294Y-62176337D01*
X136010985Y-62096985D01*
X136037533Y-62064637D01*
X136156123Y-62183227D01*
X136414052Y-62355570D01*
X136700648Y-62474282D01*
X137004896Y-62534800D01*
X137315104Y-62534800D01*
X137619352Y-62474282D01*
X137905948Y-62355570D01*
X138163877Y-62183227D01*
X138383227Y-61963877D01*
X138522435Y-61755539D01*
X138696123Y-61929227D01*
X138954052Y-62101570D01*
X139240648Y-62220282D01*
X139544896Y-62280800D01*
X139855104Y-62280800D01*
X140159352Y-62220282D01*
X140445948Y-62101570D01*
X140703877Y-61929227D01*
X140877565Y-61755539D01*
X141016773Y-61963877D01*
X141236123Y-62183227D01*
X141494052Y-62355570D01*
X141780648Y-62474282D01*
X142084896Y-62534800D01*
X142395104Y-62534800D01*
X142699352Y-62474282D01*
X142985948Y-62355570D01*
X143243877Y-62183227D01*
X143463227Y-61963877D01*
X143635570Y-61705948D01*
X143754282Y-61419352D01*
X143814800Y-61115104D01*
X143814800Y-60960000D01*
X149637815Y-60960000D01*
X149666487Y-61251111D01*
X149751401Y-61531034D01*
X149889294Y-61789014D01*
X150074866Y-62015134D01*
X150300986Y-62200706D01*
X150355791Y-62230000D01*
X150300986Y-62259294D01*
X150074866Y-62444866D01*
X149889294Y-62670986D01*
X149751401Y-62928966D01*
X149666487Y-63208889D01*
X149637815Y-63500000D01*
X149666487Y-63791111D01*
X149751401Y-64071034D01*
X149889294Y-64329014D01*
X150074866Y-64555134D01*
X150300986Y-64740706D01*
X150558966Y-64878599D01*
X150838889Y-64963513D01*
X151057050Y-64985000D01*
X151202950Y-64985000D01*
X151421111Y-64963513D01*
X151701034Y-64878599D01*
X151959014Y-64740706D01*
X152185134Y-64555134D01*
X152370706Y-64329014D01*
X152400000Y-64274209D01*
X152429294Y-64329014D01*
X152614866Y-64555134D01*
X152840986Y-64740706D01*
X153098966Y-64878599D01*
X153378889Y-64963513D01*
X153597050Y-64985000D01*
X153742950Y-64985000D01*
X153961111Y-64963513D01*
X154241034Y-64878599D01*
X154499014Y-64740706D01*
X154725134Y-64555134D01*
X154910706Y-64329014D01*
X155048599Y-64071034D01*
X155133513Y-63791111D01*
X155162185Y-63500000D01*
X155133513Y-63208889D01*
X155048599Y-62928966D01*
X154910706Y-62670986D01*
X154725134Y-62444866D01*
X154499014Y-62259294D01*
X154444209Y-62230000D01*
X154499014Y-62200706D01*
X154725134Y-62015134D01*
X154910706Y-61789014D01*
X155048599Y-61531034D01*
X155133513Y-61251111D01*
X155162185Y-60960000D01*
X155133513Y-60668889D01*
X155048599Y-60388966D01*
X154910706Y-60130986D01*
X154725134Y-59904866D01*
X154499014Y-59719294D01*
X154434477Y-59684799D01*
X154551355Y-59615178D01*
X154767588Y-59420269D01*
X154941641Y-59186920D01*
X155066825Y-58924099D01*
X155111476Y-58776890D01*
X154990155Y-58547000D01*
X153797000Y-58547000D01*
X153797000Y-58567000D01*
X153543000Y-58567000D01*
X153543000Y-58547000D01*
X151257000Y-58547000D01*
X151257000Y-58567000D01*
X151003000Y-58567000D01*
X151003000Y-58547000D01*
X149809845Y-58547000D01*
X149688524Y-58776890D01*
X149733175Y-58924099D01*
X149858359Y-59186920D01*
X150032412Y-59420269D01*
X150248645Y-59615178D01*
X150365523Y-59684799D01*
X150300986Y-59719294D01*
X150074866Y-59904866D01*
X149889294Y-60130986D01*
X149751401Y-60388966D01*
X149666487Y-60668889D01*
X149637815Y-60960000D01*
X143814800Y-60960000D01*
X143814800Y-60804896D01*
X143754282Y-60500648D01*
X143635570Y-60214052D01*
X143463227Y-59956123D01*
X143243877Y-59736773D01*
X142985948Y-59564430D01*
X142699352Y-59445718D01*
X142395104Y-59385200D01*
X142084896Y-59385200D01*
X141780648Y-59445718D01*
X141494052Y-59564430D01*
X141236123Y-59736773D01*
X141062435Y-59910461D01*
X140923227Y-59702123D01*
X140703877Y-59482773D01*
X140445948Y-59310430D01*
X140159352Y-59191718D01*
X139855104Y-59131200D01*
X139544896Y-59131200D01*
X139240648Y-59191718D01*
X138954052Y-59310430D01*
X138696123Y-59482773D01*
X138476773Y-59702123D01*
X138337565Y-59910461D01*
X138163877Y-59736773D01*
X137905948Y-59564430D01*
X137619352Y-59445718D01*
X137315104Y-59385200D01*
X137004896Y-59385200D01*
X136700648Y-59445718D01*
X136414052Y-59564430D01*
X136192575Y-59712417D01*
X136185612Y-59641718D01*
X136149302Y-59522020D01*
X136090337Y-59411706D01*
X136010985Y-59315015D01*
X135914294Y-59235663D01*
X135803980Y-59176698D01*
X135684282Y-59140388D01*
X135559800Y-59128128D01*
X133680200Y-59128128D01*
X133555718Y-59140388D01*
X133436020Y-59176698D01*
X133325706Y-59235663D01*
X133229015Y-59315015D01*
X133149663Y-59411706D01*
X133090698Y-59522020D01*
X133054388Y-59641718D01*
X133042128Y-59766200D01*
X128143000Y-59766200D01*
X128143000Y-57618341D01*
X128164039Y-57597302D01*
X128328042Y-57351853D01*
X128441010Y-57079125D01*
X128498600Y-56789599D01*
X128498600Y-56759845D01*
X130228445Y-55030000D01*
X149641928Y-55030000D01*
X149641928Y-56730000D01*
X149654188Y-56854482D01*
X149690498Y-56974180D01*
X149749463Y-57084494D01*
X149828815Y-57181185D01*
X149925506Y-57260537D01*
X150035820Y-57319502D01*
X150116466Y-57343966D01*
X150032412Y-57419731D01*
X149858359Y-57653080D01*
X149733175Y-57915901D01*
X149688524Y-58063110D01*
X149809845Y-58293000D01*
X151003000Y-58293000D01*
X151003000Y-58273000D01*
X151257000Y-58273000D01*
X151257000Y-58293000D01*
X153543000Y-58293000D01*
X153543000Y-58273000D01*
X153797000Y-58273000D01*
X153797000Y-58293000D01*
X154990155Y-58293000D01*
X155111476Y-58063110D01*
X155066825Y-57915901D01*
X154941641Y-57653080D01*
X154767588Y-57419731D01*
X154551355Y-57224822D01*
X154434477Y-57155201D01*
X154499014Y-57120706D01*
X154725134Y-56935134D01*
X154910706Y-56709014D01*
X155048599Y-56451034D01*
X155133513Y-56171111D01*
X155162185Y-55880000D01*
X155133513Y-55588889D01*
X155048599Y-55308966D01*
X154910706Y-55050986D01*
X154725134Y-54824866D01*
X154499014Y-54639294D01*
X154241034Y-54501401D01*
X153961111Y-54416487D01*
X153742950Y-54395000D01*
X153597050Y-54395000D01*
X153378889Y-54416487D01*
X153098966Y-54501401D01*
X152840986Y-54639294D01*
X152614866Y-54824866D01*
X152590393Y-54854687D01*
X152569502Y-54785820D01*
X152510537Y-54675506D01*
X152431185Y-54578815D01*
X152334494Y-54499463D01*
X152224180Y-54440498D01*
X152104482Y-54404188D01*
X151980000Y-54391928D01*
X150280000Y-54391928D01*
X150155518Y-54404188D01*
X150035820Y-54440498D01*
X149925506Y-54499463D01*
X149828815Y-54578815D01*
X149749463Y-54675506D01*
X149690498Y-54785820D01*
X149654188Y-54905518D01*
X149641928Y-55030000D01*
X130228445Y-55030000D01*
X130775446Y-54483000D01*
X140913861Y-54483000D01*
X140970000Y-54488529D01*
X141026139Y-54483000D01*
X141026146Y-54483000D01*
X141194067Y-54466461D01*
X141409523Y-54401103D01*
X141608089Y-54294968D01*
X141782133Y-54152133D01*
X141817927Y-54108518D01*
X144278524Y-51647922D01*
X144322133Y-51612133D01*
X144464968Y-51438089D01*
X144571103Y-51239523D01*
X144636461Y-51024067D01*
X144653000Y-50856146D01*
X144653000Y-50856140D01*
X144658529Y-50800001D01*
X144653000Y-50743862D01*
X144653000Y-43248104D01*
X144733227Y-43167877D01*
X144872435Y-42959539D01*
X145046123Y-43133227D01*
X145304052Y-43305570D01*
X145590648Y-43424282D01*
X145894896Y-43484800D01*
X146205104Y-43484800D01*
X146509352Y-43424282D01*
X146795948Y-43305570D01*
X147053877Y-43133227D01*
X147273227Y-42913877D01*
X147445570Y-42655948D01*
X147564282Y-42369352D01*
X147624800Y-42065104D01*
X147624800Y-41754896D01*
X147564282Y-41450648D01*
X147445570Y-41164052D01*
X147273227Y-40906123D01*
X147053877Y-40686773D01*
X146795948Y-40514430D01*
X146509352Y-40395718D01*
X146205104Y-40335200D01*
X145894896Y-40335200D01*
X145590648Y-40395718D01*
X145304052Y-40514430D01*
X145046123Y-40686773D01*
X144826773Y-40906123D01*
X144687565Y-41114461D01*
X144513877Y-40940773D01*
X144255948Y-40768430D01*
X143969352Y-40649718D01*
X143665104Y-40589200D01*
X143354896Y-40589200D01*
X143050648Y-40649718D01*
X142764052Y-40768430D01*
X142506123Y-40940773D01*
X142334848Y-41112048D01*
X142320723Y-41085623D01*
X142062476Y-40997129D01*
X141149605Y-41910000D01*
X142062476Y-42822871D01*
X142076387Y-42818104D01*
X142114430Y-42909948D01*
X142286773Y-43167877D01*
X142367001Y-43248105D01*
X142367000Y-50326554D01*
X140496555Y-52197000D01*
X130358138Y-52197000D01*
X130301999Y-52191471D01*
X130245860Y-52197000D01*
X130245854Y-52197000D01*
X130100600Y-52211306D01*
X130077932Y-52213539D01*
X130012574Y-52233365D01*
X129862477Y-52278897D01*
X129663911Y-52385032D01*
X129489867Y-52527867D01*
X129454077Y-52571477D01*
X126882155Y-55143400D01*
X126852401Y-55143400D01*
X126562875Y-55200990D01*
X126290147Y-55313958D01*
X126044698Y-55477961D01*
X125835961Y-55686698D01*
X125671958Y-55932147D01*
X125558990Y-56204875D01*
X125501400Y-56494401D01*
X125501400Y-56789599D01*
X125558990Y-57079125D01*
X125671958Y-57351853D01*
X125835961Y-57597302D01*
X125857001Y-57618342D01*
X125857000Y-61756554D01*
X125256555Y-62357000D01*
X123246139Y-62357000D01*
X123190000Y-62351471D01*
X123133861Y-62357000D01*
X121499341Y-62357000D01*
X121560039Y-62296302D01*
X121724042Y-62050853D01*
X121837010Y-61778125D01*
X121894600Y-61488599D01*
X121894600Y-61193401D01*
X121837010Y-60903875D01*
X121724042Y-60631147D01*
X121560039Y-60385698D01*
X121351302Y-60176961D01*
X121158000Y-60047801D01*
X121158000Y-56449630D01*
X124775631Y-52832000D01*
X127343577Y-52832000D01*
X127381000Y-52835686D01*
X127418423Y-52832000D01*
X127418426Y-52832000D01*
X127530378Y-52820974D01*
X127674015Y-52777402D01*
X127806392Y-52706645D01*
X127922422Y-52611422D01*
X127946284Y-52582346D01*
X129347630Y-51181000D01*
X134963577Y-51181000D01*
X135001000Y-51184686D01*
X135038423Y-51181000D01*
X135038426Y-51181000D01*
X135150378Y-51169974D01*
X135294015Y-51126402D01*
X135426392Y-51055645D01*
X135542422Y-50960422D01*
X135566284Y-50931346D01*
X136713631Y-49784000D01*
X137136801Y-49784000D01*
X137265961Y-49977302D01*
X137474698Y-50186039D01*
X137720147Y-50350042D01*
X137992875Y-50463010D01*
X138282401Y-50520600D01*
X138577599Y-50520600D01*
X138867125Y-50463010D01*
X139139853Y-50350042D01*
X139385302Y-50186039D01*
X139594039Y-49977302D01*
X139758042Y-49731853D01*
X139871010Y-49459125D01*
X139928600Y-49169599D01*
X139928600Y-48874401D01*
X139871010Y-48584875D01*
X139758042Y-48312147D01*
X139594039Y-48066698D01*
X139385302Y-47857961D01*
X139139853Y-47693958D01*
X138867125Y-47580990D01*
X138577599Y-47523400D01*
X138282401Y-47523400D01*
X137992875Y-47580990D01*
X137720147Y-47693958D01*
X137474698Y-47857961D01*
X137265961Y-48066698D01*
X137136801Y-48260000D01*
X136435422Y-48260000D01*
X136397999Y-48256314D01*
X136360576Y-48260000D01*
X136360574Y-48260000D01*
X136248622Y-48271026D01*
X136104985Y-48314598D01*
X135972608Y-48385355D01*
X135856578Y-48480578D01*
X135832721Y-48509648D01*
X134685370Y-49657000D01*
X129069423Y-49657000D01*
X129032000Y-49653314D01*
X128994577Y-49657000D01*
X128994574Y-49657000D01*
X128882622Y-49668026D01*
X128738985Y-49711598D01*
X128705676Y-49729402D01*
X128606607Y-49782355D01*
X128571327Y-49811309D01*
X128490578Y-49877578D01*
X128466716Y-49906654D01*
X127065370Y-51308000D01*
X124497423Y-51308000D01*
X124460000Y-51304314D01*
X124422577Y-51308000D01*
X124422574Y-51308000D01*
X124310622Y-51319026D01*
X124166985Y-51362598D01*
X124105364Y-51395535D01*
X124034607Y-51433355D01*
X123951904Y-51501228D01*
X123918578Y-51528578D01*
X123894721Y-51557648D01*
X119883649Y-55568721D01*
X119854579Y-55592578D01*
X119830722Y-55621648D01*
X119830721Y-55621649D01*
X119759355Y-55708608D01*
X119688599Y-55840985D01*
X119645027Y-55984622D01*
X119630314Y-56134000D01*
X119634001Y-56171433D01*
X119634000Y-60047801D01*
X119440698Y-60176961D01*
X119409792Y-60207867D01*
X119274039Y-60004698D01*
X119065302Y-59795961D01*
X118872000Y-59666801D01*
X118872000Y-51623630D01*
X123321347Y-47174283D01*
X123350422Y-47150422D01*
X123410857Y-47076781D01*
X123445645Y-47034393D01*
X123516401Y-46902016D01*
X123516402Y-46902015D01*
X123559974Y-46758378D01*
X123571000Y-46646426D01*
X123571000Y-46646423D01*
X123574686Y-46609000D01*
X123571000Y-46571577D01*
X123571000Y-43495630D01*
X124394631Y-42672000D01*
X124510168Y-42672000D01*
X124531068Y-42711101D01*
X124710392Y-42929608D01*
X124928899Y-43108932D01*
X125066682Y-43182579D01*
X124874869Y-43297615D01*
X124666481Y-43486586D01*
X124498963Y-43712580D01*
X124378754Y-43966913D01*
X124338096Y-44100961D01*
X124460085Y-44323000D01*
X125603000Y-44323000D01*
X125603000Y-44303000D01*
X125857000Y-44303000D01*
X125857000Y-44323000D01*
X125877000Y-44323000D01*
X125877000Y-44577000D01*
X125857000Y-44577000D01*
X125857000Y-44597000D01*
X125603000Y-44597000D01*
X125603000Y-44577000D01*
X124460085Y-44577000D01*
X124338096Y-44799039D01*
X124378754Y-44933087D01*
X124498963Y-45187420D01*
X124666481Y-45413414D01*
X124874869Y-45602385D01*
X125066682Y-45717421D01*
X124928899Y-45791068D01*
X124710392Y-45970392D01*
X124531068Y-46188899D01*
X124397818Y-46438192D01*
X124315764Y-46708691D01*
X124288057Y-46990000D01*
X124315764Y-47271309D01*
X124397818Y-47541808D01*
X124531068Y-47791101D01*
X124710392Y-48009608D01*
X124928899Y-48188932D01*
X125061858Y-48260000D01*
X124928899Y-48331068D01*
X124710392Y-48510392D01*
X124531068Y-48728899D01*
X124397818Y-48978192D01*
X124315764Y-49248691D01*
X124288057Y-49530000D01*
X124315764Y-49811309D01*
X124397818Y-50081808D01*
X124531068Y-50331101D01*
X124710392Y-50549608D01*
X124928899Y-50728932D01*
X125178192Y-50862182D01*
X125448691Y-50944236D01*
X125659508Y-50965000D01*
X125800492Y-50965000D01*
X126011309Y-50944236D01*
X126281808Y-50862182D01*
X126531101Y-50728932D01*
X126749608Y-50549608D01*
X126928932Y-50331101D01*
X127062182Y-50081808D01*
X127144236Y-49811309D01*
X127171943Y-49530000D01*
X127144236Y-49248691D01*
X127062182Y-48978192D01*
X126928932Y-48728899D01*
X126749608Y-48510392D01*
X126531101Y-48331068D01*
X126398142Y-48260000D01*
X126531101Y-48188932D01*
X126749608Y-48009608D01*
X126928932Y-47791101D01*
X127062182Y-47541808D01*
X127144236Y-47271309D01*
X127171943Y-46990000D01*
X127144236Y-46708691D01*
X127062182Y-46438192D01*
X126928932Y-46188899D01*
X126749608Y-45970392D01*
X126531101Y-45791068D01*
X126393318Y-45717421D01*
X126585131Y-45602385D01*
X126793519Y-45413414D01*
X126961037Y-45187420D01*
X127024638Y-45052856D01*
X127068958Y-45159853D01*
X127232961Y-45405302D01*
X127441698Y-45614039D01*
X127687147Y-45778042D01*
X127959875Y-45891010D01*
X128249401Y-45948600D01*
X128544599Y-45948600D01*
X128772615Y-45903245D01*
X130117721Y-47248352D01*
X130141578Y-47277422D01*
X130257608Y-47372645D01*
X130389985Y-47443402D01*
X130533622Y-47486974D01*
X130645574Y-47498000D01*
X130645576Y-47498000D01*
X130682999Y-47501686D01*
X130720422Y-47498000D01*
X132056801Y-47498000D01*
X132185961Y-47691302D01*
X132394698Y-47900039D01*
X132640147Y-48064042D01*
X132912875Y-48177010D01*
X133202401Y-48234600D01*
X133497599Y-48234600D01*
X133787125Y-48177010D01*
X134059853Y-48064042D01*
X134305302Y-47900039D01*
X134514039Y-47691302D01*
X134678042Y-47445853D01*
X134791010Y-47173125D01*
X134848600Y-46883599D01*
X134848600Y-46588401D01*
X134791010Y-46298875D01*
X134678042Y-46026147D01*
X134514039Y-45780698D01*
X134305302Y-45571961D01*
X134059853Y-45407958D01*
X133787125Y-45294990D01*
X133497599Y-45237400D01*
X133202401Y-45237400D01*
X132912875Y-45294990D01*
X132640147Y-45407958D01*
X132394698Y-45571961D01*
X132185961Y-45780698D01*
X132056801Y-45974000D01*
X130998631Y-45974000D01*
X129850245Y-44825615D01*
X129895600Y-44597599D01*
X129895600Y-44302401D01*
X129838010Y-44012875D01*
X129725042Y-43740147D01*
X129561039Y-43494698D01*
X129352302Y-43285961D01*
X129106853Y-43121958D01*
X128834125Y-43008990D01*
X128544599Y-42951400D01*
X128249401Y-42951400D01*
X127959875Y-43008990D01*
X127687147Y-43121958D01*
X127441698Y-43285961D01*
X127232961Y-43494698D01*
X127068958Y-43740147D01*
X127024638Y-43847144D01*
X126961037Y-43712580D01*
X126793519Y-43486586D01*
X126585131Y-43297615D01*
X126393318Y-43182579D01*
X126531101Y-43108932D01*
X126749608Y-42929608D01*
X126928932Y-42711101D01*
X127062182Y-42461808D01*
X127144236Y-42191309D01*
X127171943Y-41910000D01*
X127144236Y-41628691D01*
X127062182Y-41358192D01*
X126928932Y-41108899D01*
X126815105Y-40970200D01*
X129232128Y-40970200D01*
X129232128Y-42849800D01*
X129244388Y-42974282D01*
X129280698Y-43093980D01*
X129339663Y-43204294D01*
X129419015Y-43300985D01*
X129515706Y-43380337D01*
X129626020Y-43439302D01*
X129745718Y-43475612D01*
X129870200Y-43487872D01*
X131749800Y-43487872D01*
X131874282Y-43475612D01*
X131993980Y-43439302D01*
X132104294Y-43380337D01*
X132200985Y-43300985D01*
X132227533Y-43268637D01*
X132346123Y-43387227D01*
X132604052Y-43559570D01*
X132890648Y-43678282D01*
X133194896Y-43738800D01*
X133505104Y-43738800D01*
X133809352Y-43678282D01*
X134095948Y-43559570D01*
X134353877Y-43387227D01*
X134573227Y-43167877D01*
X134712435Y-42959539D01*
X134886123Y-43133227D01*
X135144052Y-43305570D01*
X135430648Y-43424282D01*
X135734896Y-43484800D01*
X136045104Y-43484800D01*
X136349352Y-43424282D01*
X136635948Y-43305570D01*
X136893877Y-43133227D01*
X137067565Y-42959539D01*
X137206773Y-43167877D01*
X137426123Y-43387227D01*
X137684052Y-43559570D01*
X137970648Y-43678282D01*
X138274896Y-43738800D01*
X138585104Y-43738800D01*
X138889352Y-43678282D01*
X139175948Y-43559570D01*
X139433877Y-43387227D01*
X139653227Y-43167877D01*
X139763744Y-43002476D01*
X140057129Y-43002476D01*
X140145623Y-43260723D01*
X140424976Y-43395597D01*
X140725275Y-43473381D01*
X141034977Y-43491084D01*
X141342184Y-43448027D01*
X141635086Y-43345865D01*
X141794377Y-43260723D01*
X141882871Y-43002476D01*
X140970000Y-42089605D01*
X140057129Y-43002476D01*
X139763744Y-43002476D01*
X139825570Y-42909948D01*
X139863613Y-42818104D01*
X139877524Y-42822871D01*
X140790395Y-41910000D01*
X139877524Y-40997129D01*
X139619277Y-41085623D01*
X139606074Y-41112970D01*
X139433877Y-40940773D01*
X139249423Y-40817524D01*
X140057129Y-40817524D01*
X140970000Y-41730395D01*
X141882871Y-40817524D01*
X141794377Y-40559277D01*
X141515024Y-40424403D01*
X141214725Y-40346619D01*
X140905023Y-40328916D01*
X140597816Y-40371973D01*
X140304914Y-40474135D01*
X140145623Y-40559277D01*
X140057129Y-40817524D01*
X139249423Y-40817524D01*
X139175948Y-40768430D01*
X138889352Y-40649718D01*
X138585104Y-40589200D01*
X138274896Y-40589200D01*
X137970648Y-40649718D01*
X137684052Y-40768430D01*
X137426123Y-40940773D01*
X137252435Y-41114461D01*
X137113227Y-40906123D01*
X136893877Y-40686773D01*
X136635948Y-40514430D01*
X136349352Y-40395718D01*
X136045104Y-40335200D01*
X135734896Y-40335200D01*
X135430648Y-40395718D01*
X135144052Y-40514430D01*
X134886123Y-40686773D01*
X134666773Y-40906123D01*
X134527565Y-41114461D01*
X134353877Y-40940773D01*
X134095948Y-40768430D01*
X133809352Y-40649718D01*
X133505104Y-40589200D01*
X133194896Y-40589200D01*
X132890648Y-40649718D01*
X132604052Y-40768430D01*
X132382575Y-40916417D01*
X132375612Y-40845718D01*
X132339302Y-40726020D01*
X132280337Y-40615706D01*
X132200985Y-40519015D01*
X132104294Y-40439663D01*
X131993980Y-40380698D01*
X131874282Y-40344388D01*
X131749800Y-40332128D01*
X129870200Y-40332128D01*
X129745718Y-40344388D01*
X129626020Y-40380698D01*
X129515706Y-40439663D01*
X129419015Y-40519015D01*
X129339663Y-40615706D01*
X129280698Y-40726020D01*
X129244388Y-40845718D01*
X129232128Y-40970200D01*
X126815105Y-40970200D01*
X126749608Y-40890392D01*
X126531101Y-40711068D01*
X126281808Y-40577818D01*
X126011309Y-40495764D01*
X125800492Y-40475000D01*
X125659508Y-40475000D01*
X125448691Y-40495764D01*
X125178192Y-40577818D01*
X124928899Y-40711068D01*
X124710392Y-40890392D01*
X124531068Y-41108899D01*
X124510168Y-41148000D01*
X124116422Y-41148000D01*
X124078999Y-41144314D01*
X124041576Y-41148000D01*
X124041574Y-41148000D01*
X123929622Y-41159026D01*
X123785985Y-41202598D01*
X123653608Y-41273355D01*
X123537578Y-41368578D01*
X123513721Y-41397648D01*
X122296649Y-42614721D01*
X122267579Y-42638578D01*
X122243722Y-42667648D01*
X122243721Y-42667649D01*
X122172355Y-42754608D01*
X122101599Y-42886985D01*
X122058027Y-43030622D01*
X122043314Y-43180000D01*
X122047001Y-43217433D01*
X122047000Y-46293370D01*
X117597649Y-50742721D01*
X117568579Y-50766578D01*
X117544722Y-50795648D01*
X117544721Y-50795649D01*
X117473355Y-50882608D01*
X117402599Y-51014985D01*
X117359027Y-51158622D01*
X117344314Y-51308000D01*
X117348001Y-51345433D01*
X117348000Y-59666801D01*
X117154698Y-59795961D01*
X116945961Y-60004698D01*
X116781958Y-60250147D01*
X116668990Y-60522875D01*
X116611400Y-60812401D01*
X116611400Y-61107599D01*
X116668990Y-61397125D01*
X116781958Y-61669853D01*
X116945961Y-61915302D01*
X117154698Y-62124039D01*
X117400147Y-62288042D01*
X117566626Y-62357000D01*
X112959139Y-62357000D01*
X112903000Y-62351471D01*
X112846861Y-62357000D01*
X110963446Y-62357000D01*
X109093000Y-60486555D01*
X109093000Y-59833407D01*
X109154494Y-59800537D01*
X109251185Y-59721185D01*
X109330537Y-59624494D01*
X109389502Y-59514180D01*
X109412498Y-59438374D01*
X109608645Y-59615178D01*
X109858748Y-59764157D01*
X110133109Y-59861481D01*
X110363000Y-59740814D01*
X110363000Y-58547000D01*
X110617000Y-58547000D01*
X110617000Y-59740814D01*
X110846891Y-59861481D01*
X111121252Y-59764157D01*
X111371355Y-59615178D01*
X111587588Y-59420269D01*
X111761641Y-59186920D01*
X111886825Y-58924099D01*
X111931476Y-58776890D01*
X111810155Y-58547000D01*
X110617000Y-58547000D01*
X110363000Y-58547000D01*
X110343000Y-58547000D01*
X110343000Y-58293000D01*
X110363000Y-58293000D01*
X110363000Y-56007000D01*
X110617000Y-56007000D01*
X110617000Y-58293000D01*
X111810155Y-58293000D01*
X111931476Y-58063110D01*
X111886825Y-57915901D01*
X111761641Y-57653080D01*
X111587588Y-57419731D01*
X111371355Y-57224822D01*
X111245745Y-57150000D01*
X111371355Y-57075178D01*
X111587588Y-56880269D01*
X111761641Y-56646920D01*
X111886825Y-56384099D01*
X111931476Y-56236890D01*
X111810155Y-56007000D01*
X110617000Y-56007000D01*
X110363000Y-56007000D01*
X110343000Y-56007000D01*
X110343000Y-55753000D01*
X110363000Y-55753000D01*
X110363000Y-54559186D01*
X110617000Y-54559186D01*
X110617000Y-55753000D01*
X111810155Y-55753000D01*
X111931476Y-55523110D01*
X111886825Y-55375901D01*
X111761641Y-55113080D01*
X111587588Y-54879731D01*
X111371355Y-54684822D01*
X111121252Y-54535843D01*
X110846891Y-54438519D01*
X110617000Y-54559186D01*
X110363000Y-54559186D01*
X110133109Y-54438519D01*
X109858748Y-54535843D01*
X109608645Y-54684822D01*
X109392412Y-54879731D01*
X109221584Y-55108756D01*
X109190706Y-55050986D01*
X109093000Y-54931931D01*
X109093000Y-53319401D01*
X111658400Y-53319401D01*
X111658400Y-53614599D01*
X111715990Y-53904125D01*
X111828958Y-54176853D01*
X111992961Y-54422302D01*
X112201698Y-54631039D01*
X112447147Y-54795042D01*
X112719875Y-54908010D01*
X113009401Y-54965600D01*
X113304599Y-54965600D01*
X113594125Y-54908010D01*
X113866853Y-54795042D01*
X114054947Y-54669362D01*
X114040698Y-54696020D01*
X114004388Y-54815718D01*
X113992128Y-54940200D01*
X113992128Y-56819800D01*
X114004388Y-56944282D01*
X114040698Y-57063980D01*
X114099663Y-57174294D01*
X114179015Y-57270985D01*
X114275706Y-57350337D01*
X114386020Y-57409302D01*
X114505718Y-57445612D01*
X114630200Y-57457872D01*
X116509800Y-57457872D01*
X116634282Y-57445612D01*
X116753980Y-57409302D01*
X116864294Y-57350337D01*
X116960985Y-57270985D01*
X117040337Y-57174294D01*
X117099302Y-57063980D01*
X117135612Y-56944282D01*
X117147872Y-56819800D01*
X117147872Y-54940200D01*
X117135612Y-54815718D01*
X117099302Y-54696020D01*
X117040337Y-54585706D01*
X116960985Y-54489015D01*
X116864294Y-54409663D01*
X116753980Y-54350698D01*
X116634282Y-54314388D01*
X116509800Y-54302128D01*
X114630200Y-54302128D01*
X114505718Y-54314388D01*
X114386020Y-54350698D01*
X114359362Y-54364947D01*
X114485042Y-54176853D01*
X114598010Y-53904125D01*
X114655600Y-53614599D01*
X114655600Y-53319401D01*
X114598010Y-53029875D01*
X114485042Y-52757147D01*
X114321039Y-52511698D01*
X114112302Y-52302961D01*
X113919000Y-52173801D01*
X113919000Y-43368630D01*
X114233776Y-43053854D01*
X114239463Y-43064494D01*
X114318815Y-43161185D01*
X114415506Y-43240537D01*
X114525820Y-43299502D01*
X114645518Y-43335812D01*
X114663482Y-43337581D01*
X114550392Y-43430392D01*
X114371068Y-43648899D01*
X114237818Y-43898192D01*
X114155764Y-44168691D01*
X114128057Y-44450000D01*
X114155764Y-44731309D01*
X114237818Y-45001808D01*
X114371068Y-45251101D01*
X114550392Y-45469608D01*
X114768899Y-45648932D01*
X114901858Y-45720000D01*
X114768899Y-45791068D01*
X114550392Y-45970392D01*
X114371068Y-46188899D01*
X114237818Y-46438192D01*
X114155764Y-46708691D01*
X114128057Y-46990000D01*
X114155764Y-47271309D01*
X114237818Y-47541808D01*
X114371068Y-47791101D01*
X114550392Y-48009608D01*
X114768899Y-48188932D01*
X114901858Y-48260000D01*
X114768899Y-48331068D01*
X114550392Y-48510392D01*
X114371068Y-48728899D01*
X114237818Y-48978192D01*
X114155764Y-49248691D01*
X114128057Y-49530000D01*
X114155764Y-49811309D01*
X114237818Y-50081808D01*
X114371068Y-50331101D01*
X114550392Y-50549608D01*
X114768899Y-50728932D01*
X115018192Y-50862182D01*
X115288691Y-50944236D01*
X115499508Y-50965000D01*
X115640492Y-50965000D01*
X115851309Y-50944236D01*
X116121808Y-50862182D01*
X116371101Y-50728932D01*
X116589608Y-50549608D01*
X116768932Y-50331101D01*
X116789832Y-50292000D01*
X117183577Y-50292000D01*
X117221000Y-50295686D01*
X117258423Y-50292000D01*
X117258426Y-50292000D01*
X117370378Y-50280974D01*
X117514015Y-50237402D01*
X117646392Y-50166645D01*
X117762422Y-50071422D01*
X117786284Y-50042346D01*
X118368346Y-49460284D01*
X118397422Y-49436422D01*
X118489530Y-49324188D01*
X118492645Y-49320393D01*
X118563401Y-49188016D01*
X118563402Y-49188015D01*
X118606974Y-49044378D01*
X118618000Y-48932426D01*
X118618000Y-48932423D01*
X118621686Y-48895000D01*
X118618000Y-48857577D01*
X118618000Y-43330199D01*
X118811302Y-43201039D01*
X119020039Y-42992302D01*
X119184042Y-42746853D01*
X119297010Y-42474125D01*
X119354600Y-42184599D01*
X119354600Y-41889401D01*
X119297010Y-41599875D01*
X119184042Y-41327147D01*
X119020039Y-41081698D01*
X118811302Y-40872961D01*
X118565853Y-40708958D01*
X118293125Y-40595990D01*
X118003599Y-40538400D01*
X117708401Y-40538400D01*
X117418875Y-40595990D01*
X117146147Y-40708958D01*
X116946839Y-40842130D01*
X116900537Y-40755506D01*
X116821185Y-40658815D01*
X116724494Y-40579463D01*
X116614180Y-40520498D01*
X116494482Y-40484188D01*
X116370000Y-40471928D01*
X114770000Y-40471928D01*
X114645518Y-40484188D01*
X114525820Y-40520498D01*
X114415506Y-40579463D01*
X114318815Y-40658815D01*
X114239463Y-40755506D01*
X114180498Y-40865820D01*
X114144188Y-40985518D01*
X114131928Y-41110000D01*
X114131928Y-41164697D01*
X114006985Y-41202598D01*
X113874608Y-41273355D01*
X113758578Y-41368578D01*
X113734721Y-41397648D01*
X112644649Y-42487721D01*
X112615579Y-42511578D01*
X112591722Y-42540648D01*
X112591721Y-42540649D01*
X112520355Y-42627608D01*
X112449599Y-42759985D01*
X112406027Y-42903622D01*
X112391314Y-43053000D01*
X112395001Y-43090433D01*
X112395000Y-52173801D01*
X112201698Y-52302961D01*
X111992961Y-52511698D01*
X111828958Y-52757147D01*
X111715990Y-53029875D01*
X111658400Y-53319401D01*
X109093000Y-53319401D01*
X109093000Y-52213407D01*
X109154494Y-52180537D01*
X109251185Y-52101185D01*
X109330537Y-52004494D01*
X109389502Y-51894180D01*
X109413966Y-51813534D01*
X109489731Y-51897588D01*
X109723080Y-52071641D01*
X109985901Y-52196825D01*
X110133110Y-52241476D01*
X110363000Y-52120155D01*
X110363000Y-50927000D01*
X110617000Y-50927000D01*
X110617000Y-52120155D01*
X110846890Y-52241476D01*
X110994099Y-52196825D01*
X111256920Y-52071641D01*
X111490269Y-51897588D01*
X111685178Y-51681355D01*
X111834157Y-51431252D01*
X111931481Y-51156891D01*
X111810814Y-50927000D01*
X110617000Y-50927000D01*
X110363000Y-50927000D01*
X110343000Y-50927000D01*
X110343000Y-50673000D01*
X110363000Y-50673000D01*
X110363000Y-49479845D01*
X110617000Y-49479845D01*
X110617000Y-50673000D01*
X111810814Y-50673000D01*
X111931481Y-50443109D01*
X111834157Y-50168748D01*
X111685178Y-49918645D01*
X111490269Y-49702412D01*
X111256920Y-49528359D01*
X110994099Y-49403175D01*
X110846890Y-49358524D01*
X110617000Y-49479845D01*
X110363000Y-49479845D01*
X110133110Y-49358524D01*
X109985901Y-49403175D01*
X109723080Y-49528359D01*
X109489731Y-49702412D01*
X109413966Y-49786466D01*
X109389502Y-49705820D01*
X109330537Y-49595506D01*
X109251185Y-49498815D01*
X109154494Y-49419463D01*
X109044180Y-49360498D01*
X108924482Y-49324188D01*
X108800000Y-49311928D01*
X107100000Y-49311928D01*
X106975518Y-49324188D01*
X106855820Y-49360498D01*
X106745506Y-49419463D01*
X106648815Y-49498815D01*
X106569463Y-49595506D01*
X106510498Y-49705820D01*
X106474188Y-49825518D01*
X106461928Y-49950000D01*
X106461928Y-51650000D01*
X106474188Y-51774482D01*
X106510498Y-51894180D01*
X106569463Y-52004494D01*
X106648815Y-52101185D01*
X106745506Y-52180537D01*
X106807001Y-52213407D01*
X106807000Y-54553851D01*
X106807000Y-54737000D01*
X103818069Y-54737000D01*
X103699014Y-54639294D01*
X103441034Y-54501401D01*
X103161111Y-54416487D01*
X102942950Y-54395000D01*
X102797050Y-54395000D01*
X102578889Y-54416487D01*
X102298966Y-54501401D01*
X102040986Y-54639294D01*
X101921931Y-54737000D01*
X101743407Y-54737000D01*
X101710537Y-54675506D01*
X101631185Y-54578815D01*
X101534494Y-54499463D01*
X101424180Y-54440498D01*
X101304482Y-54404188D01*
X101180000Y-54391928D01*
X99480000Y-54391928D01*
X99355518Y-54404188D01*
X99235820Y-54440498D01*
X99125506Y-54499463D01*
X99028815Y-54578815D01*
X98949463Y-54675506D01*
X98890498Y-54785820D01*
X98854188Y-54905518D01*
X98841928Y-55030000D01*
X98841928Y-56730000D01*
X98854188Y-56854482D01*
X98890498Y-56974180D01*
X98949463Y-57084494D01*
X99028815Y-57181185D01*
X99125506Y-57260537D01*
X99235820Y-57319502D01*
X99316466Y-57343966D01*
X99232412Y-57419731D01*
X99058359Y-57653080D01*
X98933175Y-57915901D01*
X98888524Y-58063110D01*
X99009845Y-58293000D01*
X100203000Y-58293000D01*
X100203000Y-58273000D01*
X100457000Y-58273000D01*
X100457000Y-58293000D01*
X102743000Y-58293000D01*
X102743000Y-58273000D01*
X102997000Y-58273000D01*
X102997000Y-58293000D01*
X104190155Y-58293000D01*
X104311476Y-58063110D01*
X104266825Y-57915901D01*
X104141641Y-57653080D01*
X103967588Y-57419731D01*
X103751355Y-57224822D01*
X103634477Y-57155201D01*
X103699014Y-57120706D01*
X103818069Y-57023000D01*
X106776306Y-57023000D01*
X106745506Y-57039463D01*
X106648815Y-57118815D01*
X106569463Y-57215506D01*
X106510498Y-57325820D01*
X106474188Y-57445518D01*
X106461928Y-57570000D01*
X106461928Y-59270000D01*
X106474188Y-59394482D01*
X106510498Y-59514180D01*
X106569463Y-59624494D01*
X106648815Y-59721185D01*
X106745506Y-59800537D01*
X106807001Y-59833407D01*
X106807001Y-60903852D01*
X106801471Y-60960000D01*
X106823539Y-61184067D01*
X106844455Y-61253015D01*
X106888898Y-61399523D01*
X106995033Y-61598089D01*
X107024517Y-61634015D01*
X107099750Y-61725686D01*
X107137868Y-61772133D01*
X107181478Y-61807923D01*
X109642075Y-64268521D01*
X109677867Y-64312133D01*
X109851911Y-64454968D01*
X110050477Y-64561103D01*
X110200574Y-64606635D01*
X110265932Y-64626461D01*
X110288600Y-64628694D01*
X110433854Y-64643000D01*
X110433860Y-64643000D01*
X110489999Y-64648529D01*
X110546138Y-64643000D01*
X112429555Y-64643000D01*
X112674400Y-64887845D01*
X112674400Y-64917599D01*
X112731990Y-65207125D01*
X112844958Y-65479853D01*
X113008961Y-65725302D01*
X113217698Y-65934039D01*
X113463147Y-66098042D01*
X113735875Y-66211010D01*
X114025401Y-66268600D01*
X114320599Y-66268600D01*
X114610125Y-66211010D01*
X114882853Y-66098042D01*
X115128302Y-65934039D01*
X115294023Y-65768318D01*
X115384958Y-65987853D01*
X115548961Y-66233302D01*
X115686014Y-66370355D01*
X115508370Y-66548000D01*
X104267720Y-66548000D01*
X104333513Y-66331111D01*
X104362185Y-66040000D01*
X104333513Y-65748889D01*
X104248599Y-65468966D01*
X104110706Y-65210986D01*
X103925134Y-64984866D01*
X103699014Y-64799294D01*
X103644209Y-64770000D01*
X103699014Y-64740706D01*
X103925134Y-64555134D01*
X104110706Y-64329014D01*
X104248599Y-64071034D01*
X104333513Y-63791111D01*
X104362185Y-63500000D01*
X104333513Y-63208889D01*
X104248599Y-62928966D01*
X104110706Y-62670986D01*
X103925134Y-62444866D01*
X103699014Y-62259294D01*
X103644209Y-62230000D01*
X103699014Y-62200706D01*
X103925134Y-62015134D01*
X104110706Y-61789014D01*
X104248599Y-61531034D01*
X104333513Y-61251111D01*
X104362185Y-60960000D01*
X104333513Y-60668889D01*
X104248599Y-60388966D01*
X104110706Y-60130986D01*
X103925134Y-59904866D01*
X103699014Y-59719294D01*
X103634477Y-59684799D01*
X103751355Y-59615178D01*
X103967588Y-59420269D01*
X104141641Y-59186920D01*
X104266825Y-58924099D01*
X104311476Y-58776890D01*
X104190155Y-58547000D01*
X102997000Y-58547000D01*
X102997000Y-58567000D01*
X102743000Y-58567000D01*
X102743000Y-58547000D01*
X100457000Y-58547000D01*
X100457000Y-58567000D01*
X100203000Y-58567000D01*
X100203000Y-58547000D01*
X99009845Y-58547000D01*
X98888524Y-58776890D01*
X98933175Y-58924099D01*
X99058359Y-59186920D01*
X99232412Y-59420269D01*
X99448645Y-59615178D01*
X99565523Y-59684799D01*
X99500986Y-59719294D01*
X99274866Y-59904866D01*
X99089294Y-60130986D01*
X98951401Y-60388966D01*
X98866487Y-60668889D01*
X98837815Y-60960000D01*
X98450000Y-60960000D01*
X98450000Y-42969721D01*
X99465000Y-42969721D01*
X99465000Y-43390279D01*
X99547047Y-43802756D01*
X99707988Y-44191302D01*
X99941637Y-44540983D01*
X100239017Y-44838363D01*
X100588698Y-45072012D01*
X100977244Y-45232953D01*
X101389721Y-45315000D01*
X101810279Y-45315000D01*
X102222756Y-45232953D01*
X102611302Y-45072012D01*
X102960983Y-44838363D01*
X103258363Y-44540983D01*
X103492012Y-44191302D01*
X103652953Y-43802756D01*
X103735000Y-43390279D01*
X103735000Y-42969721D01*
X103652953Y-42557244D01*
X103492012Y-42168698D01*
X103258363Y-41819017D01*
X102960983Y-41521637D01*
X102611302Y-41287988D01*
X102222756Y-41127047D01*
X101810279Y-41045000D01*
X101389721Y-41045000D01*
X100977244Y-41127047D01*
X100588698Y-41287988D01*
X100239017Y-41521637D01*
X99941637Y-41819017D01*
X99707988Y-42168698D01*
X99547047Y-42557244D01*
X99465000Y-42969721D01*
X98450000Y-42969721D01*
X98450000Y-40030000D01*
X155550001Y-40030000D01*
X155550000Y-103480000D01*
M02*
